<svg xmlns="http://www.w3.org/2000/svg" width="48" height="48" fill="none" viewBox="0 0 48 48"><title>Admin Mentoring</title><path fill="#79B8FF" d="M15 26C14.45 26 14 25.55 14 25V15C14 14.45 13.55 14 13 14C12.45 14 12 14.45 12 15V26.0884C12.3822 27.4316 12.3661 29.0518 12.35 30.1V30.39C12.9 30.69 13.81 31.27 14.79 32.36C15.16 32.77 15.12 33.4 14.71 33.77C14.3 34.14 13.67 34.1 13.3 33.69C12.33 32.61 11.48 32.17 11.11 31.99C10.99 31.93 10.9 31.88 10.86 31.85C10.35 31.51 10.35 31.06 10.36 30.07L10.36 30.0625C10.3686 29.1691 10.3836 27.613 10.0669 26.5586C10.0523 26.521 10.0399 26.4822 10.03 26.4426C9.98591 26.3118 9.93615 26.1901 9.87997 26.08C8.72997 23.84 7.44997 23.13 6.54997 22.94C7.61997 25.55 8.01997 28.22 8.01997 30.03C8.01997 33.78 10.1 38.99 14.01 39.01C14.56 39.01 15.01 39.46 15.01 40.01C15.01 40.58 14.56 41.02 14.01 41.02C9.07997 41 6.01997 35.31 6.01997 30.04C6.01997 28.15 5.51997 25.18 4.12997 22.5C3.99997 22.25 3.97997 21.95 4.07997 21.68C4.17997 21.41 4.38997 21.2 4.65997 21.1C5.76223 20.6808 7.99125 20.6834 10 22.7916V15C10 13.35 11.35 12 13 12C13.3502 12 13.6869 12.0608 14 12.1724V11C14 9.35 15.35 8 17 8C18.65 8 20 9.35 20 11V11.1724C20.3131 11.0608 20.6498 11 21 11C21.55 11 22.1 11.15 22.57 11.44C23.04 11.73 23.19 12.34 22.9 12.82C22.61 13.29 22 13.44 21.52 13.15C21.36 13.05 21.18 13 21 13C20.45 13 20 13.45 20 14V20.03C20 20.58 19.55 21.03 19 21.03C18.45 21.03 18 20.58 18 20.03V11C18 10.45 17.55 10 17 10C16.45 10 16 10.45 16 11V25C16 25.55 15.55 26 15 26Z"/><path fill="#79B8FF" d="M14.47 46.87C14.64 46.98 14.84 47.04 15.03 47.04C15.35 47.04 15.66 46.88 15.86 46.59L19.71 40.89C20.16 40.74 20.92 40.42 21.65 39.85C22.08 39.51 22.16 38.89 21.82 38.45C21.48 38.02 20.86 37.94 20.42 38.28C19.68 38.85 18.83 39.08 18.83 39.08C18.59 39.14 18.39 39.29 18.25 39.49L14.2 45.48C13.89 45.94 14.01 46.56 14.47 46.87Z"/><path fill="#79B8FF" d="M6.06004 45.02C5.84004 45.02 5.62004 44.95 5.44004 44.81C5.01004 44.47 4.93004 43.84 5.27004 43.41L7.64004 40.41C7.98004 39.98 8.61004 39.9 9.04004 40.24C9.47004 40.58 9.55004 41.21 9.21004 41.64L6.84004 44.64C6.65004 44.89 6.36004 45.02 6.06004 45.02Z"/><path fill="#2188FF" d="M23.02 4C23.02 4.55 23.47 5 24.02 5C24.57 5 25.02 4.55 25.02 4V1C25.02 0.45 24.57 0 24.02 0C23.47 0 23.02 0.45 23.02 1V4Z"/><path fill="#2188FF" d="M29.32 5.75C29.51 5.94 29.77 6.04 30.02 6.04C30.28 6.04 30.54 5.94 30.73 5.74L32.72 3.72C33.11 3.33 33.1 2.7 32.71 2.31C32.32 1.92 31.69 1.92 31.3 2.32L29.31 4.34C28.92 4.73 28.93 5.36 29.32 5.75Z"/><path fill="#2188FF" d="M18.01 6.02001C17.75 6.02001 17.49 5.92001 17.3 5.72001L15.31 3.71001C14.92 3.32001 14.93 2.68001 15.32 2.30001C15.71 1.92001 16.35 1.91001 16.73 2.31001L18.72 4.32001C19.11 4.71001 19.1 5.35001 18.71 5.73001C18.52 5.93001 18.26 6.02001 18.01 6.02001Z"/><path fill="#2188FF" d="M34.2399 46.66C34.4399 46.9 34.7199 47.02 35.0099 47.02C35.2399 47.02 35.4699 46.94 35.6599 46.77C36.0799 46.41 36.1299 45.78 35.7799 45.36L30.7499 39.36C30.5499 39.12 30.2599 38.99 29.9499 39C26.6299 39.1 24.1499 36.67 23.2699 32.5C22.3799 28.25 21.7299 26.45 20.9299 24.62C21.7299 24.58 22.8999 24.89 23.9299 26.71C23.9513 26.7487 23.9747 26.7853 24 26.8198V30.06C24 30.61 24.45 31.06 25 31.06C25.55 31.06 26 30.61 26 30.06V15C26 14.45 26.45 14 27 14C27.55 14 28 14.45 28 15V25.01C28 25.56 28.45 26.01 29 26.01L29.005 26.01L29.01 26.01C29.56 26.01 30.01 25.56 30.01 25.02V13.01C30.01 12.9621 30.0066 12.915 30 12.8688V11C30 10.45 30.45 10 31 10C31.55 10 32 10.45 32 11V25C32 25.55 32.45 26 33 26C33.55 26 34 25.55 34 25V13C34 12.45 34.45 12 35 12C35.55 12 36 12.45 36 13V25C36 25.55 36.45 26 37 26C37.55 26 38 25.55 38 25V19C38 18.45 38.45 18 39 18C39.55 18 40 18.45 40 19V31.57C40 35.8 37.65 37.09 37.56 37.13C37.29 37.27 37.1 37.52 37.03 37.81C36.96 38.1 37.03 38.41 37.22 38.65L41.2 43.65C41.4 43.9 41.69 44.03 41.98 44.03C42.2 44.03 42.42 43.95 42.61 43.81C43.04 43.46 43.11 42.83 42.77 42.4L39.43 38.21C40.47 37.27 41.97 35.29 42 31.67V19C42 17.35 40.65 16 39 16C38.6498 16 38.3131 16.0608 38 16.1724V13C38 11.35 36.65 10 35 10C34.6101 10 34.2369 10.0754 33.8944 10.2123C33.5462 8.94117 32.3777 8 31 8C29.35 8 28 9.35 28 11V12.1724C27.6869 12.0608 27.3502 12 27 12C25.35 12 24 13.35 24 15V23.6912C22.1476 22.198 20.1043 22.5561 19.0799 23.11C18.6199 23.36 18.4699 24.01 18.6799 24.49L18.6819 24.4945C19.6508 26.662 20.2906 28.0933 21.3099 32.92C22.3399 37.84 25.4599 40.89 29.5099 41.01L34.2399 46.66Z"/><path fill="#2188FF" d="M1.75 11.64C1.87 12.07 2.26 12.37 2.71 12.37C3.16 12.37 3.56 12.07 3.68 11.63C3.78386 11.2492 3.83635 11.0567 3.95844 10.9328C4.08322 10.8062 4.28069 10.7512 4.68 10.64C5.11 10.52 5.41 10.12 5.41 9.67C5.41 9.22 5.11 8.83 4.67 8.71C4.27174 8.60414 4.07425 8.55164 3.94814 8.42695C3.82409 8.30431 3.76909 8.11182 3.66 7.73C3.54 7.3 3.15 7 2.7 7C2.25 7 1.85 7.3 1.73 7.73C1.62614 8.1108 1.57365 8.30328 1.45156 8.42718C1.32678 8.55381 1.12931 8.6088 0.73 8.72C0.3 8.84 0 9.24 0 9.69C0 10.14 0.3 10.54 0.74 10.65C1.53 10.87 1.53 10.87 1.75 11.64Z"/><path fill="#2188FF" d="M44.71 12.37C44.26 12.37 43.87 12.07 43.75 11.64C43.53 10.87 43.53 10.87 42.74 10.65C42.3 10.54 42 10.14 42 9.69C42 9.24 42.3 8.84 42.73 8.72C43.1293 8.6088 43.3268 8.55381 43.4516 8.42718C43.5737 8.30328 43.6261 8.1108 43.73 7.73C43.85 7.3 44.25 7 44.7 7C45.15 7.04 45.54 7.3 45.66 7.73C45.88 8.5 45.88 8.5 46.67 8.72C47.11 8.84 47.41 9.23 47.41 9.68C47.41 10.13 47.11 10.53 46.68 10.65C45.89 10.87 45.89 10.87 45.68 11.64C45.56 12.07 45.16 12.37 44.71 12.37Z"/><path fill="#2188FF" d="M23.0699 47.27C23.1899 47.7 23.5799 48 24.0299 48C24.4899 47.99 24.8799 47.69 24.9899 47.27C25.0938 46.8892 25.1463 46.6967 25.2684 46.5728C25.3932 46.4462 25.5906 46.3912 25.9899 46.28C26.4199 46.16 26.7199 45.76 26.7199 45.31C26.7199 44.86 26.4199 44.47 25.9799 44.35C25.1899 44.13 25.1899 44.13 24.9699 43.36C24.8499 42.93 24.4599 42.63 24.0099 42.63C23.5599 42.63 23.1699 42.93 23.0499 43.36C22.8399 44.13 22.8399 44.13 22.0499 44.35C21.6199 44.47 21.3199 44.87 21.3199 45.32C21.3199 45.77 21.6199 46.16 22.0599 46.28C22.4587 46.3911 22.6562 46.4461 22.7823 46.5723C22.906 46.6962 22.961 46.8887 23.0699 47.27Z"/></svg>