<?xml version="1.0" encoding="UTF-8"?>
<svg width="50" height="50" viewBox="0 0 50 50" fill="none" 
  xmlns="http://www.w3.org/2000/svg">
  <title>Code</title>
  <path d="M28.96 6C29.51 6 29.96 6.45 29.96 7C29.96 7.55 29.51 8 28.96 8H19.98C19.43 8 18.98 7.55 18.98 7C18.98 6.45 19.43 6 19.98 6H28.96Z" fill="#79B8FF"/>
  <path d="M22.96 43H27.96C28.51 43 28.96 43.45 28.96 44C28.96 44.55 28.51 45 27.96 45H22.96C22.41 45 21.96 44.55 21.96 44C21.96 43.45 22.41 43 22.96 43Z" fill="#79B8FF"/>
  <path d="M17.96 37H5.35C4.63 35.84 3.94 34.44 3.4 33H6.96C7.51 33 7.96 32.55 7.96 32C7.96 31.45 7.51 31 6.96 31H2C1.98 31 1.9625 31.005 1.945 31.01C1.92751 31.015 1.90999 31.02 1.89 31.02C1.86209 31.024 1.83577 31.0248 1.80977 31.0256C1.77056 31.0268 1.73209 31.028 1.69 31.04L1.63 31.07C1.615 31.075 1.6025 31.0825 1.59 31.09C1.5775 31.0975 1.565 31.105 1.55 31.11C1.21 31.29 1 31.62 1 32C1 32.1 1 32.2 1.03 32.3C1.72 34.52 2.82 36.86 3.96 38.58C4.15 38.87 4.47 39.02 4.79 39.02C4.84 39.02 4.89 39.01 4.93 39H17.95C18.5 39 18.95 38.55 18.95 38C18.95 37.45 18.51 37 17.96 37Z" fill="#79B8FF"/>
  <path d="M46.6 12.48C47.66 14.26 48.57 16.46 49.14 18.67C49.2 18.88 49.17 19.09 49.11 19.27C48.98 19.69 48.62 20 48.16 20H43.97C43.42 20 42.97 19.55 42.97 19C42.97 18.45 43.42 18 43.97 18H46.87C46.41 16.57 45.83 15.2 45.16 14H29.96C29.41 14 28.96 13.55 28.96 13C28.96 12.45 29.41 12 29.96 12H45.68C45.6981 12 45.7141 12.0041 45.728 12.0076C45.745 12.0119 45.759 12.0155 45.77 12.01C46.1 12.02 46.42 12.18 46.6 12.48Z" fill="#79B8FF"/>
  <path d="M24.81 2.00002C22.47 2.03002 20.27 2.36002 18.3 3.00002C17.78 3.17002 17.21 2.88002 17.05 2.35002C16.88 1.82002 17.16 1.26002 17.69 1.09002C19.86 0.390018 22.25 0.0200185 24.8 1.84864e-05C30.98 -0.0399817 37.19 2.29002 41.52 6.27002C41.53 6.27002 41.53 6.28002 41.53 6.28002C41.62 6.36002 41.7 6.46002 41.75 6.58002C41.76 6.58002 41.76 6.59002 41.76 6.59002C41.81 6.69002 41.83 6.80002 41.84 6.91002C41.84 6.91416 41.8417 6.92002 41.8437 6.92688C41.8465 6.93659 41.85 6.9483 41.85 6.96002C41.85 6.97173 41.8534 6.98002 41.8562 6.98688C41.8583 6.99174 41.86 6.99588 41.86 7.00002C41.86 7.07237 41.8406 7.14472 41.8226 7.21187C41.8182 7.22825 41.8139 7.24433 41.81 7.26002C41.805 7.27502 41.8025 7.29002 41.8 7.30502C41.7975 7.32002 41.795 7.33502 41.79 7.35002C41.75 7.46002 41.69 7.55002 41.62 7.64002C41.615 7.64502 41.6125 7.65252 41.61 7.66002C41.6075 7.66752 41.605 7.67502 41.6 7.68002H41.59C41.4 7.87002 41.15 8.00002 40.86 8.00002H34C33.45 8.00002 33 7.55002 33 7.00002C33 6.45002 33.45 6.00002 34 6.00002H37.94C34.2 3.44002 29.48 1.96002 24.81 2.00002Z" fill="#2188FF"/>
  <path d="M9 8H15C15.55 8 16 7.55 16 7C16 6.45 15.55 6 15 6H9C8.45 6 8 6.45 8 7C8 7.55 8.45 8 9 8Z" fill="#2188FF"/>
  <path d="M25 14C25.55 14 26 13.55 26 13C26 12.45 25.55 12 25 12H4.23C4.21 12 4.195 12.005 4.18 12.01C4.165 12.015 4.15 12.02 4.13 12.02C3.8 12.04 3.49 12.2 3.31 12.51C1.11 16.45 0 20.65 0 25C0 25.55 0.45 26 1 26C1.55 26 2 25.55 2 25C2 21.18 2.95 17.49 4.79 14H25Z" fill="#2188FF"/>
  <path d="M22.98 33.06C22.87 33.06 22.75 33.04 22.64 33C22.12 32.81 21.85 32.24 22.04 31.72L27.09 17.7C27.28 17.18 27.85 16.91 28.37 17.1C28.89 17.29 29.16 17.86 28.97 18.38L23.92 32.4C23.77 32.81 23.39 33.06 22.98 33.06Z" fill="#2188FF"/>
  <path d="M17.71 20.29C17.32 19.9 16.69 19.9 16.3 20.29L12.9 23.69C12.18 24.41 12.18 25.59 12.9 26.31L16.3 29.71C16.49 29.9 16.74 30 17 30C17.26 30 17.51 29.9 17.71 29.71C18.1 29.32 18.1 28.69 17.71 28.3L14.41 25L17.7 21.71C18.1 21.32 18.1 20.68 17.71 20.29Z" fill="#2188FF"/>
  <path d="M33.31 29.71C33.51 29.91 33.76 30 34.02 30C34.28 30 34.53 29.9 34.73 29.71L38.13 26.31C38.85 25.59 38.85 24.42 38.13 23.69L34.73 20.29C34.34 19.9 33.71 19.9 33.32 20.29C32.93 20.68 32.93 21.31 33.32 21.7L36.6 25L33.31 28.29C32.92 28.68 32.92 29.32 33.31 29.71Z" fill="#2188FF"/>
  <path d="M23 39H40C40.55 39 41 38.55 41 38C41 37.45 40.55 37 40 37H23C22.45 37 22 37.45 22 38C22 38.55 22.45 39 23 39Z" fill="#2188FF"/>
  <path d="M48 25.03C47.98 24.48 48.42 24.02 48.97 24C49.52 23.96 49.98 24.42 49.99 24.97C50.06 27.27 49.53 31.35 47.81 35.24C46.2 38.88 43.28 42.56 40.35 44.7C40.35 44.71 40.34 44.71 40.34 44.71C40.3199 44.7261 40.2981 44.7438 40.276 44.7619L40.26 44.775C40.2325 44.7975 40.205 44.82 40.18 44.84C40.165 44.85 40.15 44.855 40.135 44.86C40.12 44.865 40.105 44.87 40.09 44.88C40.06 44.9 40.03 44.92 40 44.93C39.87 44.98 39.74 45.02 39.61 45.02C39.595 45.02 39.58 45.015 39.565 45.01C39.55 45.005 39.535 45 39.52 45H33C32.45 45 32 44.55 32 44C32 43.45 32.45 43 33 43H39.29C41.89 41.06 44.55 37.67 45.99 34.43C47.58 30.85 48.06 27.13 48 25.03Z" fill="#2188FF"/>
  <path d="M23.8 47.97C26.16 48.08 28.57 47.84 30.79 47.26C31.32 47.12 31.87 47.44 32 47.98C32.14 48.51 31.82 49.06 31.29 49.2C29.26 49.73 27.15 50 25 50C24.5785 50 24.1662 49.9908 23.7367 49.9813L23.68 49.98C21.17 49.85 18.57 49.31 16.16 48.41C13.14 47.28 10.82 45.67 9.71002 44.81C9.69274 44.7985 9.68209 44.7837 9.67044 44.7674C9.66186 44.7555 9.65274 44.7427 9.64002 44.73C9.63502 44.72 9.62752 44.7125 9.62002 44.705C9.61252 44.6975 9.60502 44.69 9.60002 44.68C9.52002 44.6 9.46002 44.52 9.42002 44.42C9.41502 44.41 9.41252 44.3975 9.41002 44.385C9.40752 44.3725 9.40502 44.36 9.40002 44.35C9.37002 44.25 9.34002 44.15 9.34002 44.05C9.34002 44.045 9.33752 44.0375 9.33502 44.03C9.33252 44.0225 9.33002 44.015 9.33002 44.01C9.33002 43.995 9.33502 43.9825 9.34002 43.97C9.34502 43.9575 9.35002 43.945 9.35002 43.93C9.36002 43.84 9.37002 43.76 9.40002 43.68C9.41502 43.65 9.43002 43.6225 9.44502 43.595C9.46002 43.5675 9.47502 43.54 9.49002 43.51C9.50002 43.495 9.50752 43.4775 9.51502 43.46C9.52252 43.4425 9.53002 43.425 9.54002 43.41C9.54879 43.4012 9.55756 43.3963 9.56548 43.3919C9.57563 43.3862 9.5844 43.3812 9.59002 43.37C9.65002 43.3 9.72002 43.25 9.79002 43.2L9.88002 43.14C9.96002 43.09 10.05 43.07 10.15 43.05C10.17 43.04 10.2 43.03 10.23 43.03C10.25 43.03 10.2675 43.025 10.285 43.02C10.3025 43.015 10.32 43.01 10.34 43.01H18C18.55 43.01 19 43.46 19 44.01C19 44.56 18.55 45.01 18 45.01H13.65C14.58 45.54 15.66 46.08 16.88 46.53C19.1 47.36 21.49 47.85 23.8 47.97Z" fill="#2188FF"/>
</svg>
