<svg xmlns="http://www.w3.org/2000/svg" id="no-commit" viewBox="0 0 288 138">
    <title>
        No commit selected
    </title>
    <style type="text/css">
        <![CDATA[
            .outline {
                fill: #cadef3;
            }
            .shadow {
                fill: #ebf2fa;
            }
        ]]>
    </style>
    <g class="outline">
        <path id="speechbubble" d="M123.611 31.924c-5.675.2-10.19 4.673-10.57 10.215-2.894 2.45-4 5.789-4.44 8.207-.086.482.237.965.762.265 1.03-1.383 2.877-2.096 5.037-2.369a10.978 10.978 0 0 0 9.989 5.639c6.063-.215 10.803-5.305 10.588-11.367-.216-6.064-5.306-10.805-11.366-10.59zm.266 5.969c1.377.033 2.683.724 3.094 2.056.78 2.534-1.46 3.69-1.46 3.69l.366 1.183-2.37.73-.362-1.185h.001c-.2-.65.169-1.349.82-1.55l.59-.18a.614.614 0 0 0 .413-.776l-.365-1.183a.613.613 0 0 0-.776-.41l-1.182.365a.612.612 0 0 0-.41.773l.18.592-2.367.727c-.547-1.776.683-4.098 2.459-4.645a4.33 4.33 0 0 1 1.369-.187zm2.275 7.818l.729 2.367-2.37.729-.728-2.368 2.37-.728z"/>
        <path id="stars" d="M112.38 6.994a.593.593 0 0 0-.411 1.018l1.652 1.654-1.652 1.652a.593.593 0 1 0 .838.84l1.654-1.654 1.652 1.654a.594.594 0 1 0 .84-.84L115.3 9.666l1.654-1.654a.593.593 0 1 0-.84-.838l-1.652 1.652-1.654-1.652a.593.593 0 0 0-.426-.18zm102.698 9.37a.593.593 0 0 0-.414.177c-.311.087-.65.143-.846.361-.29.327-.421.739-.422 1.143 0 .404.13.818.42 1.144.29.327.75.541 1.262.541s.97-.214 1.26-.54a1.71 1.71 0 0 0 .424-1.143 1.71 1.71 0 0 0-.424-1.143c-.195-.219-.533-.276-.844-.363a.593.593 0 0 0-.414-.178zm43.768 1.148c-.907 0-1.822.297-2.53.918-.708.62-1.184 1.574-1.205 2.75-.021 1.215.442 2.205 1.157 2.85.714.643 1.65.95 2.578.95.927 0 1.863-.307 2.578-.95.715-.645 1.178-1.635 1.156-2.85-.02-1.176-.497-2.13-1.205-2.75-.708-.62-1.622-.918-2.53-.918zm-43.768.039h.002c.213 0 .3.059.373.14a.549.549 0 0 1 .121.356c0 .14-.048.273-.12.355-.074.082-.16.143-.376.143-.215 0-.3-.06-.373-.143a.55.55 0 0 1-.123-.355c0-.14.05-.274.123-.356.073-.081.16-.14.373-.14zm43.768 1.146c.645 0 1.282.217 1.748.625.465.408.785.998.8 1.88.017.916-.297 1.525-.765 1.946-.468.422-1.121.647-1.783.647-.663 0-1.317-.225-1.785-.647-.469-.421-.78-1.03-.764-1.947.016-.881.335-1.47.8-1.879.466-.408 1.103-.625 1.749-.625zm-172.088 3.95c-.512 0-.97.214-1.26.54a1.71 1.71 0 0 0-.424 1.143c0 .404.134.816.424 1.143.29.326.748.54 1.26.54.511 0 .971-.214 1.262-.54.29-.327.421-.739.421-1.143s-.131-.816-.421-1.142a1.692 1.692 0 0 0-1.262-.542zM32.506 23.74a.593.593 0 0 0-.502.307l-1.258 2.3-2.299 1.258a.593.593 0 0 0 0 1.041l2.301 1.256 1.258 2.301a.593.593 0 0 0 1.04 0l1.257-2.3 2.3-1.258a.593.593 0 0 0 0-1.041l-2.3-1.258-1.258-2.3a.593.593 0 0 0-.54-.306zm54.252.092c.215 0 .302.06.375.143a.55.55 0 0 1 .123.355.55.55 0 0 1-.123.356c-.073.082-.16.14-.375.14s-.302-.058-.375-.14a.549.549 0 0 1-.121-.356c0-.14.048-.273.12-.355.074-.082.16-.143.376-.143zm-54.233 1.736l.823 1.5a.593.593 0 0 0 .234.237l1.5.82-1.5.82a.593.593 0 0 0-.236.237l-.82 1.5-.82-1.5a.593.593 0 0 0-.237-.237l-1.5-.82 1.5-.82a.593.593 0 0 0 .236-.237zm116.893 3.186c-.782-.239-1.565.544-1.328 1.326a.593.593 0 0 0 0 .002l.564 1.836-.564 1.834a.593.593 0 0 0 .164.607c.19.495.608.89 1.164.72a.593.593 0 0 0 .002 0l1.834-.565 1.832.564a.593.593 0 0 0 .002 0c.783.24 1.566-.543 1.326-1.326a.593.593 0 0 0 0-.002l-.564-1.834.564-1.832v-.002c.242-.782-.546-1.568-1.328-1.328h-.002l-1.832.564zm-.125 1.203l1.646.506a.593.593 0 0 0 .004.002c.202.06.416.06.618 0a.593.593 0 0 0 .004-.002l1.648-.506-.508 1.645a.593.593 0 0 0-.002.005c-.06.202-.06.416 0 .618a.593.593 0 0 0 .002.006l.508 1.646-1.646-.508a1.051 1.051 0 0 0-.625 0h-.002l-1.647.508.504-1.639v-.002c.066-.207.066-.43 0-.636zM194.66 46.57a.593.593 0 0 0-.408.18l-1.283 1.283c-.115-.07-.19-.2-.313-.252a2.588 2.588 0 0 0-2.824.56.593.593 0 0 0-.002 0c-.845.846-.815 2.085-.244 3.077l-1.346 1.346a.593.593 0 1 0 .84.838l1.3-1.301c.728.43 1.56.568 2.276.271a2.589 2.589 0 0 0 1.6-2.394c0-.508-.18-.948-.418-1.334l1.254-1.254a.593.593 0 0 0-.432-1.02zm-3.238 2.21c.263-.045.531-.006.78.097.495.206.866.65.866 1.3 0 .652-.37 1.094-.867 1.3a1.353 1.353 0 0 1-1.51-.291.593.593 0 0 0-.027-.028 1.397 1.397 0 0 1 .006-1.978c.23-.229.49-.357.752-.4zm69.617 6.497c-.449 0-.907.147-1.268.467-.358.318-.587.82-.59 1.387-.013.58.21 1.096.571 1.424.363.33.829.482 1.285.482a1.9 1.9 0 0 0 1.285-.48c.362-.328.588-.846.574-1.426-.003-.567-.233-1.069-.591-1.387a1.894 1.894 0 0 0-1.266-.467zm0 1.186c.185 0 .363.063.479.166.115.103.197.235.197.51v.002a.593.593 0 0 0 0 .015c.008.286-.074.419-.19.524a.743.743 0 0 1-.488.172.739.739 0 0 1-.486-.174c-.116-.105-.196-.238-.188-.524a.593.593 0 0 0 0-.015c0-.275.082-.407.198-.51a.734.734 0 0 1 .478-.166zM49.291 61.574a.593.593 0 0 0-.566.768l.228.746-.23.748a.593.593 0 0 0 .742.74l.746-.228.748.23a.593.593 0 0 0 .742-.742l-.23-.746.23-.748a.593.593 0 0 0-.742-.742l-.748.23-.744-.23a.593.593 0 0 0-.176-.026zm.873 1.467a.593.593 0 0 0 .096 0 .593.593 0 0 0 0 .096.593.593 0 0 0-.096 0 .593.593 0 0 0 0-.096zm177.389 8.11c-.374 0-.746.181-.938.542a.593.593 0 0 0-.002 0l-.896 1.696-1.696.898a.593.593 0 0 0 0 .002c-.722.384-.722 1.493 0 1.877l1.696.898.873 1.649a.593.593 0 0 0 .025.05c.384.723 1.493.723 1.877 0a.593.593 0 0 0 0-.001l.897-1.696 1.695-.898c.727-.383.727-1.498 0-1.88l-1.695-.897-.897-1.698a1.048 1.048 0 0 0-.94-.543zm0 1.304l.804 1.522c.1.188.254.343.442.443a.593.593 0 0 0 .002.002l1.525.807-1.525.806a.593.593 0 0 0-.002 0c-.188.1-.34.256-.44.444l-.804 1.52-.807-1.524a.593.593 0 0 0 0-.002c-.1-.187-.254-.34-.441-.44l-1.524-.806 1.524-.807a.593.593 0 0 0 .002-.002c.187-.1.34-.252.44-.44zm39.918 8.3a.593.593 0 0 0-.516.315l-.592 1.12-1.117.591a.593.593 0 0 0 0 1.05l1.117.59.592 1.12a.593.593 0 0 0 1.049 0l.592-1.12 1.119-.59a.593.593 0 0 0 0-1.05l-1.12-.592-.591-1.119a.593.593 0 0 0-.533-.314zm.01 1.862l.152.287a.593.593 0 0 0 .246.248l.29.153-.29.154a.593.593 0 0 0-.246.246l-.152.29-.153-.29a.593.593 0 0 0-.248-.246l-.289-.154.29-.153a.593.593 0 0 0 .247-.248zM20.1 86.641c-.499 0-1.004.161-1.405.507-.4.346-.673.886-.697 1.516-.03.675.227 1.265.637 1.643.41.377.942.55 1.465.55.522 0 1.054-.173 1.464-.55.3-.276.381-.747.465-1.2a.593.593 0 0 0 .172-.441v-.002H22.2c-.024-.63-.293-1.17-.693-1.516a2.143 2.143 0 0 0-1.406-.507zm177.57.185c-.449 0-.906.147-1.266.467-.36.32-.595.824-.595 1.394 0 .571.235 1.075.595 1.395.36.32.817.467 1.266.467.449 0 .906-.147 1.266-.467.36-.32.595-.824.595-1.394 0-.571-.235-1.075-.595-1.395a1.894 1.894 0 0 0-1.266-.467zm-177.57 1c.238 0 .47.08.63.219.161.139.273.325.286.664a.593.593 0 0 0 0 .006c.016.375-.093.57-.254.719a.994.994 0 0 1-.662.238.994.994 0 0 1-.663-.238c-.16-.148-.27-.344-.253-.72a.593.593 0 0 0 0-.005c.012-.339.126-.525.287-.664a.973.973 0 0 1 .629-.219zm177.57.188c.185 0 .363.063.478.166.116.102.198.233.198.507 0 .275-.082.406-.198.508a.736.736 0 0 1-.478.168.736.736 0 0 1-.479-.168c-.115-.102-.197-.233-.197-.507 0-.275.082-.406.197-.508a.734.734 0 0 1 .479-.166zm-121.326 2.51a.593.593 0 0 0-.56.76l.736 2.517-.739 2.513a.593.593 0 0 0 .737.737l2.517-.739 2.514.737a.593.593 0 0 0 .734-.737l-.734-2.511.736-2.518a.593.593 0 0 0-.736-.734l-2.514.736-2.515-.736a.593.593 0 0 0-.176-.026zm.883 1.466l1.642.483a.593.593 0 0 0 .334 0l1.639-.48-.48 1.64a.593.593 0 0 0 0 .334l.48 1.638-1.64-.48a.593.593 0 0 0-.333 0l-1.642.482.48-1.638a.593.593 0 0 0 0-.334zM43.2 107.107a.593.593 0 0 0-.514.317l-.591 1.119-1.12.592a.593.593 0 0 0 0 1.047l1.12.591.59 1.12a.593.593 0 0 0 1.048 0l.594-1.118 1.117-.591a.593.593 0 0 0 .002-1.05l-1.119-.591-.594-1.12a.593.593 0 0 0-.533-.316zm.01 1.862l.154.289a.593.593 0 0 0 .246.248l.29.154-.29.153a.593.593 0 0 0-.246.246l-.154.289-.152-.29a.593.593 0 0 0-.248-.247l-.29-.153.29-.152a.593.593 0 0 0 .248-.248zm173.28 3.617a.593.593 0 0 0-.585.601v.827h-.828a.593.593 0 1 0 0 1.185h.828v.828a.594.594 0 1 0 1.188 0v-.828h.824a.593.593 0 1 0 0-1.185h-.824v-.826a.593.593 0 0 0-.604-.602zm32.113 3.566a.593.593 0 0 0-.584.602v2.338h-2.336a.593.593 0 1 0 0 1.185h2.336v2.336a.593.593 0 1 0 1.185 0v-2.336h2.34a.593.593 0 1 0 0-1.185h-2.34v-2.338a.593.593 0 0 0-.601-.602z"/>
        <path id="moon" d="M115.129 105.795c-6.67 0-12.744 2.072-12.744 2.072a.5.5 0 0 0-.3.274l-1.622 3.746c-10.226 2.368-18.817 5.688-24.408 9.765a.5.5 0 1 0 .59.809c11.323-8.257 36.048-13.616 61.59-13.62 25.542-.001 50.266 5.352 61.587 13.606a.5.5 0 1 0 .59-.806c-11.71-8.538-36.496-13.801-62.178-13.8-6.789.002-13.507.381-19.947 1.08l-2.793-2.97a.5.5 0 0 0-.365-.156zm-.201 1.014l2.12 2.255c-5.378.624-10.552 1.47-15.37 2.536l1.23-2.842c.304-.102 5.812-1.908 12.02-1.95zm55.658 10.789a.5.5 0 0 0-.047.996c2.355.347 4.423 1.074 5.826 1.933.702.43 1.234.893 1.557 1.33.323.438.435.824.383 1.182-.053.358-.27.696-.705 1.022-.435.325-1.08.615-1.875.824-1.592.417-3.782.516-6.137.17-2.356-.347-4.425-1.075-5.828-1.934-.702-.43-1.233-.892-1.555-1.33-.322-.437-.434-.824-.38-1.182.085-.583.664-1.16 1.769-1.586a.5.5 0 1 0-.362-.933c-1.136.438-1.926 1.144-2.222 2.056a.5.5 0 0 0-.174.317c-.341 2.312-1.373 3.533-2.31 4.22-.939.688-1.753.811-1.753.811a.5.5 0 0 0 .155.988s1.067-.17 2.19-.992c.854-.626 1.645-1.827 2.195-3.408.057.095.02.21.087.3.43.585 1.059 1.113 1.838 1.59.182.112.445.188.643.294-.24 2.043-1.766 3.127-1.766 3.127a.5.5 0 1 0 .56.828s1.704-1.254 2.12-3.54c1.35.593 2.873 1.1 4.646 1.362 2.47.363 4.769.273 6.538-.191.884-.233 1.64-.556 2.22-.99.09-.068.088-.188.17-.262.07 1.67.48 3.05 1.117 3.896.837 1.112 1.81 1.582 1.81 1.582a.5.5 0 1 0 .433-.9s-.744-.354-1.444-1.283c-.7-.93-1.332-2.398-.99-4.71a.5.5 0 0 0-.123-.414.5.5 0 0 0-.002-.001c-.03-.522-.106-1.048-.443-1.506-.431-.584-1.059-1.113-1.838-1.59-1.56-.955-3.734-1.707-6.203-2.07a.5.5 0 0 0-.1-.006zm-1.033 1.779a.5.5 0 1 0 .006 1c.814-.005 2.401.29 3.789.789.693.25 1.343.549 1.834.87.49.32.8.664.89.915a.5.5 0 1 0 .942-.342c-.213-.587-.699-1.027-1.285-1.41-.587-.383-1.298-.706-2.043-.974-1.491-.536-3.092-.854-4.133-.848z"/>
        <path id="planet" d="M225.936 34.2a.5.5 0 0 0-.174.034c-5.948.1-10.76 4.93-10.76 10.9 0 6.033 4.9 10.934 10.934 10.934 6.032 0 10.933-4.901 10.933-10.933 0-5.97-4.81-10.8-10.756-10.9a.5.5 0 0 0-.175-.036h-.002zm0 1h.001a9.899 9.899 0 0 1 7.08 2.968c-1.858.29-3.572.211-4.505-.563-1.316-1.089-3.093-1.738-4.817-2.144a9.96 9.96 0 0 1 2.24-.262zm-4.141.911c2.101.338 4.573 1.018 6.078 2.264 1.462 1.211 3.709 1.123 5.912.684.145.187.29.374.422.572-.49.006-.955.01-1.516.021-2.528.05-4.098.752-5.466 1.4-1.37.65-2.522 1.233-4.487 1.233-1.697 0-3.861-.697-5.734-1.482a9.901 9.901 0 0 1 1.03-1.674c.522.275 1.04.52 1.501.668.787.255 1.793.597 2.735.693.47.048.932.04 1.36-.117.43-.157.816-.505.991-.99.133-.371.13-.776-.04-1.094-.172-.317-.453-.512-.749-.662-.592-.3-1.334-.462-2.1-.709h-.002a15.909 15.909 0 0 0-.947-.268 9.889 9.889 0 0 1 1.012-.539zm-2.117 1.309c.685.155 1.346.32 1.744.45a.5.5 0 0 0 .002 0c.814.262 1.557.447 1.957.65.2.1.292.194.318.244.027.049.047.092-.02.279-.081.227-.183.314-.392.39-.208.077-.533.102-.916.063-.765-.078-1.734-.393-2.527-.65a.5.5 0 0 0-.002-.002c-.322-.103-.727-.29-1.147-.5.308-.328.633-.64.983-.924zm15.103 3.203a9.895 9.895 0 0 1 1.088 4.512c0 .114-.014.224-.017.338-.832-.129-1.76-.476-2.68-.85-1.105-.449-2.175-.928-3.195-.928-1.042 0-1.915.03-2.922.52-1.008.49-2.116 1.397-3.823 3.103a.5.5 0 0 0-.002 0c-1.947 1.948-4.269 2.64-5.824 2.895a9.877 9.877 0 0 1-.615-1.188c1.102-.168 2.141-.376 2.941-.683.478-.184.884-.393 1.192-.69.308-.297.51-.746.428-1.197a.5.5 0 0 0 0-.002c-.201-1.078-1.19-1.727-2.28-2.168-.93-.376-1.975-.597-2.93-.754.102-.623.26-1.226.471-1.804 1.93.813 4.166 1.558 6.125 1.558 2.17 0 3.557-.686 4.914-1.33 1.357-.643 2.7-1.257 5.059-1.303.766-.014 1.436-.022 2.07-.029zm-18.748 3.906c.897.151 1.864.358 2.664.682.959.387 1.573.893 1.672 1.426.02.104.01.151-.139.295-.15.144-.45.32-.855.476-.723.278-1.789.494-2.934.662a9.944 9.944 0 0 1-.44-2.935c0-.205.02-.404.032-.606zm13.944.166c.673 0 1.708.404 2.82.856.944.383 1.953.776 2.973.916a9.884 9.884 0 0 1-.237 1.193c-1.112-.008-2.279-.274-3.601-.398-1.466-.138-3.125-.051-5 .904-2.89 1.472-4.463 3.974-5.301 5.914a9.942 9.942 0 0 1-3.621-2.969c1.677-.332 3.959-1.114 5.93-3.086 1.676-1.676 2.726-2.508 3.552-2.91.826-.402 1.458-.42 2.485-.42zm.828 3.512c.35-.002.692.019 1.033.05 1.126.107 2.228.353 3.379.4a9.881 9.881 0 0 1-.715 1.497 9.51 9.51 0 0 0-3.596-.052c-1.246.22-2.402.665-3.435 1.209-1.928 1.014-3.423 2.363-4.373 3.343-.185-.054-.364-.12-.543-.185.78-1.8 2.226-4.086 4.83-5.412 1.267-.646 2.371-.845 3.42-.85zm2.004 2.742c.359.009.724.05 1.093.108a9.906 9.906 0 0 1-7.966 4.011 9.988 9.988 0 0 1-1.688-.152c.903-.87 2.164-1.919 3.688-2.72 1.44-.759 3.089-1.29 4.873-1.247z"/>
        <path id="octocat" d="M100.395 48.443c-5.327 0-9.677 4.286-9.756 9.612-.07 4.707 3.218 8.679 7.63 9.662-.128.19-.267.364-.427.502-.548.472-1.37.732-2.846.695-1.594-.04-2.617.856-2.93 1.893-.312 1.036-.044 2.199.776 2.832.53.434 1.165-.387.611-.791-.394-.304-.629-1.093-.43-1.754.2-.661.704-1.212 1.948-1.182 1.605.04 2.732-.252 3.523-.935.12-.104.18-.26.283-.377-.109.573-.313 1.076-.215 1.796.126.914-.342 1.575-1.052 2.295-.34.345-.731.681-1.102 1.04-.183-.256-.313-.527-.357-.782-.053-.31-.002-.577.107-.754.11-.177.263-.295.584-.332.663-.075.55-1.07-.113-.994-.579.066-1.058.375-1.322.803-.264.428-.327.943-.24 1.447.082.48.305.962.654 1.381-.131.17-.26.343-.362.533 0 0 0 .002-.002.002-.492.918-.401 1.79.05 2.322.45.533 1.13.73 1.745.627.683-.089.514-1.12-.162-.986-.254.042-.638-.072-.82-.287-.182-.215-.294-.525.07-1.203.06-.112.153-.227.24-.342.25.158.527.293.836.39 1.336.421 2.656-.14 3.46-1.052.803-.912 1.146-2.272.437-3.39-.24-.38-.39-.764-.504-1.15.23.255.496.511.814.77.996.811 1.328 2.15 1.018 3.288-.31 1.137-1.193 2.055-2.818 2.107-.705-.015-.669 1.06.033.998 2.014-.064 3.34-1.341 3.75-2.844.406-1.49-.023-3.214-1.322-4.295.911.748 2.173 1.314 3.773 1.414 1.124.07 2.013-.254 2.61-.804.596-.55.891-1.294.958-2.012.068-.718-.077-1.425-.445-1.969-.368-.543-1.055-.907-1.783-.73-.564.138-.985.424-1.233.787a1.88 1.88 0 0 0-.304 1.119c.018.7.318 1.271.318 1.271.3.597 1.194.148.895-.449 0 0-.203-.43-.213-.847-.005-.209.033-.389.13-.532.098-.143.26-.283.643-.377.34-.082.518.022.719.319.2.297.327.803.28 1.314-.049.512-.257 1.013-.643 1.37-.386.356-.96.6-1.87.542-1.898-.12-3.164-.96-3.886-1.88a3.873 3.873 0 0 1-.42-.668c4.74-.647 8.374-4.712 8.4-9.612a.5.5 0 0 0 .035-.18h-.002l.002-.005v-.002a.503.503 0 0 0-.039-.18c-.178-5.236-4.453-9.433-9.715-9.434zm0 1a8.749 8.749 0 0 1 8.753 8.63 8.742 8.742 0 0 1-7.705 8.814c-.012-.251.012-.462.075-.563a.5.5 0 0 0 .078-.234c.248.005.496.035.742-.024 2.085-.5 4.014-1.99 4.549-4.515.068-.325-.123-.54-.244-.649a1.592 1.592 0 0 0-.368-.24c-.137-.07-.245-.093-.367-.137.04-.3.097-1.338-.435-2.572.067-.466.256-1.974-.655-3.144l-.004-.002a.902.902 0 0 0-.83-.334h-.002c-.44.06-1.318.248-2.015.777-2.007-.49-3.38-.133-3.618-.055-.218-.076-1.826-.617-3.238.186a.902.902 0 0 0-.453.783c-.004.452.05 1.39.512 2.17-.124.343-1.402 4.003 1.36 6.512.67.609 1.538.935 2.474 1.107-.087.309-.18.584-.276.838a8.744 8.744 0 0 1-7.09-8.72 8.749 8.749 0 0 1 8.756-8.628zm-.002.912c-4.252 0-7.708 3.458-7.708 7.71-.01.676 1.01.676 1 0a6.7 6.7 0 0 1 6.708-6.71c.676.01.676-1.01 0-1zm3.658 5.135c.55.777.47 2.143.43 2.412-.015.101.001.204.046.295.58 1.178.385 2.407.385 2.407a.503.503 0 0 0 .033.279l.092.215a.5.5 0 0 0 .346.289c.042.01.258.082.414.156-.517 1.977-1.968 3.138-3.692 3.55-1.793.43-3.784.026-4.902-.988-2.368-2.152-1.06-5.632-1.06-5.632a.5.5 0 0 0-.075-.487c-.294-.374-.389-1.3-.394-1.746.953-.486 2.506-.064 2.506-.064a.5.5 0 0 0 .334-.006s1.343-.518 3.414.064a.5.5 0 0 0 .484-.123c.348-.338 1.21-.553 1.639-.62zM99.49 69.48c.15.744.441 1.48.878 2.17.436.688.24 1.531-.344 2.193-.582.661-1.497 1.046-2.408.76a2.535 2.535 0 0 1-.45-.194c.332-.322.697-.654 1.054-1.015.78-.792 1.514-1.804 1.332-3.131a6.958 6.958 0 0 1-.063-.783z"/>
        <path id="flag" d="M141.63 69.424a.5.5 0 0 0 .04 1c.793.009 1.582.055 2.36.135a.5.5 0 1 0 .103-.995 27.145 27.145 0 0 0-2.451-.14.5.5 0 0 0-.051 0zm-3.167.168a.501.501 0 0 0-.022.002.5.5 0 0 0-.033.004c-.82.1-1.632.245-2.428.437a.5.5 0 1 0 .235.97c.755-.182 1.53-.318 2.314-.413a.501.501 0 0 0-.066-1zm8.748.484a.5.5 0 0 0-.07.99c.792.18 1.553.393 2.271.633a.5.5 0 1 0 .318-.949 24.485 24.485 0 0 0-2.369-.66.5.5 0 0 0-.1-.014.5.5 0 0 0-.05 0zm-14.15.985a.5.5 0 0 0-.227.048c-.395.18-.784.377-1.162.59a.5.5 0 0 0 .492.871c.353-.199.713-.383 1.082-.55a.5.5 0 0 0-.185-.96zm19.46.93a.5.5 0 0 0-.244.94c.445.246.85.503 1.211.768.264.195.534.372.807.53a.5.5 0 1 0 .5-.868 7.674 7.674 0 0 1-.713-.466c-.4-.295-.844-.574-1.322-.838a.5.5 0 0 0-.239-.067zm-22.466.411a.5.5 0 0 0-.493.508v2.518a.5.5 0 1 0 1 0V72.91a.5.5 0 0 0-.507-.508zm34.252 1.17a.5.5 0 0 0-.178.04s-.414.172-1.13.37a.5.5 0 1 0 .267.963c.342-.094.345-.11.556-.183v.568a.5.5 0 1 0 1 0v-1.258a.5.5 0 0 0-.515-.5zm-6.762.78a.5.5 0 0 0-.063.994c.869.142 1.716.17 2.506.133a.5.5 0 1 0-.047-.999 10.98 10.98 0 0 1-2.296-.12.5.5 0 0 0-.1-.008zm-27.49 3.923a.5.5 0 0 0-.493.508v2.518a.5.5 0 1 0 1 0v-2.518a.5.5 0 0 0-.507-.508zm34.26.14a.5.5 0 0 0-.493.507v2.693a.5.5 0 1 0 1 0v-2.693a.5.5 0 0 0-.508-.508zm-17.276 1.853c-.904 0-1.814.3-2.512.92-.588.522-.942 1.319-1.06 2.251h-4.985a.5.5 0 1 0 0 1h4.985c.117.933.472 1.732 1.06 2.254.698.62 1.608.92 2.512.92.904 0 1.816-.3 2.514-.92.588-.522.943-1.32 1.06-2.254h4.985a.5.5 0 1 0 0-1h-4.985c-.117-.932-.472-1.729-1.06-2.251-.698-.62-1.61-.92-2.514-.92zm0 1c.682 0 1.358.228 1.85.666.484.43.809 1.06.818 1.972a.5.5 0 0 0 0 .065c-.009.912-.333 1.543-.818 1.974-.492.437-1.168.668-1.85.668-.682 0-1.356-.23-1.848-.668-.484-.43-.809-1.06-.818-1.972a.5.5 0 0 0 0-.065c.01-.912.333-1.543.818-1.974.492-.438 1.166-.666 1.848-.666zm-16.984 2.88a.5.5 0 0 0-.493.508v2.518a.5.5 0 1 0 1 0v-2.518a.5.5 0 0 0-.507-.508zm34.26.553a.5.5 0 0 0-.493.506V87.9a.5.5 0 1 0 1 0v-2.693a.5.5 0 0 0-.508-.506zm-34.26 5.32a.5.5 0 0 0-.493.508v2.516a.5.5 0 1 0 1 0v-2.516a.5.5 0 0 0-.507-.508zm34.26.965a.5.5 0 0 0-.493.508v2.694a.5.5 0 1 0 1 0v-2.694a.5.5 0 0 0-.508-.508zm-22.657 3.4a.5.5 0 1 0-.012 1c.793.01 1.584.054 2.362.134a.5.5 0 1 0 .101-.995 27.125 27.125 0 0 0-2.45-.138zm-3.24.175a.5.5 0 0 0-.033.003c-.82.101-1.632.246-2.428.44a.5.5 0 0 0 .236.973 20.234 20.234 0 0 1 2.313-.42.5.5 0 0 0-.037-.996.5.5 0 0 0-.051 0zm8.771.476a.5.5 0 0 0-.07.988c.793.179 1.555.391 2.274.631a.5.5 0 1 0 .316-.949 24.527 24.527 0 0 0-2.371-.656.5.5 0 0 0-.149-.014zm-17.134.858a.5.5 0 0 0-.493.505v2.518a.5.5 0 1 0 1 0V96.4a.5.5 0 0 0-.507-.505zm3.015.13a.5.5 0 0 0-.06.002.5.5 0 0 0-.178.047c-.396.18-.784.377-1.16.59a.5.5 0 1 0 .492.871c.352-.199.712-.382 1.08-.549a.5.5 0 0 0-.174-.96zm19.43.918a.5.5 0 0 0-.049.002.5.5 0 0 0-.193.942c.453.249.864.508 1.23.777.258.19.521.361.787.516a.5.5 0 1 0 .502-.864 7.716 7.716 0 0 1-.695-.457 12.16 12.16 0 0 0-1.344-.85.5.5 0 0 0-.238-.066zm11.814.33a.5.5 0 0 0-.492.506v.897c-.158.06-.3.125-.824.27a.5.5 0 1 0 .266.964c.77-.212 1.25-.412 1.25-.412a.5.5 0 0 0 .308-.463V97.78a.5.5 0 0 0-.508-.506zm-6.79 2.038a.5.5 0 0 0-.065.994c.868.144 1.716.175 2.506.138a.5.5 0 1 0-.045-.998c-.732.034-1.51.004-2.297-.127a.5.5 0 0 0-.1-.007zm-27.47 2.457a.5.5 0 0 0-.492.507v2.518a.5.5 0 1 0 1 0v-2.518a.5.5 0 0 0-.507-.507zm0 5.873a.5.5 0 0 0-.492.507v2.518a.5.5 0 1 0 1 0v-2.518a.5.5 0 0 0-.507-.507zm0 5.875a.5.5 0 0 0-.492.505v2.518a.5.5 0 1 0 1 0v-2.518a.5.5 0 0 0-.507-.505zm0 5.87a.5.5 0 0 0-.492.509v2.039a.5.5 0 1 0 1 0v-2.04a.5.5 0 0 0-.507-.507z"/>
    </g>
    <path id="flagShadow" class="shadow" d="M141.175 122.055c0 .734-4.975 1.33-11.112 1.33-6.137 0-11.112-.596-11.112-1.33 0-.734 4.976-1.33 11.113-1.33s11.112.596 11.112 1.33"/>
</svg>