<svg xmlns="http://www.w3.org/2000/svg" width="288" height="138" viewBox="0 0 288 138"><title>No commit selected</title><g fill="none" fill-rule="evenodd"><path fill="#CADEF3" d="M134.976 42.513c.215 6.062-4.525 11.152-10.588 11.367a10.978 10.978 0 0 1-9.988-5.638c-2.16.273-4.006.987-5.036 2.37-.525.7-.85.215-.763-.267.44-2.418 1.546-5.756 4.44-8.207.38-5.542 4.895-10.013 10.57-10.214 6.06-.215 11.15 4.526 11.366 10.59 M123.147 44.367c-.2-.65.168-1.348.82-1.55l.59-.18a.614.614 0 0 0 .412-.775l-.365-1.184a.613.613 0 0 0-.775-.41l-1.183.364a.612.612 0 0 0-.41.774l.18.593-2.368.726c-.547-1.776.684-4.098 2.46-4.645 1.776-.545 3.916.094 4.463 1.87.78 2.534-1.46 3.688-1.46 3.688l.365 1.185-2.368.73-.364-1.186zm.636 2.072l2.37-.728.727 2.368-2.368.728-.728-2.37z"/><path stroke="#CADEF3" stroke-linecap="round" stroke-linejoin="round" d="M200.117 122.044c-11.516-8.396-36.27-13.705-61.882-13.703-25.61.003-50.367 5.316-61.885 13.715"/><path stroke="#CADEF3" stroke-linecap="round" stroke-linejoin="round" d="M100.82 112.32l1.725-3.98s6.018-2.046 12.584-2.046l2.963 3.15M163.413 118.556c-1.192.46-1.96 1.14-2.083 1.98-.304 2.057 3.36 4.302 8.185 5.013 4.824.71 8.98-.38 9.284-2.437.3-2.057-3.363-4.302-8.187-5.013M178.8 123.113c-.72 4.867 2.713 6.515 2.713 6.515M161.33 120.536c-.718 4.867-4.48 5.453-4.48 5.453M164.436 124.05c-.14 2.467-2.04 3.756-2.04 3.756M176.543 122.78c-.608-1.677-5.133-2.914-6.988-2.903"/><path fill="#EBF2FA" d="M141.175 122.055c0 .734-4.975 1.33-11.112 1.33-6.137 0-11.112-.596-11.112-1.33 0-.734 4.976-1.33 11.113-1.33s11.112.596 11.112 1.33"/><path stroke="#CADEF3" stroke-dasharray="2.517 3.356" stroke-linecap="round" stroke-linejoin="round" d="M130.063 72.91v49.023"/><path stroke="#CADEF3" stroke-linecap="round" stroke-linejoin="round" d="M131.918 97.1c.364-.206.738-.397 1.12-.57"/><path stroke="#CADEF3" stroke-dasharray="2.41 3.214" stroke-linecap="round" stroke-linejoin="round" d="M136.075 95.49c6.415-1.56 14.066.093 17.71 2.772 2.55 1.876 5.61 1.867 7.776 1.51"/><path stroke="#CADEF3" stroke-linecap="round" stroke-linejoin="round" d="M163.13 99.428c.744-.205 1.192-.392 1.192-.392V97.78"/><path stroke="#CADEF3" stroke-dasharray="2.694 3.592" stroke-linecap="round" stroke-linejoin="round" d="M164.322 94.187v-17.06"/><path stroke="#CADEF3" stroke-linecap="round" stroke-linejoin="round" d="M164.322 75.33v-1.258s-.448.187-1.19.392"/><path stroke="#CADEF3" stroke-dasharray="2.41 3.214" stroke-linecap="round" stroke-linejoin="round" d="M159.965 74.98c-1.933.092-4.21-.232-6.18-1.683-3.94-2.896-12.566-4.594-19.248-2.325"/><path stroke="#CADEF3" stroke-linecap="round" stroke-linejoin="round" d="M133.04 71.564a14.56 14.56 0 0 0-1.122.57M150.212 83.94a3.172 3.172 0 1 1-6.344 0 3.172 3.172 0 0 1 6.344 0zM150.212 83.94h5.386M138.483 83.94h5.385M109.648 58.064c0 5.112-4.144 9.257-9.255 9.257a9.256 9.256 0 0 1 0-18.513 9.256 9.256 0 0 1 9.255 9.257zM93.185 58.064a7.208 7.208 0 0 1 7.208-7.208"/><path stroke="#CADEF3" stroke-linecap="round" stroke-linejoin="round" d="M100.603 65.823c-1.07 1.688-.956 3.752.188 5.558 1.145 1.807-1.077 4.405-3.324 3.698-2.247-.708-2.582-3.507-.782-3.713M101.093 66.06c-.737 1.188.83 4.587 4.896 4.843 4.067.255 3.563-5.05 1.426-4.53-1.894.464-.89 2.467-.89 2.467"/><path stroke="#CADEF3" stroke-linecap="round" stroke-linejoin="round" d="M99.522 65.97c-.64 2.34-1.458 3.52-4.538 3.443-2.84-.07-3.05 2.893-1.837 3.83M100.853 66.115c-1.322.683-2.104 1.972-1.796 4.214.308 2.24-2.4 3.347-3.258 4.942-.856 1.596.403 2.364 1.272 2.22"/><path stroke="#CADEF3" stroke-linecap="round" stroke-linejoin="round" d="M100.902 66.254c-.793.72-1.383 2.2.937 4.092 2.32 1.89 1.54 6.166-2.1 6.282M105.497 60.9l-.092-.214s.23-1.37-.43-2.71c.05-.335.218-1.87-.552-2.86a.4.4 0 0 0-.37-.148c-.447.062-1.45.26-1.99.785-2.205-.62-3.725-.052-3.725-.052s-1.752-.583-2.98.115a.4.4 0 0 0-.2.347c-.004.46.044 1.53.518 2.133 0 0-1.44 3.79 1.19 6.18 2.56 2.322 8.545 1.63 9.532-3.028.048-.227-.675-.495-.9-.548zM225.936 34.7c5.762 0 10.434 4.673 10.434 10.435 0 5.762-4.672 10.434-10.434 10.434-5.763 0-10.435-4.673-10.435-10.435 0-5.762 4.673-10.434 10.436-10.434z"/><path stroke="#CADEF3" stroke-linecap="round" stroke-linejoin="round" d="M225.936 34.7c5.762 0 10.434 4.673 10.434 10.435 0 5.762-4.672 10.434-10.434 10.434-5.763 0-10.435-4.673-10.435-10.435 0-5.762 4.673-10.434 10.436-10.434z"/><path stroke="#CADEF3" stroke-linecap="round" stroke-linejoin="round" d="M216.324 41.067c1.998.877 4.434 1.718 6.415 1.718 4.135 0 5.075-2.538 9.963-2.632.882-.017 1.675-.027 2.383-.034M221.89 54.754c.75-1.92 2.284-4.622 5.268-6.142 3.564-1.816 6.118-.31 8.763-.444"/><path stroke="#CADEF3" stroke-linecap="round" stroke-linejoin="round" d="M217.152 50.77c1.608-.22 4.254-.918 6.433-3.098 3.383-3.383 4.324-3.477 6.392-3.477 1.694 0 4.208 1.766 6.353 1.837M221.722 35.587c2.172.335 4.795 1.016 6.47 2.403 1.307 1.083 3.563 1.01 5.81.526M219.56 36.875c.8.175 1.537.362 2.017.518 1.58.51 2.976.697 2.573 1.82-.513 1.425-2.88.62-4.46.108-.52-.166-1.167-.473-1.8-.828M215.57 43.935c2.086.298 4.99 1 5.29 2.61.205 1.113-2.102 1.738-4.758 2.09M223.24 55.217c1.812-1.924 6.25-5.813 11.515-4.507"/></g></svg>