<?xml version="1.0" encoding="UTF-8"?>
<svg width="251px" height="137px" viewBox="0 0 251 137" version="1.1" xmlns="http://www.w3.org/2000/svg" xmlns:xlink="http://www.w3.org/1999/xlink">
    <!-- Generator: Sketch 48.1 (47250) - http://www.bohemiancoding.com/sketch -->
    <title>empty-no-file-selected</title>
    <desc>Created with Sketch.</desc>
    <defs></defs>
    <g stroke="none" stroke-width="1" fill="none" fill-rule="evenodd">
        <g transform="translate(0.000000, -1.000000)" fill="#000000">
            <path d="M199.982,17.346 C192.314,17.346 186.088,23.572 186.088,31.242 C186.088,38.909 192.314,45.137 199.982,45.137 C207.65,45.137 213.877,38.909 213.877,31.242 C213.877,23.573 207.65,17.346 199.982,17.346 Z M199.982,18.346 C200.408,18.346 200.827,18.368 201.242,18.408 C201.117,18.781 200.997,19.155 200.852,19.521 C200.605,20.141 201.535,20.511 201.782,19.891 C201.955,19.452 202.103,19.005 202.25,18.557 C202.76,18.647 203.261,18.76 203.748,18.908 C203.146254,21.2717318 202.1612,23.5208708 200.832,25.566 C200.422,26.133 201.314,26.716 201.668,26.113 C203.040479,24.0016165 204.062031,21.6819326 204.693,19.244 C206.078432,19.7889256 207.358767,20.5701875 208.477,21.553 C208.273214,22.744572 207.971184,23.9172392 207.574,25.059 C207.322,25.702 208.314,26.049 208.518,25.389 C208.863,24.404 209.12,23.392 209.328,22.369 C210.887866,24.0098686 211.986298,26.0338941 212.512,28.236 C211.841,30.583 210.826,32.809 209.449,34.822 C209.073,35.373 209.899,35.938 210.275,35.387 C211.392,33.738 212.182,32.113 212.834,30.397 C212.852,30.677 212.877,30.957 212.877,31.242 C212.877,36.142 210.151,40.4 206.131,42.582 C207.593075,41.505496 208.928282,40.2665715 210.111,38.889 C210.291321,38.6791318 210.267368,38.362821 210.0575,38.1825 C209.847632,38.002179 209.531321,38.0261318 209.351,38.236 C207.306,40.618 204.786,42.606 201.943,43.92 C201.9,43.937 201.873,43.965 201.84,43.988 C201.232,44.076 200.615,44.137 199.982,44.137 C199.712,44.137 199.446,44.112 199.18,44.096 C200.854956,43.4695023 202.452153,42.6521129 203.94,41.66 C204.152078,41.5004869 204.202599,41.2030809 204.055091,40.9824842 C203.907584,40.7618875 203.613437,40.6949522 203.385,40.83 C201.4186,42.1439319 199.255517,43.1363576 196.977,43.77 C196.576,43.674 196.182,43.562 195.797,43.43 C196.104,43.351 196.412,43.273 196.715,43.18 C197.286,43.017 197.148,42.172 196.555,42.2 C196.509833,42.2016445 196.465096,42.2093811 196.422,42.223 C195.691,42.447 194.948,42.624 194.197,42.758 C193.074108,42.1927153 192.039847,41.4663749 191.127,40.602 C191.527,40.519 191.925,40.431 192.32,40.328 C192.887,40.183 192.786,39.35 192.201,39.344 C192.156104,39.3436697 192.111369,39.3493878 192.068,39.361 C191.482,39.513 190.888,39.631 190.291,39.734 C189.311221,38.6180089 188.532049,37.3408152 187.988,35.959 C188.753,35.759 189.51,35.529 190.25,35.254 C190.777,35.064 190.642,34.284 190.082,34.284 C190.019872,34.2832659 189.958151,34.2941179 189.9,34.316 C189.164,34.591 188.41,34.818 187.65,35.014 C187.502,34.526 187.39,34.024 187.299,33.514 C189.036191,32.9485405 190.700935,32.1809459 192.259,31.227 C192.695,30.967 192.513,30.299 192.006,30.297 C191.909714,30.2962671 191.815265,30.3233519 191.734,30.375 C190.292289,31.2562873 188.755092,31.9708725 187.152,32.505 C187.112,32.09 187.088,31.669 187.088,31.242 C187.088,30.971 187.112,30.705 187.128,30.438 C187.945395,30.0859836 188.739654,29.682508 189.506,29.23 C189.946,28.978 189.773,28.306 189.266,28.297 C189.170113,28.2950695 189.075693,28.3207572 188.994,28.371 C188.43,28.707 187.846,29.003 187.252,29.281 C187.37,28.507 187.554,27.756 187.802,27.033 C187.827,27.032 187.846,27.04 187.872,27.037 C189.179398,26.244651 190.405641,25.3255546 191.533,24.293 C191.664831,24.1722442 191.722225,23.9903303 191.683563,23.8157834 C191.644901,23.6412365 191.516056,23.5005745 191.345563,23.4467834 C191.17507,23.3929923 190.988831,23.4342442 190.857,23.555 C190.105258,24.2420472 189.307395,24.8768625 188.469,25.455 C190.589,21.24 194.939,18.345 199.982,18.345 L199.982,18.346 Z M197.957,19.148 C197.774077,19.152786 197.608379,19.2571141 197.525,19.42 C196.174133,21.9610011 194.341353,24.2146133 192.129,26.055 C191.605,26.479 192.254,27.26 192.768,26.825 C195.080386,24.9010031 196.99603,22.5451693 198.408,19.889 C198.493898,19.7321402 198.489477,19.5413461 198.396405,19.3886336 C198.303333,19.235921 198.135784,19.1445467 197.957,19.149 L197.957,19.148 Z M200.113,21.789 C199.912215,21.7846203 199.728294,21.9008014 199.646,22.084 C198.733,24.042 197.314,25.748 195.716,27.252 C195.231,27.709 195.916,28.437 196.402,27.98 C198.059,26.42 199.566,24.624 200.552,22.508 C200.626735,22.3547048 200.618181,22.1738898 200.529309,22.0283342 C200.440437,21.8827785 200.283505,21.792559 200.113,21.789 Z M206.697,27.789 C206.514222,27.7943429 206.348939,27.8990351 206.266,28.062 C205.901,28.758 205.5,29.433 205.066,30.088 L205.068,30.088 C203.551,32.373 201.618,34.388 199.373,35.961 C198.801,36.339 199.397,37.188 199.947,36.779 C202.295937,35.1220019 204.31486,33.0410152 205.9,30.643 L205.9,30.641 C206.353,29.958 206.772,29.253 207.152,28.527 C207.237278,28.3696451 207.231945,28.1787097 207.138017,28.02636 C207.044089,27.8740104 206.875893,27.7834854 206.697,27.789 Z M199.097,28.139 C198.950307,28.138154 198.810643,28.2017706 198.715,28.313 C198.301693,28.7760976 197.868973,29.2214961 197.418,29.648 C196.935,30.108 197.624,30.833 198.108,30.373 C198.577,29.927 199.03,29.463 199.461,28.977 C199.594414,28.8315897 199.629821,28.6213102 199.551381,28.4402283 C199.472941,28.2591464 199.295329,28.1411407 199.098,28.139 L199.097,28.139 Z M203.475,28.188 C203.310496,28.1878402 203.156438,28.2686082 203.063,28.404 C200.126,32.561 195.856,35.821 191.045,37.279 C190.407,37.473 190.698,38.43 191.335,38.236 C196.385,36.706 200.821,33.31 203.879,28.982 C203.989524,28.8299617 204.005441,28.6287825 203.920201,28.4612555 C203.83496,28.2937286 203.662966,28.1881618 203.475,28.188 Z M194.695,28.307 C194.583085,28.3118171 194.47603,28.3540758 194.391,28.427 C194.037,28.727 193.678,29.019 193.314,29.309 C192.762,29.719 193.41,30.537 193.936,30.092 C194.306,29.797 194.673,29.497 195.036,29.192 C195.201638,29.0551536 195.261333,28.8277869 195.18428,28.627223 C195.107227,28.4266591 194.910656,28.2977444 194.696,28.307 L194.695,28.307 Z M210.715,29.137 C210.514489,29.1403442 210.335375,29.2631653 210.26,29.449 C210.184,29.629 210.104,29.811 210.021,29.994 C209.713,30.616 210.676,31.047 210.934,30.402 C211.017,30.216 211.101,30.029 211.182,29.838 C211.250572,29.6818918 211.234866,29.5016016 211.140334,29.3597019 C211.045802,29.2178023 210.885476,29.1338568 210.715,29.137 Z M209.758,31.137 C209.574851,31.1378297 209.406812,31.2387297 209.32,31.4 C208.763086,32.4021386 208.135848,33.3635471 207.443,34.277 C204.997,37.506 201.731,40.152 197.98,41.666 C197.346,41.908 197.728,42.859 198.354,42.594 C202.291,41.004 205.694,38.243 208.24,34.883 C208.961605,33.9317576 209.614907,32.9305844 210.195,31.887 C210.284681,31.7316815 210.284304,31.5402273 210.194011,31.3852634 C210.103719,31.2302996 209.937344,31.1355664 209.758,31.137 Z M196.305,37.852 C196.226295,37.8512249 196.148519,37.8690414 196.078,37.904 C195.59,38.136 195.094,38.348 194.59,38.541 C193.942,38.768 194.314,39.739 194.947,39.475 C195.477,39.272 195.997,39.05 196.507,38.807 C196.995,38.585 196.84,37.857 196.305,37.852 Z" fill-rule="nonzero"></path>
            <ellipse fill-opacity="0.5" cx="159" cy="132.5" rx="36" ry="5.5"></ellipse>
            <path d="M134.028,63.358 L133.978,63.359 C133.783354,63.3729758 133.614626,63.4989181 133.54587,63.6815512 C133.477114,63.8641844 133.520896,64.0701303 133.658,64.209 L134.524,65.121 C134.981,65.653 135.756,64.917 135.249,64.434 L134.382,63.52 C134.290904,63.4200227 134.16319,63.3612165 134.028,63.357 L134.028,63.358 Z M137.192,66.695 C137.17531,66.6948317 137.158623,66.6954992 137.142,66.697 C136.947675,66.7105731 136.778925,66.8357701 136.709586,67.01781 C136.640248,67.1998499 136.682947,67.4055873 136.819,67.545 L138.542,69.365 C138.665257,69.494866 138.848433,69.5491106 139.022529,69.5073002 C139.196624,69.4654899 139.33519,69.3339766 139.386029,69.1623002 C139.436868,68.9906238 139.392257,68.804866 139.269,68.675 L137.546,66.857 C137.454732,66.7573928 137.32704,66.6989577 137.192,66.695 Z M121.968,68.041 C121.835386,68.0431048 121.709042,68.0978128 121.616771,68.193085 C121.524499,68.2883572 121.473861,68.4163868 121.476,68.549 L121.476,69.809 C121.466,70.485 122.486,70.485 122.476,69.809 L122.476,68.549 C122.478184,68.4136123 122.425364,68.2831276 122.329618,68.1873816 C122.233872,68.0916355 122.103388,68.0388159 121.968,68.041 Z M141.159,70.939 C140.964354,70.9529758 140.795626,71.0789181 140.72687,71.2615512 C140.658114,71.4441844 140.701896,71.6501303 140.839,71.789 L142.561,73.607 C142.683721,73.7368661 142.866402,73.7913965 143.04023,73.7500503 C143.214057,73.7087041 143.352623,73.5777626 143.40373,73.4065503 C143.454837,73.235338 143.410721,73.049866 143.288,72.92 L141.565,71.102 C141.473665,71.0017772 141.34554,70.9429483 141.21,70.939 C141.193344,70.9381661 141.176656,70.9381661 141.16,70.939 L141.159,70.939 Z M121.97,72.66 C121.837386,72.6621048 121.711042,72.7168128 121.618771,72.812085 C121.526499,72.9073572 121.475861,73.0353868 121.478,73.168 L121.478,75.688 C121.478,75.9641424 121.701858,76.188 121.978,76.188 C122.254142,76.188 122.478,75.9641424 122.478,75.688 L122.478,73.168 C122.480184,73.0326123 122.427364,72.9021276 122.331618,72.8063816 C122.235872,72.7106355 122.105388,72.6578159 121.97,72.66 Z M145.231,75.182 C145.02732,75.1766631 144.840775,75.2954504 144.759454,75.4822682 C144.678133,75.669086 144.718305,75.8865622 144.861,76.032 L146.583,77.85 C146.772986,78.0507555 147.089744,78.0594859 147.2905,77.8695 C147.491255,77.679514 147.499986,77.3627555 147.31,77.162 L145.587,75.344 C145.495253,75.243901 145.366741,75.1854208 145.231,75.182 Z M121.97,78.537 C121.837386,78.5391048 121.711042,78.5938128 121.618771,78.689085 C121.526499,78.7843572 121.475861,78.9123868 121.478,79.045 L121.478,81.565 C121.478,81.8411424 121.701858,82.065 121.978,82.065 C122.254142,82.065 122.478,81.8411424 122.478,81.565 L122.478,79.045 C122.480184,78.9096123 122.427364,78.7791276 122.331618,78.6833816 C122.235872,78.5876355 122.105388,78.5348159 121.97,78.537 Z M149.251,79.426 C149.047137,79.4202389 148.860207,79.5388716 148.778624,79.7257871 C148.697041,79.9127026 148.737158,80.1304346 148.88,80.276 L150.603,82.092 C150.792986,82.2924793 151.109521,82.3009859 151.31,82.111 C151.510479,81.921014 151.518986,81.6044794 151.329,81.404 L149.606,79.586 C149.514149,79.4868869 149.386092,79.4291711 149.251,79.426 Z M153.271,83.668 C153.066954,83.661813 152.879638,83.7802905 152.797792,83.9673044 C152.715946,84.1543182 152.756009,84.3723071 152.899,84.518 L154.622,86.336 C154.743285,86.4723184 154.929196,86.5317456 155.107063,86.4910521 C155.28493,86.4503586 155.426507,86.3160066 155.476454,86.1405129 C155.5264,85.9650192 155.476784,85.7762527 155.347,85.648 L153.626,83.83 C153.534492,83.7301473 153.406391,83.6716897 153.271,83.668 Z M121.97,84.414 C121.837386,84.4161048 121.711042,84.4708128 121.618771,84.566085 C121.526499,84.6613572 121.475861,84.7893868 121.478,84.922 L121.478,87.439 C121.478,87.7151424 121.701858,87.939 121.978,87.939 C122.254142,87.939 122.478,87.7151424 122.478,87.439 L122.478,84.922 C122.480184,84.7866123 122.427364,84.6561276 122.331618,84.5603816 C122.235872,84.4646355 122.105388,84.4118159 121.97,84.414 Z M157.292,87.91 C157.27531,87.9098317 157.258623,87.9104992 157.242,87.912 C157.047675,87.9255731 156.878925,88.0507701 156.809586,88.23281 C156.740248,88.4148499 156.782947,88.6205873 156.919,88.76 L158.644,90.58 C158.763438,90.7226534 158.952207,90.787192 159.133981,90.7475212 C159.315754,90.7078505 159.460469,90.5705317 159.509612,90.3910868 C159.558754,90.2116418 159.504198,90.0197506 159.368,89.893 L157.646,88.073 C157.554904,87.9730227 157.42719,87.9142165 157.292,87.91 Z M121.97,90.291 C121.837386,90.2931048 121.711042,90.3478128 121.618771,90.443085 C121.526499,90.5383572 121.475861,90.6663868 121.478,90.799 L121.478,93.319 C121.478,93.5951424 121.701858,93.819 121.978,93.819 C122.254142,93.819 122.478,93.5951424 122.478,93.319 L122.478,90.799 C122.480184,90.6636123 122.427364,90.5331276 122.331618,90.4373816 C122.235872,90.3416355 122.105388,90.2888159 121.97,90.291 Z M161.312,92.154 C161.294977,92.153798 161.277955,92.1544655 161.261,92.156 C161.06721,92.1706301 160.899453,92.2962262 160.830839,92.4780526 C160.762226,92.6598789 160.805187,92.8649912 160.941,93.004 L162.663,94.822 C162.783176,94.9619793 162.970668,95.0244079 163.15077,94.9844103 C163.330872,94.9444127 163.474314,94.8084889 163.52394,94.6307993 C163.573567,94.4531097 163.521313,94.2625305 163.388,94.135 L161.665,92.316 C161.573971,92.2166376 161.446689,92.1582249 161.312,92.154 Z M121.97,96.168 C121.837386,96.1701048 121.711042,96.2248128 121.618771,96.320085 C121.526499,96.4153572 121.475861,96.5433868 121.478,96.676 L121.478,99.193 C121.478,99.4691424 121.701858,99.693 121.978,99.693 C122.254142,99.693 122.478,99.4691424 122.478,99.193 L122.478,96.676 C122.480184,96.5406123 122.427364,96.4101276 122.331618,96.3143816 C122.235872,96.2186355 122.105388,96.1658159 121.97,96.168 Z M165.28,96.398 C165.085354,96.4119758 164.916626,96.5379181 164.84787,96.7205512 C164.779114,96.9031844 164.822896,97.1091303 164.96,97.248 L166.683,99.068 C166.873538,99.2684793 167.190521,99.2765382 167.391,99.086 C167.591479,98.8954617 167.599538,98.5784794 167.409,98.378 L165.687,96.561 C165.595426,96.460531 165.466891,96.4016793 165.331,96.398 C165.314344,96.3971661 165.297656,96.3971661 165.281,96.398 L165.28,96.398 Z M169.302,100.643 C169.106998,100.656266 168.937604,100.781941 168.868363,100.964719 C168.799123,101.147496 168.842732,101.353862 168.98,101.493 L170.704,103.311 C170.825285,103.447318 171.011196,103.506746 171.189063,103.466052 C171.36693,103.425359 171.508507,103.291007 171.558454,103.115513 C171.6084,102.940019 171.558784,102.751253 171.429,102.623 L169.706,100.805 C169.614971,100.705638 169.487689,100.647225 169.353,100.643 C169.336011,100.642132 169.318989,100.642132 169.302,100.643 Z M121.97,102.045 C121.694634,102.049386 121.47466,102.27562 121.478,102.551 L121.478,105.071 C121.478,105.347142 121.701858,105.571 121.978,105.571 C122.254142,105.571 122.478,105.347142 122.478,105.071 L122.478,102.551 C122.479638,102.415957 122.426577,102.285994 122.330892,102.190685 C122.235207,102.095377 122.105036,102.042829 121.97,102.045 Z M173.372,104.887 C173.168137,104.881239 172.981207,104.999872 172.899624,105.186787 C172.818041,105.373703 172.858158,105.591435 173.001,105.737 L174.724,107.555 C174.844327,107.694967 175.03198,107.757258 175.212122,107.717031 C175.392264,107.676804 175.535592,107.540603 175.584947,107.362745 C175.634301,107.184886 175.581654,106.994303 175.448,106.867 L173.726,105.047 C173.634389,104.948132 173.506742,104.890439 173.372,104.887 Z M121.97,107.922 C121.694634,107.926386 121.47466,108.15262 121.478,108.428 L121.478,110.949 C121.478,111.225142 121.701858,111.449 121.978,111.449 C122.254142,111.449 122.478,111.225142 122.478,110.949 L122.478,108.428 C122.479638,108.292957 122.426577,108.162994 122.330892,108.067685 C122.235207,107.972377 122.105036,107.919829 121.97,107.922 Z M177.392,109.129 C177.188137,109.123239 177.001207,109.241872 176.919624,109.428787 C176.838041,109.615703 176.878158,109.833435 177.021,109.979 L178.743,111.797 C178.864285,111.933318 179.050196,111.992746 179.228063,111.952052 C179.40593,111.911359 179.547507,111.777007 179.597454,111.601513 C179.6474,111.426019 179.597784,111.237253 179.468,111.109 L177.745,109.291 C177.653971,109.191638 177.526689,109.133225 177.392,109.129 Z M181.362,113.373 C181.166998,113.386266 180.997604,113.511941 180.928363,113.694719 C180.859123,113.877496 180.902732,114.083862 181.04,114.223 L182.763,116.041 C182.95464,116.231374 183.262838,116.235116 183.459044,116.04945 C183.655249,115.863785 183.668513,115.555849 183.489,115.354 L181.767,113.535 C181.675253,113.434901 181.546741,113.376421 181.411,113.373 C181.394676,113.372199 181.378324,113.372199 181.362,113.373 Z M121.97,113.801 C121.694634,113.805386 121.47466,114.03162 121.478,114.307 L121.478,116.827 C121.478,117.103142 121.701858,117.327 121.978,117.327 C122.254142,117.327 122.478,117.103142 122.478,116.827 L122.478,114.307 C122.479638,114.171957 122.426577,114.041994 122.330892,113.946685 C122.235207,113.851377 122.105036,113.798829 121.97,113.801 Z M185.382,117.617 C185.186998,117.630266 185.017604,117.755941 184.948363,117.938719 C184.879123,118.121496 184.922732,118.327862 185.06,118.467 L186.782,120.285 C186.972538,120.485755 187.289744,120.494038 187.4905,120.3035 C187.691255,120.112962 187.699538,119.795756 187.509,119.595 L185.786,117.779 C185.694971,117.679638 185.567689,117.621225 185.433,117.617 C185.416011,117.616132 185.398989,117.616132 185.382,117.617 Z M121.97,119.677 C121.694239,119.681385 121.474104,119.908231 121.478,120.184 L121.478,122.704 C121.478,122.980142 121.701858,123.204 121.978,123.204 C122.254142,123.204 122.478,122.980142 122.478,122.704 L122.478,120.184 C122.479638,120.048957 122.426577,119.918994 122.330892,119.823685 C122.235207,119.728377 122.105036,119.675829 121.97,119.678 L121.97,119.677 Z M189.4,121.859 C189.205354,121.872976 189.036626,121.998918 188.96787,122.181551 C188.899114,122.364184 188.942896,122.57013 189.08,122.709 L190.802,124.527 C190.99364,124.717374 191.301838,124.721116 191.498044,124.53545 C191.694249,124.349785 191.707513,124.041849 191.528,123.84 L189.806,122.02 C189.713909,121.920641 189.585442,121.862903 189.45,121.86 C189.433344,121.859166 189.416656,121.859166 189.4,121.86 L189.4,121.859 Z M121.97,125.553 C121.837386,125.555105 121.711042,125.609813 121.618771,125.705085 C121.526499,125.800357 121.475861,125.928387 121.478,126.061 L121.478,127.321 C121.468,127.996 122.488,127.996 122.478,127.321 L122.478,126.061 C122.480184,125.925612 122.427364,125.795128 122.331618,125.699382 C122.235872,125.603636 122.105388,125.550816 121.97,125.553 Z M193.468,126.098 C193.451,126.098 193.434,126.098 193.417,126.1 C193.223635,126.114952 193.056359,126.240375 192.987815,126.421801 C192.919272,126.603227 192.961827,126.807925 193.097,126.947 L193.96,127.861 C194.418,128.346 195.145,127.658 194.687,127.174 L193.821,126.26 C193.729971,126.160638 193.602689,126.102225 193.468,126.098 Z" fill-rule="nonzero"></path>
            <path d="M128.125864,41.1861948 C126.338766,36.5958041 121.170146,34.3221972 116.581079,36.1087807 C111.990811,37.894516 109.717766,43.0634827 111.503771,47.653497 L114.281468,54.7925262 L130.903526,48.3251313 L128.125864,41.1861948 Z M131.732102,49.0757714 L114.178103,55.9057714 C113.920754,56.005902 113.63096,55.8784516 113.530829,55.621103 L110.571832,48.0161113 C108.585558,42.9114093 111.113497,37.1628086 116.218405,35.1768644 C121.322129,33.1899185 127.070318,35.7184704 129.057771,40.823497 L132.016771,48.428497 C132.116902,48.685846 131.989452,48.9756407 131.732102,49.0757714 Z M114.583194,47.9212093 C112.601742,43.7368885 114.472628,39.4459038 118.791506,38.3097481 C119.058562,38.2394943 119.218102,37.9660505 119.147848,37.6989943 C119.077594,37.4319381 118.804151,37.2723982 118.537094,37.342652 C113.601164,38.641134 111.43495,43.6094714 113.679406,48.3491907 C113.79759,48.5987647 114.095717,48.7052776 114.345291,48.5870938 C114.594865,48.46891 114.701378,48.1707834 114.583194,47.9212093 Z M134.780447,51.5643276 L133.539013,48.3732856 L112.370953,56.6096724 L113.612387,59.8007144 L134.780447,51.5643276 Z M135.609007,52.3149699 L113.509007,60.9139699 C113.251649,61.0141063 112.961844,60.8866454 112.861721,60.6292831 L111.257721,56.5062831 C111.157605,56.2489392 111.285055,55.9591594 111.542393,55.8590301 L133.642393,47.2600301 C133.899751,47.1598937 134.189556,47.2873546 134.289679,47.5447169 L135.893679,51.6677169 C135.993795,51.9250608 135.866345,52.2148406 135.609007,52.3149699 Z M132.603813,50.0373224 L122.689813,53.8943224 C122.432461,53.9944442 122.305001,54.2842343 122.405122,54.5415866 C122.505244,54.798939 122.795034,54.9263995 123.052387,54.8262776 L132.966387,50.9692776 C133.223739,50.8691558 133.3512,50.5793657 133.251078,50.3220134 C133.150956,50.064661 132.861166,49.9372005 132.603813,50.0373224 Z M130.834143,54.1734462 L118.284754,59.055539 L119.308025,60.4913986 L131.049828,55.9216359 L130.834143,54.1734462 Z M131.775044,56.7124553 L119.308044,61.5644553 C119.09476,61.6474628 118.852344,61.5750598 118.719519,61.3886789 L117.097519,59.1126789 C116.908357,58.8472451 117.019656,58.4746934 117.32342,58.3565199 L131.07042,53.0085199 C131.374204,52.8903387 131.708024,53.0897663 131.747938,53.4132759 L132.089938,56.1852759 C132.117953,56.4123515 131.988263,56.6294733 131.775044,56.7124553 Z M122.98906,63.7871044 C122.893964,63.3084338 122.427436,62.9969537 121.948558,63.0920903 C121.468998,63.1880023 121.157694,63.6540686 121.252815,64.1328675 C121.348689,64.6128735 121.814326,64.9236935 122.293442,64.8285097 C122.773332,64.7325316 123.084304,64.2671602 122.98906,63.7871044 Z M121.275685,62.2751484 L120.886231,60.3196618 C120.832293,60.0488383 121.008115,59.7855677 121.278938,59.7316306 C121.549762,59.6776934 121.813032,59.8535146 121.866969,60.1243382 L122.256395,62.0796816 C123.082345,62.1388812 123.800835,62.7412947 123.969916,63.5923708 C124.172574,64.6138234 123.510285,65.6049451 122.488929,65.8092157 C121.46796,66.0120483 120.476169,65.350013 120.272084,64.3282292 C120.103043,63.477348 120.535466,62.6463544 121.275685,62.2751484 Z M131.030413,58.9372432 C131.173707,59.1732971 131.098511,59.4808193 130.862457,59.6241133 C130.626403,59.7674074 130.318881,59.6922107 130.175587,59.4561568 L128.916587,57.3821568 C128.773293,57.1461029 128.848489,56.8385807 129.084543,56.6952867 C129.320597,56.5519926 129.628119,56.6271893 129.771413,56.8632432 L131.030413,58.9372432 Z M132.078062,59.9222451 C131.825014,59.5043339 131.279865,59.3709655 130.863232,59.6236245 C130.444483,59.8784593 130.311172,60.4223703 130.564715,60.840045 C130.818348,61.2578703 131.362779,61.3908655 131.780845,61.1370855 C132.198594,60.8834981 132.331591,60.3392582 132.078062,59.9222451 Z M132.933004,59.4035231 C133.473156,60.291982 133.189766,61.4516478 132.299755,61.9919145 C131.409669,62.5322266 130.250159,62.248978 129.709886,61.358955 C129.169729,60.4691244 129.453621,59.3108422 130.344033,58.7689715 C131.233537,58.2295478 132.394072,58.5134681 132.933004,59.4035231 Z" fill-rule="nonzero"></path>
            <path d="M144.758,14.777 C139.083,14.979 134.568,19.448 134.188,24.988 C131.295,27.44 130.188,30.779 129.748,33.199 C129.66,33.68 129.988,34.168 130.512,33.465 C131.542,32.083 133.387,31.368 135.547,31.095 C137.551346,34.7031451 141.41014,36.8821198 145.535,36.735 C151.598,36.518 156.338,31.428 156.123,25.365 C155.908,19.303 150.82,14.561 144.758,14.777 Z M145.028,20.747 C146.404,20.778 147.712,21.471 148.121,22.803 C148.901,25.338 146.662,26.493 146.662,26.493 L147.027,27.676 L144.657,28.404 L144.295,27.221 L144.293,27.221 C144.093,26.569 144.463,25.87 145.113,25.67 L145.705,25.49 C145.863082,25.4429941 145.995608,25.3343691 146.07273,25.1885895 C146.149852,25.0428099 146.165086,24.8721335 146.115,24.715 L145.752,23.531 C145.704964,23.3733832 145.596653,23.2412294 145.451342,23.1641564 C145.306031,23.0870834 145.135872,23.0715365 144.979,23.121 L143.795,23.486 C143.636831,23.5325435 143.504133,23.6409366 143.426955,23.7866326 C143.349778,23.9323285 143.334651,24.1030012 143.385,24.26 L143.566,24.85 L141.196,25.58 C140.65,23.803 141.881,21.48 143.658,20.934 C144.102,20.797 144.568,20.735 145.028,20.746 L145.028,20.747 Z M147.301,28.564 L148.027,30.934 L145.658,31.66 L144.93,29.293 L147.3,28.564 L147.301,28.564 Z" fill-rule="nonzero"></path>
            <path d="M84.42,0.994 C84.2159082,0.993586087 84.0320506,1.11725679 83.9554947,1.3064467 C83.8789388,1.4956366 83.9250532,1.71236574 84.072,1.854 L85.791,3.572 L84.072,5.291 C83.9420217,5.41653724 83.8898937,5.60243895 83.9356514,5.77725366 C83.9814091,5.95206838 84.1179316,6.08859086 84.2927463,6.13434858 C84.4675611,6.1801063 84.6534628,6.12797829 84.779,5.998 L86.499,4.279 L88.215,5.998 C88.3405372,6.12797829 88.5264389,6.1801063 88.7012537,6.13434858 C88.8760684,6.08859086 89.0125909,5.95206838 89.0583486,5.77725366 C89.1041063,5.60243895 89.0519783,5.41653724 88.922,5.291 L87.205,3.572 L88.924,1.854 C89.050472,1.72770662 89.0999603,1.54353469 89.053823,1.37086 C89.0076858,1.19818531 88.8729323,1.06324127 88.700323,1.01685998 C88.5277137,0.970478695 88.343472,1.01970659 88.217,1.146 L86.498,2.866 L84.779,1.146 C84.6845872,1.04859675 84.5546506,0.993734618 84.419,0.994 L84.42,0.994 Z M171.533,1.84 C171.113,1.84 170.683,1.978 170.346,2.271 C169.9813,2.60051085 169.771003,3.06751367 169.766,3.559 C169.75,4.119 169.966,4.608 170.311,4.919 C170.654,5.232 171.098,5.377 171.533,5.377 C171.968,5.377 172.41,5.232 172.753,4.92 C173.098,4.608 173.315,4.12 173.299,3.559 C173.293997,3.06751367 173.0837,2.60051085 172.719,2.271 C172.388673,1.98884702 171.967405,1.83575543 171.533,1.84 Z M222.32,1.98 C222.182565,1.98022027 222.05128,2.03700183 221.957,2.137 C221.648,2.216 221.317,2.277 221.127,2.49 C220.866063,2.78961316 220.724408,3.17471559 220.729,3.572 C220.729,3.956 220.853,4.347 221.127,4.654 C221.4,4.962 221.832,5.162 222.32,5.162 C222.81,5.162 223.238,4.962 223.512,4.654 C223.785,4.347 223.912,3.956 223.912,3.572 C223.912,3.188 223.785,2.796 223.512,2.488 C223.205039,2.15678638 222.771513,1.97202835 222.32,1.98 Z M171.533,2.84 C171.734,2.84 171.928,2.909 172.063,3.025 C172.197,3.142 172.293,3.301 172.301,3.588 C172.31,3.896 172.217,4.058 172.082,4.18 C171.92886,4.30992251 171.733807,4.37991421 171.533,4.377 C171.332193,4.37991421 171.13714,4.30992251 170.984,4.18 C170.85,4.057 170.757,3.896 170.766,3.588 C170.774,3.301 170.868,3.142 171.002,3.025 C171.151748,2.90282831 171.339756,2.83732673 171.533,2.84 Z M222.32,2.98 C222.559,2.98 222.675,3.05 222.766,3.152 C222.856,3.254 222.912,3.41 222.912,3.572 C222.914615,3.72426611 222.862848,3.87247472 222.766,3.99 C222.676,4.092 222.559,4.162 222.32,4.162 C222.082,4.162 221.965,4.092 221.875,3.99 C221.778229,3.8724311 221.726473,3.72425197 221.729,3.572 C221.729,3.411 221.785,3.256 221.875,3.154 C221.965,3.053 222.082,2.98 222.32,2.98 Z M23.16,13.002 C22.732,13.002 22.298,13.142 21.957,13.445 C21.617,13.748 21.393,14.222 21.393,14.77 C21.393,15.317 21.616,15.793 21.957,16.096 C22.298,16.399 22.734,16.539 23.162,16.539 C23.59,16.539 24.024,16.399 24.365,16.096 C24.706,15.793 24.93,15.317 24.93,14.77 C24.9294619,14.6348967 24.8742728,14.5057614 24.777,14.412 C24.695,14.047 24.614,13.666 24.365,13.445 C24.0311007,13.1548115 23.6023516,12.9971884 23.16,13.002 Z M23.16,14.002 C23.366,14.002 23.567,14.074 23.701,14.193 C23.836,14.313 23.93,14.473 23.93,14.77 C23.93,15.067 23.836,15.228 23.701,15.348 C23.5499383,15.474045 23.3587209,15.5418048 23.162,15.539 C22.9650094,15.5416024 22.7735456,15.4738809 22.622,15.348 C22.486,15.228 22.392,15.068 22.392,14.77 C22.392,14.472 22.486,14.313 22.622,14.193 C22.7727995,14.0671804 22.9636216,13.999435 23.16,14.002 Z M49.682,23.914 C49.6819987,23.9146667 49.6819987,23.9153333 49.682,23.916 L47.82,24.488 L45.959,23.916 C45.242,23.695 44.524,24.41 44.744,25.127 C44.7446667,25.1270013 44.7453333,25.1270013 44.746,25.127 L45.316,26.988 L44.746,28.848 C44.524,29.566 45.241,30.285 45.959,30.063 L47.82,29.488 L49.68,30.063 C50.205,30.225 50.599,29.839 50.756,29.363 C50.8969085,29.2328243 50.9509149,29.033506 50.895,28.85 L50.32,26.988 L50.895,25.129 C51.116,24.412 50.399,23.694 49.682,23.914 Z M45.719,24.889 L47.533,25.447 C47.7192372,25.5051224 47.9187628,25.5051224 48.105,25.447 L49.92,24.889 L49.361,26.703 L49.363,26.703 C49.3048776,26.8892372 49.3048776,27.0887628 49.363,27.275 L49.361,27.273 L49.92,29.088 L48.104,28.529 L48.106,28.531 C47.9194535,28.4726693 47.7195465,28.4726693 47.533,28.531 L47.533,28.529 L45.717,29.089 L46.277,27.275 L46.277,27.273 C46.3342698,27.0873156 46.3342698,26.8886844 46.277,26.703 L46.277,26.701 L45.719,24.889 Z M5.785,40.342 C5.60752847,40.3472389 5.44614613,40.4461997 5.361,40.602 L4.091,42.926 L1.768,44.197 C1.60782688,44.2847556 1.50824519,44.4528625 1.50824519,44.6355 C1.50824519,44.8181375 1.60782688,44.9862444 1.768,45.074 L4.092,46.344 L5.363,48.67 C5.45112028,48.8299737 5.61945446,48.9291727 5.80209237,48.9287562 C5.98473029,48.9283397 6.15261028,48.828374 6.24,48.668 L7.51,46.346 L9.834,45.074 C9.99519665,44.9865574 10.0955891,44.8178864 10.0955891,44.6345 C10.0955891,44.4511136 9.99519665,44.2824426 9.834,44.195 L7.51,42.925 L6.238,40.602 C6.14786501,40.437084 5.97286399,40.336642 5.785,40.342 Z M245.094,40.532 C244.938388,40.5351038 244.793096,40.6104966 244.700969,40.7359458 C244.608842,40.861395 244.580389,41.0225914 244.624,41.172 L245.367,43.715 L244.623,46.258 C244.572163,46.4333474 244.620939,46.6224632 244.750242,46.7513499 C244.879545,46.8802367 245.068817,46.9284021 245.244,46.877 L247.787,46.133 L250.327,46.879 C250.502484,46.93031 250.691981,46.8817475 250.821158,46.7523619 C250.950336,46.6229763 250.998593,46.4334012 250.947,46.258 L250.203,43.717 L250.945,41.174 C250.996593,40.9985988 250.948336,40.8090237 250.819158,40.6796381 C250.689981,40.5502525 250.500484,40.50169 250.325,40.553 L247.785,41.299 L245.242,40.553 C245.194049,40.5382848 245.144158,40.5308685 245.094,40.531 L245.094,40.532 Z M245.84,41.77 L247.645,42.299 C247.736429,42.3256667 247.833571,42.3256667 247.925,42.299 L249.729,41.771 L249.201,43.576 C249.174139,43.6677408 249.174139,43.7652592 249.201,43.857 L249.731,45.662 L247.928,45.132 C247.835947,45.1049429 247.738053,45.1049429 247.646,45.132 L245.84,45.662 L246.37,43.855 C246.396667,43.7635714 246.396667,43.6664286 246.37,43.575 L245.84,41.77 Z M5.8,41.885 L6.703,43.535 C6.74902799,43.6195264 6.81847364,43.688972 6.903,43.735 L8.553,44.637 L6.903,45.539 C6.81888845,45.5842199 6.7494859,45.6525814 6.703,45.736 L5.801,47.386 L4.898,45.736 C4.85208797,45.6519817 4.78301829,45.582912 4.699,45.537 L3.049,44.635 L4.699,43.732 C4.78338749,43.6862411 4.85281869,43.6171571 4.899,43.533 L5.8,41.885 Z M158.168,42.127 C157.68,42.127 157.25,42.327 156.977,42.635 C156.715783,42.9345154 156.573779,43.3196012 156.578,43.717 C156.578,44.1 156.703,44.489 156.977,44.797 C157.25,45.104 157.68,45.307 158.168,45.307 C158.656,45.307 159.084,45.104 159.358,44.797 C159.631,44.489 159.756,44.1 159.756,43.717 C159.760221,43.3196012 159.618217,42.9345154 159.357,42.635 C159.050965,42.3042536 158.618549,42.1195036 158.168,42.127 Z M77.75,42.619 C77.6202069,42.622439 77.4968415,42.676232 77.406,42.769 L75.816,44.361 C75.6860217,44.4865372 75.6338937,44.6724389 75.6796514,44.8472537 C75.7254091,45.0220684 75.8619316,45.1585909 76.0367463,45.2043486 C76.2115611,45.2501063 76.3974628,45.1979783 76.523,45.068 L78.113,43.478 C78.2613499,43.3343782 78.3061568,43.1143378 78.2257825,42.9241408 C78.1454082,42.7339438 77.9563866,42.6127157 77.75,42.619 Z M158.168,43.127 C158.406,43.127 158.521,43.197 158.611,43.299 C158.701,43.4 158.756,43.555 158.756,43.717 C158.758858,43.868527 158.707428,44.0160798 158.611,44.133 C158.521,44.234 158.406,44.307 158.168,44.307 C157.93,44.307 157.813,44.234 157.723,44.133 C157.62665,44.0160359 157.57523,43.8685129 157.578,43.717 C157.575104,43.5648595 157.626511,43.4166649 157.723,43.299 C157.813,43.198 157.93,43.127 158.168,43.127 Z M73.328,47.041 C73.1979218,47.0449682 73.0745161,47.0994963 72.984,47.193 L71.394,48.783 C71.2677066,48.909472 71.2184787,49.0937137 71.26486,49.266323 C71.3112413,49.4389323 71.4461853,49.5736857 71.61886,49.619823 C71.7915347,49.6659603 71.9757066,49.616472 72.102,49.49 L73.692,47.9 C73.8405052,47.7562547 73.8852628,47.535953 73.8046238,47.3456536 C73.7239847,47.1553542 73.5345705,47.0342824 73.328,47.041 Z M31.198,56.621 C31.0390161,56.62109 30.8895506,56.6967827 30.7953964,56.8248877 C30.7012422,56.9529926 30.6736228,57.1182393 30.721,57.27 L30.959,58.043 L30.719,58.818 C30.6635046,58.9953045 30.7108941,59.1887601 30.842055,59.3203407 C30.9732159,59.4519213 31.1665191,59.4999286 31.344,59.445 L32.117,59.207 L32.895,59.445 C33.0720389,59.4995131 33.2647084,59.4516795 33.3956939,59.3206939 C33.5266795,59.1897084 33.5745131,58.9970389 33.52,58.82 L33.281,58.045 L33.52,57.27 C33.5745131,57.0929611 33.5266795,56.9002916 33.3956939,56.7693061 C33.2647084,56.6383205 33.0720389,56.5904869 32.895,56.645 L32.119,56.883 L31.344,56.645 C31.2964731,56.6297056 31.2469234,56.6216158 31.197,56.621 L31.198,56.621 Z M31.953,57.877 L31.973,57.883 C32.0690955,57.9126685 32.1719045,57.9126685 32.268,57.883 L32.285,57.877 L32.279,57.897 C32.2495369,57.9927855 32.2495369,58.0952145 32.279,58.191 L32.285,58.211 L32.265,58.205 C32.1692145,58.1755369 32.0667855,58.1755369 31.971,58.205 L31.953,58.211 L31.959,58.191 C31.9886685,58.0949045 31.9886685,57.9920955 31.959,57.896 L31.953,57.877 Z M181.969,64.586 C181.612939,64.5786119 181.282287,64.769758 181.111,65.082 C181.110999,65.0826667 181.110999,65.0833333 181.111,65.084 L180.199,66.807 L178.479,67.717 C177.817,68.068 177.817,69.078 178.479,69.43 L180.201,70.342 L181.113,72.064 C181.20263,72.2335487 181.381342,72.3368907 181.573,72.33 C182.019,72.556 182.571,72.55 182.828,72.064 C182.828,72.0636667 182.828,72.0633333 182.828,72.063 L183.738,70.342 L185.459,69.43 C186.12,69.078 186.12,68.068 185.459,67.717 L183.736,66.805 L182.824,65.084 C182.824001,65.0833333 182.824001,65.0826667 182.824,65.082 C182.653718,64.7702356 182.324169,64.5790581 181.969,64.586 Z M181.969,65.602 L182.857,67.282 C182.948639,67.4535766 183.089747,67.5936387 183.262,67.684 L184.942,68.574 L183.262,69.461 C183.261331,69.4616648 183.260665,69.4623314 183.26,69.463 C183.088524,69.5537325 182.948158,69.6937501 182.857,69.865 L181.969,71.545 L181.082,69.869 L181.08,69.865 C180.989048,69.6927532 180.848247,69.5519521 180.676,69.461 L178.998,68.572 L180.676,67.686 L180.678,67.684 C180.849473,67.5931424 180.989569,67.4526977 181.08,67.281 L181.08,67.279 L181.969,65.602 Z M57.012,66.646 C56.8793863,66.6481048 56.7530422,66.7028128 56.6607707,66.798085 C56.5684992,66.8933572 56.5178612,67.0213868 56.52,67.154 L56.52,68.074 L55.6,68.074 C55.3238576,68.074 55.1,68.2978576 55.1,68.574 C55.1,68.8501424 55.3238576,69.074 55.6,69.074 L56.52,69.074 L56.52,69.994 C56.52,70.2701424 56.7438576,70.494 57.02,70.494 C57.2961424,70.494 57.52,70.2701424 57.52,69.994 L57.52,69.074 L58.44,69.074 C58.7161424,69.074 58.94,68.8501424 58.94,68.574 C58.94,68.2978576 58.7161424,68.074 58.44,68.074 L57.52,68.074 L57.52,67.154 C57.5221841,67.0186123 57.4693645,66.8881276 57.3736184,66.7923816 C57.2778724,66.6966355 57.1473877,66.6438159 57.012,66.646 Z M228.752,70.645 C228.569433,70.6480784 228.403062,70.7504311 228.318,70.912 L227.715,72.055 L226.57,72.658 C226.405681,72.7444468 226.302796,72.9148288 226.302796,73.1005 C226.302796,73.2861712 226.405681,73.4565532 226.57,73.543 L227.715,74.148 L228.318,75.291 C228.404418,75.4544667 228.573996,75.5568961 228.758899,75.557315 C228.943803,75.5577338 229.113842,75.4560736 229.201,75.293 L229.809,74.15 L230.953,73.543 C231.116269,73.4562115 231.218314,73.2864031 231.218314,73.1015 C231.218314,72.9165969 231.116269,72.7467885 230.953,72.66 L229.809,72.055 L229.203,70.91 C229.114548,70.7438016 228.940235,70.6413786 228.752,70.645 Z M228.762,72.213 L228.998,72.658 C229.044321,72.7472171 229.116459,72.8204003 229.205,72.868 L229.649,73.102 L229.205,73.338 C229.116894,73.3848032 229.044803,73.4568937 228.998,73.545 L228.762,73.99 L228.526,73.545 C228.479679,73.4557829 228.407541,73.3825997 228.319,73.335 L227.875,73.102 L228.319,72.867 C228.407396,72.8196655 228.479518,72.7468468 228.526,72.658 L228.762,72.213 Z M2.008,81.637 C1.52,81.637 1.025,81.796 0.638,82.139 C0.253,82.482 0,83.017 0,83.645 C0,84.272 0.253,84.805 0.639,85.148 C1.025,85.491 1.519,85.652 2.008,85.652 C2.496,85.652 2.991,85.492 3.377,85.148 C3.763,84.806 4.016,84.272 4.016,83.645 C4.016,83.017 3.763,82.482 3.377,82.139 C2.99725517,81.8094781 2.50974537,81.6308431 2.007,81.637 L2.008,81.637 Z M2.008,82.637 C2.274,82.637 2.533,82.727 2.713,82.887 C2.893,83.047 3.016,83.267 3.016,83.645 C3.016,84.022 2.893,84.241 2.713,84.4 C2.533,84.56 2.273,84.652 2.008,84.652 C1.742,84.652 1.482,84.56 1.303,84.4 C1.123,84.24 1,84.022 1,83.645 C1,83.267 1.123,83.046 1.303,82.887 C1.483,82.727 1.742,82.637 2.008,82.637 Z M25.111,102.157 C24.9292226,102.160044 24.7634219,102.261515 24.678,102.422 L24.07,103.566 L22.928,104.172 C22.763681,104.258447 22.6607955,104.428829 22.6607955,104.6145 C22.6607955,104.800171 22.763681,104.970553 22.928,105.057 L24.07,105.66 L24.676,106.805 C24.7624468,106.969319 24.9328288,107.072204 25.1185,107.072204 C25.3041712,107.072204 25.4745532,106.969319 25.561,106.805 L26.166,105.66 L27.311,105.057 C27.475319,104.970553 27.5782045,104.800171 27.5782045,104.6145 C27.5782045,104.428829 27.475319,104.258447 27.311,104.172 L26.166,103.566 L25.561,102.422 C25.4729841,102.255739 25.2990962,102.152952 25.111,102.156 L25.111,102.157 Z M25.119,103.725 L25.354,104.17 C25.4010689,104.258251 25.4735234,104.330357 25.562,104.377 L26.008,104.613 L25.562,104.85 C25.4735234,104.896643 25.4010689,104.968749 25.354,105.057 L25.117,105.5 L24.883,105.057 C24.8358843,104.967347 24.7626532,104.894116 24.673,104.847 L24.23,104.613 L24.676,104.377 C24.7641063,104.330197 24.8361968,104.258106 24.883,104.17 L25.119,103.725 Z M209.887,106.043 C209.754386,106.045105 209.628042,106.099813 209.535771,106.195085 C209.443499,106.290357 209.392861,106.418387 209.395,106.551 L209.395,108.981 L206.967,108.981 C206.690858,108.981 206.467,109.204858 206.467,109.481 C206.467,109.757142 206.690858,109.981 206.967,109.981 L209.395,109.981 L209.395,112.411 C209.395,112.687142 209.618858,112.911 209.895,112.911 C210.171142,112.911 210.395,112.687142 210.395,112.411 L210.395,109.981 L212.826,109.981 C213.102142,109.981 213.326,109.757142 213.326,109.481 C213.326,109.204858 213.102142,108.981 212.826,108.981 L210.395,108.981 L210.395,106.551 C210.397184,106.415612 210.344364,106.285128 210.248618,106.189382 C210.152872,106.093636 210.022388,106.040816 209.887,106.043 Z" fill-rule="nonzero"></path>
            <path d="M84.448,137.242 C68.516,137.242 55.601,135.707 55.601,133.812 C55.601,132.864558 58.8296058,132.007105 64.0495441,131.386489 L70,134.5 L76.8233708,132.5 L77,133.5 L86,135.5 L90.5,133 L98,135.5 L103.5,133 L103.573774,131.243948 C109.536986,131.872226 113.296,132.789731 113.296,133.812 C113.295,135.707 100.379,137.242 84.448,137.242 Z" fill-opacity="0.5" fill-rule="nonzero"></path>
            <path d="M91.66,75.422 C91.66,75.422 90.585,78.821 87.21,79.797 C84.466,77.851 82.852,75.547 82.852,75.547 C82.001,79.131 83.826,80.77 83.826,80.77 L83.824,80.771 C91.277,85.186 96.105,82.377 96.105,82.377 C96.096,82.378 96.087,82.377 96.078,82.379 L96.108,82.375 L96.105,82.373 C92.575,80.128 91.66,75.422 91.66,75.422 Z M58.502,95.898 C56.462,95.946 54.597,96.67 53.85,98.865 C53.85,98.865 57.817,98.875 60.637,101.791 C60.637,101.791 61.169,100.549 62.094,99.411 C65.162,99.153 67.641,101.939 67.641,101.939 C67.641,101.939 68.239,98.539 65.783,97.619 L65.777,97.619 C65.757,97.609 61.892,95.819 58.502,95.899 L58.502,95.898 Z M104.721,104.652 C97.181,108.314 90.661,108.854 90.661,108.854 C88.397,111.172 84.411,112.463 84.411,112.463 L85.436,112.733 L84.895,113.057 L85.434,118.82 C84.626,118.82 83.01,118.336 83.01,118.336 C82.956,117.635 83.709,115.748 83.709,115.748 C79.562,115.694 76.111,113.92 76.111,113.92 C71.855,115.482 62.533,113.434 62.533,113.434 C62.533,113.434 63.775,127.278 64.045,131.912 L69.861,134.715 C69.861,134.715 74.602,132.775 76.865,132.289 L76.869,132.289 L76.869,133.259 C82.957,134.392 85.922,135.846 85.922,135.846 L90.391,133.206 C93.84,133.851 97.826,135.576 97.826,135.576 L103.373,133.206 L104.99,110.418 L101.38,109.608 C103.806,107.184 104.72,104.652 104.72,104.652 L104.721,104.652 Z" fill-opacity="0.75" fill-rule="nonzero"></path>
            <path d="M91.65,74.922 C91.4357023,74.926719 91.2482529,75.0675072 91.184,75.272 C91.184,75.272 90.224,78.251 87.307,79.236 C84.767,77.382 83.262,75.26 83.262,75.26 C83.1647174,75.1209761 83.0035666,75.0407772 82.834,75.047 C82.6093472,75.0547278 82.417467,75.2114232 82.365,75.43 C81.917,77.317 82.17,78.744 82.557,79.691 C82.883,80.492 83.219,80.787 83.347,80.918 C83.3739864,81.0047842 83.4241162,81.0825719 83.492,81.143 C83.5160546,81.1648207 83.542178,81.1842458 83.57,81.201 C87.378,83.456 90.561,83.886 92.795,83.729 C94.809,83.587 96.03,82.979 96.262,82.855 C96.4264261,82.8027438 96.5522945,82.6694095 96.595,82.5022482 C96.6377054,82.3350869 96.5912135,82.1577189 96.472,82.033 C96.462755,82.0226008 96.4530799,82.0125921 96.443,82.003 C96.4403491,82.0013082 96.4376823,81.9996415 96.435,81.998 C96.4225002,81.987366 96.4094845,81.9773539 96.396,81.968 C96.388497,81.9621152 96.3808272,81.9564462 96.373,81.951 L96.371,81.949 C93.077,79.852 92.152,75.326 92.152,75.326 C92.1053233,75.0870866 91.8933684,74.9165093 91.65,74.922 Z M91.559,76.676 C91.876,77.85 92.622,80.126 94.705,81.941 C92.253,81.905 90.092,81.026 88.32,79.92 C90.236,79.064 91.091,77.646 91.559,76.676 Z M83.234,76.818 C84.2855712,78.074968 85.4925667,79.1932534 86.826,80.146 C86.8794627,80.2019654 86.9451879,80.2447553 87.018,80.271 C88.578,81.351 90.502,82.321 92.766,82.723 C92.748,82.724 92.743,82.729 92.725,82.73 C90.694,82.873 87.755,82.49 84.139,80.365 C84.117,80.346 83.786,80.058 83.482,79.312 C83.252,78.748 83.158,77.869 83.234,76.818 Z M58.488,95.396 C57.7804432,95.4045436 57.0778398,95.5153568 56.402,95.725 C55.142,96.131 54.077,97.049 53.502,98.505 C53.4459735,98.560388 53.4038283,98.6282314 53.379,98.703 L53.377,98.705 C53.3593483,98.7565075 53.3502283,98.8105523 53.35,98.865 C53.35,99.1411424 53.5738576,99.365 53.85,99.365 C53.85,99.365 57.62,99.391 60.277,102.139 C60.3936855,102.259657 60.5631266,102.313715 60.7281287,102.282928 C60.8931308,102.252141 61.0316765,102.140617 61.097,101.986 C61.097,101.986 61.561,100.926 62.346,99.904 C65.002,99.818 67.266,102.272 67.266,102.272 C67.3932502,102.415851 67.5916498,102.474101 67.7764685,102.421874 C67.9612872,102.369647 68.0998574,102.216175 68.133,102.027 C68.133,102.027 68.3,101.106 68.127,100.045 C67.957,98.997 67.399,97.723 66.007,97.175 C66.003,97.174 65.999,97.17 65.994,97.168 L65.959,97.152 C65.9576697,97.1513274 65.9563363,97.1506607 65.955,97.15 C65.845,97.1 63.403,95.977 60.641,95.553 C59.929275,95.4380668 59.2088694,95.3855337 58.488,95.396 Z M58.514,96.402 C59.156,96.387 59.827,96.442 60.488,96.543 C61.736,96.735 62.9,97.09 63.822,97.408 C63.692,97.466 63.546,97.491 63.424,97.561 C62.764,97.939 62.221,98.478 61.764,99.031 C61.7331025,99.0575476 61.705565,99.0877716 61.682,99.121 C61.675,99.13 61.665,99.138 61.658,99.146 C60.913,100.079 60.671,100.691 60.496,101.068 C58.073,98.899 55.61,98.554 54.654,98.49 C55.134,97.576 55.804,96.97 56.709,96.678 C57.257,96.501 57.871,96.418 58.514,96.402 Z M65.211,98.057 C65.352,98.057 65.498,98.076 65.646,98.105 C66.642,98.497 66.999,99.347 67.139,100.205 C67.195,100.555 67.148,100.592 67.143,100.867 C66.394,100.171 65.099,99.162 63.193,98.969 C63.425,98.761 63.667,98.573 63.92,98.428 C64.331,98.192 64.754,98.053 65.21,98.057 L65.211,98.057 Z M104.729,104.152 C104.650376,104.150914 104.572604,104.168387 104.502,104.203 C97.047,107.824 90.619,108.355 90.619,108.355 C90.499177,108.365054 90.3869903,108.417952 90.303,108.504 C88.18,110.678 84.256,111.988 84.256,111.988 C84.0441682,112.055985 83.9027355,112.255753 83.9089901,112.478139 C83.9152447,112.700525 84.0676819,112.892029 84.283,112.948 L84.4,112.978 C84.3934404,113.019335 84.3920965,113.06133 84.396,113.103 L84.875,118.228 C84.588,118.185 84.329,118.162 84.035,118.092 C83.783,118.032 83.742,118.015 83.582,117.971 C83.624,117.697 83.68,117.345 83.814,116.934 C83.99,116.393 84.174,115.936 84.174,115.936 C84.1747006,115.932674 84.1753673,115.92934 84.176,115.926 C84.1808405,115.913513 84.1851773,115.900836 84.189,115.888 C84.1897006,115.884674 84.1903673,115.88134 84.191,115.878 C84.199704,115.845294 84.2050648,115.811789 84.207,115.778 C84.2089477,115.744949 84.2076078,115.711786 84.203,115.679 C84.2004861,115.66251 84.1971486,115.646156 84.193,115.63 C84.1516995,115.464408 84.0287899,115.331319 83.867,115.277 C83.8515718,115.271567 83.8358862,115.266895 83.82,115.263 C83.7852686,115.254558 83.7497322,115.249865 83.714,115.249 C79.707,115.197 76.341,113.474 76.341,113.474 C76.2164309,113.409676 76.0705789,113.400606 75.939,113.449 C73.989,114.165 70.614,114.079 67.781,113.765 C66.0697151,113.575601 64.3684459,113.304626 62.683,112.953 C62.6249679,112.93408 62.563962,112.925946 62.503,112.929 C62.3603993,112.937115 62.2280767,113.005828 62.139411,113.117807 C62.0507453,113.229785 62.0142023,113.374338 62.039,113.515 C62.0389947,113.516333 62.0389947,113.517667 62.039,113.519 C62.045,113.595 63.277,127.351 63.545,131.941 C63.5549226,132.122027 63.6620611,132.2835 63.825,132.363 L69.645,135.166 C69.7724005,135.226648 69.9194953,135.230643 70.05,135.177 C70.05,135.177 74.05,133.617 76.369,132.987 L76.369,133.259 C76.3682587,133.500242 76.5398759,133.707612 76.777,133.752 C82.818,134.875 85.701,136.295 85.701,136.295 C85.8519725,136.369097 86.0300818,136.362333 86.175,136.277 L90.463,133.744 C93.785,134.397 97.627,136.034 97.627,136.034 C97.7527977,136.087926 97.8952023,136.087926 98.021,136.034 L103.57,133.666 C103.742492,133.592636 103.859462,133.428956 103.873,133.242 L104.17,129.052 C104.173979,129.028206 104.175986,129.004124 104.176,128.98 L104.857,119.347 C104.863939,119.309758 104.866623,119.271848 104.865,119.234 L105.485,110.505 C105.510919,110.366937 105.477564,110.22434 105.393096,110.112097 C105.308629,109.999854 105.180842,109.928321 105.041,109.915 L102.244,109.291 C104.245,107.027 105.189,104.821 105.189,104.821 C105.24383,104.669448 105.222246,104.500758 105.131025,104.367893 C105.039804,104.235028 104.890132,104.15428 104.729,104.151 L104.729,104.152 Z M103.703,105.607 C103.241,106.524 102.498,107.784 101.027,109.254 C101.014712,109.265731 101.003031,109.27808 100.992,109.291 C100.992,109.291 100.743,109.594 100.467,109.916 C100.328,110.076 100.182,110.243 100.06,110.375 C99.962,110.482 99.903,110.538 99.88,110.561 C99.805,110.591 96.14,112.065 91.07,112.396 C91.0280788,112.394074 90.9860819,112.397434 90.945,112.406 C89.3375771,112.50473 87.7247408,112.470279 86.123,112.303 C87.393,111.795 89.241,110.921 90.869,109.323 C91.108,109.302 96.784,108.705 103.703,105.608 L103.703,105.607 Z M101.564,110.162 L103.582,110.615 L98.462,113.412 L94.879,112.918 C98.159,112.326 100.326,111.467 100.326,111.467 C100.365539,111.450828 100.402843,111.429656 100.437,111.404 C100.581,111.297 100.665,111.194 100.799,111.049 C100.932,110.903 101.082,110.732 101.225,110.566 C101.405,110.356 101.465,110.281 101.565,110.162 L101.564,110.162 Z M104.428,111.293 L103.887,118.914 L101.818,119.787 C101.563397,119.894419 101.444081,120.187897 101.5515,120.4425 C101.658919,120.697103 101.952397,120.816419 102.207,120.709 L103.807,120.035 L103.197,128.627 L100.176,129.922 C99.562,130.184 99.955,131.103 100.568,130.842 L103.118,129.75 L102.896,132.865 L98.357,134.805 L98.42,133.369 C98.45,132.674 98.485,131.843 98.523,130.91 L98.609,128.758 L99.221,128.5 C99.883,128.261 99.464,127.272 98.832,127.58 L98.654,127.654 C98.694,126.612 98.734,125.521 98.774,124.398 L98.774,124.371 C98.9968341,124.502367 99.2830774,124.442083 99.434,124.232 C99.434,124.232 100.562,122.658 101.461,121.637 C101.591013,121.489017 101.622024,121.278489 101.540203,121.099303 C101.458382,120.920117 101.278979,120.805669 101.082,120.807 C101.030346,120.807432 100.979071,120.815865 100.93,120.832 L98.873,121.514 L98.895,120.787 C98.932,119.58 98.965,118.38 98.992,117.227 L98.996,116.992 C99.114,116.89 99.532,116.517 100.242,116.043 C101.044,115.508 102.062,115.016 102.656,115.016 C103.333,115.026 103.333,114.006 102.656,114.016 C101.61,114.016 100.552,114.636 99.688,115.213 C99.308,115.466 99.284,115.515 99.024,115.719 L99.053,114.229 L104.428,111.293 Z M85.547,113.248 C87.3717609,113.467656 89.2128926,113.518538 91.047,113.4 L98.049,114.365 L98.016,116.068 C97.225,115.788 95.253,115.146 92.799,115.246 C92.099,115.24 92.142,116.307 92.839,116.244 C95.31,116.144 97.549,116.942 97.996,117.107 C97.996,117.14 97.996,117.168 97.994,117.201 C97.9581688,118.664494 97.9165018,120.127839 97.869,121.591 C97.023,121.396 95.023,121.011 92.879,121.221 L92.853,121.217 L92.857,121.221 C92.824,121.224 92.799,121.213 92.766,121.217 C92.5118993,121.244604 92.3195274,121.459405 92.32,121.715 C92.3204057,121.977262 92.5233809,122.194642 92.785,122.213 C92.785,122.213 93.829,122.285 95.104,122.59 C96.004,122.805 96.998,123.153 97.795,123.63 C97.788,123.898 97.779,124.264 97.775,124.365 C97.735,125.505 97.693,126.615 97.652,127.672 C95.802,126.967 92.955,126.152 92.955,126.152 C92.9069944,126.137638 92.8571059,126.130559 92.807,126.131 C92.221,126.135 92.118,126.969 92.686,127.115 C92.686,127.115 95.953,128.045 97.611,128.707 C97.531952,130.75291 97.4469516,132.798585 97.356,134.844 C96.384,134.442 93.693,133.387 90.928,132.81 L91.029,131.732 C91.0397809,131.687845 91.044491,131.642427 91.043,131.597 L91.637,125.347 C91.6510303,125.293538 91.656099,125.23812 91.652,125.183 L92.084,120.625 C92.0963303,120.545867 92.0894712,120.46493 92.064,120.389 C92.063,120.383 92.059,120.377 92.057,120.371 C92.0241952,120.283929 91.9677451,120.207738 91.894,120.151 C92.058462,120.024471 92.1276819,119.809512 92.0679547,119.610791 C92.0082275,119.412071 91.8319673,119.270892 91.625,119.256 C91.625,119.256 88.965,119.063 85.896,118.404 L85.422,113.324 L85.547,113.248 Z M64.012,114.209 C64.802,114.364 65.91,114.563 67.672,114.758 C70.476,115.068 73.74,115.188 76.039,114.426 C76.233,114.524 78.657,115.679 81.924,116.07 C76.397,118.483 69.792,118.057 69.694,118.05 C68.132,117.54 66.417,116.32 65.115,115.209 C64.7382129,114.885867 64.3704065,114.552407 64.012,114.209 Z M63.148,114.766 C63.516,115.122 63.945,115.525 64.465,115.969 C65.738,117.056 67.385,118.267 69.076,118.895 L68.996,120.793 C68.385,120.363 67.641,119.973 66.889,119.635 C65.795,119.145 64.83,118.789 64.83,118.789 C64.7678455,118.765126 64.7015489,118.753907 64.635,118.756 C64.3959211,118.765347 64.1969698,118.942756 64.1604052,119.179207 C64.1238406,119.415658 64.2599115,119.644875 64.485,119.726 C64.485,119.726 65.421,120.073 66.479,120.546 C67.441,120.979 68.492,121.555 68.947,121.941 L68.85,124.256 C68.198,124.138 67.485,123.942 66.89,123.636 C66.149,123.256 65.625,122.885 65.625,122.885 C65.215,122.597 64.685,123.022 64.875,123.485 C66.176,126.6 68.547,127.883 68.547,127.883 C68.7102407,127.97035 68.9083867,127.960346 69.062,127.857 L69.123,127.817 L69.163,128.959 L69.041,128.916 C68.8708676,128.847404 68.6768328,128.87748 68.5354496,128.994361 C68.3940663,129.111242 68.3280385,129.296159 68.3634165,129.476156 C68.3987946,129.656152 68.5298974,129.802324 68.705,129.857 L69.199,130.033 L69.332,133.904 L64.52,131.586 C64.501,131.291 64.46,130.778 64.436,130.43 C65.029,130.673 66.154,131.138 67.424,131.613 C67.5913789,131.675522 67.7793983,131.643998 67.9172329,131.530304 C68.0550676,131.416611 68.1217772,131.23802 68.092233,131.061804 C68.0626887,130.885589 67.941379,130.738521 67.774,130.676 C66.334,130.138 64.634,129.436 64.355,129.32 C64.186,127 63.965,124.218 63.73,121.457 C64.3961152,121.637585 65.0373217,121.899912 65.639,122.238 C65.8789677,122.374967 66.1845334,122.291468 66.3215,122.0515 C66.4584666,121.811532 66.3749677,121.505967 66.135,121.369 C65.3531355,120.926442 64.5119335,120.59811 63.637,120.394 C63.405,117.694 63.215,115.512 63.148,114.766 Z M82.818,116.773 C82.701,117.133 82.586,117.501 82.535,117.861 C82.13,117.884 81.015,117.935 79.473,118.001 C80.6205043,117.686321 81.7394606,117.275535 82.818,116.773 Z M76.805,118.609 C76.8088187,118.726297 76.8537758,118.838512 76.932,118.926 C76.932,118.926 77.487,119.513 78.539,120.248 L75.572,122.25 C75.4073579,122.326001 75.2967697,122.485186 75.283,122.666 C75.282988,122.668 75.282988,122.67 75.283,122.672 C75.2815963,122.687627 75.2809289,122.703311 75.281,122.719 C75.2809947,122.720333 75.2809947,122.721667 75.281,122.723 C75.2817134,122.737384 75.283048,122.751731 75.285,122.766 C75.284988,122.768 75.284988,122.77 75.285,122.772 C75.2870382,122.786443 75.2897074,122.80079 75.293,122.815 C75.297125,122.834975 75.3024683,122.854678 75.309,122.874 C75.379,123.124 75.443,123.434 75.506,123.744 C74.936351,123.718995 74.3659999,123.713992 73.796,123.729 C72.626,123.759 71.187,123.895 69.852,124.247 L69.943,122.088 C70.41,121.927 72.853,121.095 74.51,121.045 C74.7861424,121.036163 75.0028366,120.805142 74.994,120.529 C74.9851634,120.252858 74.7541424,120.036163 74.478,120.045 C72.843,120.095 70.884,120.702 69.988,121.006 L70.07,119.069 C70.848,119.111 73.422,119.201 76.805,118.609 Z M82.959,118.839 C83.031,118.861 83.333,118.952 83.801,119.064 C84.284,119.18 84.841,119.292 85.322,119.309 C87.807,119.867 89.028,119.927 90.004,120.018 C88.6185708,120.729472 87.2375445,121.449486 85.861,122.178 C83.081,121.61 81.052,120.662 79.717,119.834 C79.6924064,119.816684 79.6663006,119.801623 79.639,119.789 C78.966,119.366 78.989,119.307 78.668,119.031 C80.658,118.948 82.88,118.844 82.959,118.84 L82.959,118.839 Z M79.455,120.836 C80.31,121.346 81.402,121.871 82.729,122.342 C80.236,122.166 78.56,122.157 77.463,122.182 L79.455,120.836 Z M91.005,121.412 L90.672,124.922 C90.49,125.03 89.88,125.392 89.109,125.854 C88.8717937,125.995937 88.7945628,126.303294 88.9365,126.5405 C89.0784372,126.777706 89.3857937,126.854937 89.623,126.713 L90.555,126.156 L90.066,131.283 C89.901,131.353 89.736,131.414 89.338,131.615 C88.782,131.895 88.128,132.26 87.664,132.723 C87.5340217,132.848537 87.4818937,133.034439 87.5276514,133.209254 C87.5734091,133.384068 87.7099316,133.520591 87.8847463,133.566349 C88.0595611,133.612106 88.2454628,133.559978 88.371,133.43 C88.671,133.131 89.275,132.767 89.789,132.508 C89.882,132.461 89.874,132.472 89.959,132.432 L89.912,132.908 L86.457,134.949 L86.619,131.396 C86.951,131.157 87.819,130.608 89.404,130.096 C89.6456474,130.021536 89.7936649,129.778382 89.7488354,129.529528 C89.7040058,129.280673 89.480442,129.104457 89.228,129.119 C89.1837047,129.121858 89.1399872,129.130601 89.098,129.145 C87.92,129.525 87.168,129.904 86.674,130.195 L86.982,123.495 L91.005,121.412 Z M99.674,122.302 C99.379,122.692 99.016,123.132 98.91,123.277 C98.847,123.226 98.778,123.18 98.713,123.131 C98.6463048,123.026274 98.5422696,122.950839 98.422,122.92 C98.2738907,122.82149 98.1214016,122.72973 97.965,122.645 C97.993,122.652 98.211,122.695 98.211,122.695 C98.3070737,122.72231 98.4091248,122.72022 98.504,122.689 L99.674,122.302 Z M78.534,123.16 C80.236,123.181 82.749,123.297 85.977,123.635 L85.662,130.48 C84.02,129.91 82.1,129.91 82.1,129.91 C81.9213672,129.911965 81.7573519,130.00908 81.6697372,130.164763 C81.5821225,130.320446 81.5842191,130.511045 81.6752372,130.664763 C81.7662553,130.818481 81.9323672,130.911965 82.111,130.91 C82.111,130.91 84.241,130.934 85.615,131.475 L85.449,135.115 C84.547,134.738 81.979,133.769 77.369,132.871 L77.369,132.289 C77.3685937,132.261493 77.3659179,132.234067 77.361,132.207 L77.359,132.162 C77.752,132.205 78.286,132.292 78.953,132.527 C79.122649,132.591142 79.3137301,132.558385 79.452329,132.441401 C79.5909279,132.324417 79.6553092,132.141551 79.6205688,131.963539 C79.5858284,131.785528 79.4574143,131.640287 79.285,131.584 C78.6489117,131.353159 77.9845862,131.209194 77.31,131.156 C77.2609403,130.281924 77.200602,129.408518 77.129,128.536 C77.065,127.759 76.97,126.936 76.875,126.127 C77.535,126.129 79.158,126.151 80.67,126.426 C80.9420002,126.475706 81.2027944,126.2955 81.2525,126.0235 C81.3022056,125.7515 81.1220002,125.490706 80.85,125.441 C79.13,125.129 77.331,125.123 76.758,125.125 C76.7176567,124.841057 76.673319,124.557695 76.625,124.275 C76.6234373,124.230886 76.6160397,124.187172 76.603,124.145 C76.543,123.799 76.473,123.49 76.403,123.184 C77.1126471,123.156531 77.8229141,123.148528 78.533,123.16 L78.534,123.16 Z M66.859,124.656 C67.564,124.99 68.351,125.336 69.179,125.393 C69.278601,125.421105 69.3844688,125.417611 69.482,125.383 C70.502,125.037 71.662,124.973 72.756,124.896 C70.888,125.67 69.332,126.476 69.332,126.476 C69.325932,126.479209 69.3199307,126.482543 69.314,126.486 L69.307,126.492 C69.2974695,126.497688 69.288131,126.503691 69.279,126.51 L68.797,126.832 C68.562,126.695 67.784,125.925 66.859,124.656 Z M75.705,124.886 C75.885,126.066 76.032,127.397 76.133,128.617 C76.243,129.949 76.298,130.917 76.33,131.567 C76.3248395,131.615698 76.3268611,131.66489 76.336,131.713 L76.346,131.904 C74.179,132.444 71.111,133.687 70.336,134.004 L70.199,130.021 C70.619,129.852 72.058,129.287 73.227,129.242 C73.4056328,129.241285 73.5703151,129.145326 73.6590127,128.990268 C73.7477103,128.83521 73.7469479,128.644611 73.6570127,128.490268 C73.5670775,128.335925 73.4016328,128.241285 73.223,128.242 C73.2113135,128.242257 73.1996397,128.242924 73.188,128.244 C72.032,128.288 70.828,128.69 70.162,128.947 L70.102,127.187 C70.683,126.85 73.286,125.401 75.705,124.887 L75.705,124.886 Z" fill-rule="nonzero"></path>
        </g>
    </g>
</svg>