<svg xmlns="http://www.w3.org/2000/svg" width="288" height="138" viewBox="0 0 288 138" id="no-repo">
    <title> No repo selected (or found) </title>
    <g class="outline">
        <path id="ufo" d="M69.355 59.379c-3.804.682-7.024 3.568-7.933 7.57l-1.693 7.47-1.893-.429a.5.5 0 0 0-.598.377l-.98 4.315a.5.5 0 0 0 .377.597l3.99.907.06 2.404a.5.5 0 0 0 .391.474l1.772.403-.61 1.451c-.267-.036-.53-.128-.799-.041a1.874 1.874 0 0 0-1.103.996.5.5 0 0 0-.008.022 1.89 1.89 0 0 0 1.006 2.468c.954.401 2.066-.054 2.467-1.008a.5.5 0 0 0 .01-.023c.193-.53.152-1.063-.059-1.484-.127-.254-.378-.377-.592-.543l.68-1.614 7.517 1.71-.097 2.003a.5.5 0 1 0 1 .047l.088-1.826 1.773.402a.5.5 0 0 0 .557-.26l1.094-2.144 3.988.904a.5.5 0 0 0 .597-.377l.98-4.312a.5.5 0 0 0-.376-.598l-1.89-.43 1.697-7.47c1.21-5.337-2.141-10.657-7.477-11.87a9.87 9.87 0 0 0-3.935-.091zm-5.554 27.976l-.106.159a.5.5 0 0 0 .106-.159zm5.726-26.996a8.897 8.897 0 0 1 3.541.088 8.914 8.914 0 0 1 6.725 10.672l-1.697 7.469-17.393-3.947 1.695-7.471a8.914 8.914 0 0 1 7.13-6.81zm.955 1.768a7.15 7.15 0 0 0-3.103 1.072c-1.85 1.174-3.175 3.21-3.567 5.766a.5.5 0 1 0 .989.15c.353-2.301 1.523-4.062 3.115-5.072 1.593-1.01 3.614-1.283 5.752-.533a.5.5 0 1 0 .33-.946c-1.2-.42-2.392-.554-3.516-.437zm-12.378 12.95l20.257 4.597 1.891.43-.758 3.337-3.873-.877a.5.5 0 0 0-.008-.002l-14.386-3.265-3.881-.881zm9.968 3.513a.5.5 0 0 0-.123.99l10.375 2.356a.5.5 0 1 0 .22-.977L68.17 78.604a.5.5 0 0 0-.098-.014zm-6.441 1.824l13.135 2.98-.803 1.573-1.887-.428a.5.5 0 0 0-.174-.041h-.007l-8.16-1.855a.5.5 0 0 0-.16-.036l-1.9-.431zm.113 5.414a.941.941 0 0 1 .639.041.934.934 0 0 1 .474.426c.09.18.116.392.014.682a.875.875 0 0 1-1.15.464.874.874 0 0 1-.473-1.144c.136-.277.304-.407.496-.469z"/>
        <path id="speechbubble" d="M89.242 35.963c-5.675.2-10.19 4.67-10.57 10.213-2.893 2.45-3.998 5.789-4.436 8.207-.09.482.237.967.76.267 1.032-1.383 2.877-2.098 5.037-2.37a10.98 10.98 0 0 0 9.987 5.638c6.063-.215 10.803-5.303 10.59-11.365v-.002c-.219-6.063-5.308-10.803-11.368-10.588zm.27 5.965c1.377.032 2.684.726 3.093 2.058.78 2.533-1.459 3.688-1.459 3.688l.366 1.183-2.371.73-.364-1.185.002.002c-.2-.65.169-1.348.82-1.55l.59-.18a.613.613 0 0 0 .41-.776l-.36-1.183a.614.614 0 0 0-.774-.41l-1.186.363a.613.613 0 0 0-.41.773l.18.592-2.367.729c-.546-1.776.684-4.1 2.459-4.647a4.34 4.34 0 0 1 1.37-.187zm2.273 7.82l.729 2.367-2.371.729-.725-2.367z"/>
        <path id="stars" d="M106.303 4a.593.593 0 0 0-.516.314l-.592 1.12-1.117.591a.593.593 0 0 0 0 1.05l1.12.59.59 1.118a.593.593 0 0 0 1.048 0l.592-1.117 1.119-.592a.593.593 0 0 0 0-1.049l-1.12-.591-.591-1.12a.593.593 0 0 0-.533-.314zm.01 1.861l.152.287a.593.593 0 0 0 .246.248l.289.155-.29.152a.593.593 0 0 0-.245.246l-.153.287-.152-.287a.593.593 0 0 0-.248-.248l-.287-.152.287-.153a.593.593 0 0 0 .248-.248zm118.648 8.63c-.512 0-.973.211-1.264.538-.29.327-.421.74-.421 1.145 0 .404.13.817.421 1.144.291.327.752.541 1.264.541a1.69 1.69 0 0 0 1.262-.54c.29-.328.422-.74.422-1.145s-.132-.818-.422-1.145c-.29-.327-.75-.539-1.262-.539zm0 1.185c.216 0 .302.06.375.142a.548.548 0 0 1 .123.356c0 .14-.05.275-.123.357-.073.083-.16.143-.375.143s-.304-.06-.377-.143a.554.554 0 0 1-.123-.357c0-.141.05-.273.123-.356.073-.082.162-.142.377-.142zM42.39 21.866a.593.593 0 0 0-.504.306l-1.256 2.3-2.299 1.258a.593.593 0 0 0 0 1.04l2.299 1.26 1.26 2.296a.593.593 0 0 0 1.039 0l1.258-2.297 2.298-1.26a.593.593 0 0 0 0-1.039l-2.3-1.26-1.258-2.298a.593.593 0 0 0-.537-.307zm.017 1.825l.823 1.504a.593.593 0 0 0 .234.235l1.502.82-1.502.822a.593.593 0 0 0-.234.235l-.82 1.502-.823-1.502a.593.593 0 0 0-.234-.235l-1.504-.822 1.502-.82a.593.593 0 0 0 .236-.237zm116.893 3.19c-.784-.24-1.57.547-1.328 1.33l.564 1.832-.553 1.793a.593.593 0 0 0 0 .002.593.593 0 0 0-.013.039c-.242.783.544 1.57 1.328 1.33l1.834-.564 1.834.564c.784.243 1.573-.546 1.33-1.33l-.565-1.834.565-1.83v-.002c.244-.784-.544-1.569-1.326-1.33a.593.593 0 0 0-.002 0l-1.834.564zm-.125 1.203l1.646.506a.593.593 0 0 0 .004.002c.203.06.417.06.62 0a.593.593 0 0 0 .003-.002l1.647-.506-.508 1.646a.593.593 0 0 0-.002.004c-.06.202-.06.418 0 .62a.593.593 0 0 0 .002.003l.508 1.649-1.643-.506a1.046 1.046 0 0 0-.639 0h-.002l-1.636.506.508-1.649h-.002a1.052 1.052 0 0 0 0-.627h.002zm106.412 8.289c-.907 0-1.823.297-2.531.918-.708.62-1.182 1.574-1.203 2.75-.022 1.215.441 2.206 1.156 2.85.714.644 1.65.953 2.578.953.927 0 1.863-.31 2.578-.953.715-.644 1.178-1.635 1.156-2.85-.02-1.176-.497-2.13-1.205-2.75-.708-.62-1.622-.918-2.53-.918zm0 1.186c.645 0 1.283.217 1.748.625.465.408.785.997.8 1.879.017.916-.297 1.525-.765 1.947-.468.422-1.12.646-1.783.646-.662 0-1.317-.224-1.785-.646-.468-.422-.78-1.03-.764-1.947.016-.882.335-1.471.8-1.88.466-.407 1.104-.624 1.749-.624zM126.402 45.15a.593.593 0 0 0-.408.18l-1.654 1.654-1.652-1.652a.593.593 0 1 0-.838.838l1.652 1.652-1.652 1.655a.593.593 0 1 0 .838.837l1.654-1.652 1.652 1.652a.593.593 0 1 0 .84-.837l-1.654-1.653 1.654-1.654a.593.593 0 0 0-.432-1.02zM9.273 57.51a.593.593 0 0 0-.564.767l.23.748-.232.748a.593.593 0 0 0 .74.743l.75-.23.748.23a.593.593 0 0 0 .742-.743l-.23-.748.23-.748a.593.593 0 0 0-.74-.742l-.748.23-.75-.23a.593.593 0 0 0-.176-.025zm.877 1.467a.593.593 0 0 0 .096 0 .593.593 0 0 0 0 .097.593.593 0 0 0-.096 0 .593.593 0 0 0 0-.097zm227.286 10.298c-.374 0-.746.182-.938.543a.593.593 0 0 0-.002 0l-.898 1.7-1.696.894a.593.593 0 0 0 0 .002c-.722.384-.722 1.493 0 1.877l1.694.897.9 1.699a.593.593 0 0 0 .002.002c.384.722 1.493.722 1.877 0a.593.593 0 0 0 .002-.002l.898-1.698 1.696-.896a.593.593 0 0 0 0-.002c.722-.384.722-1.493 0-1.877l-1.698-.898-.898-1.698a1.048 1.048 0 0 0-.94-.543zm-.938 7.614a.593.593 0 0 0 .522.314zm.938-6.309l.806 1.524c.1.188.255.343.444.443l1.523.807-1.523.804a.593.593 0 0 0-.002.002c-.188.1-.342.254-.442.442a.593.593 0 0 0 0 .002l-.806 1.523-.805-1.521-.002-.002a1.063 1.063 0 0 0-.44-.444.593.593 0 0 0-.002-.002l-1.523-.806 1.523-.805a.593.593 0 0 0 .002 0c.188-.1.34-.255.44-.443l.002-.004zm44.293 12.63a.593.593 0 0 0-.409.18l-1.59 1.59a.593.593 0 1 0 .838.838l1.592-1.59a.593.593 0 0 0-.431-1.017zM29.982 84.753c-.5 0-1.01.164-1.412.514-.402.35-.673.896-.69 1.533a.593.593 0 0 0 0 .015c0 .651.266 1.215.67 1.575.406.36.924.527 1.432.527.51 0 1.025-.167 1.43-.527s.67-.924.67-1.575a.593.593 0 0 0 0-.015.593.593 0 0 0 0-.002.593.593 0 0 0-.187-.416c-.106-.422-.21-.86-.502-1.115a2.136 2.136 0 0 0-1.41-.514zm177.569.201c-.449 0-.906.147-1.266.467-.36.32-.596.824-.596 1.394 0 .572.236 1.075.596 1.395.36.32.817.467 1.266.467.449 0 .907-.147 1.267-.467.36-.32.594-.823.594-1.395a.593.593 0 0 0-.183-.43c-.094-.358-.164-.743-.413-.964a1.894 1.894 0 0 0-1.265-.467zm-177.569.986c.24 0 .471.082.631.221.159.138.268.327.28.662-.003.347-.11.539-.268.68a.982.982 0 0 1-.643.228.982.982 0 0 1-.642-.228c-.159-.141-.267-.333-.27-.68.011-.335.121-.524.28-.662.16-.14.392-.22.632-.22zm177.569.202c.185 0 .363.063.478.166.116.102.198.233.198.507 0 .275-.082.406-.198.508a.735.735 0 0 1-.478.168.73.73 0 0 1-.477-.168c-.115-.102-.197-.233-.197-.508 0-.274.08-.405.195-.507a.734.734 0 0 1 .479-.166zm69.754 1.49a.593.593 0 0 0-.407.18l-1.59 1.59a.593.593 0 1 0 .838.84l1.59-1.593a.593.593 0 0 0-.431-1.017zM6.584 110.547a.593.593 0 0 0-.56.758l.736 2.517-.737 2.516a.593.593 0 0 0 .737.734l2.515-.736 2.516.738a.593.593 0 0 0 .734-.736l-.738-2.516.738-2.515a.593.593 0 0 0-.736-.737l-2.514.739-2.515-.739a.593.593 0 0 0-.176-.023zm219.787.164a.593.593 0 0 0-.584.602v.828h-.826a.593.593 0 1 0 0 1.185h.826v.826a.593.593 0 1 0 1.186 0v-.826h.828a.593.593 0 1 0 0-1.185h-.828v-.828a.593.593 0 0 0-.602-.602zM7.467 112.014l1.64.48a.593.593 0 0 0 .334 0l1.643-.48-.482 1.642a.593.593 0 0 0 0 .334l.482 1.64-1.643-.48a.593.593 0 0 0-.332 0l-1.642.48.48-1.642a.593.593 0 0 0 0-.332zm79.39.127c-.511 0-.97.21-1.261.537-.29.326-.424.74-.424 1.144 0 .405.132.816.422 1.143.29.327.748.54 1.26.54a1.69 1.69 0 0 0 1.261-.538c.29-.327.422-.738.422-1.143 0-.404-.13-.815-.42-1.142a1.688 1.688 0 0 0-1.26-.541zm-.002 1.185c.216 0 .303.06.375.143a.549.549 0 0 1 .122.355.55.55 0 0 1-.124.356c-.073.082-.157.14-.373.14-.215 0-.302-.06-.375-.142a.55.55 0 0 1-.123-.356c0-.14.05-.273.123-.355.073-.082.16-.141.375-.14zm171.631.953a.593.593 0 0 0-.584.602v2.336h-2.338a.593.593 0 1 0 0 1.185h2.338v2.338a.593.593 0 1 0 1.186 0v-2.338h2.338a.593.593 0 1 0 0-1.185h-2.338v-2.336a.593.593 0 0 0-.602-.602zM46.19 120.146a.593.593 0 0 0-.513.317l-.592 1.119-1.12.59a.593.593 0 0 0 0 1.049l1.12.592.592 1.119a.593.593 0 0 0 1.049 0l.591-1.118 1.12-.593a.593.593 0 0 0 0-1.05l-1.12-.589-.591-1.12a.593.593 0 0 0-.536-.316zm.01 1.862l.155.289a.593.593 0 0 0 .248.248l.289.152-.291.155a.593.593 0 0 0-.246.246l-.155.289-.152-.29a.593.593 0 0 0-.246-.247l-.29-.153.29-.152a.593.593 0 0 0 .246-.248zm150.174 9.06c-.449 0-.906.147-1.266.467-.36.32-.593.824-.593 1.395 0 .57.233 1.074.593 1.394.36.32.817.467 1.266.467a1.9 1.9 0 0 0 1.268-.467c.36-.32.593-.823.593-1.394s-.233-1.075-.593-1.395a1.9 1.9 0 0 0-1.268-.467zm0 1.188c.185 0 .363.063.479.166.115.103.197.233.197.508 0 .274-.082.405-.197.508a.736.736 0 0 1-.479.167.73.73 0 0 1-.477-.167c-.115-.103-.197-.234-.197-.508 0-.275.082-.405.197-.508a.73.73 0 0 1 .477-.166z"/>
        <path id="unidentifiedFlyingBook" d="M156.018 66.953a.5.5 0 0 0-.164.035l-1.153.28a.5.5 0 0 0 .236.972l.993-.24.924.7-.198.048a.5.5 0 0 0 .237.973l1.218-.3a.5.5 0 0 0 .186-.882l-1.877-1.424a.5.5 0 0 0-.303-.156.5.5 0 0 0-.1-.006zm-4.413 1.084a.5.5 0 0 0-.056.002.5.5 0 0 0-.082.016l-2.428.588a.5.5 0 0 0 .236.972l2.426-.59a.5.5 0 0 0-.095-.988zm-5.667 1.375a.5.5 0 0 0-.133.016l-2.428.59a.5.5 0 1 0 .236.97l2.428-.588a.5.5 0 0 0-.103-.988zm7.832.053a.5.5 0 0 0-.057.002.5.5 0 0 0-.084.015c-.693.169-1.453.351-2.264.547a.5.5 0 0 0 .237.973l2.263-.549a.5.5 0 0 0-.095-.988zm6.98.846a.5.5 0 0 0-.08.005l-1.246.19a.5.5 0 1 0 .152.988l1.018-.154.642.55a.5.5 0 1 0 .15.989l.77-.111.143.763a.5.5 0 1 0 .982-.183l-.23-1.237a.5.5 0 0 0-.496-.408h-.002l-1.483-1.273a.5.5 0 0 0-.32-.12zm-12.268.433a.5.5 0 0 0-.134.016l-2.264.547a.5.5 0 1 0 .234.972l2.264-.547a.5.5 0 0 0-.1-.988zm-8.207.041a.5.5 0 0 0-.132.016l-2.426.59a.5.5 0 1 0 .236.97l2.426-.588a.5.5 0 0 0-.104-.988zm15.875.233a.5.5 0 0 0-.084.005l-2.517.387a.5.5 0 1 0 .152.988l2.518-.386a.5.5 0 0 0-.069-.994zm-5.875.902a.5.5 0 0 0-.084.008l-2.52.386a.5.5 0 1 0 .153.989l2.518-.387a.5.5 0 0 0-.067-.996zm-7.076.098a.5.5 0 0 0-.135.015l-2.263.543a.5.5 0 1 0 .234.973l.399-.096a.5.5 0 0 0 .511.754l2.52-.389a.5.5 0 0 0-.069-.994.5.5 0 0 0-.084.006l-.91.14a.5.5 0 0 0-.203-.952zm-8.586.142a.5.5 0 0 0-.133.016l-2.425.588a.5.5 0 1 0 .234.972l2.428-.59a.5.5 0 0 0-.104-.986zm23.522.194a.5.5 0 0 0-.086.005l-2.395.352a.5.5 0 1 0 .145.988l2.396-.35a.5.5 0 0 0-.06-.995zm-5.59.82a.5.5 0 0 0-.084.006l-2.397.351a.5.5 0 1 0 .147.989l2.394-.352a.5.5 0 0 0-.06-.994zm-14.647.107a.5.5 0 0 0-.033.002.5.5 0 0 0-.082.014l-2.265.539a.5.5 0 0 0 .01.98.5.5 0 0 0 .54.293l2.52-.386a.5.5 0 0 0-.068-.996.5.5 0 0 0-.084.007l-.018.002a.5.5 0 0 0-.52-.455zm-8.945.252a.5.5 0 0 0-.133.016l-2.427.59a.5.5 0 1 0 .236.97l2.426-.588a.5.5 0 0 0-.102-.988zm18.004.46a.5.5 0 0 0-.084.007l-2.396.352a.5.5 0 1 0 .146.988l2.395-.352a.5.5 0 0 0-.061-.996zm-14.326.542a.5.5 0 0 0-.135.016c-.418.099-.825.193-1.217.283a.5.5 0 0 0 .186.982l1.244-.189a.5.5 0 0 0 .406-.654.5.5 0 0 0-.484-.438zm8.738.278a.5.5 0 0 0-.084.007l-2.394.35a.5.5 0 1 0 .144.99l2.395-.351a.5.5 0 0 0-.06-.997zm-17.885.542a.5.5 0 0 0-.379.184c-.312.375-.557.928-.462 1.566a.5.5 0 0 0 .443.424.5.5 0 0 0-.23.518l.224 1.234a.5.5 0 1 0 .984-.18l-.132-.724.734-.107a.5.5 0 0 0-.06-.997.5.5 0 0 0-.086.006l-1.096.162a.5.5 0 0 0 .209-.482c-.05-.33.055-.554.242-.78a.5.5 0 0 0-.39-.823zm12.3.278a.5.5 0 0 0-.087.006l-2.394.351a.5.5 0 1 0 .144.99l2.397-.351a.5.5 0 0 0-.06-.996zm27.616.58a.5.5 0 0 0-.49.598l.457 2.459a.5.5 0 1 0 .985-.184l-.46-2.459a.5.5 0 0 0-.492-.414zm-33.144.223a.5.5 0 0 0-.147.023l-2.394.352a.5.5 0 0 0 .144.99l2.006-.295.153.767a.5.5 0 1 0 .98-.195l-.244-1.234a.5.5 0 0 0-.498-.408zm45.424 3.73c-.308.005-.629.02-.963.043-2.554.182-5.895.92-9.766 2.11a.5.5 0 0 0-.482-.374.5.5 0 0 0-.49.6l.07.373a.5.5 0 0 0 .047.26l.34 1.824a.5.5 0 0 0 .984-.184l-.283-1.513c3.874-1.196 7.202-1.923 9.652-2.098 1.271-.09 2.31-.032 3.05.158.743.19 1.153.489 1.337.856.159.316.176.728-.01 1.3-.186.573-.581 1.275-1.178 2.06-1.193 1.567-3.178 3.464-5.785 5.526a86.36 86.36 0 0 1-4.943 3.6l-.163-.877a.5.5 0 0 0-.492-.414.5.5 0 0 0-.49.598l.242 1.299c-4.52 3.012-9.965 6.181-15.988 9.207-4.508 2.264-8.894 4.226-12.961 5.837l-.145-.732a.5.5 0 0 0-.496-.41.5.5 0 0 0-.484.605l.18.9c-2.111.818-4.125 1.533-6.02 2.145l-.28-1.465a.5.5 0 0 0-.493-.414.5.5 0 0 0-.489.602l.303 1.586a76.954 76.954 0 0 1-2.91.851c-3.211.86-5.919 1.32-7.889 1.34-.985.01-1.785-.092-2.355-.285-.57-.192-.89-.454-1.049-.771-.21-.418-.17-1.028.248-1.885.419-.857 1.204-1.904 2.31-3.065 2.103-2.205 5.387-4.836 9.473-7.61l.139.728a.5.5 0 1 0 .982-.186l-.27-1.422a.5.5 0 0 0-.026-.139c-.06-.308-.118-.615-.176-.923a.5.5 0 0 0-.494-.414.5.5 0 0 0-.489.6l.13.679c-4.298 2.892-7.744 5.637-9.993 7.996-1.15 1.206-1.992 2.31-2.484 3.316-.492 1.007-.648 1.972-.244 2.774.305.608.893 1.023 1.625 1.27.73.246 1.626.348 2.683.337 2.114-.022 4.877-.502 8.137-1.375.91-.243 1.867-.526 2.85-.83a.5.5 0 0 0 .955-.275l-.006-.031a112.213 112.213 0 0 0 6.029-2.14l.105.534a.5.5 0 1 0 .98-.195l-.138-.701c4.146-1.636 8.614-3.63 13.211-5.94 5.898-2.962 11.247-6.061 15.736-9.03l.018.09a.5.5 0 1 0 .982-.183l-.095-.512c1.976-1.334 3.79-2.64 5.365-3.886 2.646-2.094 4.679-4.023 5.959-5.705.64-.841 1.095-1.62 1.334-2.354.239-.734.257-1.452-.049-2.06-.354-.705-1.074-1.143-1.98-1.375-.68-.175-1.485-.246-2.409-.23zm-44.537.736a.5.5 0 0 0-.483.606l.483 2.428a.5.5 0 1 0 .98-.196l-.482-2.427a.5.5 0 0 0-.498-.41zm-6.955 1.094a.5.5 0 0 0-.49.6c.143.77.298 1.604.464 2.486a.5.5 0 1 0 .983-.186l-.465-2.484a.5.5 0 0 0-.492-.416zm8.08 4.568a.5.5 0 0 0-.483.606l.48 2.426a.5.5 0 1 0 .983-.194l-.482-2.427a.5.5 0 0 0-.498-.41zm33.27 1.116a.5.5 0 0 0-.491.6l.457 2.458a.5.5 0 1 0 .982-.183l-.457-2.46a.5.5 0 0 0-.492-.415zm-40.263.115a.5.5 0 0 0-.49.6l.469 2.486a.5.5 0 1 0 .982-.186l-.468-2.486a.5.5 0 0 0-.493-.414zm8.118 4.432a.5.5 0 0 0-.485.605l.483 2.426a.5.5 0 1 0 .98-.195l-.48-2.426a.5.5 0 0 0-.498-.41zm-7.024 1.367a.5.5 0 0 0-.488.6l.47 2.486a.5.5 0 1 0 .983-.186l-.47-2.486a.5.5 0 0 0-.495-.414zm8.149 4.297a.5.5 0 0 0-.485.603l.483 2.428a.5.5 0 1 0 .98-.195l-.48-2.428a.5.5 0 0 0-.498-.408zm33.156 1.26a.5.5 0 0 0-.49.597l.457 2.459a.5.5 0 1 0 .982-.184l-.457-2.457a.5.5 0 0 0-.492-.416zm-32.031 4.402a.5.5 0 0 0-.485.603l.483 2.428a.5.5 0 1 0 .98-.195l-.48-2.428a.5.5 0 0 0-.498-.408zm33.1 1.332a.5.5 0 0 0-.493.597l.459 2.457a.5.5 0 1 0 .982-.181l-.457-2.457a.5.5 0 0 0-.492-.416zm-40.175.304a.5.5 0 0 0-.488.6c.16.838.316 1.668.47 2.484a.5.5 0 1 0 .983-.185l-.47-2.484a.5.5 0 0 0-.495-.415zm41.24 5.428a.5.5 0 0 0-.49.6l.46 2.457a.5.5 0 1 0 .982-.182l-.46-2.459a.5.5 0 0 0-.491-.416zm-31.915 4.26a.5.5 0 0 0-.485.605l.483 2.426a.5.5 0 1 0 .98-.195l-.482-2.426a.5.5 0 0 0-.496-.41zm32.986 1.475a.5.5 0 0 0-.492.597l.136.737-.736.117a.5.5 0 1 0 .158.986l1.242-.197a.5.5 0 0 0 .415-.586l-.23-1.238a.5.5 0 0 0-.493-.416zm-40.106.433a.5.5 0 0 0-.488.6l.473 2.486a.5.5 0 0 0 .982-.187l-.472-2.487a.5.5 0 0 0-.495-.412zm35.922 1.518a.5.5 0 0 0-.084.008l-2.38.379a.5.5 0 1 0 .158.988l2.38-.38a.5.5 0 0 0-.074-.995zm-5.554.886a.5.5 0 0 0-.086.008l-2.38.381a.5.5 0 1 0 .159.987l2.379-.38a.5.5 0 0 0-.072-.995zm-5.555.887a.5.5 0 0 0-.086.008l-2.38.381a.5.5 0 1 0 .157.986l2.381-.379a.5.5 0 0 0-.072-.996zm-16.568.467a.5.5 0 0 0-.485.603l.246 1.237a.5.5 0 1 0 .98-.195l-.245-1.235a.5.5 0 0 0-.496-.41zm11.011.422a.5.5 0 0 0-.084.006l-2.38.38a.5.5 0 0 0-.307.178.5.5 0 0 0-.287-.085.5.5 0 0 0-.492.505v1.262a.5.5 0 1 0 1 0v-.892a.5.5 0 0 0 .244.021l2.379-.38a.5.5 0 0 0-.073-.995zm-5.556.887a.5.5 0 0 0-.084.008l-2.38.378a.5.5 0 1 0 .157.989l2.38-.381a.5.5 0 0 0-.073-.994zm-12.596.734a.5.5 0 0 0-.488.6c.15.794.236 1.234.236 1.234a.5.5 0 0 0 .568.398l1.245-.197a.5.5 0 0 0-.159-.988l-.763.123c-.039-.2-.053-.269-.145-.756a.5.5 0 0 0-.494-.414zm7.041.152a.5.5 0 0 0-.084.008l-1.799.287a.5.5 0 0 0-.02 0 .5.5 0 0 0-.154.03l-.408.064a.5.5 0 0 0 .07.996v.678a.5.5 0 1 0 1 0v-.832l1.47-.234a.5.5 0 0 0-.075-.997zm8.053 2.58a.5.5 0 0 0-.492.508v1.961a.5.5 0 1 0 1 0v-1.96a.5.5 0 0 0-.508-.509zm-9.955 1.012a.5.5 0 0 0-.493.508v1.527a.5.5 0 1 0 1 0v-1.527a.5.5 0 0 0-.507-.508zm4.957.772a.5.5 0 0 0-.307.113l-.975.799a.5.5 0 1 0 .633.773l.658-.539.66.535a.5.5 0 1 0 .631-.775l-.976-.793a.5.5 0 0 0-.324-.113zm-4.957 2.794a.5.5 0 0 0-.493.506v1.26a.5.5 0 0 0 .817.387l.974-.799a.5.5 0 1 0-.632-.773l-.159.128v-.203a.5.5 0 0 0-.507-.506zm9.955 0a.5.5 0 0 0-.492.506v.21l-.165-.133a.5.5 0 1 0-.628.777l.976.793a.5.5 0 0 0 .817-.389v-1.258a.5.5 0 0 0-.508-.506z"/>
        <path id="moon" d="M204.658 36.55c-1.157.043-1.955.245-1.955.245a.5.5 0 0 0-.318.242l-.56 1.006c-4.063.77-7.59 3.279-9.602 6.9-1.484 2.658-2.018 5.728-1.59 8.737l-.4.72a.5.5 0 0 0-.063.288s.046.527.191 1.197c.145.67.38 1.493.828 2.154a.5.5 0 0 0 .268.197l.758.233a13.921 13.921 0 0 0 3.082 3.814.5.5 0 0 0 .078.092l.014.012c.008.006 0-.002.008.004.07.06.13.1.15.117.243.202.492.393.746.576a.5.5 0 0 0 .002.002c.082.058.172.124.274.193.339.233.694.457 1.068.664a.5.5 0 0 0 0 .002c.294.163.592.31.89.45a.5.5 0 0 0 .005.002l.195.09a.5.5 0 0 0 .004.001c.294.132.592.256.894.368a.5.5 0 0 0 .008.002l.11.037a.5.5 0 0 0 .006.002c.275.099.552.187.832.267a.5.5 0 0 0 .002 0c.048.014.11.033.185.053.304.083.611.156.92.217l.16.031a.5.5 0 0 0 .018.002c.278.052.555.097.834.133a.5.5 0 0 0 .004 0l.14.018a.5.5 0 0 0 .007 0c.31.035.621.058.931.072a.5.5 0 0 0 .004 0l.194.008c.297.01.598.011.9.002h.033a.5.5 0 0 0 .016 0c.32-.011.637-.037.943-.069a.5.5 0 0 0 .006-.002l.19-.021a13.912 13.912 0 0 0 1.013-.155l-.017.002c.35-.067.697-.146 1.04-.24a.5.5 0 0 0 .003 0 13.8 13.8 0 0 0 .89-.275.5.5 0 0 0 .008-.002l.125-.047c.268-.097.536-.2.803-.315l.117-.05a.5.5 0 0 0 .004-.002c.286-.126.571-.262.852-.408a.5.5 0 0 0 .006-.002l.14-.077.003-.002c.264-.142.527-.293.787-.455l.006-.004.03-.017a.5.5 0 0 0 .01-.006c.322-.204.634-.42.938-.649.177-.132.35-.278.524-.421l1.056.388a.5.5 0 0 0 .495-.088c2.127-1.797 3.13-4.338 3.13-4.338a.5.5 0 0 0-.054-.472l-.635-.908c.034-.084.07-.168.102-.25l.008-.018.033-.076a.5.5 0 0 0 .008-.018c.08-.21.153-.424.222-.638.053-.16.102-.318.147-.475l.045-.16a.5.5 0 0 0 .002-.01c.041-.155.08-.305.117-.457a.5.5 0 0 0 0-.004c.01-.045.027-.107.043-.183l.002-.008c.033-.152.061-.299.09-.438a.5.5 0 0 0 .004-.021c.007-.046.02-.107.033-.182v-.004c.026-.146.05-.292.07-.44v-.003c.043-.285.074-.572.094-.86.01-.143.02-.29.027-.44a.5.5 0 0 0 0-.005l.008-.2c.005-.146.008-.294.008-.442 0-.078-.003-.146-.004-.207v-.002a13.579 13.579 0 0 0-.011-.438.5.5 0 0 0 0-.008c-.005-.076-.01-.135-.012-.181a.5.5 0 0 0 0-.014 15.146 15.146 0 0 0-.031-.441.5.5 0 0 0-.002-.012l-.02-.184a.5.5 0 0 0-.002-.008c-.017-.138-.032-.287-.054-.445-.03-.212-.066-.424-.104-.635a.5.5 0 0 0-.002-.015l-.021-.098a.5.5 0 0 0-.002-.004c-.112-.568-.26-1.13-.44-1.68a.5.5 0 0 0 0-.002l-.002-.002a.5.5 0 0 0-.012-.044c-.046-.14-.096-.27-.142-.395a.5.5 0 0 0 0-.002c-.022-.058-.047-.133-.08-.219a.5.5 0 0 0 0-.002c-.046-.116-.094-.23-.143-.343l-.002-.006c-.031-.077-.065-.161-.105-.252a.5.5 0 0 0 0-.002c-.05-.11-.1-.212-.147-.309l-.006-.014c-.04-.09-.083-.179-.127-.267V45.5c-.052-.105-.106-.204-.158-.303a16.84 16.84 0 0 0-.148-.273.5.5 0 0 0 0-.002c-.107-.19-.218-.379-.332-.565a.5.5 0 0 0-.004-.004l-.17-.267a.5.5 0 0 0-.006-.01 12.836 12.836 0 0 0-.184-.27l-.004-.005a9.533 9.533 0 0 0-.182-.258l-.004-.006a8.56 8.56 0 0 0-.197-.266l-.004-.006c-.131-.174-.27-.346-.412-.513l-.004-.006c-.21-.252-.429-.495-.658-.729a.5.5 0 0 0 0-.002 21.55 21.55 0 0 0-.47-.463.5.5 0 0 0-.009-.005c-.091-.084-.182-.166-.27-.245a.5.5 0 0 0-.01-.01c-.062-.052-.135-.12-.222-.193h-.002a11.295 11.295 0 0 0-.293-.24l-.006-.004c-.07-.057-.147-.12-.232-.183l.008.003a8.529 8.529 0 0 0-.327-.242l-.01-.006c-.067-.05-.138-.103-.216-.158a.5.5 0 0 0-.002 0 12.395 12.395 0 0 0-.381-.254l-.004-.004-.184-.119a.5.5 0 0 0-.01-.004 13.142 13.142 0 0 0-1.594-.853l-.101-.047-.004-.002-.055-.03a.5.5 0 0 0-.113-.038c-.21-.091-.423-.175-.637-.256l-.265-1.063a.5.5 0 0 0-.282-.336c-1.442-.64-2.96-.755-4.117-.713zm.065 1.009c.987-.033 2.249.086 3.431.558l.243.969a.5.5 0 0 0 .326.414c.31.112.623.237.931.373a.5.5 0 0 0 .03.01.5.5 0 0 0 .025.01.5.5 0 0 0 .014.006s.034.019.1.048c.508.23 1 .493 1.472.79l.18.117a.5.5 0 0 0 .004.002c.12.076.238.155.355.236.064.045.13.095.203.148a.5.5 0 0 0 .01.006c.1.071.198.143.295.219a.5.5 0 0 0 .008.006c.064.048.133.105.21.166a.5.5 0 0 0 .005.004c.093.073.184.147.274.223a.5.5 0 0 0 .002.002c.06.05.131.116.216.189.087.077.171.154.25.227.15.143.298.29.444.437.21.215.413.44.605.672a.5.5 0 0 0 .004.004c.132.155.26.314.383.476a.5.5 0 0 0 .004.006c.062.08.123.163.182.246a.5.5 0 0 0 .006.006c.058.08.114.16.17.24a.5.5 0 0 0 .004.008c.057.081.113.164.173.254l.164.258c.107.172.21.347.31.523.044.081.088.168.136.256.051.097.1.188.146.282.04.079.077.159.114.24a.5.5 0 0 0 .008.013c.05.104.095.204.138.3.03.068.062.146.098.232a.5.5 0 0 0 .002.006c.046.108.091.214.133.32l.074.205c.047.128.092.249.13.365l.015.045c.167.51.304 1.032.408 1.559.01.053.02.093.025.119.035.193.066.388.094.582.019.132.034.274.053.426l.019.175c.011.134.02.269.027.403.003.08.01.147.014.2l-.002-.009c.006.135.01.271.012.407a.5.5 0 0 0 0 .002c0 .071.004.135.004.193 0 .134-.003.27-.008.408l-.008.2c-.006.13-.016.27-.026.411a9.841 9.841 0 0 1-.084.784.5.5 0 0 0-.004.005c-.019.138-.04.275-.064.413a.5.5 0 0 0 0 .004c-.01.052-.023.116-.035.195-.03.141-.056.278-.084.408a.5.5 0 0 0 0 .008c-.007.036-.024.09-.041.162-.035.146-.071.29-.11.434l-.043.15c-.043.15-.086.298-.132.437a.5.5 0 0 0-.004.004c-.065.2-.133.397-.208.592l-.033.076a.5.5 0 0 0-.006.018c-.064.168-.13.33-.2.49a.5.5 0 0 0 .415.7h-.215l.469.667c-.138.321-.967 2.065-2.559 3.514l-.998-.365a.5.5 0 0 0-.5.093c-.224.196-.46.381-.703.563a.5.5 0 0 0-.002 0c-.282.213-.572.414-.87.603l-.03.018a.5.5 0 0 0-.006.004c-.24.15-.487.292-.74.428l-.143.078c-.257.134-.518.258-.783.375l-.111.047c-.247.105-.5.203-.752.295l-.127.046.006-.003a12.824 12.824 0 0 1-1.791.48.5.5 0 0 0-.018.002c-.025.006-.031.007-.021.006a.5.5 0 0 0-.024.004c-.281.052-.57.095-.861.129l-.19.021.006-.002c-.289.03-.575.055-.855.065h-.033a.5.5 0 0 0-.018.002c-.277.01-.562.005-.848-.004l-.193-.008.004.002a12.333 12.333 0 0 1-.857-.068h-.004l-.133-.016h-.004a14.215 14.215 0 0 1-.758-.12c-.086-.018-.147-.027-.18-.034a.5.5 0 0 0-.008 0 11.938 11.938 0 0 1-.847-.201.5.5 0 0 0-.006-.002c-.045-.012-.102-.03-.172-.05l.002.003c-.258-.074-.511-.156-.762-.246l-.006-.002c-.058-.022-.097-.033-.117-.04l-.008-.001c-.082-.03-.164-.07-.246-.102.024-.385.219-.745.58-1.04.392-.318.965-.537 1.613-.548 1.298-.021 2.244.77 2.258 1.613a.5.5 0 1 0 1-.017c-.026-1.53-1.553-2.624-3.275-2.596-.86.014-1.645.299-2.229.774a2.561 2.561 0 0 0-.898 1.398 13.72 13.72 0 0 1-.645-.328v.002c-.341-.19-.67-.398-.99-.617a.5.5 0 0 0-.002-.002c-.078-.053-.158-.114-.25-.18h-.002a12.457 12.457 0 0 1-.697-.537.5.5 0 0 0-.008-.006 2.01 2.01 0 0 0-.08-.063l-.003-.002a.5.5 0 0 0-.039-.033 12.932 12.932 0 0 1-3.08-3.822.5.5 0 0 0-.295-.244l-.707-.219c-.28-.464-.507-1.11-.629-1.672-.114-.53-.14-.84-.15-.937l.373-.666a.5.5 0 0 0 .057-.323c-.455-2.86.064-5.79 1.476-8.318a.5.5 0 0 0 .002 0 12.946 12.946 0 0 1 9.155-6.476.5.5 0 0 0 .27-.846l.265.265.35-.628c.139-.03.653-.155 1.585-.186zm-.5 1.656a.5.5 0 0 0-.399.814 2.13 2.13 0 0 0 2.975.362.5.5 0 1 0-.617-.787c-.492.384-1.186.299-1.57-.192a.5.5 0 0 0-.39-.197zm-7.395 5.119c-.12.006-.24.024-.357.053-.467.115-.925.385-1.323.783-.397.397-.668.856-.783 1.322-.115.467-.067.995.295 1.36a.5.5 0 0 0 .002.002c.364.362.893.411 1.36.296.466-.114.924-.385 1.322-.783a.5.5 0 0 0 0-.002.5.5 0 0 0 .129-.217c.297-.347.558-.715.654-1.105.115-.467.065-.996-.297-1.36-.272-.271-.64-.367-1.002-.349zm13.733.512a2.321 2.321 0 0 0-1.164.236c-.708.348-1.264.984-1.637 1.709-.373.725-.566 1.548-.438 2.326.129.778.651 1.509 1.543 1.813a.5.5 0 1 0 .323-.946c-.577-.196-.798-.537-.88-1.029-.08-.492.048-1.139.34-1.707.293-.568.742-1.05 1.19-1.27.448-.22.854-.237 1.35.118a.5.5 0 1 0 .582-.813 2.306 2.306 0 0 0-1.21-.437zm-13.57.488a.23.23 0 0 1 .13.057c.048.048.096.166.035.414-.06.248-.237.571-.52.853a.5.5 0 0 0 0 .002.5.5 0 0 0-.003.002c-.282.28-.603.457-.85.518-.246.06-.365.013-.414-.035-.047-.049-.094-.167-.033-.414.061-.249.238-.572.52-.854.282-.282.605-.458.853-.52a.736.736 0 0 1 .281-.023zm15.566 1.549a.5.5 0 0 0-.49.6 2.208 2.208 0 0 1-1.03 2.294.5.5 0 1 0 .52.856 3.215 3.215 0 0 0 1.492-3.334.5.5 0 0 0-.492-.416zm-10.022 2.246a3.648 3.648 0 0 0-2.494 1.084.5.5 0 1 0 .707.707c.865-.866 1.997-.977 2.941-.586.945.391 1.667 1.269 1.667 2.492 0 1.224-.722 2.103-1.667 2.494-.944.392-2.076.28-2.94-.586a.5.5 0 1 0-.708.705 3.673 3.673 0 0 0 4.031.805 3.674 3.674 0 0 0 2.284-3.418c0-1.626-1.002-2.885-2.284-3.416a3.748 3.748 0 0 0-1.537-.281zm12.291.553a.5.5 0 0 0-.133.017c-.367.098-.622.394-.742.71-.12.314-.128.668-.033 1.02h-.002c.094.353.28.654.54.868.259.214.628.346.997.246a.5.5 0 1 0-.262-.965s-.025.009-.1-.053a.714.714 0 0 1-.208-.353.5.5 0 0 0 0-.002.703.703 0 0 1 .004-.408c.034-.09.06-.095.064-.096a.5.5 0 0 0-.125-.984zm-15.338 2.07a.5.5 0 0 0-.472.42 3.781 3.781 0 0 0-.059.654.5.5 0 1 0 1 0c0-.16.015-.32.043-.48a.5.5 0 0 0-.512-.594zm12.494 3.299a1.847 1.847 0 0 0-.748.094c-.48.155-.963.467-1.398.902-.436.436-.748.92-.904 1.4-.156.481-.169 1.04.216 1.424.228.229.542.32.833.32.29 0 .575-.078.859-.205a.5.5 0 0 0-.406-.914c-.189.084-.355.12-.455.12-.1 0-.117-.02-.123-.026a.5.5 0 0 0 0-.002c-.01-.01-.066-.123.027-.408.092-.285.321-.663.66-1.002.338-.338.715-.566 1-.658.285-.093.397-.037.408-.026.01.01.066.123-.027.408a.5.5 0 1 0 .951.31c.157-.484.167-1.04-.217-1.425a.5.5 0 0 0 0-.002 1.09 1.09 0 0 0-.676-.31zm-15.152.642c-.121 0-.244.012-.367.04a.5.5 0 0 0-.002 0c-.738.166-1.252.796-1.361 1.517a.5.5 0 1 0 .988.15c.054-.359.284-.621.594-.691.41-.088.858.202.974.723.116.521-.169.975-.574 1.066a.735.735 0 0 1-.586-.123.5.5 0 0 0-.586.812c.4.288.902.393 1.383.29a.5.5 0 0 0 .004-.002c.986-.219 1.56-1.254 1.336-2.26a.5.5 0 0 0 0-.002c-.197-.877-.955-1.518-1.803-1.52zm20.356 1.72l-.147.218h-.21a.5.5 0 0 0 .357-.219zm-21.233 4.151c-.028-.014.027.02.026.018a.5.5 0 0 0-.028-.016z"/>
    </g>
</svg>