<svg xmlns="http://www.w3.org/2000/svg" width="288" height="147" viewBox="0 0 288 147" id="no-file-selected">
    <title>
        No file selected
    </title>
    <style type="text/css">
        <![CDATA[
            .outline {
                fill: #cadef3;
            }
        ]]>
    </style>
    <g class="outline">
        <path id="planet" d="M218.982 20.346c-7.668 0-13.894 6.226-13.894 13.896 0 7.667 6.226 13.895 13.894 13.895s13.895-6.228 13.895-13.895c0-7.669-6.227-13.896-13.895-13.896zm0 1c.426 0 .845.022 1.26.062-.125.373-.245.747-.39 1.113-.247.62.683.99.93.37.173-.439.321-.886.468-1.334.51.09 1.011.203 1.498.351a22.324 22.324 0 0 1-2.916 6.658c-.41.567.482 1.15.836.547a23.328 23.328 0 0 0 3.025-6.869 12.865 12.865 0 0 1 3.784 2.309 21.915 21.915 0 0 1-.903 3.506c-.252.643.74.99.944.33.345-.985.602-1.997.81-3.02a12.844 12.844 0 0 1 3.184 5.867c-.671 2.347-1.686 4.573-3.063 6.586-.376.551.45 1.116.826.565 1.117-1.649 1.907-3.274 2.559-4.99.018.28.043.56.043.845 0 4.9-2.726 9.158-6.746 11.34a24.002 24.002 0 0 0 3.98-3.693.5.5 0 1 0-.76-.653c-2.045 2.382-4.565 4.37-7.408 5.684-.043.017-.07.045-.103.068-.608.088-1.225.149-1.858.149-.27 0-.536-.025-.802-.041a23.282 23.282 0 0 0 4.76-2.436.5.5 0 0 0-.555-.83 22.277 22.277 0 0 1-6.408 2.94c-.401-.096-.795-.208-1.18-.34.307-.079.615-.157.918-.25.571-.163.433-1.008-.16-.98a.502.502 0 0 0-.133.023c-.731.224-1.474.401-2.225.535a12.904 12.904 0 0 1-3.07-2.156c.4-.083.798-.171 1.193-.274.567-.145.466-.978-.119-.984a.5.5 0 0 0-.133.017c-.586.152-1.18.27-1.777.373a12.866 12.866 0 0 1-2.303-3.775c.765-.2 1.522-.43 2.262-.705.527-.19.392-.97-.168-.97a.5.5 0 0 0-.182.032c-.736.275-1.49.502-2.25.698-.148-.488-.26-.99-.351-1.5a23.325 23.325 0 0 0 4.96-2.287c.436-.26.254-.928-.253-.93a.5.5 0 0 0-.272.078 22.302 22.302 0 0 1-4.582 2.13c-.04-.415-.064-.836-.064-1.263 0-.271.024-.537.04-.804a21.06 21.06 0 0 0 2.378-1.208c.44-.252.267-.924-.24-.933a.5.5 0 0 0-.272.074c-.564.336-1.148.632-1.742.91.118-.774.302-1.525.55-2.248.025-.001.044.007.07.004a23.3 23.3 0 0 0 3.661-2.744.5.5 0 1 0-.676-.738 22.33 22.33 0 0 1-2.388 1.9c2.12-4.215 6.47-7.11 11.513-7.11zm-2.025.802a.5.5 0 0 0-.432.272 22.164 22.164 0 0 1-5.396 6.635c-.524.424.125 1.205.639.77a23.172 23.172 0 0 0 5.64-6.936.5.5 0 0 0-.451-.74zm2.156 2.641a.5.5 0 0 0-.467.295c-.913 1.958-2.332 3.664-3.93 5.168-.485.457.2 1.185.686.728 1.657-1.56 3.164-3.356 4.15-5.472a.5.5 0 0 0-.439-.719zm6.584 6a.5.5 0 0 0-.431.273c-.365.696-.766 1.371-1.2 2.026h.002c-1.517 2.285-3.45 4.3-5.695 5.873-.572.378.024 1.227.574.818a23.093 23.093 0 0 0 5.953-6.136v-.002c.453-.683.872-1.388 1.252-2.114a.5.5 0 0 0-.455-.738zm-7.6.35a.5.5 0 0 0-.382.174 22 22 0 0 1-1.297 1.335c-.483.46.206 1.185.69.725.469-.446.922-.91 1.353-1.396a.5.5 0 0 0-.363-.838zm4.378.049a.5.5 0 0 0-.412.216c-2.937 4.157-7.207 7.417-12.018 8.875-.638.194-.347 1.151.29.957 5.05-1.53 9.486-4.926 12.544-9.254a.5.5 0 0 0-.404-.794zm-8.78.119a.5.5 0 0 0-.304.12c-.354.3-.713.592-1.077.882-.552.41.096 1.228.622.783.37-.295.737-.595 1.1-.9a.5.5 0 0 0-.34-.885zm16.02.83a.5.5 0 0 0-.455.312c-.076.18-.156.362-.239.545-.308.622.655 1.053.913.408.083-.186.167-.373.248-.564a.5.5 0 0 0-.467-.701zm-.957 2a.5.5 0 0 0-.438.263 24.265 24.265 0 0 1-1.877 2.877c-2.446 3.229-5.712 5.875-9.463 7.389-.634.242-.252 1.193.374.928 3.937-1.59 7.34-4.351 9.886-7.711a25.278 25.278 0 0 0 1.955-2.996.5.5 0 0 0-.437-.75zm-13.453 6.715a.5.5 0 0 0-.227.052c-.488.232-.984.444-1.488.637-.648.227-.276 1.198.357.934.53-.203 1.05-.425 1.56-.668.488-.222.333-.95-.202-.955z"/>
        <path id="speechbubble" d="M163.758 17.777c-5.675.202-10.19 4.671-10.57 10.211-2.893 2.452-4 5.791-4.44 8.211-.088.481.24.969.764.266 1.03-1.382 2.875-2.097 5.035-2.37a10.978 10.978 0 0 0 9.988 5.64c6.063-.217 10.803-5.307 10.588-11.37-.215-6.062-5.303-10.804-11.365-10.588zm.27 5.97c1.376.031 2.684.724 3.093 2.056.78 2.535-1.459 3.69-1.459 3.69l.365 1.183-2.37.728-.362-1.183h-.002c-.2-.652.17-1.351.82-1.551l.592-.18a.614.614 0 0 0 .41-.775l-.363-1.184a.614.614 0 0 0-.773-.41l-1.184.365a.612.612 0 0 0-.41.774l.181.59-2.37.73c-.546-1.777.685-4.1 2.462-4.646.444-.137.91-.199 1.37-.188zm2.273 7.817l.726 2.37-2.369.726-.728-2.367 2.37-.729z"/>
        <path id="ufo" d="M139.098 37.504a9.872 9.872 0 0 0-3.88.674c-5.099 1.983-7.632 7.738-5.648 12.838l2.78 7.14-1.807.703a.5.5 0 0 0-.285.647l1.603 4.123a.5.5 0 0 0 .649.285l3.812-1.482 1.399 1.959a.5.5 0 0 0 .588.175l1.695-.66.355 1.793c.116.676 1.133.473.98-.195l-.39-1.965 7.184-2.797.894 1.469c-.19.2-.426.364-.513.64-.145.457-.095 1 .193 1.499l.004.01c.305.5.77.807 1.248.894.477.087.951-.024 1.342-.262.39-.237.709-.608.851-1.072.143-.464.084-1.017-.22-1.518l-.006-.007a.5.5 0 0 0-.32-.223c-.281-.286-.573-.578-.922-.639-.286-.05-.536.084-.801.16l-.803-1.32 1.695-.66a.5.5 0 0 0 .315-.527l-.295-2.385 3.814-1.485a.5.5 0 0 0 .286-.648l-1.606-4.125a.5.5 0 0 0-.646-.283l-1.807.703-2.777-7.139c-1.49-3.824-5.098-6.206-8.961-6.32zm-.026.998a8.914 8.914 0 0 1 8.055 5.684l2.777 7.14-8.31 3.233-8.313 3.234-2.777-7.139a8.91 8.91 0 0 1 5.078-11.545 8.897 8.897 0 0 1 3.49-.607zm-1.402 1.82a.5.5 0 0 0-.133.02c-2.458.647-4.255 2.223-5.13 4.232-.877 2.01-.835 4.44.27 6.776.286.602 1.19.175.905-.428-.996-2.104-1.012-4.218-.258-5.947.754-1.73 2.276-3.09 4.467-3.666.58-.14.474-.992-.121-.987zm14.87 11.051l1.241 3.193-21.168 8.235-1.242-3.192 1.807-.703 17.521-6.818a.541.541 0 0 0 .031-.012l1.81-.703zM151.782 53a.5.5 0 0 0-.18.037l-9.914 3.858c-.635.235-.264 1.188.364.931l9.914-3.857c.528-.196.38-.98-.184-.969zm-1.949 4.176l.217 1.744-1.828.713a.5.5 0 0 0-.125.047l-7.82 3.047h-.007a.5.5 0 0 0-.156.062l-1.806.703-1.024-1.433v-.002l12.549-4.881zm.678 5.342c.203.035.393.138.568.412.17.283.178.5.117.697a.946.946 0 0 1-.416.51.942.942 0 0 1-.642.134c-.204-.037-.393-.146-.567-.427-.16-.28-.167-.496-.105-.692a.94.94 0 0 1 .412-.5.938.938 0 0 1 .633-.134zm2.517 3.84l-.05.001a.5.5 0 0 0-.32.85l.866.912c.457.532 1.232-.204.725-.687l-.867-.914a.5.5 0 0 0-.354-.163zm3.164 3.337a.5.5 0 0 0-.05.002.5.5 0 0 0-.323.848l1.723 1.82a.501.501 0 0 0 .727-.69l-1.723-1.818a.5.5 0 0 0-.354-.162zm-15.224 1.346a.5.5 0 0 0-.492.508v1.26c-.01.676 1.01.676 1 0v-1.26a.5.5 0 0 0-.508-.508zm19.191 2.898a.5.5 0 0 0-.32.85l1.722 1.818a.5.5 0 1 0 .727-.687l-1.723-1.818a.5.5 0 0 0-.355-.163.5.5 0 0 0-.05 0zM140.97 75.66a.5.5 0 0 0-.492.508v2.52a.5.5 0 0 0 1 0v-2.52a.5.5 0 0 0-.508-.508zm23.261 2.522a.5.5 0 0 0-.37.85l1.722 1.818a.5.5 0 0 0 .727-.688l-1.723-1.818a.5.5 0 0 0-.356-.162zm-23.261 3.355a.5.5 0 0 0-.492.508v2.52a.5.5 0 0 0 1 0v-2.52a.5.5 0 0 0-.508-.508zm27.281.889a.5.5 0 0 0-.371.85l1.723 1.816a.5.5 0 0 0 .726-.688l-1.723-1.818a.5.5 0 0 0-.355-.16zm4.02 4.242a.5.5 0 0 0-.372.85l1.723 1.818a.5.5 0 1 0 .725-.688l-1.721-1.818a.5.5 0 0 0-.355-.162zm-31.301.746a.5.5 0 0 0-.492.508v2.517a.5.5 0 0 0 1 0v-2.517a.5.5 0 0 0-.508-.508zm35.322 3.496a.5.5 0 0 0-.05.002.5.5 0 0 0-.323.848l1.725 1.82a.5.5 0 1 0 .724-.687l-1.722-1.82a.5.5 0 0 0-.354-.163zm-35.322 2.381a.5.5 0 0 0-.492.508v2.52a.5.5 0 0 0 1 0v-2.52a.5.5 0 0 0-.508-.508zm39.342 1.863a.5.5 0 0 0-.051.002.5.5 0 0 0-.32.848l1.722 1.818a.5.5 0 1 0 .725-.687l-1.723-1.819a.5.5 0 0 0-.353-.162zm-39.342 4.014a.5.5 0 0 0-.492.508v2.517a.5.5 0 0 0 1 0v-2.517a.5.5 0 0 0-.508-.508zm43.31.23a.5.5 0 0 0-.32.85l1.723 1.82a.5.5 0 0 0 .726-.69l-1.722-1.817a.5.5 0 0 0-.356-.163.5.5 0 0 0-.05 0zm4.022 4.245a.5.5 0 0 0-.322.85l1.724 1.818a.5.5 0 1 0 .725-.688l-1.723-1.818a.5.5 0 0 0-.353-.162.5.5 0 0 0-.051 0zm-47.332 1.402a.5.5 0 0 0-.492.506v2.52a.5.5 0 0 0 1 0v-2.52a.5.5 0 0 0-.508-.506zm51.402 2.842a.5.5 0 0 0-.371.85l1.723 1.818a.5.5 0 1 0 .724-.688l-1.722-1.82a.5.5 0 0 0-.354-.16zm-51.402 3.035a.5.5 0 0 0-.492.506v2.521a.5.5 0 0 0 1 0v-2.521a.5.5 0 0 0-.508-.506zm55.422 1.207a.5.5 0 0 0-.371.85l1.722 1.818a.5.5 0 1 0 .725-.688l-1.723-1.818a.5.5 0 0 0-.353-.162zm3.97 4.244a.5.5 0 0 0-.322.85l1.723 1.818a.5.5 0 0 0 .726-.687l-1.722-1.819a.5.5 0 0 0-.356-.162.5.5 0 0 0-.049 0zm-59.392.428a.5.5 0 0 0-.492.506v2.52a.5.5 0 0 0 1 0v-2.52a.5.5 0 0 0-.508-.506zm63.412 3.816a.5.5 0 0 0-.322.85l1.722 1.818a.501.501 0 0 0 .727-.69l-1.723-1.816a.5.5 0 0 0-.353-.162.5.5 0 0 0-.051 0zm-63.412 2.06a.5.5 0 0 0-.492.507v2.52a.5.5 0 0 0 1 0v-2.52a.5.5 0 0 0-.508-.506zm67.43 2.182a.5.5 0 0 0-.32.85l1.722 1.818a.5.5 0 0 0 .726-.687l-1.722-1.82a.5.5 0 0 0-.356-.16.5.5 0 0 0-.05 0zm-67.43 3.694a.5.5 0 0 0-.492.508v1.26c-.01.675 1.01.675 1 0v-1.26a.5.5 0 0 0-.508-.508zm71.498.545c-.017 0-.034 0-.051.002a.5.5 0 0 0-.32.847l.863.914c.458.485 1.185-.203.727-.687l-.866-.914a.5.5 0 0 0-.353-.162z"/>
        <path id="stars" d="M103.42 3.994a.5.5 0 0 0-.348.86l1.719 1.718-1.719 1.719a.5.5 0 1 0 .707.707l1.72-1.719 1.716 1.719a.5.5 0 1 0 .707-.707l-1.717-1.719 1.719-1.718a.5.5 0 1 0-.707-.708l-1.719 1.72-1.719-1.72a.5.5 0 0 0-.36-.152zm87.113.846c-.42 0-.85.138-1.187.431a1.76 1.76 0 0 0-.58 1.288c-.016.56.2 1.049.545 1.36.343.313.787.458 1.222.458.435 0 .877-.145 1.22-.457.345-.312.562-.8.546-1.361a1.76 1.76 0 0 0-.58-1.288 1.799 1.799 0 0 0-1.186-.431zm50.787.14a.5.5 0 0 0-.363.157c-.309.079-.64.14-.83.353a1.619 1.619 0 0 0-.398 1.082c0 .384.124.775.398 1.082.273.308.705.508 1.193.508.49 0 .918-.2 1.192-.508.273-.307.4-.698.4-1.082 0-.384-.127-.776-.4-1.084a1.587 1.587 0 0 0-1.192-.508zm-50.787.86c.201 0 .395.069.53.185.134.117.23.276.238.563.009.308-.084.47-.219.592a.83.83 0 0 1-.549.197.83.83 0 0 1-.549-.197c-.134-.123-.227-.284-.218-.592.008-.287.102-.446.236-.563a.822.822 0 0 1 .531-.185zm50.787.14c.239 0 .355.07.446.172.09.102.146.258.146.42a.64.64 0 0 1-.146.418c-.09.102-.207.172-.446.172-.238 0-.355-.07-.445-.172a.641.641 0 0 1-.146-.418c0-.161.056-.316.146-.418.09-.101.207-.174.445-.174zM42.16 16.002c-.428 0-.862.14-1.203.443-.34.303-.564.777-.564 1.325 0 .547.223 1.023.564 1.326.341.303.777.443 1.205.443.428 0 .862-.14 1.203-.443.341-.303.565-.779.565-1.326a.5.5 0 0 0-.153-.358c-.082-.365-.163-.746-.412-.967a1.807 1.807 0 0 0-1.205-.443zm0 1c.206 0 .407.072.541.191.135.12.229.28.229.577 0 .297-.094.458-.229.578a.823.823 0 0 1-.539.191.828.828 0 0 1-.54-.191c-.136-.12-.23-.28-.23-.578 0-.298.094-.457.23-.577a.823.823 0 0 1 .538-.191zm26.522 9.912a.5.5 0 0 0 0 .002l-1.862.572-1.861-.572c-.717-.221-1.435.494-1.215 1.211a.5.5 0 0 0 .002 0l.57 1.861-.57 1.86c-.222.718.495 1.437 1.213 1.215l1.861-.575 1.86.575c.525.162.919-.224 1.076-.7a.5.5 0 0 0 .139-.513l-.575-1.862.575-1.859c.221-.717-.496-1.435-1.213-1.215zm-3.963.975l1.814.558a.96.96 0 0 0 .572 0l1.815-.558-.559 1.814h.002a.96.96 0 0 0 0 .572l-.002-.002.559 1.815-1.816-.559.002.002a.96.96 0 0 0-.573 0v-.002l-1.816.56.56-1.814v-.002a.967.967 0 0 0 0-.57v-.002zM24.785 43.342a.5.5 0 0 0-.424.26l-1.27 2.324-2.323 1.271a.5.5 0 0 0 0 .877l2.324 1.27 1.271 2.326a.5.5 0 0 0 .877-.002l1.27-2.322 2.324-1.272a.5.5 0 0 0 0-.879l-2.324-1.27-1.272-2.323a.5.5 0 0 0-.453-.26zm239.309.19a.5.5 0 0 0-.47.64l.743 2.543-.744 2.543a.5.5 0 0 0 .621.619l2.543-.744 2.54.746a.5.5 0 0 0 .62-.621l-.744-2.541.742-2.543a.5.5 0 0 0-.62-.621l-2.54.746-2.543-.746a.5.5 0 0 0-.148-.022zm.746 1.238l1.805.529a.5.5 0 0 0 .28 0l1.804-.528-.528 1.805a.5.5 0 0 0 0 .281l.53 1.805-1.803-.53a.5.5 0 0 0-.282 0l-1.806.53.53-1.807a.5.5 0 0 0 0-.28zm-240.04.115l.903 1.65a.5.5 0 0 0 .2.2l1.65.902-1.65.902a.5.5 0 0 0-.2.197l-.902 1.65-.903-1.65a.5.5 0 0 0-.199-.199l-1.65-.902 1.65-.903a.5.5 0 0 0 .2-.199zm152.368.242c-.488 0-.918.2-1.191.508a1.62 1.62 0 0 0-.399 1.082c0 .383.125.772.399 1.08.273.307.703.51 1.191.51.488 0 .916-.203 1.19-.51.273-.308.398-.697.398-1.08a1.62 1.62 0 0 0-.399-1.082 1.584 1.584 0 0 0-1.189-.508zm-80.418.492a.5.5 0 0 0-.344.15l-1.59 1.592a.5.5 0 1 0 .707.707l1.59-1.59a.5.5 0 0 0-.363-.859zm80.418.508c.238 0 .353.07.443.172.09.101.145.256.145.418a.635.635 0 0 1-.145.416c-.09.101-.205.174-.443.174-.238 0-.355-.073-.445-.174a.636.636 0 0 1-.145-.416.64.64 0 0 1 .145-.418c.09-.101.207-.172.445-.172zm-84.84 3.914a.5.5 0 0 0-.344.152l-1.59 1.59a.5.5 0 1 0 .708.707l1.59-1.59a.5.5 0 0 0-.364-.859zm-42.13 9.58a.5.5 0 0 0-.477.649l.238.773-.24.775a.5.5 0 0 0 .625.627l.773-.238.778.238a.5.5 0 0 0 .625-.625l-.239-.775.239-.775a.5.5 0 0 0-.625-.625l-.776.238-.775-.238a.5.5 0 0 0-.147-.024zm.755 1.256l.02.006a.5.5 0 0 0 .295 0l.017-.006-.006.02a.5.5 0 0 0 0 .294l.006.02-.02-.006a.5.5 0 0 0-.294 0l-.018.006.006-.02a.5.5 0 0 0 0-.295zm150.016 6.709a.956.956 0 0 0-.858.496.5.5 0 0 0 0 .002l-.912 1.723-1.72.91c-.662.351-.662 1.361 0 1.713l1.722.912.912 1.722a.5.5 0 0 0 .46.266c.446.226.998.22 1.255-.266a.5.5 0 0 0 0-.001l.91-1.721 1.721-.912c.661-.352.661-1.362 0-1.713l-1.723-.912-.912-1.721a.5.5 0 0 0 0-.002.953.953 0 0 0-.855-.496zm0 1.016l.888 1.68a.97.97 0 0 0 .405.402l1.68.89-1.68.887a.5.5 0 0 0-.002.002.971.971 0 0 0-.403.402l-.888 1.68-.887-1.676-.002-.004a.968.968 0 0 0-.404-.404l-1.678-.889 1.678-.886.002-.002a.965.965 0 0 0 .402-.403v-.002zM76.012 69.646a.5.5 0 0 0-.492.508v.92h-.92a.5.5 0 1 0 0 1h.92v.92a.5.5 0 1 0 1 0v-.92h.92a.5.5 0 1 0 0-1h-.92v-.92a.5.5 0 0 0-.508-.508zm171.74 3.999a.5.5 0 0 0-.434.267l-.603 1.143-1.145.603a.5.5 0 0 0 0 .885l1.145.605.603 1.143a.5.5 0 0 0 .883.002l.608-1.143 1.144-.607a.5.5 0 0 0 0-.883l-1.144-.605-.606-1.145a.5.5 0 0 0-.451-.265zm.01 1.568l.236.445a.5.5 0 0 0 .207.21l.444.234-.444.236a.5.5 0 0 0-.207.207l-.236.445-.236-.445a.5.5 0 0 0-.207-.21l-.444-.233.444-.235a.5.5 0 0 0 .207-.209zM21.008 84.637c-.488 0-.983.159-1.37.502-.385.343-.638.878-.638 1.506 0 .627.253 1.16.639 1.503.386.343.88.504 1.369.504.488 0 .983-.16 1.369-.504.386-.342.639-.876.639-1.503 0-.628-.253-1.163-.639-1.506a2.052 2.052 0 0 0-1.37-.502zm0 1c.266 0 .525.09.705.25.18.16.303.38.303.758 0 .377-.123.596-.303.755-.18.16-.44.252-.705.252-.266 0-.526-.092-.705-.252-.18-.16-.303-.378-.303-.755 0-.378.123-.599.303-.758.18-.16.439-.25.705-.25zm23.103 19.52a.5.5 0 0 0-.433.265l-.608 1.144-1.142.606a.5.5 0 0 0 0 .885l1.142.603.606 1.145a.5.5 0 0 0 .885 0l.605-1.145 1.145-.603a.5.5 0 0 0 0-.885l-1.145-.606-.605-1.144a.5.5 0 0 0-.45-.266zm.008 1.568l.235.445a.5.5 0 0 0 .208.207l.446.236-.446.237a.5.5 0 0 0-.208.207l-.237.443-.234-.443a.5.5 0 0 0-.21-.21l-.443-.234.446-.236a.5.5 0 0 0 .207-.207zm184.768 2.318a.5.5 0 0 0-.492.508v2.43h-2.428a.5.5 0 1 0 0 1h2.428v2.43a.5.5 0 1 0 1 0v-2.43h2.431a.5.5 0 1 0 0-1h-2.431v-2.43a.5.5 0 0 0-.508-.508z"/>
        <path id="paperShadow" fill-opacity="0.5" d="M132.295 136.812c0 1.895-12.916 3.43-28.847 3.43-15.932 0-28.847-1.535-28.847-3.43 0-1.895 12.916-3.43 28.848-3.43 15.93 0 28.847 1.535 28.847 3.43"/>
        <path id="paperBackround" fill-opacity="0.75" d="M110.66 78.422s-1.075 3.399-4.45 4.375c-2.744-1.946-4.358-4.25-4.358-4.25-.851 3.584.974 5.223.974 5.223l-.002.001c7.453 4.415 12.281 1.606 12.281 1.606-.009.001-.018 0-.027.002l.03-.004-.003-.002c-3.53-2.245-4.445-6.951-4.445-6.951zM77.502 98.898c-2.04.048-3.905.772-4.652 2.967 0 0 3.967.01 6.787 2.926 0 0 .532-1.242 1.457-2.38 3.068-.258 5.547 2.528 5.547 2.528s.598-3.4-1.858-4.32h-.006c-.02-.01-3.885-1.8-7.275-1.72zm46.219 8.754c-7.54 3.662-14.06 4.202-14.06 4.202-2.264 2.318-6.25 3.609-6.25 3.609l1.025.27-.541.324.539 5.763c-.808 0-2.424-.484-2.424-.484-.054-.701.699-2.588.699-2.588-4.147-.054-7.598-1.828-7.598-1.828-4.256 1.562-13.578-.486-13.578-.486s1.242 13.844 1.512 18.478l5.816 2.803s4.741-1.94 7.004-2.426h.004v.97c6.088 1.133 9.053 2.587 9.053 2.587l4.469-2.64c3.449.645 7.435 2.37 7.435 2.37l5.547-2.37 1.617-22.788-3.61-.81c2.426-2.424 3.34-4.956 3.34-4.956z"/>
        <path id="paperOutline" d="M110.65 77.922a.5.5 0 0 0-.466.35s-.96 2.979-3.877 3.964c-2.54-1.854-4.045-3.976-4.045-3.976a.5.5 0 0 0-.428-.213.5.5 0 0 0-.469.383c-.448 1.887-.195 3.314.192 4.261.326.801.662 1.096.79 1.227a.5.5 0 0 0 .145.225.5.5 0 0 0 .078.058c3.808 2.255 6.991 2.685 9.225 2.528 2.014-.142 3.235-.75 3.467-.874a.5.5 0 0 0 .21-.822.5.5 0 0 0-.029-.03.5.5 0 0 0-.008-.005.5.5 0 0 0-.039-.03.5.5 0 0 0-.023-.017l-.002-.002c-3.294-2.097-4.219-6.623-4.219-6.623a.5.5 0 0 0-.502-.404zm-.091 1.754c.317 1.174 1.063 3.45 3.146 5.265-2.452-.036-4.613-.915-6.385-2.021 1.916-.856 2.771-2.274 3.239-3.244zm-8.325.142a19.35 19.35 0 0 0 3.592 3.328.5.5 0 0 0 .192.125c1.56 1.08 3.484 2.05 5.748 2.452-.018.001-.023.006-.041.007-2.031.143-4.97-.24-8.586-2.365-.022-.019-.353-.307-.657-1.053-.23-.564-.324-1.443-.248-2.494zM77.488 98.396a7.34 7.34 0 0 0-2.086.329c-1.26.406-2.325 1.324-2.9 2.78a.5.5 0 0 0-.123.198l-.002.002a.5.5 0 0 0-.027.16.5.5 0 0 0 .5.5s3.77.026 6.427 2.774a.5.5 0 0 0 .82-.153s.464-1.06 1.249-2.082c2.656-.086 4.92 2.368 4.92 2.368a.5.5 0 0 0 .867-.245s.167-.921-.006-1.982c-.17-1.048-.728-2.322-2.12-2.87-.004-.001-.008-.005-.013-.007l-.035-.016a.5.5 0 0 0-.004-.002c-.11-.05-2.552-1.173-5.314-1.597a12.378 12.378 0 0 0-2.153-.157zm.026 1.006c.642-.015 1.313.04 1.974.141 1.248.192 2.412.547 3.334.865-.13.058-.276.083-.398.153-.66.378-1.203.917-1.66 1.47a.5.5 0 0 0-.082.09c-.007.009-.017.017-.024.025-.745.933-.987 1.545-1.162 1.922-2.423-2.169-4.886-2.514-5.842-2.578.48-.914 1.15-1.52 2.055-1.812.548-.177 1.162-.26 1.805-.276zm6.697 1.655c.141 0 .287.019.435.048.996.392 1.353 1.242 1.493 2.1.056.35.009.387.004.662-.749-.696-2.044-1.705-3.95-1.898.232-.208.474-.396.727-.541.411-.236.834-.375 1.29-.371zm39.518 6.095a.5.5 0 0 0-.227.051c-7.455 3.621-13.883 4.152-13.883 4.152a.5.5 0 0 0-.316.149c-2.123 2.174-6.047 3.484-6.047 3.484a.5.5 0 0 0 .027.96l.117.03a.5.5 0 0 0-.004.125l.479 5.125c-.287-.043-.546-.066-.84-.136-.252-.06-.293-.077-.453-.121.042-.274.098-.626.232-1.037.176-.541.36-.998.36-.998a.5.5 0 0 0 .002-.01.5.5 0 0 0 .013-.038.5.5 0 0 0 .002-.01.5.5 0 0 0 .016-.1.5.5 0 0 0-.004-.099.5.5 0 0 0-.01-.049.5.5 0 0 0-.326-.353.5.5 0 0 0-.047-.014.5.5 0 0 0-.106-.014c-4.007-.052-7.373-1.775-7.373-1.775a.5.5 0 0 0-.402-.025c-1.95.716-5.325.63-8.158.316a54.106 54.106 0 0 1-5.098-.812.5.5 0 0 0-.18-.024.5.5 0 0 0-.464.586.5.5 0 0 0 0 .004c.006.076 1.238 13.832 1.506 18.422a.5.5 0 0 0 .28.422l5.82 2.803a.5.5 0 0 0 .405.011s4-1.56 6.319-2.19v.272a.5.5 0 0 0 .408.493c6.041 1.123 8.924 2.543 8.924 2.543a.5.5 0 0 0 .474-.018l4.288-2.533c3.322.653 7.164 2.29 7.164 2.29a.5.5 0 0 0 .394 0l5.549-2.368a.5.5 0 0 0 .303-.424l.297-4.19a.438.438 0 0 0 .006-.072l.681-9.633a.5.5 0 0 0 .008-.113l.62-8.729a.5.5 0 0 0-.444-.59l-2.797-.624c2.001-2.264 2.945-4.47 2.945-4.47a.5.5 0 0 0-.46-.67zm-1.026 1.455c-.462.917-1.205 2.177-2.676 3.647a.5.5 0 0 0-.035.037s-.249.303-.525.625c-.139.16-.285.327-.407.459-.098.107-.157.163-.18.186-.075.03-3.74 1.504-8.81 1.835a.5.5 0 0 0-.125.01 29.193 29.193 0 0 1-4.822-.103c1.27-.508 3.118-1.382 4.746-2.98.239-.021 5.915-.618 12.834-3.715zm-2.139 4.555l2.018.453-5.12 2.797-3.583-.494c3.28-.592 5.447-1.451 5.447-1.451a.5.5 0 0 0 .111-.063c.144-.107.228-.21.362-.355.133-.146.283-.317.426-.483.18-.21.24-.285.34-.404zm2.864 1.131l-.541 7.621-2.069.873a.5.5 0 0 0 .389.922l1.6-.674-.61 8.592-3.021 1.295c-.614.262-.221 1.181.392.92l2.55-1.092-.222 3.115-4.539 1.94.063-1.436c.03-.695.065-1.526.103-2.459l.086-2.152.612-.258c.662-.239.243-1.228-.389-.92l-.178.074c.04-1.042.08-2.133.12-3.256v-.027a.5.5 0 0 0 .66-.139s1.128-1.574 2.027-2.595a.5.5 0 0 0-.379-.83.5.5 0 0 0-.152.025l-2.057.682.022-.727c.037-1.207.07-2.407.097-3.56l.004-.235c.118-.102.536-.475 1.246-.949.802-.535 1.82-1.027 2.414-1.027.677.01.677-1.01 0-1-1.046 0-2.104.62-2.968 1.197-.38.253-.404.302-.664.506l.029-1.49zm-18.881 1.955a29.89 29.89 0 0 0 5.5.152l7.002.965-.033 1.703c-.791-.28-2.763-.922-5.217-.822-.7-.006-.657 1.061.04.998 2.471-.1 4.71.698 5.157.863 0 .033 0 .061-.002.094a550.673 550.673 0 0 1-.125 4.39c-.846-.195-2.846-.58-4.99-.37l-.026-.004.004.004c-.033.003-.058-.008-.091-.004a.5.5 0 0 0-.446.498.5.5 0 0 0 .465.498s1.044.072 2.319.377c.9.215 1.894.563 2.691 1.04-.007.268-.016.634-.02.735-.04 1.14-.082 2.25-.123 3.307-1.85-.705-4.697-1.52-4.697-1.52a.501.501 0 0 0-.148-.021c-.586.004-.689.838-.121.984 0 0 3.267.93 4.925 1.592a1055.574 1055.574 0 0 1-.255 6.137c-.972-.402-3.663-1.457-6.428-2.034l.101-1.078a.5.5 0 0 0 .014-.135l.594-6.25a.5.5 0 0 0 .015-.164l.432-4.558a.5.5 0 0 0-.02-.236c-.001-.006-.005-.012-.007-.018a.5.5 0 0 0-.163-.22.5.5 0 0 0-.269-.895s-2.66-.193-5.729-.852l-.474-5.08zm-21.535.961c.79.155 1.898.354 3.66.549 2.804.31 6.068.43 8.367-.332.194.098 2.618 1.253 5.885 1.644-5.527 2.413-12.132 1.987-12.23 1.98-1.562-.51-3.277-1.73-4.579-2.841a27.005 27.005 0 0 1-1.103-1zm-.864.557c.368.356.797.759 1.317 1.203 1.273 1.087 2.92 2.298 4.611 2.926l-.08 1.898c-.611-.43-1.355-.82-2.107-1.158-1.094-.49-2.059-.846-2.059-.846a.5.5 0 0 0-.195-.033.5.5 0 0 0-.15.97s.936.347 1.994.82c.962.433 2.013 1.009 2.468 1.395l-.097 2.315c-.652-.118-1.365-.314-1.96-.62-.741-.38-1.265-.751-1.265-.751-.41-.288-.94.137-.75.6 1.301 3.115 3.672 4.398 3.672 4.398a.5.5 0 0 0 .515-.026l.061-.04.04 1.142-.122-.043a.5.5 0 1 0-.336.941l.494.176.133 3.871-4.812-2.318c-.019-.295-.06-.808-.084-1.156.593.243 1.718.708 2.988 1.183a.5.5 0 1 0 .35-.937c-1.44-.538-3.14-1.24-3.419-1.356-.169-2.32-.39-5.102-.625-7.863a8.365 8.365 0 0 1 1.909.781.5.5 0 1 0 .496-.869 9.412 9.412 0 0 0-2.498-.975c-.232-2.7-.422-4.882-.489-5.628zm19.67 2.007c-.117.36-.232.728-.283 1.088-.405.023-1.52.074-3.062.14a21.187 21.187 0 0 0 3.345-1.228zm-6.013 1.836a.5.5 0 0 0 .127.317s.555.587 1.607 1.322l-2.967 2.002a.5.5 0 0 0-.289.416.5.5 0 0 0 0 .006.5.5 0 0 0-.002.047.5.5 0 0 0 0 .004.5.5 0 0 0 .004.043.5.5 0 0 0 0 .006.5.5 0 0 0 .008.043.5.5 0 0 0 .016.059c.07.25.134.56.197.87a24.368 24.368 0 0 0-1.71-.015c-1.17.03-2.609.166-3.944.518l.091-2.159c.467-.161 2.91-.993 4.567-1.043a.5.5 0 0 0-.032-1c-1.635.05-3.594.657-4.49.961l.082-1.937c.778.042 3.352.132 6.735-.46zm6.154.23c.072.022.374.113.842.225.483.116 1.04.228 1.521.245 2.485.558 3.706.618 4.682.709a378.636 378.636 0 0 0-4.143 2.16c-2.78-.568-4.809-1.516-6.144-2.344a.5.5 0 0 0-.078-.045c-.673-.423-.65-.482-.971-.758 1.99-.083 4.212-.187 4.291-.191zm-3.504 1.997c.855.51 1.947 1.035 3.274 1.506-2.493-.176-4.169-.185-5.266-.16zm11.55.576l-.333 3.51c-.182.108-.792.47-1.563.932a.5.5 0 1 0 .514.859l.932-.557-.489 5.127c-.165.07-.33.131-.728.332-.556.28-1.21.645-1.674 1.108a.5.5 0 1 0 .707.707c.3-.299.904-.663 1.418-.922.093-.047.085-.036.17-.076l-.047.476-3.455 2.041.162-3.553c.332-.239 1.2-.788 2.785-1.3a.5.5 0 0 0-.176-.977.5.5 0 0 0-.13.026c-1.178.38-1.93.759-2.424 1.05l.308-6.7zm8.669.89c-.295.39-.658.83-.764.975-.063-.051-.132-.097-.197-.146a.489.489 0 0 0-.291-.211 5.899 5.899 0 0 0-.457-.275c.028.007.246.05.246.05a.5.5 0 0 0 .293-.006zm-21.14.858c1.702.021 4.215.137 7.443.475l-.315 6.845c-1.642-.57-3.562-.57-3.562-.57a.5.5 0 1 0 .011 1s2.13.024 3.504.565l-.166 3.64c-.902-.377-3.47-1.346-8.08-2.244v-.582a.5.5 0 0 0-.008-.082l-.002-.045c.393.043.927.13 1.594.365a.5.5 0 1 0 .332-.943 7.523 7.523 0 0 0-1.975-.428 101.75 101.75 0 0 0-.181-2.62c-.064-.777-.159-1.6-.254-2.409.66.002 2.283.024 3.795.299a.5.5 0 1 0 .18-.985c-1.72-.312-3.519-.318-4.092-.316a30.565 30.565 0 0 0-.133-.85.5.5 0 0 0-.022-.13c-.06-.346-.13-.655-.2-.961a38.846 38.846 0 0 1 2.13-.024zm-11.675 1.496c.705.334 1.492.68 2.32.737a.5.5 0 0 0 .303-.01c1.02-.346 2.18-.41 3.274-.487-1.868.774-3.424 1.58-3.424 1.58a.5.5 0 0 0-.018.01l-.007.006a.5.5 0 0 0-.028.018l-.482.322c-.235-.137-1.013-.907-1.938-2.176zm8.846.23c.18 1.18.327 2.511.428 3.731.11 1.332.165 2.3.197 2.95a.5.5 0 0 0 .006.146l.01.191c-2.167.54-5.235 1.783-6.01 2.1l-.137-3.983c.42-.169 1.859-.734 3.028-.779a.5.5 0 0 0-.004-1 .5.5 0 0 0-.035.002c-1.156.044-2.36.446-3.026.703l-.06-1.76c.581-.337 3.184-1.786 5.603-2.3z" class="outline"/>
    </g>
</svg>
