<svg xmlns="http://www.w3.org/2000/svg" width="257" height="85" viewBox="0 0 257 85">
    <style>
        <![CDATA[
            .outline {
                fill:#cadef3
            }
        ]]>
    </style>
    <g id="no-pull-requests" class="outline">
        <path id="stars-right" transform="translate(168 1)" d="M44.456 27.478a.97.97 0 0 1-1.212 1.213l-1.861-.573-1.863.574a.97.97 0 0 1-1.211-1.214l.573-1.86-.573-1.862a.97.97 0 0 1 1.213-1.212l1.86.573 1.862-.573a.97.97 0 0 1 1.212 1.212l-.573 1.861.573 1.861zm-1.53-1.574a.961.961 0 0 1-.001-.572l.559-1.816-1.815.559a.963.963 0 0 1-.572 0l-1.816-.56.558 1.814a.963.963 0 0 1 .001.574l-.56 1.816 1.816-.559a.963.963 0 0 1 .572 0l1.816.559-.559-1.815zM2.928 1.365L1.21-.354a.5.5 0 0 0-.708.708l1.719 1.718L.502 3.79a.5.5 0 0 0 .708.708l1.718-1.719 1.718 1.719a.5.5 0 1 0 .708-.708L3.635 2.072 5.354.354a.5.5 0 1 0-.708-.708L2.928 1.365zM66.5 13.267a.768.768 0 1 0-1.535.001.768.768 0 0 0 1.535-.001zm1 0a1.768 1.768 0 1 1-3.535 0 1.768 1.768 0 0 1 3.535 0zM32.5 65.5V65a.5.5 0 1 0-1 0v.5H31a.5.5 0 1 0 0 1h.5v.5a.5.5 0 1 0 1 0v-.5h.5a.5.5 0 1 0 0-1h-.5zm55 16.008a1.008 1.008 0 1 0-2.017 0 1.008 1.008 0 0 0 2.017 0zm1 0a2.008 2.008 0 1 1-4.016 0 2.008 2.008 0 0 1 4.016 0zM84.308 41.89a.5.5 0 0 1-.199-.198l-.902-1.65-.902 1.65a.5.5 0 0 1-.2.199l-1.649.902 1.65.902a.5.5 0 0 1 .199.2l.902 1.649.902-1.65a.5.5 0 0 1 .2-.199l1.649-.902-1.65-.902zm2.932.464a.5.5 0 0 1 0 .878l-2.324 1.27-1.27 2.324a.5.5 0 0 1-.878 0l-1.27-2.324-2.324-1.27a.5.5 0 0 1 0-.878l2.324-1.27 1.27-2.324a.5.5 0 0 1 .878 0l1.27 2.324 2.324 1.27z"/>
        <path id="bubble" d="M141.324 15.081c8.089 1.418 13.497 9.125 12.078 17.214-1.326 7.57-8.16 12.79-15.66 12.267-3.827 3.423-8.509 4.283-11.832 4.421-.664.029-1.255-.5-.214-1.07 2.043-1.126 3.344-3.465 4.11-6.313-4.31-3.255-6.694-8.752-5.696-14.44 1.42-8.09 9.125-13.497 17.214-12.08zm5.755 10.959l-2.047-2.048-8.873 8.873-3.413-3.413-2.048 2.048 5.46 5.46 10.922-10.92z"/>
        <path id="ufo" d="M109.098 42.502a9.88 9.88 0 0 0-3.88.674c-5.104 1.987-7.633 7.735-5.648 12.84l2.78 7.14-1.807.703a.5.5 0 0 0-.285.647l1.603 4.123a.5.5 0 0 0 .649.285l3.814-1.484 1.397 1.959a.5.5 0 0 0 .588.175l1.693-.66.273 1.37a1.886 1.886 0 0 0-1.005 2.052 1.887 1.887 0 1 0 3.7-.734 1.886 1.886 0 0 0-1.712-1.512l-.309-1.543 7.186-2.797.853 1.405a1.886 1.886 0 0 0-.277 2.214 1.885 1.885 0 1 0 3.223-1.955 1.886 1.886 0 0 0-2.094-.779l-.76-1.252 1.695-.66a.5.5 0 0 0 .315-.527l-.295-2.387 3.814-1.485a.5.5 0 0 0 .286-.646l-1.606-4.123a.5.5 0 0 0-.646-.285l-1.807.703-2.777-7.14a9.925 9.925 0 0 0-8.961-6.321zm-.03 1.002a8.923 8.923 0 0 1 8.059 5.682l-.002.002 2.777 7.138-16.623 6.469-2.775-7.14a8.918 8.918 0 0 1 5.076-11.546 8.88 8.88 0 0 1 3.488-.605zm-1.412 1.822a.5.5 0 0 0-.119.018c-4.936 1.297-7.102 6.266-4.857 11.006a.5.5 0 0 0 .904-.428h-.002c-1.981-4.184-.108-8.475 4.21-9.611a.5.5 0 0 0-.136-.985zm14.883 11.047l1.24 3.191-17.465 6.795a.5.5 0 0 0-.006.002l-3.697 1.44-1.24-3.192 1.807-.703 8.777-3.414 8.777-3.416a.5.5 0 0 0 .033-.013zM121.79 58a.5.5 0 0 0-.185.037l-9.915 3.858a.5.5 0 1 0 .364.931l9.914-3.857a.5.5 0 0 0-.178-.969zm-1.955 4.174l.217 1.748-1.815.705a.5.5 0 0 0-.162.064l-7.756 3.018a.5.5 0 0 0-.238.092l-1.771.69-1.026-1.434zm.51 5.322a.885.885 0 0 1 .734.426.885.885 0 0 1-1.514.918.885.885 0 0 1 .21-1.154.5.5 0 0 0 .181-.11.885.885 0 0 1 .389-.08zm-9.246 3.578a.886.886 0 0 1 .892.713h-.002a.886.886 0 0 1-1.736.348.886.886 0 0 1 .846-1.06z"/>
        <path id="stars-left" d="M83.992.5a.5.5 0 0 0-.346.854l1.72 1.718-1.72 1.717a.5.5 0 0 0 .708.709l1.718-1.719 1.717 1.719a.5.5 0 0 0 .709-.709l-1.719-1.717 1.719-1.718a.5.5 0 0 0-.709-.708l-1.717 1.72-1.718-1.72A.5.5 0 0 0 83.992.5zM23.184 12.543a1.768 1.768 0 0 0-1.684 1.725 1.768 1.768 0 1 0 3.535 0 1.768 1.768 0 0 0-1.851-1.725zm.087.93a.768.768 0 0 1 .764.795.768.768 0 0 1-1.535 0 .768.768 0 0 1 .771-.795zm34.776 18.111a.5.5 0 0 0-.36.146L56.416 33a2.503 2.503 0 0 0-3.467 3.469l-1.095 1.095a.5.5 0 0 0 .707.707l1.095-1.095a2.504 2.504 0 0 0 3.469-3.469l1.27-1.27a.5.5 0 0 0-.348-.853zm-3.008 2.002a1.503 1.503 0 1 1 0 3.006 1.503 1.503 0 0 1 0-3.006zM5.758 39.5a.5.5 0 0 0-.404.26l-1.27 2.324-2.324 1.27a.5.5 0 0 0 0 .878l2.324 1.27 1.27 2.324a.5.5 0 0 0 .878 0l1.27-2.324 2.324-1.27a.5.5 0 0 0 0-.878l-2.324-1.27-1.27-2.324a.5.5 0 0 0-.474-.26zm.035 1.543l.902 1.648a.5.5 0 0 0 .2.2l1.65.902-1.65.902a.5.5 0 0 0-.2.2l-.902 1.65-.902-1.65a.5.5 0 0 0-.2-.2l-1.648-.902 1.648-.902a.5.5 0 0 0 .2-.2l.902-1.648zM56.986 65.5a.5.5 0 0 0-.486.5v.5H56a.5.5 0 0 0 0 1h.5v.5a.5.5 0 0 0 1 0v-.5h.5a.5.5 0 0 0 0-1h-.5V66a.5.5 0 0 0-.514-.5zm-54.42 15A2.008 2.008 0 0 0 .5 82.508a2.008 2.008 0 0 0 4.016 0 2.008 2.008 0 0 0-1.95-2.008zm-.087 1a1.008 1.008 0 0 1 1.037 1.008 1.008 1.008 0 0 1-2.018 0 1.008 1.008 0 0 1 .98-1.008z"/>
    </g>
</svg>