<svg width="288" height="147" viewBox="0 0 288 147" xmlns="http://www.w3.org/2000/svg" xmlns:xlink="http://www.w3.org/1999/xlink"><title>No file selected</title><defs><path id="a" d="M76.632 7h-75.655v-6.86h75.655v6.86z"/></defs><g fill="none"><path d="M69.416 31.997l-.576-1.87a.464.464 0 0 1 0-.276l.576-1.87a.47.47 0 0 0-.587-.588l-1.872.576a.464.464 0 0 1-.276 0l-1.87-.576a.47.47 0 0 0-.588.587l.576 1.87a.464.464 0 0 1 0 .276l-.576 1.87a.47.47 0 0 0 .588.588l1.87-.576a.464.464 0 0 1 .276 0l1.87.576a.47.47 0 0 0 .588-.588zm34.009-27.497l4.144 4.144m-4.144 0l4.145-4.144m133.75.98a1.09 1.09 0 1 1 0 2.183 1.09 1.09 0 0 1 0-2.182zm-40.765 69.35l-.916-1.73a.467.467 0 0 0-.196-.197l-1.73-.915a.47.47 0 0 1 0-.83l1.73-.916a.464.464 0 0 0 .195-.195l.915-1.73a.47.47 0 0 1 .83 0l.916 1.73a.47.47 0 0 0 .196.195l1.73.916a.47.47 0 0 1 0 .83l-1.73.915a.472.472 0 0 0-.195.196l-.914 1.73a.47.47 0 0 1-.83 0zm28.34 34.72v5.86m2.931-2.93h-5.86m-133.628-61.934l-1.59 1.59m6.012-6.012l-1.59 1.59m-2.832 2.832zm-48.908-32.776a1.268 1.268 0 1 1-2.537 0 1.268 1.268 0 0 1 2.536 0zm148.37-11.197a1.268 1.268 0 1 1-2.535 0 1.268 1.268 0 0 1 2.535 0zm55.96 71.485l-.676-1.28-1.28-.677 1.28-.676.677-1.28.678 1.28 1.28.677-1.28.678zm-70.593-32.432a1.09 1.09 0 1 0 0 2.18 1.09 1.09 0 0 0 0-2.18zm-101.147 24.528v2.84m1.42-1.42h-2.84m-52.084 15.07a1.508 1.508 0 1 1-3.016 0 1.508 1.508 0 0 1 3.016 0zm21.602 22.926l-.677-1.28-1.28-.676 1.28-.678.678-1.28.677 1.28 1.28.678-1.28.677zm6.078-47.603l.922-.284.923.284-.283-.923.284-.922-.922.283-.922-.283.284.922zm-24.054-15.672l2.452 1.34-2.452 1.342-1.34 2.452-1.342-2.453-2.452-1.34 2.452-1.342 1.34-2.452zm242.54.422l.785 2.682-2.68-.787-2.684.786.786-2.683-.787-2.683 2.683.787 2.68-.786zm-127.705 83.603v-1.26" stroke="#CADEF3" stroke-linecap="round" stroke-linejoin="round"/><path d="M140.977 125.703v-51.216" stroke="#CADEF3" stroke-linecap="round" stroke-linejoin="round" stroke-dasharray="2.519,3.358"/><path d="M140.977 72.808v-1.26m12.043-4.684l.867.913" stroke="#CADEF3" stroke-linecap="round" stroke-linejoin="round"/><path d="M156.184 70.202l55.125 58.19" stroke="#CADEF3" stroke-linecap="round" stroke-linejoin="round" stroke-dasharray="2.505,3.34"/><path d="M212.458 129.604l.865.914" stroke="#CADEF3" stroke-linecap="round" stroke-linejoin="round"/><path d="M175.123 28.366c.215 6.063-4.525 11.152-10.588 11.368a10.978 10.978 0 0 1-9.988-5.638c-2.16.272-4.006.986-5.036 2.368-.524.703-.85.216-.762-.265.44-2.42 1.545-5.758 4.438-8.21.38-5.54 4.895-10.01 10.57-10.212 6.062-.216 11.152 4.526 11.367 10.588" fill="#CADEF3"/><path d="M163.293 30.22c-.2-.652.17-1.35.82-1.55l.593-.18a.614.614 0 0 0 .41-.775l-.365-1.184a.614.614 0 0 0-.773-.41l-1.184.365a.612.612 0 0 0-.41.774l.182.59-2.37.73c-.545-1.777.685-4.1 2.462-4.646 1.777-.546 3.917.092 4.463 1.868.78 2.535-1.458 3.69-1.458 3.69l.364 1.184-2.37.728-.363-1.184zm.637 2.072l2.37-.728.727 2.37-2.368.726-.73-2.368z" fill="#F8F9F9"/><path d="M218.982 20.846c7.397 0 13.395 5.997 13.395 13.396 0 7.397-5.998 13.394-13.395 13.394-7.398 0-13.395-5.997-13.395-13.394 0-7.4 5.997-13.396 13.395-13.396zm8.064 7.378c.44-1.256.77-2.55.98-3.864m-9.366 15.01c2.298-1.61 4.273-3.67 5.824-6.005.443-.668.852-1.36 1.225-2.07m-11.941 10.713a21.138 21.138 0 0 0 1.525-.653m-6.193 1.93a22.95 22.95 0 0 0 2.094-.44m-1.004-2.088c4.93-1.494 9.283-4.822 12.28-9.064m-15.858-2.083a22.808 22.808 0 0 0 3.584-2.686m1.252 2.516a22.67 22.67 0 0 0 5.518-6.786m4.187 24.719c2.914-1.348 5.49-3.378 7.578-5.81m.746-8.365l.243-.555m-12.553 12.487c3.844-1.552 7.178-4.256 9.674-7.55a24.785 24.785 0 0 0 1.917-2.937m-15.644 11.642c.83-.14 1.65-.337 2.455-.584m13.293-7.596c1.436-2.1 2.49-4.423 3.174-6.87m-16.061 16.06a22.78 22.78 0 0 0 6.687-3.05m-2.412-15.405a22.836 22.836 0 0 0 3.11-7.26m-6.597 11.43c.46-.437.904-.892 1.325-1.366m-11.768 6.976c.935-.22 1.855-.5 2.755-.835m11.241-15.079a23.02 23.02 0 0 0 .604-1.72m-5.86 9.63c1.627-1.532 3.09-3.283 4.04-5.32m-6.475 7.404c.367-.292.73-.588 1.088-.89m-7.986 4.37a22.83 22.83 0 0 0 5.27-2.38m-2.747-2c-.84.5-1.714.936-2.615 1.312" stroke="#CADEF3" stroke-linecap="round" stroke-linejoin="round"/><path d="M115.105 85.374c-3.53-2.245-4.444-6.952-4.444-6.952s-1.076 3.402-4.455 4.376l.585 1.892 4.266 1.125 4.05-.44z" fill="#F8F9F9"/><path d="M115.105 85.374c-3.53-2.245-4.444-6.952-4.444-6.952s-1.076 3.402-4.455 4.376l.585 1.892 4.266 1.125 4.05-.44z" stroke="#CADEF3" stroke-linecap="round" stroke-linejoin="round"/><path d="M102.826 83.77s-1.825-1.64-.974-5.224c0 0 5.365 7.71 13.253 6.83 0 0-4.827 2.81-12.28-1.605" fill="#F8F9F9"/><path d="M102.826 83.77s-1.825-1.64-.974-5.224c0 0 5.365 7.71 13.253 6.83 0 0-4.827 2.81-12.28-1.605z" stroke="#CADEF3" stroke-linecap="round" stroke-linejoin="round"/><path d="M81.09 102.41c3.07-.26 5.55 2.53 5.55 2.53s.6-3.4-1.856-4.32l-4.597-.6.902 2.39z" fill="#F8F9F9"/><path d="M81.09 102.41c3.07-.26 5.55 2.53 5.55 2.53s.6-3.4-1.856-4.32l-4.597-.6.902 2.39z" stroke="#CADEF3" stroke-linecap="round" stroke-linejoin="round"/><path d="M72.85 101.865s3.967.01 6.787 2.926c0 0 2.047-4.83 5.147-4.17 0 0-9.942-4.61-11.934 1.245" fill="#F8F9F9"/><path d="M72.85 101.865s3.967.01 6.787 2.926c0 0 2.047-4.83 5.147-4.17 0 0-9.942-4.61-11.934 1.245z" stroke="#CADEF3" stroke-linecap="round" stroke-linejoin="round"/><path d="M132.295 136.812c0 1.895-12.916 3.43-28.847 3.43-15.932 0-28.847-1.535-28.847-3.43 0-1.895 12.916-3.43 28.848-3.43 15.93 0 28.847 1.535 28.847 3.43" fill="#EBF2FA"/><g transform="translate(140 134.145)"><mask id="b"><use xlink:href="#a"/></mask><path d="M76.632 3.57c0 1.894-16.936 3.43-37.828 3.43-20.89 0-37.827-1.536-37.827-3.43 0-1.895 16.936-3.43 37.827-3.43 20.892 0 37.828 1.535 37.828 3.43" fill="#EBF2FA" mask="url(#b)"/></g><path d="M95.865 135.29c-2.263.485-7.004 2.425-7.004 2.425l-5.817-2.802c-.27-4.634-1.51-18.48-1.51-18.48s9.322 2.048 13.578.486c0 0 3.45 1.776 7.597 1.83 0 0-.754 1.886-.7 2.587 0 0 1.616.484 2.424.484l-.538-5.763.54-.324-1.025-.27s3.987-1.292 6.25-3.61c0 0 6.52-.538 14.06-4.2 0 0-.915 2.532-3.34 4.955l3.61.81-1.616 22.788-5.548 2.37s-3.986-1.724-7.435-2.37l-4.47 2.64s-2.964-1.454-9.052-2.586v-.97z" fill="#F8F9F9"/><path d="M95.865 135.29c-2.263.485-7.004 2.425-7.004 2.425l-5.817-2.802c-.27-4.634-1.51-18.48-1.51-18.48s9.322 2.048 13.578.486c0 0 3.45 1.776 7.597 1.83 0 0-.754 1.886-.7 2.587 0 0 1.616.484 2.424.484l-.538-5.763.54-.324-1.025-.27s3.987-1.292 6.25-3.61c0 0 6.52-.538 14.06-4.2 0 0-.915 2.532-3.34 4.955l3.61.81-1.616 22.788-5.548 2.37s-3.986-1.724-7.435-2.37l-4.47 2.64s-2.964-1.454-9.052-2.586v-.97zm-14.331-18.856s3.664 4.04 7.058 5.118c0 0 8.134.593 14.115-2.8" stroke="#CADEF3" stroke-linecap="round" stroke-linejoin="round"/><path d="M88.86 137.715l-.268-7.813-.808.54s-2.21-1.186-3.448-4.15c0 0 2.21 1.564 3.986 1.617l.27-6.358" fill="#F8F9F9"/><path d="M88.86 137.715l-.268-7.813-.808.54s-2.21-1.186-3.448-4.15c0 0 2.21 1.564 3.986 1.617l.27-6.358" stroke="#CADEF3" stroke-linecap="round" stroke-linejoin="round"/><path fill="#F8F9F9" d="M123.987 113.417l-6.43 3.513-7.492-1.032"/><path stroke="#CADEF3" stroke-linecap="round" stroke-linejoin="round" d="M123.987 113.417l-6.43 3.513-7.492-1.032"/><path d="M116.822 138.577s.62-13.45.736-21.646" fill="#F8F9F9"/><path d="M116.822 138.577s.62-13.45.736-21.646m-5.738 1.814c2.87-.117 5.684.995 5.684.995s2.512-2.224 4.152-2.224" stroke="#CADEF3" stroke-linecap="round" stroke-linejoin="round"/><path d="M123.36 122.258l-2.348.99" fill="#F8F9F9"/><path d="M123.36 122.258l-2.348.99" stroke="#CADEF3" stroke-linecap="round" stroke-linejoin="round"/><path d="M122.67 131.97l-3.298 1.412" fill="#F8F9F9"/><path d="M122.67 131.97l-3.298 1.412m-7.552-3.749s3.772 1.056 5.37 1.76l.836-.353m-8.639 5.167l1.203-12.66-5.093 2.635-.582 12.665" stroke="#CADEF3" stroke-linecap="round" stroke-linejoin="round"/><path d="M98.43 123.25l-3.647 2.462s3.747-.292 10.714.47" fill="#F8F9F9"/><path d="M98.43 123.25l-3.647 2.462s3.747-.292 10.714.47" stroke="#CADEF3" stroke-linecap="round" stroke-linejoin="round"/><path d="M110.59 123.546l-1-.297" fill="#F8F9F9"/><path d="M110.59 123.546l-1-.297" stroke="#CADEF3" stroke-linecap="round" stroke-linejoin="round"/><path d="M95.865 135.29s-.263-6.71-1.082-9.578" fill="#F8F9F9"/><path d="M95.865 135.29s-.263-6.71-1.082-9.578" stroke="#CADEF3" stroke-linecap="round" stroke-linejoin="round"/><path d="M88.592 129.903s3.538-2.158 6.533-2.618c0 0-3.953-.34-6.803.625" fill="#F8F9F9"/><path d="M88.592 129.903s3.538-2.158 6.533-2.618c0 0-3.953-.34-6.803.625m-4.664-5.652s3.802 1.4 4.8 2.457c0 0 3.046-1.11 5.036-1.17" stroke="#CADEF3" stroke-linecap="round" stroke-linejoin="round"/><path d="M82.253 123.807s1.405.295 2.634.997" fill="#F8F9F9"/><path d="M82.253 123.807s1.405.295 2.634.997m2.987 7.583l.813.29s1.997-.876 3.52-.934" stroke="#CADEF3" stroke-linecap="round" stroke-linejoin="round"/><path d="M82.892 132.676s2.138.882 3.706 1.468" fill="#F8F9F9"/><path d="M82.892 132.676s2.138.882 3.706 1.468" stroke="#CADEF3" stroke-linecap="round" stroke-linejoin="round"/><path d="M95.324 128.618s2.503-.036 4.436.315" fill="#F8F9F9"/><path d="M95.324 128.618s2.503-.036 4.436.315m1.346 4.477s2.49-.027 4.025.734c0 0 .953-.823 3.12-1.524" stroke="#CADEF3" stroke-linecap="round" stroke-linejoin="round"/><path d="M110.146 128.22l-1.78 1.063" fill="#F8F9F9"/><path d="M110.146 128.22l-1.78 1.063" stroke="#CADEF3" stroke-linecap="round" stroke-linejoin="round"/><path d="M109.538 134.618s-1.758.697-2.52 1.458" fill="#F8F9F9"/><path d="M109.538 134.618s-1.758.697-2.52 1.458" stroke="#CADEF3" stroke-linecap="round" stroke-linejoin="round"/><path d="M95.834 134.618s1.056.005 2.285.438" fill="#F8F9F9"/><path d="M95.834 134.618s1.056.005 2.285.438" stroke="#CADEF3" stroke-linecap="round" stroke-linejoin="round"/><path d="M111.82 124.715s4.333.295 6.206 2.227c0 0 1.13-1.58 2.06-2.636l-2.74.908s-2.833-.794-5.526-.5" fill="#F8F9F9"/><path d="M111.82 124.715s4.333.295 6.206 2.227c0 0 1.13-1.58 2.06-2.636l-2.74.908s-2.833-.794-5.526-.5zm-9.814-3.378s-3.067.174-5.702.255c0 0 2.644 2.95 8.61 4.12 0 0 2.75-1.526 5.676-2.958 0 0-2.893-.198-6.16-.933" stroke="#CADEF3" stroke-linecap="round" stroke-linejoin="round"/><path d="M120.377 112.61s-1.005 1.218-1.24 1.394c0 0-6.756 2.758-14.707 1.73" fill="#F8F9F9"/><path d="M120.377 112.61s-1.005 1.218-1.24 1.394c0 0-6.756 2.758-14.707 1.73m46.12-64.124l-17.553 6.83-2.96-7.605a9.418 9.418 0 0 1 5.363-12.192c4.847-1.887 10.305.515 12.192 5.362l2.96 7.605zm-17.42-.475c-2.102-4.44-.115-9.086 4.534-10.31m16.764 14.025l-22.1 8.598-1.604-4.123 22.1-8.6zm-2.643-1.347l-9.914 3.857m8.723 1.886l-12.467 4.854-1.622-2.275 13.747-5.348zm-8.114 7.444zm-1.63-1.088l-.473-2.38m11.128-.56a1.384 1.384 0 1 1-2.366 1.438 1.384 1.384 0 0 1 2.365-1.437zm-1.902-.465l-1.26-2.074" stroke="#CADEF3" stroke-linecap="round" stroke-linejoin="round"/></g></svg>