<svg width="288" height="138" viewBox="0 0 288 138" xmlns="http://www.w3.org/2000/svg"><title>No repo selected (or found)</title><g fill="none"><path d="M78.472 79.187l-18.368-4.17 1.806-7.958c1.152-5.073 6.198-8.252 11.27-7.1 5.072 1.152 8.25 6.197 7.1 11.27l-1.808 7.957zm-14.166-10.147c.745-4.857 4.99-7.593 9.527-6.003m6.037 21.003l-23.124-5.248.98-4.314 23.124 5.25zm-1.435-2.593l-10.375-2.355m6.172 6.448l-13.046-2.963-.07-2.793 14.386 3.266zm-10.892 1.622a1.384 1.384 0 0 1-1.812.74 1.383 1.383 0 0 1-.74-1.813 1.386 1.386 0 0 1 2.553 1.072zm-.74-1.812l.94-2.238m9.535 5.768zm-1.315-1.452l.117-2.424" stroke="#CADEF3" stroke-linecap="round" stroke-linejoin="round"/><path d="M100.61 46.55c.215 6.063-4.526 11.153-10.59 11.368a10.98 10.98 0 0 1-9.987-5.638c-2.16.273-4.005.987-5.037 2.37-.523.7-.85.215-.76-.267.438-2.418 1.543-5.756 4.436-8.207.38-5.542 4.895-10.013 10.57-10.214 6.06-.215 11.15 4.526 11.367 10.59" fill="#CADEF3"/><path d="M88.78 48.404c-.2-.65.168-1.348.82-1.55l.59-.18a.613.613 0 0 0 .41-.775l-.362-1.185a.614.614 0 0 0-.774-.41l-1.185.364a.613.613 0 0 0-.41.773l.18.593-2.368.727c-.546-1.776.685-4.098 2.46-4.645 1.778-.546 3.918.093 4.464 1.87.78 2.533-1.458 3.687-1.458 3.687l.364 1.185-2.37.73-.363-1.186zm.637 2.072l2.368-.727.728 2.367-2.37.728-.726-2.37z" fill="#F8F9F9"/><path d="M268.727 40.052a3.142 3.142 0 1 1-6.283 0 3.142 3.142 0 0 1 6.283 0zm-237.237 46.763a1.508 1.508 0 1 1-3.016 0 1.508 1.508 0 0 1 3.015 0zm205.53-10.205l-.915-1.73a.47.47 0 0 0-.195-.197l-1.73-.916a.47.47 0 0 1 0-.83l1.73-.914a.467.467 0 0 0 .195-.197l.916-1.73a.47.47 0 0 1 .83 0l.916 1.73c.045.085.112.152.196.197l1.73.915a.47.47 0 0 1 0 .83l-1.73.915a.477.477 0 0 0-.196.197l-.915 1.73a.47.47 0 0 1-.83 0zm-78.482-44.558l.576-1.87a.464.464 0 0 0 0-.276l-.576-1.87a.47.47 0 0 1 .587-.588l1.87.576c.09.027.187.027.277 0l1.87-.576c.36-.11.7.226.587.587l-.577 1.87a.48.48 0 0 0 0 .277l.576 1.87a.47.47 0 0 1-.588.588l-1.87-.576a.452.452 0 0 0-.277 0l-1.87.576a.47.47 0 0 1-.587-.588zm99.957 82.828v5.86m2.93-2.93h-5.86m-129.151-72.06l-4.145 4.146m4.145 0l-4.145-4.145m155.048 42.479l-1.59 1.59m6.013-6.01l-1.59 1.59m-2.833 2.83zm-79.675 44.7a1.268 1.268 0 1 1-2.536 0 1.268 1.268 0 0 1 2.536 0zm11.178-46.115a1.268 1.268 0 1 1-2.537 0 1.268 1.268 0 0 1 2.536 0zm-162.62 37.839l-.677-1.28-1.28-.677 1.28-.677.677-1.28.678 1.28 1.28.677-1.28.678zm60.112-116.148l-.677-1.28-1.28-.676 1.28-.678.677-1.28.677 1.28 1.28.678-1.28.677zm118.648 6.577a1.09 1.09 0 1 0 0 2.183 1.09 1.09 0 0 0 0-2.183zm-138.104 97.65a1.09 1.09 0 1 0-.002 2.18 1.09 1.09 0 0 0 .002-2.18zm139.524-1.42v2.84m1.42-1.42h-2.84m-215.686-52.785l.924-.284.922.284-.283-.923.284-.923-.922.284-.924-.284.285.923zm34.474-35.038l2.452 1.34-2.452 1.342-1.34 2.45-1.342-2.45-2.452-1.342 2.452-1.34 1.34-2.453zm-32.578 88.913l.787 2.682-2.682-.786-2.682.785.785-2.682-.785-2.683 2.682.787 2.682-.787z" stroke="#CADEF3" stroke-width="1.186" stroke-linecap="round" stroke-linejoin="round"/><path d="M216.77 57.134l.21-.515.04-.094a13.055 13.055 0 0 0 .216-.615l.14-.458.046-.16.113-.447.042-.177.09-.438.034-.19.068-.43a10.355 10.355 0 0 0 .09-.824l.026-.428.007-.2.008-.425-.003-.202a12 12 0 0 0-.012-.423l-.012-.197-.03-.427-.02-.185-.054-.435a17.64 17.64 0 0 0-.1-.616l-.024-.11c-.108-.548-.25-1.09-.424-1.62l-.014-.047-.137-.38-.077-.213-.138-.335-.103-.246-.146-.31-.124-.262-.152-.293-.143-.265a15.547 15.547 0 0 0-.322-.546l-.17-.268-.18-.265a9.01 9.01 0 0 0-.18-.255l-.194-.262a10.64 10.64 0 0 0-.4-.5 11.45 11.45 0 0 0-.635-.704 21.097 21.097 0 0 0-.46-.453l-.266-.24-.22-.192-.287-.234-.223-.177a8.032 8.032 0 0 0-.316-.234l-.216-.157a11.89 11.89 0 0 0-.37-.246l-.187-.122c-.188-.118-.382-.233-.58-.343-.314-.175-.632-.33-.953-.478l-.12-.056-.06-.03.007.01c-.318-.14-.64-.27-.963-.386h.005l-.325-1.308c-2.684-1.19-5.75-.44-5.75-.44l-.656 1.178.002.002a13.445 13.445 0 0 0-9.508 6.725 13.404 13.404 0 0 0-1.535 8.64l-.456.818s.172 1.99.934 3.114l.926.284a13.435 13.435 0 0 0 3.2 3.97l-.02-.01.15.116c.234.195.477.38.727.56l.263.187c.33.226.672.443 1.03.642.283.156.57.3.86.435l.196.09c.286.128.573.247.863.354l.12.04c.264.095.53.18.8.257l.182.052c.293.08.587.15.883.208l.174.033c.268.05.537.092.807.127l.14.017c.298.034.598.057.897.07l.193.007c.294.01.59.013.882.003h.034c.303-.01.606-.036.907-.067l.19-.022c.3-.035.6-.078.895-.133l.065-.013a13.32 13.32 0 0 0 1.003-.233c.29-.08.577-.166.86-.265l.126-.046c.26-.094.52-.195.777-.305l.117-.05c.277-.122.55-.252.82-.393l.142-.077c.26-.14.516-.286.767-.443l.038-.023a13.923 13.923 0 0 0 .905-.626c.25-.187.495-.38.732-.587l1.32.484c2.008-1.696 2.99-4.142 2.99-4.142l-.79-1.128h-.002zm-17.564 6.784c-.02-1.187 1.187-2.168 2.695-2.193 1.51-.025 2.747.918 2.767 2.104m5.968-5.299c-.472.21-.9.223-1.134-.012-.395-.394-.088-1.342.687-2.117.773-.773 1.72-1.08 2.116-.685.197.197.22.533.095.917m.157-9.243a2.712 2.712 0 0 1-1.26 2.815m-2.271.252a2.71 2.71 0 1 1 2.452-4.768m-15.884 11.636c.082-.54.453-.986.977-1.104.7-.154 1.402.34 1.573 1.102.17.764-.26 1.51-.956 1.664a1.24 1.24 0 0 1-.985-.206m19.119-6.721c-.37.1-.784-.242-.922-.76-.14-.518.05-1.018.422-1.117m-17.832-3.17c-.68.68-1.563.897-1.975.486-.41-.412-.192-1.296.487-1.975.68-.68 1.563-.897 1.974-.487.41.412.194 1.295-.486 1.975zm3.405 3.554a3.198 3.198 0 1 1 0 4.52m-.937-2.26c0-.19.017-.38.05-.568m6.982-12.262a1.62 1.62 0 0 1-2.272-.276m-48.176 27.736l-1.223.297" stroke="#CADEF3" stroke-linecap="round" stroke-linejoin="round"/><path d="M151.584 68.54l-26.69 6.476" stroke="#CADEF3" stroke-linecap="round" stroke-linejoin="round" stroke-dasharray="2.497,3.329"/><path d="M123.49 75.86c-.25.3-.424.688-.352 1.172m39.427-4.66l-1.82-1.562-1.245.19" stroke="#CADEF3" stroke-linecap="round" stroke-linejoin="round"/><path d="M156.142 71.518l-21.83 3.356" stroke="#CADEF3" stroke-linecap="round" stroke-linejoin="round" stroke-dasharray="2.548,3.398"/><path d="M132.634 75.132l-1.244.19 1.222-.285" stroke="#CADEF3" stroke-linecap="round" stroke-linejoin="round"/><path d="M135.633 74.323c6.85-1.625 15.354-3.685 19.632-4.724" stroke="#CADEF3" stroke-linecap="round" stroke-linejoin="round" stroke-dasharray="2.329,3.105"/><path d="M156.774 69.234l1.22-.297-1.952-1.48m13.824 50.839l1.243-.198-.23-1.24" stroke="#CADEF3" stroke-linecap="round" stroke-linejoin="round"/><path d="M170.268 113.583l-7.172-38.505" stroke="#CADEF3" stroke-linecap="round" stroke-linejoin="round" stroke-dasharray="2.5,3.333"/><path stroke="#CADEF3" stroke-linecap="round" stroke-linejoin="round" d="M162.79 73.44l-.23-1.237-1.245.182"/><path d="M158.122 72.854l-31.932 4.686" stroke="#CADEF3" stroke-linecap="round" stroke-linejoin="round" stroke-dasharray="2.421,3.227"/><path d="M124.593 77.774l-1.245.183.224 1.234" stroke="#CADEF3" stroke-linecap="round" stroke-linejoin="round"/><path d="M124.188 82.504c1.916 10.253 5.914 31.257 7.377 38.932" stroke="#CADEF3" stroke-linecap="round" stroke-linejoin="round" stroke-dasharray="2.529,3.372"/><path d="M131.88 123.092l.235 1.233 1.243-.198" stroke="#CADEF3" stroke-linecap="round" stroke-linejoin="round"/><path d="M136.532 123.62l31.746-5.07" stroke="#CADEF3" stroke-linecap="round" stroke-linejoin="round" stroke-dasharray="2.411,3.215"/><path d="M130.263 76.942l.245 1.234" stroke="#CADEF3" stroke-linecap="round" stroke-linejoin="round"/><path d="M131.15 81.41l7.553 38.022" stroke="#CADEF3" stroke-linecap="round" stroke-linejoin="round" stroke-dasharray="2.474,3.299"/><path d="M139.024 121.05l.245 1.235m-2.246 1.255v1.26" stroke="#CADEF3" stroke-linecap="round" stroke-linejoin="round"/><path d="M137.023 126.837v2.547" stroke="#CADEF3" stroke-linecap="round" stroke-linejoin="round" stroke-dasharray="1.528,2.037"/><path stroke="#CADEF3" stroke-linecap="round" stroke-linejoin="round" d="M137.023 130.403v1.26l.975-.8m3.01-2.463l.974-.798.976.793m3.042 2.472l.978.794v-1.258"/><path d="M146.978 127.787v-3.27" stroke="#CADEF3" stroke-linecap="round" stroke-linejoin="round" stroke-dasharray="1.962,2.615"/><path d="M146.978 123.21v-1.26m-19.32-21.052c-8.824 5.9-14.05 11.197-12.824 13.636 1.86 3.702 17.87-.582 35.76-9.568 17.89-8.985 30.886-19.27 29.028-22.97-1.076-2.143-6.888-1.612-15.06.957" stroke="#CADEF3" stroke-linecap="round" stroke-linejoin="round"/></g></svg>