<svg xmlns="http://www.w3.org/2000/svg" viewBox="0 0 288 138" enable-background="new 0 0 288 138"><style type="text/css">.st0{fill:#CADEF3;} .st1{fill:#F8F9F9;} .st2{fill:#EBF2FA;}</style><path class="st0" d="M135 42.5c.2 6.1-4.5 11.2-10.6 11.4-4.1.1-8-2-10-5.6-2.2.3-4 1-5 2.4-.5.7-.8.2-.8-.3.4-2.4 1.5-5.8 4.4-8.2.4-5.5 4.9-10 10.6-10.2 6.1-.3 11.2 4.5 11.4 10.5"/><path class="st1" d="M123.1 44.4c-.2-.7.2-1.3.8-1.5l.6-.2c.3-.1.5-.4.4-.8l-.4-1.2c-.1-.3-.4-.5-.8-.4l-1.2.4c-.3.1-.5.4-.4.8l.2.6-2.4.7c-.5-1.8.7-4.1 2.5-4.6s3.9.1 4.5 1.9c.8 2.5-1.5 3.7-1.5 3.7l.4 1.2-2.4.7-.3-1.3zm.7 2l2.4-.7.7 2.4-2.4.7-.7-2.4z"/><path class="st0" d="M248.6 123.2c-.3 0-.6-.3-.6-.6v-2.3h-2.3c-.3 0-.6-.3-.6-.6s.3-.6.6-.6h2.3v-2.3c0-.3.3-.6.6-.6s.6.3.6.6v2.3h2.3c.3 0 .6.3.6.6s-.3.6-.6.6h-2.3v2.3c0 .3-.3.6-.6.6zm-32.1-6.6c-.3 0-.6-.3-.6-.6v-.8h-.8c-.3 0-.6-.3-.6-.6s.3-.6.6-.6h.8v-.8c0-.3.3-.6.6-.6s.6.3.6.6v.8h.8c.3 0 .6.3.6.6s-.3.6-.6.6h-.8v.8c0 .4-.3.6-.6.6zm-173.3-4.4c-.2 0-.4-.1-.5-.3l-.6-1.1-1.1-.6c-.2-.1-.3-.3-.3-.5s.1-.4.3-.5l1.1-.6.6-1.1c.2-.4.8-.4 1 0l.6 1.1 1.1.6c.2.1.3.3.3.5s-.1.4-.3.5l-1.1.6-.6 1.1c-.1.2-.3.3-.5.3zm-.7-2.5l.3.2c.1.1.2.1.2.2l.2.3.2-.3c.1-.1.1-.2.2-.2l.3-.2-.3-.2c-.1-.1-.2-.1-.2-.2l-.2-.3-.2.3c-.1.1-.1.2-.2.2l-.3.2zm33.9-12.6c-.2 0-.3-.1-.4-.2-.2-.2-.2-.4-.1-.6l.7-2.5-.7-2.5c-.1-.2 0-.4.1-.6.2-.2.4-.2.6-.2l2.5.7 2.5-.7c.2-.1.4 0 .6.1.2.2.2.4.1.6l-.7 2.5.7 2.5c.1.2 0 .4-.1.6-.2.2-.4.2-.6.2l-2.6-.7-2.5.7c0 .1-.1.1-.1.1zm.8-5.1l.5 1.6v.3l-.5 1.6 1.6-.5h.3l1.6.5-.3-1.5v-.3l.5-1.6-1.6.5h-.3l-1.8-.6zm-57.1-1.1c-1.1 0-2-.9-2.1-2v-.2c0-.6.3-1.1.7-1.5.4-.4.9-.6 1.5-.6 1.1 0 2 .9 2 2 0 1.2-.8 2.2-2.1 2.3zm0-3.1c-.2 0-.5.1-.6.2-.2.2-.3.4-.3.6 0 .6.5 1 1 1s.9-.5.9-1c-.1-.4-.5-.8-1-.8zm177.6 2.8c-.5 0-1-.2-1.3-.5-.4-.4-.5-.8-.5-1.3s.2-1 .5-1.3c.4-.3.8-.5 1.3-.5 1 0 1.9.8 1.9 1.9-.1.8-.9 1.6-1.9 1.7zm0-2.6c-.2 0-.3.1-.5.2s-.2.3-.2.5.1.4.2.5c.1.1.3.2.5.2.4 0 .7-.3.7-.7-.1-.4-.3-.7-.7-.7zm69.8-2.1c-.2 0-.4-.1-.5-.3l-.6-1.1-1.1-.6c-.2-.1-.3-.3-.3-.5s.1-.4.3-.5l1.1-.6.6-1.1c.1-.2.3-.3.5-.3s.4.1.5.3l.6 1.1 1.1.6c.2.1.3.3.3.5s-.1.4-.3.5l-1.1.6-.6 1.1c-.1.1-.3.3-.5.3zm-.7-2.6l.3.2c.1.1.2.1.2.2l.2.3.2-.3c.1-.1.1-.2.2-.2l.3-.2-.3-.2c-.1-.1-.2-.1-.2-.2l-.2-.3-.2.3c-.1.1-.1.2-.2.2l-.3.2zm-39.3-4c-.2 0-.3 0-.5-.1l-.4-.4v-.1l-.9-1.7-1.7-.9c-.3-.1-.4-.4-.5-.6-.1-.3-.1-.6.1-.8.1-.2.2-.3.4-.4l1.7-.9.9-1.7c.3-.5.9-.7 1.4-.4.2.1.3.2.4.4l.9 1.7 1.7.9c.2.1.4.4.5.6.1.3.1.6-.1.8-.1.2-.3.3-.4.4l-1.7.9-.9 1.7c-.1.4-.5.6-.9.6zm-2.8-4.1l1.6.8c.2.1.3.3.4.4l.8 1.5.8-1.5c.1-.2.2-.3.4-.4l1.6-.8-1.6-.8c-.2-.1-.3-.3-.4-.4l-.8-1.5-.8 1.5c-.1.2-.2.3-.4.4l-1.6.8zm-173.6-10.6h-.2l-.7-.2-.7.2c-.2.1-.4 0-.6-.1-.2-.2-.2-.4-.1-.6l.2-.7-.2-.7c-.1-.2 0-.4.1-.6.2-.2.4-.2.6-.1l.7.2.7-.2c.2-.1.4 0 .6.1.2.2.2.4.1.6l-.2.7.2.7c.1.2 0 .4-.1.6-.1 0-.2.1-.4.1zm-.9-1.5zm210.8-4.1c-1 0-1.9-.8-1.9-1.9 0-1 .8-1.9 1.9-1.9s1.9.8 1.9 1.9c0 .5-.2 1-.5 1.3-.4.4-.9.6-1.4.6zm0-2.5c-.4 0-.7.3-.7.7s.3.7.7.7c.2 0 .3-.1.5-.2s.2-.3.2-.5c0-.4-.3-.7-.7-.7zm-72.3-2.7c-.2 0-.3-.1-.4-.2-.2-.2-.2-.6 0-.8l1.2-1.2c-.3-.4-.4-.9-.4-1.4 0-.7.3-1.3.8-1.8.9-.9 2.2-1 3.2-.4l1.2-1.2c.2-.2.6-.2.8 0 .2.2.2.6 0 .8l-1.2 1.2c.3.4.4.9.4 1.4 0 .7-.3 1.3-.8 1.8s-1.1.8-1.8.8c-.5 0-1-.1-1.4-.4l-1.2 1.2c-.1.1-.3.2-.4.2zm2-2.6c.3.3.6.4 1 .4s.7-.1 1-.4.4-.6.4-1-.1-.7-.4-1c-.5-.5-1.4-.5-2 0-.3.3-.4.6-.4 1 0 .3.1.7.4 1zm-37.3-16.1h-.3l-1.9-.6-1.8.6c-.6.2-1.2-.1-1.3-.7-.1-.2-.1-.4 0-.6l.6-1.9-.6-1.8c-.1-.3-.1-.6.1-.8.1-.3.4-.4.6-.5.2-.1.4-.1.6 0l1.9.6 1.8-.6c.4-.1.8 0 1.1.3.3.3.4.7.3 1.1l-.6 1.9.6 1.8c.2.6-.1 1.2-.7 1.3-.2-.1-.3-.1-.4-.1zm-4.2-1zm.1-4.1l.5 1.6c.1.2.1.4 0 .6l-.5 1.6 1.6-.5c.2-.1.4-.1.6 0l1.6.5-.5-1.6c-.1-.2-.1-.4 0-.6l.5-1.6-1.6.5c-.2.1-.4.1-.6 0l-1.6-.5zm-116.8 2.5c-.2 0-.4-.1-.5-.3l-1.3-2.3-2.3-1.3c-.2-.1-.3-.3-.3-.5s.1-.4.3-.5l2.3-1.3 1.3-2.3c.2-.4.8-.4 1 0l1.3 2.3 2.3 1.3c.2.1.3.3.3.5s-.1.4-.3.5l-2.3 1.3-1.3 2.3c-.1.2-.3.3-.5.3zm-2.5-4.4l1.5.8c.1.1.2.1.2.2l.8 1.5.8-1.5c.1-.1.1-.2.2-.2l1.5-.8-1.5-.8c-.1-.1-.2-.1-.2-.2l-.8-1.5-.8 1.5c-.1.1-.1.2-.2.2l-1.5.8zm56.8-2.1c-.9 0-1.7-.8-1.7-1.7s.8-1.7 1.7-1.7c.9 0 1.7.8 1.7 1.7s-.8 1.7-1.7 1.7zm0-2.2c-.3 0-.5.2-.5.5s.2.5.5.5.5-.2.5-.5-.3-.5-.5-.5zm172 1.2c-2 0-3.7-1.6-3.7-3.7v-.1c0-2.1 1.8-3.7 3.8-3.7 2 0 3.6 1.6 3.7 3.7 0 2-1.6 3.7-3.8 3.8zm0-6.3c-1.4 0-2.5 1.1-2.5 2.5 0 1.5 1.2 2.6 2.5 2.6 1.4 0 2.5-1.2 2.5-2.6.1-1.4-1-2.5-2.5-2.5zm-43.7 1c-.5 0-.9-.2-1.2-.5-.3-.3-.5-.7-.5-1.2 0-.4.2-.9.5-1.2s.7-.5 1.2-.5c.9 0 1.7.8 1.7 1.7 0 1-.8 1.7-1.7 1.7zm0-2.2l-.4.1c-.1.1-.1.2-.1.4l.1.4c.3.3.8.1.8-.4.1-.2-.1-.4-.4-.5zm0 0zm0 0zm-98.6-5.2c-.2 0-.3-.1-.4-.2l-1.7-1.7-1.7 1.7c-.2.2-.6.2-.8 0-.2-.2-.2-.6 0-.8l1.7-1.7-1.6-1.6c-.2-.2-.2-.6 0-.8s.6-.2.8 0l1.7 1.7 1.7-1.7c.2-.2.6-.2.8 0s.2.6 0 .8l-1.7 1.7 1.7 1.7c.2.2.2.6 0 .8-.2.1-.3.1-.5.1zm-40.1 110.3c-.2 0-.3-.1-.4-.2-.2-.2-.1-.5.1-.7 11.5-8.4 35.9-13.8 62.2-13.8 26.3 0 50.7 5.4 62.2 13.8.2.2.3.5.1.7-.2.2-.5.3-.7.1-11.3-8.3-35.5-13.6-61.6-13.6s-50.2 5.3-61.6 13.6l-.3.1zm105.1 7.5h-.2s-2.9-1.4-3.1-5.2c-1.7 1.2-5 1.8-8.8 1.2-1.7-.2-3.2-.7-4.6-1.3-.4 2.2-2.1 3.4-2.2 3.4-.2.2-.5.1-.7-.1-.2-.2-.1-.5.1-.7 0 0 1.5-1.1 1.8-3-.2-.1-.5-.2-.7-.4-.8-.5-1.4-1-1.8-1.6-1.3 3.6-4.4 4.1-4.5 4.1-.3 0-.5-.1-.6-.4s.1-.5.4-.6c.1 0 3.4-.6 4.1-5 .1-1 1-1.8 2.4-2.4.3-.1.5 0 .6.3.1.3 0 .5-.3.6-1 .4-1.7 1-1.8 1.6-.1.8.6 1.7 1.9 2.5.3.2.5.3.8.4.1 0 .1 0 .1.1 1.4.7 3 1.1 4.9 1.4 4.9.7 8.5-.5 8.7-2 .2-1.5-2.9-3.7-7.8-4.4-.3 0-.5-.3-.4-.6 0-.3.3-.5.6-.4 5.1.8 8.9 3.2 8.6 5.5-.7 4.5 2.4 6 2.4 6 .2.1.4.4.2.7.3.2.1.3-.1.3zm-5-6.8c-.2 0-.4-.1-.5-.3-.5-1.3-4.6-2.6-6.5-2.6-.3 0-.5-.2-.5-.5s.2-.5.5-.5c1.9 0 6.7 1.2 7.4 3.2.1.3 0 .5-.3.6.1.1 0 .1-.1.1zm-75.7-10.5h-.2c-.3-.1-.4-.4-.3-.7l1.7-4 .3-.3c.2-.1 6.2-2.1 12.7-2.1.1 0 .3.1.4.2l3 3.2c.2.2.2.5 0 .7-.2.2-.5.2-.7 0l-2.8-3c-5.7 0-10.9 1.6-12 2l-1.6 3.8c-.1.1-.3.2-.5.2z"/><path class="st2" d="M141.2 122.1c0 .7-5 1.3-11.1 1.3s-11.1-.6-11.1-1.3 5-1.3 11.1-1.3 11.1.5 11.1 1.3"/><path class="st0" d="M130.1 122.4c-.3 0-.5-.2-.5-.5v-2c0-.3.2-.5.5-.5s.5.2.5.5v2c0 .3-.3.5-.5.5zm0-5.4c-.3 0-.5-.2-.5-.5v-2.5c0-.3.2-.5.5-.5s.5.2.5.5v2.5c0 .3-.3.5-.5.5zm0-5.8c-.3 0-.5-.2-.5-.5v-2.5c0-.3.2-.5.5-.5s.5.2.5.5v2.5c0 .2-.3.5-.5.5zm0-5.9c-.3 0-.5-.2-.5-.5v-2.5c0-.3.2-.5.5-.5s.5.2.5.5v2.5c0 .3-.3.5-.5.5zm0-5.9c-.3 0-.5-.2-.5-.5v-2.5c0-.3.2-.5.5-.5s.5.2.5.5v2.5c0 .3-.3.5-.5.5zm0-5.9c-.3 0-.5-.2-.5-.5v-2.5c0-.3.2-.5.5-.5s.5.2.5.5v2.5c0 .3-.3.5-.5.5zm0-5.8c-.3 0-.5-.2-.5-.5v-2.5c0-.3.2-.5.5-.5s.5.2.5.5v2.5c0 .2-.3.5-.5.5zm0-5.9c-.3 0-.5-.2-.5-.5v-2.5c0-.3.2-.5.5-.5s.5.2.5.5v2.5c0 .3-.3.5-.5.5zm0-5.9c-.3 0-.5-.2-.5-.5v-2.5c0-.3.2-.5.5-.5s.5.2.5.5v2.5c0 .3-.3.5-.5.5zm1.8 21.7c-.2 0-.3-.1-.4-.3-.1-.2-.1-.5.2-.7l1.2-.6c.3-.1.5 0 .7.2s0 .5-.2.7c-.4.2-.7.4-1.1.5-.2.2-.3.2-.4.2zm27.5 2.9c-.7 0-1.3-.1-1.9-.2-.3 0-.5-.3-.4-.6 0-.3.3-.5.6-.4.7.1 1.5.2 2.3.1.3 0 .5.2.5.5s-.2.5-.5.5c-.2.1-.4.1-.6.1zm-4.9-1.3c-.1 0-.2 0-.2-.1l-.8-.5-1.2-.8c-.2-.1-.3-.4-.2-.7.1-.2.4-.3.7-.2.5.3.9.6 1.3.8l.7.5c.2.1.3.4.2.7-.1.3-.3.3-.5.3zm-4.9-2.5h-.2c-.7-.2-1.5-.5-2.3-.6-.3-.1-.4-.3-.4-.6.1-.3.3-.4.6-.4.8.2 1.6.4 2.4.7.3.1.4.4.3.6 0 .1-.2.3-.4.3zm-13.5-.7c-.2 0-.4-.2-.5-.4-.1-.3.1-.5.4-.6.8-.2 1.6-.3 2.4-.4.3 0 .5.2.6.4 0 .3-.2.5-.4.6-.8.1-1.6.2-2.3.4h-.2zm8-.5c-.8-.1-1.6-.1-2.4-.1-.3 0-.5-.2-.5-.5s.3-.5.5-.5c.8 0 1.6.1 2.5.1.3 0 .5.3.4.5-.1.3-.3.5-.5.5zm19 4.4c-.2 0-.4-.1-.5-.4-.1-.3.1-.5.3-.6.3-.1.6-.2.8-.3v-.9c0-.3.2-.5.5-.5s.5.2.5.5v1.3c0 .2-.1.4-.3.5 0 0-.5.2-1.3.4zm1.2-5.2c-.3 0-.5-.2-.5-.5v-2.7c0-.3.2-.5.5-.5s.5.2.5.5v2.7c0 .3-.2.5-.5.5zm0-6.3c-.3 0-.5-.2-.5-.5v-2.7c0-.3.2-.5.5-.5s.5.2.5.5v2.7c0 .3-.2.5-.5.5zm0-6.3c-.3 0-.5-.2-.5-.5v-2.7c0-.3.2-.5.5-.5s.5.2.5.5v2.7c0 .3-.2.5-.5.5zm0-6.3c-.3 0-.5-.2-.5-.5v-.5c-.2.1-.3.1-.6.2s-.5-.1-.6-.3c-.1-.3.1-.5.3-.6.7-.2 1.1-.4 1.1-.4.2-.1.3 0 .5 0 .1.1.2.2.2.4v1.3c.1.2-.1.4-.4.4zm-4.9-.3c-.6 0-1.3 0-1.9-.1-.3 0-.5-.3-.4-.6 0-.3.3-.5.6-.4.7.1 1.5.2 2.3.1.3 0 .5.2.5.5s-.2.5-.5.5h-.6zm-4.9-1.2c-.1 0-.2 0-.3-.1l-.8-.5-1.2-.8c-.2-.1-.3-.4-.2-.7.1-.2.4-.3.7-.2.5.3.9.5 1.3.8l.7.5c.2.1.3.4.2.7 0 .2-.2.3-.4.3zm-4.9-2.6h-.2c-.7-.2-1.5-.5-2.3-.6-.3-.1-.4-.3-.4-.6.1-.3.3-.4.6-.4.8.2 1.6.4 2.4.7.3.1.4.4.3.6 0 .2-.2.3-.4.3zm-13.5-.7c-.2 0-.4-.2-.5-.4-.1-.3.1-.5.4-.6.8-.2 1.6-.3 2.4-.4.3 0 .5.2.6.4 0 .3-.2.5-.4.6-.8.1-1.6.2-2.3.4h-.2zm8-.4c-.8-.1-1.6-.1-2.4-.1-.3 0-.5-.2-.5-.5s.2-.5.5-.5c.8 0 1.6.1 2.5.1.3 0 .5.3.4.5 0 .3-.3.5-.5.5zm2.9 17c-1 0-1.9-.4-2.6-1.1-.6-.6-.9-1.3-1-2.1h-4.9c-.3 0-.5-.2-.5-.5s.2-.5.5-.5h4.9c.1-.8.5-1.5 1-2.1.7-.7 1.6-1.1 2.6-1.1 1.9 0 3.4 1.4 3.6 3.2h4.9c.3 0 .5.2.5.5s-.2.5-.5.5h-4.9c-.1.8-.5 1.5-1 2.1-.7.7-1.6 1.1-2.6 1.1zm0-6.3c-.7 0-1.4.3-1.9.8s-.8 1.2-.8 1.9.3 1.4.8 1.9 1.2.8 1.9.8 1.4-.3 1.9-.8.8-1.2.8-1.9c0-1.5-1.2-2.7-2.7-2.7zm-15.1-8.7c-.2 0-.3-.1-.4-.3-.1-.2-.1-.5.2-.7l1.2-.6c.3-.1.5 0 .7.2.1.3 0 .5-.2.7-.4.2-.7.4-1.1.5-.2.2-.3.2-.4.2zm-31.5-4.8c-5.4 0-9.8-4.4-9.8-9.8s4.4-9.8 9.8-9.8c2.6 0 5.1 1 6.9 2.9 1.8 1.8 2.9 4.3 2.9 6.9-.1 5.4-4.4 9.8-9.8 9.8zm0-18.5c-4.8 0-8.8 3.9-8.8 8.8s3.9 8.8 8.8 8.8c4.8 0 8.8-3.9 8.8-8.8 0-2.3-.9-4.5-2.6-6.2s-3.9-2.6-6.2-2.6zm-7.2 9.3c-.3 0-.5-.2-.5-.5 0-4.2 3.5-7.7 7.7-7.7.3 0 .5.2.5.5s-.2.5-.5.5c-3.7 0-6.7 3-6.7 6.7 0 .2-.2.5-.5.5zm5 17.1c-.3 0-.6 0-.9-.1-1.6-.5-2.4-2-2.3-3.1.1-.9.7-1.5 1.6-1.6.3 0 .5.2.6.4 0 .3-.2.5-.4.6-.5.1-.7.4-.7.7-.1.7.5 1.7 1.6 2 1 .3 2-.2 2.5-.9.4-.5.7-1.3.2-2.1-1.3-2-1.3-4.3-.2-6.1.1-.2.5-.3.7-.2.1 0 .1.1.2.2.1 0 .2 0 .3.1.2.1.3.5.2.7-.2.3-.2.9.2 1.6.3.5 1.4 2.3 4.3 2.5 1.4.1 2-.5 2.3-1.1.4-.8.3-1.8-.1-2.2-.2-.2-.4-.3-.7-.3-.4.1-.6.2-.7.5-.2.4 0 1.1.1 1.3.1.2 0 .5-.2.7-.2.1-.5 0-.7-.2-.1-.1-.6-1.2-.1-2.2.2-.4.5-.8 1.4-1 .7-.2 1.3.1 1.7.6.7.8.7 2.3.2 3.3-.3.6-1.2 1.7-3.2 1.6-2.3-.1-4.2-1.3-5.1-3-.2-.3-.3-.7-.4-1-.3 1.2-.1 2.5.7 3.8.6 1 .5 2.2-.3 3.2-.6.7-1.6 1.3-2.8 1.3zm-1.4 2.3c-.6 0-1.2-.3-1.5-.8-.2-.3-.6-1.1 0-2.2.3-.6.9-1.2 1.5-1.7 1-.9 1.8-1.7 1.7-2.9-.1-.5-.1-1-.1-1.4-.8.7-1.8 1-3.5 1-1 0-1.7.4-1.9 1.1-.2.7-.1 1.5.4 1.8.2.2.3.5.1.7-.2.2-.5.3-.7.1-.8-.6-1.1-1.9-.7-3 .4-1.2 1.5-1.8 2.9-1.8 2.7.1 3.4-.8 4-3.1.1-.3.4-.4.6-.4.2.1.4.3.4.6.2-.2.4-.3.6-.4.2-.1.5 0 .7.2.1.2 0 .5-.2.7-1.3.7-1.8 1.9-1.5 3.7.2 1.7-1 2.8-2 3.8-.5.5-1 1-1.3 1.5-.2.3-.3.8-.1 1.2.2.3.6.4.9.3.3 0 .5.1.6.4 0 .3-.1.5-.4.6h-.5zm2.9-.9c-.3 0-.5-.2-.5-.5s.2-.5.5-.5c1.4 0 2.4-.7 2.8-1.9.4-1.3 0-2.6-1-3.5-1.2-1-1.8-2-1.8-2.9 0-.6.2-1.1.5-1.5-1.4-.1-2.7-.6-3.7-1.4-2.5-2.2-1.7-5.5-1.4-6.5-.4-.7-.5-1.7-.5-2.2 0-.3.2-.6.4-.8 1.2-.7 2.7-.3 3.2-.2.5-.1 1.8-.4 3.6 0 .6-.5 1.5-.7 2-.7.3 0 .6.1.8.3.8 1 .7 2.5.7 3.1.5 1.1.5 2.1.4 2.6.4.1 1.1.5 1 1-.4 2.1-1.9 3.7-4 4.4-.5.2-1 .3-1.5.3 0 .1 0 .3-.2.4-.3.2-.6.6-.5 1.2 0 .7.5 1.4 1.5 2.2 1.3 1.1 1.8 2.9 1.3 4.6-.4 1.5-1.8 2.5-3.6 2.5zm-4-20.9c0 .6.1 1.4.4 1.8.1.1.1.3.1.5-.1.1-1.3 3.5 1.1 5.6 1.2 1.1 3.4 1.5 5.4.9 1-.3 2.7-1.2 3.3-3.4-.1-.1-.3-.2-.5-.2s-.3-.1-.3-.3l-.1-.2v-.3s.2-1.2-.4-2.4c0-.1-.1-.2 0-.3 0-.2.2-1.6-.4-2.4-.6.1-1.3.3-1.7.6-.1.1-.3.2-.5.1-2-.6-3.4-.1-3.4-.1h-.3c-.2.1-1.7-.4-2.7.1zm10.3 5.4zm-10.3-5.4zm130.2-.1c-6 0-10.9-4.9-10.9-10.9s4.9-10.9 10.9-10.9 10.9 4.9 10.9 10.9c.1 6-4.8 10.9-10.9 10.9zm0-20.9c-5.5 0-9.9 4.5-9.9 9.9 0 5.5 4.5 9.9 9.9 9.9s9.9-4.5 9.9-9.9c.1-5.4-4.4-9.9-9.9-9.9zm0 20.9c-6 0-10.9-4.9-10.9-10.9s4.9-10.9 10.9-10.9 10.9 4.9 10.9 10.9c.1 6-4.8 10.9-10.9 10.9zm0-20.9c-5.5 0-9.9 4.5-9.9 9.9 0 5.5 4.5 9.9 9.9 9.9s9.9-4.5 9.9-9.9c.1-5.4-4.4-9.9-9.9-9.9zm-4 20.1h-.2c-.3-.1-.4-.4-.3-.6.8-2.1 2.4-4.8 5.5-6.4 2.6-1.3 4.7-1 6.5-.7.9.1 1.7.3 2.5.2.3 0 .5.2.5.5s-.2.5-.5.5c-.9 0-1.8-.1-2.7-.2-1.8-.3-3.6-.5-5.9.6-2.8 1.4-4.3 4-5 5.9 0 0-.2.2-.4.2zm.8-12c-1.7 0-4-.6-6.6-1.8-.3-.1-.4-.4-.3-.7.1-.3.4-.4.7-.3 2.5 1.1 4.6 1.7 6.2 1.7 1.9 0 3.1-.6 4.4-1.2 1.4-.7 3-1.4 5.6-1.5h2.4c.2 0 .5.2.5.5s-.2.5-.5.5h-2.4c-2.4 0-3.8.7-5.2 1.4-1.3.7-2.6 1.4-4.8 1.4zm.5 12.4c-.1 0-.2 0-.3-.1-.2-.2-.2-.5 0-.7 1.8-1.9 6.4-6 12-4.6.3.1.4.3.4.6-.1.3-.3.4-.6.4-5.1-1.3-9.4 2.6-11 4.4h-.5zm-6-4.4c-.2 0-.5-.2-.5-.4 0-.3.2-.5.4-.6 1.7-.2 4.1-.9 6.1-3 3.5-3.5 4.5-3.6 6.7-3.6.9 0 2 .4 3.1.9s2.3.9 3.3 1c.3 0 .5.2.5.5s-.2.5-.5.5c-1.2 0-2.4-.5-3.6-1-1-.4-2-.8-2.7-.8-1.9 0-2.7 0-6 3.3-2.3 2.1-4.9 2.9-6.8 3.2zm-1.1-2.2c-.2 0-.5-.2-.5-.4 0-.3.2-.5.4-.6 3.3-.4 4.1-1.1 4.3-1.3.1-.1.1-.2.1-.2-.2-1-2-1.8-4.9-2.2-.3 0-.5-.3-.4-.6 0-.3.3-.5.6-.4 3.5.5 5.4 1.5 5.7 3 .1.3 0 .7-.2 1-.4.5-1.3 1.2-5.1 1.7zm6.6-8.6c-1 0-2.2-.4-3.1-.7h-.1c-.7-.2-1.4-.6-1.9-.9-.2-.1-.3-.4-.2-.7.1-.2.4-.3.7-.2.6.4 1.3.6 1.7.8h.1c1.3.4 3.4 1.1 3.7.2 0-.1.1-.2 0-.3-.1-.3-.9-.5-1.6-.7l-.7-.2-2-.5c-.3-.1-.4-.3-.4-.6.1-.3.3-.4.6-.4.8.2 1.6.4 2.1.5l.7.2c1 .3 1.8.5 2.2 1.2.2.3.2.7 0 1.1-.2.9-.9 1.2-1.8 1.2zm8.5-1.1c-1.4 0-2.6-.3-3.3-1-1.3-1.1-3.4-1.9-6.2-2.3-.3 0-.5-.3-.4-.6 0-.3.3-.5.6-.4 3 .5 5.3 1.3 6.7 2.5 1 .8 2.9 1 5.4.4.3-.1.5.1.6.4.1.3-.1.5-.4.6-1.2.2-2.1.4-3 .4z"/></svg>