<?xml version="1.0" encoding="UTF-8"?>
<svg width="277px" height="131px" viewBox="0 0 277 131" version="1.1" xmlns="http://www.w3.org/2000/svg" xmlns:xlink="http://www.w3.org/1999/xlink">
    <!-- Generator: Sketch 48.1 (47250) - http://www.bohemiancoding.com/sketch -->
    <title>empty-no-repo</title>
    <desc>Created with Sketch.</desc>
    <defs></defs>
    <g stroke="none" stroke-width="1" fill="none" fill-rule="evenodd">
        <g fill-rule="nonzero">
            <path d="M70.1258644,62.1861948 C68.3387658,57.5958041 63.1701462,55.3221972 58.5810788,57.1087807 C53.9908113,58.894516 51.7177661,64.0634827 53.5037713,68.653497 L56.2814685,75.7925262 L72.9035256,69.3251313 L70.1258644,62.1861948 Z M73.7321025,70.0757714 L56.1781025,76.9057714 C55.9207538,77.005902 55.6309595,76.8784516 55.5308287,76.621103 L52.5718319,69.0161113 C50.5855584,63.9114093 53.1134967,58.1628086 58.2184052,56.1768644 C63.322129,54.1899185 69.0703182,56.7184704 71.0577713,61.823497 L74.0167713,69.428497 C74.1169022,69.685846 73.9894516,69.9756407 73.7321025,70.0757714 Z M56.5831938,68.9212093 C54.6017422,64.7368885 56.4726276,60.4459038 60.7915057,59.3097481 C61.0585619,59.2394943 61.2181018,58.9660505 61.147848,58.6989943 C61.0775943,58.4319381 60.8041505,58.2723982 60.5370943,58.342652 C55.6011638,59.641134 53.4349501,64.6094714 55.6794062,69.3491907 C55.79759,69.5987647 56.0957166,69.7052776 56.3452907,69.5870938 C56.5948647,69.46891 56.7013776,69.1707834 56.5831938,68.9212093 Z M76.780447,72.5643276 L75.5390132,69.3732856 L54.370953,77.6096724 L55.6123868,80.8007144 L76.780447,72.5643276 Z M77.6090066,73.3149699 L55.5090066,81.9139699 C55.2516494,82.0141063 54.9618445,81.8866454 54.861721,81.6292831 L53.257721,77.5062831 C53.1576047,77.2489392 53.2850545,76.9591594 53.5423934,76.8590301 L75.6423934,68.2600301 C75.8997507,68.1598937 76.1895555,68.2873546 76.289679,68.5447169 L77.893679,72.6677169 C77.9937953,72.9250608 77.8663455,73.2148406 77.6090066,73.3149699 Z M74.6038134,71.0373224 L64.6898134,74.8943224 C64.432461,74.9944442 64.3050005,75.2842343 64.4051224,75.5415866 C64.5052442,75.798939 64.7950343,75.9263995 65.0523866,75.8262776 L74.9663866,71.9692776 C75.223739,71.8691558 75.3511995,71.5793657 75.2510776,71.3220134 C75.1509558,71.064661 74.8611657,70.9372005 74.6038134,71.0373224 Z M72.8341425,75.1734462 L60.284754,80.055539 L61.3080248,81.4913986 L73.0498283,76.9216359 L72.8341425,75.1734462 Z M73.775044,77.7124553 L61.308044,82.5644553 C61.0947599,82.6474628 60.8523443,82.5750598 60.7195192,82.3886789 L59.0975192,80.1126789 C58.9083568,79.8472451 59.0196556,79.4746934 59.3234196,79.3565199 L73.0704196,74.0085199 C73.3742037,73.8903387 73.7080239,74.0897663 73.7479375,74.4132759 L74.0899375,77.1852759 C74.1179533,77.4123515 73.9882626,77.6294733 73.775044,77.7124553 Z M64.9890595,84.7871044 C64.8939636,84.3084338 64.4274357,83.9969537 63.9485581,84.0920903 C63.4689981,84.1880023 63.1576943,84.6540686 63.2528154,85.1328675 C63.3486888,85.6128735 63.8143264,85.9236935 64.2934419,85.8285097 C64.7733321,85.7325316 65.0843036,85.2671602 64.9890595,84.7871044 Z M63.2756847,83.2751484 L62.8862306,81.3196618 C62.8322934,81.0488383 63.0081146,80.7855677 63.2789382,80.7316306 C63.5497617,80.6776934 63.8130323,80.8535146 63.8669694,81.1243382 L64.2563949,83.0796816 C65.0823446,83.1388812 65.8008352,83.7412947 65.9699157,84.5923708 C66.1725741,85.6138234 65.5102845,86.6049451 64.4889292,86.8092157 C63.4679598,87.0120483 62.4761687,86.350013 62.2720843,85.3282292 C62.1030426,84.477348 62.5354661,83.6463544 63.2756847,83.2751484 Z M73.0304133,79.9372432 C73.1737074,80.1732971 73.0985107,80.4808193 72.8624568,80.6241133 C72.6264029,80.7674074 72.3188807,80.6922107 72.1755867,80.4561568 L70.9165867,78.3821568 C70.7732926,78.1461029 70.8484893,77.8385807 71.0845432,77.6952867 C71.3205971,77.5519926 71.6281193,77.6271893 71.7714133,77.8632432 L73.0304133,79.9372432 Z M74.0780618,80.9222451 C73.8250137,80.5043339 73.2798654,80.3709655 72.863232,80.6236245 C72.4444833,80.8784593 72.3111718,81.4223703 72.5647145,81.840045 C72.8183484,82.2578703 73.3627792,82.3908655 73.780845,82.1370855 C74.1985936,81.8834981 74.3315905,81.3392582 74.0780618,80.9222451 Z M74.9330043,80.4035231 C75.4731556,81.291982 75.189766,82.4516478 74.299755,82.9919145 C73.409669,83.5322266 72.2501595,83.248978 71.7098855,82.358955 C71.1697285,81.4691244 71.4536212,80.3108422 72.3440331,79.7689715 C73.2335372,79.2295478 74.3940719,79.5134681 74.9330043,80.4035231 Z" transform="translate(64.910972, 71.172306) rotate(33.000000) translate(-64.910972, -71.172306) "></path>
            <path d="M83.242,31.963 C77.567,32.163 73.052,36.633 72.672,42.176 C69.779,44.626 68.674,47.965 68.236,50.383 C68.146,50.865 68.473,51.35 68.996,50.65 C70.028,49.267 71.873,48.552 74.033,48.28 C76.0380557,51.886707 79.8960368,54.0646681 84.02,53.918 C90.083,53.703 94.823,48.615 94.61,42.553 L94.61,42.551 C94.391,36.488 89.302,31.748 83.242,31.963 Z M83.512,37.928 C84.889,37.96 86.196,38.654 86.605,39.986 C87.385,42.519 85.146,43.674 85.146,43.674 L85.512,44.857 L83.141,45.587 L82.777,44.402 L82.779,44.404 C82.579,43.754 82.948,43.056 83.599,42.854 L84.189,42.674 C84.347476,42.6272501 84.4803691,42.5185052 84.557556,42.3724149 C84.6347429,42.2263245 84.6496867,42.0552611 84.599,41.898 L84.239,40.715 C84.1919786,40.5571507 84.0835107,40.4248112 83.9379656,40.3477137 C83.7924205,40.2706161 83.6220029,40.2552257 83.465,40.305 L82.279,40.668 C82.1212243,40.7147991 81.9888923,40.8230726 81.9117797,40.9684582 C81.834667,41.1138437 81.8192509,41.2841295 81.869,41.441 L82.049,42.033 L79.682,42.762 C79.136,40.986 80.366,38.662 82.141,38.115 C82.5847389,37.9798538 83.0472744,37.9167194 83.511,37.928 L83.512,37.928 Z M85.785,45.748 L86.514,48.115 L84.143,48.844 L83.418,46.477 L85.785,45.748 Z"></path>
            <path d="M100.303,-5.82867088e-15 C100.086587,0.00266086371 99.8888114,0.123012541 99.787,0.314 L99.195,1.434 L98.078,2.025 C97.882912,2.12745819 97.7607245,2.32964343 97.7607245,2.55 C97.7607245,2.77035657 97.882912,2.97254181 98.078,3.075 L99.198,3.665 L99.788,4.783 C99.8908023,4.97703625 100.092413,5.09837976 100.312,5.09837976 C100.531587,5.09837976 100.733198,4.97703625 100.836,4.783 L101.428,3.666 L102.547,3.074 C102.741561,2.97136871 102.863326,2.76947099 102.863326,2.5495 C102.863326,2.32952901 102.741561,2.12763129 102.547,2.025 L101.427,1.434 L100.836,0.314 C100.731327,0.117613052 100.525511,-0.00363687591 100.303,-7.16092496e-15 Z M100.313,1.861 L100.465,2.148 C100.52024,2.25349095 100.60596,2.33990772 100.711,2.396 L101,2.551 L100.71,2.703 C100.60562,2.75872112 100.520295,2.84439383 100.465,2.949 L100.312,3.236 L100.16,2.949 C100.10423,2.84321883 100.017781,2.75677027 99.912,2.701 L99.625,2.549 L99.912,2.396 C100.017781,2.34022973 100.10423,2.25378117 100.16,2.148 L100.313,1.861 Z M218.961,10.491 C218.449,10.491 217.988,10.702 217.697,11.029 C217.407,11.356 217.276,11.769 217.276,12.174 C217.276,12.578 217.406,12.991 217.697,13.318 C217.988,13.645 218.449,13.859 218.961,13.859 C219.439117,13.8656385 219.897669,13.6694277 220.223,13.319 C220.513,12.991 220.645,12.579 220.645,12.174 C220.645,11.769 220.513,11.356 220.223,11.029 C219.933,10.702 219.473,10.49 218.961,10.49 L218.961,10.491 Z M218.961,11.676 C219.177,11.676 219.263,11.736 219.336,11.818 C219.417774,11.9184069 219.461349,12.044528 219.459,12.174 C219.459,12.314 219.409,12.449 219.336,12.531 C219.263,12.614 219.176,12.674 218.961,12.674 C218.746,12.674 218.657,12.614 218.584,12.531 C218.50246,12.4300751 218.45893,12.3037319 218.461,12.174 C218.461,12.033 218.511,11.901 218.584,11.818 C218.657,11.736 218.746,11.676 218.961,11.676 Z M36.39,17.866 C36.1796014,17.8713334 35.9877938,17.9877881 35.886,18.172 L34.63,20.472 L32.331,21.73 C32.1410968,21.8340969 32.0230421,22.0334374 32.0230421,22.25 C32.0230421,22.4665626 32.1410968,22.6659031 32.331,22.77 L34.63,24.03 L35.89,26.326 C35.9942499,26.5153946 36.1933095,26.6330476 36.4095,26.6330476 C36.6256905,26.6330476 36.8247501,26.5153946 36.929,26.326 L38.187,24.029 L40.485,22.769 C40.6743946,22.6647501 40.7920476,22.4656905 40.7920476,22.2495 C40.7920476,22.0333095 40.6743946,21.8342499 40.485,21.73 L38.185,20.47 L36.927,18.172 C36.8197768,17.9770197 36.6124221,17.8584761 36.39,17.865 L36.39,17.866 Z M36.407,19.691 L37.23,21.195 C37.284063,21.2939937 37.3652378,21.3755154 37.464,21.43 L38.966,22.25 L37.464,23.072 C37.3652378,23.1264846 37.284063,23.2080063 37.23,23.307 L36.41,24.809 L35.587,23.307 C35.532937,23.2080063 35.4517622,23.1264846 35.353,23.072 L33.849,22.25 L35.351,21.43 C35.4507773,21.3752807 35.532703,21.2930078 35.587,21.193 L36.407,19.691 Z M153.3,22.881 C152.516,22.641 151.73,23.428 151.972,24.211 L152.536,26.043 L151.983,27.836 C151.982999,27.8366667 151.982999,27.8373333 151.983,27.838 C151.978217,27.8508458 151.973881,27.8638537 151.97,27.877 C151.728,28.66 152.514,29.447 153.298,29.207 L155.132,28.643 L156.966,29.207 C157.75,29.45 158.539,28.661 158.296,27.877 L157.731,26.043 L158.296,24.213 L158.296,24.211 C158.54,23.427 157.752,22.642 156.97,22.881 C156.969333,22.8809989 156.968667,22.8809989 156.968,22.881 L155.134,23.445 L153.3,22.881 Z M153.175,24.084 L154.821,24.59 C154.822331,24.5906717 154.823664,24.5913384 154.825,24.592 C155.028,24.652 155.242,24.652 155.445,24.592 C155.446002,24.5913364 155.447002,24.5906697 155.448,24.59 L157.095,24.084 L156.587,25.73 C156.586328,25.7313308 156.585662,25.7326642 156.585,25.734 C156.525,25.936 156.525,26.152 156.585,26.354 C156.585664,26.355002 156.58633,26.356002 156.587,26.357 L157.095,28.006 L155.452,27.5 C155.244214,27.4333466 155.020786,27.4333466 154.813,27.5 L154.811,27.5 L153.175,28.006 L153.683,26.357 L153.681,26.357 C153.744731,26.1528584 153.744731,25.9341416 153.681,25.73 L153.683,25.73 L153.175,24.084 Z M259.587,32.373 C258.68,32.373 257.764,32.67 257.056,33.291 C256.348,33.911 255.874,34.865 255.853,36.041 C255.831,37.256 256.294,38.247 257.009,38.891 C257.723,39.535 258.659,39.844 259.587,39.844 C260.514,39.844 261.45,39.534 262.165,38.891 C262.88,38.247 263.343,37.256 263.321,36.041 C263.301,34.865 262.824,33.911 262.116,33.291 C261.408,32.671 260.494,32.373 259.586,32.373 L259.587,32.373 Z M259.587,33.559 C260.232,33.559 260.87,33.776 261.335,34.184 C261.8,34.592 262.12,35.181 262.135,36.063 C262.152,36.979 261.838,37.588 261.37,38.01 C260.902,38.432 260.25,38.656 259.587,38.656 C258.925,38.656 258.27,38.432 257.802,38.01 C257.334,37.588 257.022,36.98 257.038,36.063 C257.054,35.181 257.373,34.592 257.838,34.183 C258.304,33.776 258.942,33.559 259.587,33.559 Z M120.402,41.15 C120.24776,41.1546303 120.1014,41.2192009 119.994,41.33 L118.34,42.984 L116.688,41.332 C116.540384,41.1724853 116.317334,41.1065033 116.106693,41.1600401 C115.896053,41.2135768 115.731577,41.3780534 115.67804,41.5886935 C115.624503,41.7993336 115.690485,42.022384 115.85,42.17 L117.502,43.822 L115.85,45.477 C115.687257,45.6238507 115.6188,45.848501 115.671991,46.0611532 C115.725181,46.2738054 115.891344,46.4397699 116.10406,46.4927068 C116.316775,46.5456438 116.541344,46.4769177 116.688,46.314 L118.342,44.662 L119.994,46.314 C120.142609,46.4684317 120.362983,46.5306585 120.570417,46.4767623 C120.777851,46.4228662 120.940061,46.261235 120.994699,46.0539952 C121.049337,45.8467554 120.987899,45.6261602 120.834,45.477 L119.18,43.824 L120.834,42.17 C121.011114,41.9996274 121.064786,41.7376622 120.968942,41.5113656 C120.873099,41.285069 120.647603,41.1413395 120.402,41.15 Z M3.273,53.51 C3.08539709,53.510916 2.90929248,53.600552 2.79815322,53.7516935 C2.68701396,53.902835 2.65395005,54.0976534 2.709,54.277 L2.939,55.025 L2.707,55.773 C2.64174768,55.9829255 2.6979819,56.2117238 2.85311261,56.3674834 C3.00824332,56.523243 3.23681218,56.5804025 3.447,56.516 L4.197,56.286 L4.945,56.516 C5.15545448,56.5813842 5.38480958,56.524668 5.54053493,56.3687327 C5.69626029,56.2127975 5.75266757,55.9833662 5.687,55.773 L5.457,55.025 L5.687,54.277 C5.75176258,54.0672074 5.69530685,53.8388011 5.54026329,53.6833385 C5.38521972,53.5278759 5.15696664,53.4708039 4.947,53.535 L4.199,53.765 L3.449,53.535 C3.39192275,53.5178706 3.33258957,53.5094426 3.273,53.51 Z M231.436,65.275 C231.062,65.275 230.69,65.457 230.498,65.818 C230.497333,65.8179989 230.496667,65.8179989 230.496,65.818 L229.598,67.518 L227.902,68.412 C227.901999,68.4126667 227.901999,68.4133333 227.902,68.414 C227.18,68.798 227.18,69.907 227.902,70.291 L229.596,71.188 L230.496,72.887 C230.496665,72.8876683 230.497332,72.8883349 230.498,72.889 C230.882,73.611 231.991,73.611 232.375,72.889 C232.375668,72.8883349 232.376335,72.8876683 232.377,72.887 L233.275,71.189 L234.971,70.293 C234.971001,70.2923333 234.971001,70.2916667 234.971,70.291 C235.693,69.907 235.693,68.798 234.971,68.414 L233.273,67.516 L232.375,65.818 C232.187129,65.4761763 231.824967,65.2669699 231.435,65.275 L231.436,65.275 Z M231.436,66.58 L232.242,68.104 C232.342,68.292 232.497,68.447 232.686,68.547 L234.209,69.354 L232.686,70.158 C232.685332,70.1586651 232.684665,70.1593317 232.684,70.16 C232.496,70.26 232.342,70.414 232.242,70.602 C232.241999,70.6026667 232.241999,70.6033333 232.242,70.604 L231.436,72.127 L230.631,70.606 L230.629,70.604 C230.530147,70.4152471 230.376851,70.2605575 230.189,70.16 C230.188335,70.1593317 230.187668,70.1586651 230.187,70.158 L228.664,69.352 L230.187,68.547 C230.187667,68.5470011 230.188333,68.5470011 230.189,68.547 C230.377,68.447 230.529,68.292 230.629,68.104 L230.631,68.1 L231.436,66.58 Z M275.66,78.57 C275.50576,78.5746303 275.3594,78.6392009 275.252,78.75 L273.969,80.033 C273.854,79.963 273.779,79.833 273.656,79.781 C272.688122,79.3785386 271.573061,79.5996557 270.832,80.341 C270.831333,80.3409989 270.830667,80.3409989 270.83,80.341 C269.985,81.187 270.015,82.426 270.586,83.418 L269.24,84.764 C269.090306,84.9140515 269.032034,85.1325659 269.087135,85.3372307 C269.142237,85.5418955 269.30234,85.7016175 269.507135,85.7562307 C269.711931,85.810844 269.930306,85.7520516 270.08,85.602 L271.38,84.301 C272.108,84.731 272.94,84.869 273.656,84.572 C274.624835,84.171534 275.256544,83.2263385 275.256,82.178 C275.256,81.67 275.076,81.23 274.838,80.844 L276.092,79.59 C276.269114,79.4196274 276.322786,79.1576622 276.226942,78.9313656 C276.131099,78.705069 275.905603,78.5613395 275.66,78.57 Z M272.422,80.78 C272.685,80.735 272.953,80.774 273.202,80.877 C273.697,81.083 274.068,81.527 274.068,82.177 C274.068,82.829 273.698,83.271 273.201,83.477 C272.686106,83.703267 272.08493,83.5874112 271.691,83.186 C271.682309,83.1763739 271.673304,83.1670356 271.664,83.158 C271.402087,82.8951209 271.255527,82.5388379 271.256652,82.1677553 C271.257778,81.7966727 271.406498,81.4412853 271.67,81.18 C271.9,80.951 272.16,80.823 272.422,80.78 Z M23.982,80.753 C23.482,80.753 22.972,80.917 22.57,81.267 C22.168,81.617 21.897,82.163 21.88,82.8 C21.8799368,82.8049998 21.8799368,82.8100002 21.88,82.815 C21.88,83.466 22.146,84.03 22.55,84.39 C22.956,84.75 23.474,84.917 23.982,84.917 C24.492,84.917 25.007,84.75 25.412,84.39 C25.817,84.03 26.082,83.466 26.082,82.815 C26.0820632,82.8100002 26.0820632,82.8049998 26.082,82.8 C26.0820011,82.7993333 26.0820011,82.7986667 26.082,82.798 C26.0776186,82.6399485 26.0102999,82.4901915 25.895,82.382 C25.789,81.96 25.685,81.522 25.393,81.267 C25.0006427,80.9307592 24.4996997,80.7481459 23.983,80.753 L23.982,80.753 Z M201.551,80.954 C201.102,80.954 200.645,81.101 200.285,81.421 C199.925,81.741 199.689,82.245 199.689,82.815 C199.689,83.387 199.925,83.89 200.285,84.21 C200.645,84.53 201.102,84.677 201.551,84.677 C202,84.677 202.458,84.53 202.818,84.21 C203.178,83.89 203.412,83.387 203.412,82.815 C203.41243,82.65266 203.346287,82.4972417 203.229,82.385 C203.135,82.027 203.065,81.642 202.816,81.421 C202.465902,81.1154172 202.015679,80.9492081 201.551,80.954 Z M23.982,81.94 C24.222,81.94 24.453,82.022 24.613,82.161 C24.772,82.299 24.881,82.488 24.893,82.823 C24.89,83.17 24.783,83.362 24.625,83.503 C24.4448026,83.6534023 24.2166938,83.734287 23.982,83.731 C23.7476488,83.7340473 23.5199352,83.653177 23.34,83.503 C23.181,83.362 23.073,83.17 23.07,82.823 C23.081,82.488 23.191,82.299 23.35,82.161 C23.51,82.021 23.742,81.941 23.982,81.941 L23.982,81.94 Z M201.551,82.142 C201.736,82.142 201.914,82.205 202.029,82.308 C202.145,82.41 202.227,82.541 202.227,82.815 C202.227,83.09 202.145,83.221 202.029,83.323 C201.894614,83.4338831 201.725209,83.493423 201.551,83.491 C201.377062,83.493623 201.207904,83.4340455 201.074,83.323 C200.959,83.221 200.877,83.09 200.877,82.815 C200.877,82.541 200.957,82.41 201.072,82.308 C201.206885,82.1975347 201.376686,82.1386892 201.551,82.142 Z M0.584,106.547 C0.399230605,106.549979 0.22641154,106.638924 0.116605072,106.787555 C0.00679860309,106.936186 -0.0274420806,107.127511 0.024,107.305 L0.76,109.822 L0.023,112.338 C-0.0373233165,112.546052 0.0205986735,112.770442 0.17408484,112.923304 C0.327571007,113.076165 0.552195608,113.133171 0.76,113.072 L3.275,112.336 L5.791,113.074 C5.99883265,113.134133 6.22291979,113.076303 6.37569904,112.923107 C6.52847828,112.769912 6.58569819,112.545668 6.525,112.338 L5.787,109.822 L6.525,107.307 C6.58655456,107.098758 6.52936576,106.873526 6.37592259,106.719874 C6.22247942,106.566223 5.99732525,106.508728 5.789,106.57 L3.275,107.309 L0.76,106.57 C0.702819459,106.553547 0.64348832,106.545793 0.584,106.547 Z M220.371,106.711 C220.213721,106.713369 220.063827,106.778129 219.954301,106.89103 C219.844776,107.003931 219.784595,107.155721 219.787,107.313 L219.787,108.141 L218.961,108.141 C218.743514,108.132063 218.538612,108.242998 218.427207,108.429998 C218.315802,108.616998 218.315802,108.850002 218.427207,109.037002 C218.538612,109.224002 218.743514,109.334937 218.961,109.326 L219.787,109.326 L219.787,110.152 C219.787,110.479505 220.052495,110.745 220.38,110.745 C220.707505,110.745 220.973,110.479505 220.973,110.152 L220.973,109.326 L221.801,109.326 C222.018486,109.334937 222.223388,109.224002 222.334793,109.037002 C222.446198,108.850002 222.446198,108.616998 222.334793,108.429998 C222.223388,108.242998 222.018486,108.132063 221.801,108.141 L220.973,108.141 L220.973,107.313 C220.975453,107.1526 220.912817,106.998049 220.799384,106.884616 C220.685951,106.771183 220.5314,106.708547 220.371,106.711 Z M1.467,108.014 L3.107,108.494 C3.21603376,108.526001 3.33196624,108.526001 3.441,108.494 L5.084,108.014 L4.602,109.656 C4.56999883,109.765034 4.56999883,109.880966 4.602,109.99 L5.084,111.63 L3.441,111.15 C3.3325907,111.118389 3.2174093,111.118389 3.109,111.15 L1.467,111.63 L1.947,109.988 C1.97861111,109.879591 1.97861111,109.764409 1.947,109.656 L1.467,108.014 Z M80.857,108.141 C80.346,108.141 79.887,108.351 79.596,108.678 C79.306,109.004 79.172,109.418 79.172,109.822 C79.172,110.227 79.304,110.638 79.594,110.965 C79.884,111.292 80.342,111.505 80.854,111.505 C81.3314637,111.511869 81.7895493,111.316429 82.115,110.967 C82.405,110.64 82.537,110.229 82.537,109.824 C82.537,109.42 82.407,109.009 82.117,108.682 C81.7924634,108.331514 81.3346274,108.134935 80.857,108.141 Z M80.855,109.326 C81.071,109.326 81.158,109.386 81.23,109.469 C81.3111153,109.569323 81.3543084,109.695008 81.352,109.824 C81.353895,109.953569 81.3099804,110.079646 81.228,110.18 C81.155,110.262 81.071,110.32 80.855,110.32 C80.64,110.32 80.553,110.26 80.48,110.178 C80.3983789,110.077508 80.3548233,109.951445 80.357,109.822 C80.357,109.682 80.407,109.549 80.48,109.467 C80.553,109.385 80.64,109.326 80.855,109.327 L80.855,109.326 Z M252.486,110.279 C252.328721,110.281369 252.178827,110.346129 252.069301,110.45903 C251.959776,110.571931 251.899595,110.723721 251.902,110.881 L251.902,113.217 L249.564,113.217 C249.346514,113.208063 249.141612,113.318998 249.030207,113.505998 C248.918802,113.692998 248.918802,113.926002 249.030207,114.113002 C249.141612,114.300002 249.346514,114.410937 249.564,114.402 L251.902,114.402 L251.902,116.74 C251.902,117.067505 252.167495,117.333 252.495,117.333 C252.822505,117.333 253.088,117.067505 253.088,116.74 L253.088,114.402 L255.426,114.402 C255.643486,114.410937 255.848388,114.300002 255.959793,114.113002 C256.071198,113.926002 256.071198,113.692998 255.959793,113.505998 C255.848388,113.318998 255.643486,113.208063 255.426,113.217 L253.088,113.217 L253.088,110.881 C253.090453,110.7206 253.027817,110.566049 252.914384,110.452616 C252.800951,110.339183 252.6464,110.276547 252.486,110.279 Z M40.19,116.146 C39.9740257,116.150342 39.7774976,116.271783 39.677,116.463 L39.085,117.582 L37.965,118.172 C37.7704388,118.274631 37.6486744,118.476529 37.6486744,118.6965 C37.6486744,118.916471 37.7704388,119.118369 37.965,119.221 L39.085,119.813 L39.677,120.932 C39.7796313,121.126561 39.981529,121.248326 40.2015,121.248326 C40.421471,121.248326 40.6233687,121.126561 40.726,120.932 L41.317,119.814 L42.437,119.221 C42.632088,119.118542 42.7542755,118.916357 42.7542755,118.696 C42.7542755,118.475643 42.632088,118.273458 42.437,118.171 L41.317,117.582 L40.726,116.462 C40.6213804,116.263864 40.4140179,116.141613 40.19,116.146 Z M40.2,118.008 L40.355,118.297 C40.4107703,118.402781 40.4972188,118.48923 40.603,118.545 L40.892,118.697 L40.601,118.852 C40.4962497,118.907561 40.4105613,118.99325 40.355,119.098 L40.2,119.387 L40.048,119.097 C39.9925991,118.991879 39.906895,118.905827 39.802,118.85 L39.512,118.697 L39.802,118.545 C39.9070402,118.488908 39.9927601,118.402491 40.048,118.297 L40.2,118.008 Z M190.374,127.068 C189.925,127.068 189.468,127.215 189.108,127.535 C188.748,127.855 188.515,128.359 188.515,128.93 C188.515,129.5 188.748,130.004 189.108,130.324 C189.468,130.644 189.925,130.791 190.374,130.791 C190.839612,130.795969 191.290837,130.629784 191.642,130.324 C192.002,130.004 192.235,129.501 192.235,128.93 C192.235,128.359 192.002,127.855 191.642,127.535 C191.290837,127.229216 190.839612,127.063031 190.374,127.068 Z M190.374,128.256 C190.559,128.256 190.737,128.319 190.853,128.422 C190.968,128.525 191.05,128.655 191.05,128.93 C191.05,129.204 190.968,129.335 190.853,129.438 C190.718168,129.54867 190.548412,129.607855 190.374,129.605 C190.200188,129.607904 190.031044,129.548686 189.897,129.438 C189.782,129.335 189.7,129.204 189.7,128.93 C189.7,128.655 189.782,128.525 189.897,128.422 C190.031184,128.311674 190.200313,128.252816 190.374,128.256 Z"></path>
            <path d="M150.018,62.953 C149.961753,62.9553509 149.906306,62.9671839 149.854,62.988 L148.701,63.268 C148.43259,63.3331696 148.26783,63.6035896 148.333,63.872 C148.39817,64.1404104 148.66859,64.3051696 148.937,64.24 L149.93,64 L150.854,64.7 L150.656,64.748 C150.387313,64.8134457 150.222554,65.0843135 150.288,65.353 C150.353446,65.6216865 150.624313,65.7864457 150.893,65.721 L152.111,65.421 C152.297734,65.3753095 152.441735,65.2266054 152.481404,65.0385001 C152.521072,64.8503949 152.449382,64.6562047 152.297,64.539 L150.42,63.115 C150.340385,63.0291216 150.233152,62.9739126 150.117,62.959 C150.083952,62.9536573 150.05045,62.9516472 150.017,62.953 L150.018,62.953 Z M145.605,64.037 C145.586311,64.0366193 145.567615,64.037287 145.549,64.039 C145.521268,64.0420364 145.493839,64.0473884 145.467,64.055 L143.039,64.643 C142.77059,64.7081696 142.60583,64.9785896 142.671,65.247 C142.73617,65.5154104 143.00659,65.6801696 143.275,65.615 L145.701,65.025 C145.947619,64.9703832 146.114769,64.7404063 146.090593,64.4889718 C146.066416,64.2375374 145.858507,64.0436239 145.606,64.037 L145.605,64.037 Z M139.938,65.412 C139.89315,65.4113435 139.848415,65.4167251 139.805,65.428 L137.377,66.018 C137.194405,66.0512805 137.045269,66.1829672 136.989641,66.3600379 C136.934012,66.5371086 136.981046,66.7304236 137.111803,66.8621468 C137.242561,66.99387 137.435525,67.0423242 137.613,66.988 L140.041,66.4 C140.288802,66.3447877 140.455892,66.1126325 140.429567,65.8601225 C140.403243,65.6076126 140.191862,65.4149133 139.938,65.412 Z M147.77,65.465 C147.750977,65.4645816 147.731946,65.4652493 147.713,65.467 C147.684624,65.4695973 147.656521,65.4746156 147.629,65.482 C146.936,65.651 146.176,65.833 145.365,66.029 C145.096313,66.0944457 144.931554,66.3653135 144.997,66.634 C145.062446,66.9026865 145.333313,67.0674457 145.602,67.002 L147.865,66.453 C148.111619,66.3983832 148.278769,66.1684063 148.254593,65.9169718 C148.230416,65.6655374 148.022507,65.4716239 147.77,65.465 Z M154.75,66.311 C154.723242,66.310523 154.69649,66.3121951 154.67,66.316 L153.424,66.506 C153.243521,66.528719 153.08962,66.6476615 153.022133,66.8165822 C152.954646,66.9855029 152.984222,67.1777482 153.099362,67.3185724 C153.214502,67.4593966 153.397038,67.5265795 153.576,67.494 L154.594,67.34 L155.236,67.89 C154.962895,67.9314214 154.775079,68.1863952 154.8165,68.4595 C154.857921,68.7326048 155.112895,68.9204214 155.386,68.879 L156.156,68.768 L156.299,69.531 C156.324242,69.7134782 156.447779,69.8672952 156.620511,69.9313185 C156.793243,69.9953419 156.987188,69.9591994 157.125265,69.8372555 C157.263342,69.7153115 157.323181,69.5273217 157.281,69.348 L157.051,68.111 C157.006412,67.8727564 156.79737,67.7008026 156.555,67.703 L156.553,67.703 L155.07,66.43 C154.980739,66.3536556 154.86745,66.3111724 154.75,66.31 L154.75,66.311 Z M142.482,66.744 C142.436816,66.7432533 142.391738,66.7486356 142.348,66.76 L140.084,67.307 C139.906974,67.3456202 139.764694,67.4769889 139.712101,67.6503777 C139.659508,67.8237664 139.704833,68.0120403 139.830574,68.1424969 C139.956315,68.2729535 140.142793,68.3251765 140.318,68.279 L142.582,67.732 C142.829332,67.6769888 142.996417,67.4456647 142.970902,67.1935767 C142.945387,66.9414888 142.735339,66.7483361 142.482,66.744 Z M134.275,66.785 C134.230484,66.7844329 134.186091,66.7898138 134.143,66.801 L131.717,67.391 C131.534405,67.4242805 131.385269,67.5559672 131.329641,67.7330379 C131.274012,67.9101086 131.321046,68.1034236 131.451803,68.2351468 C131.582561,68.36687 131.775525,68.4153242 131.953,68.361 L134.379,67.773 C134.626966,67.7177271 134.794065,67.4852907 134.76747,67.2326347 C134.740875,66.9799788 134.52904,66.7874301 134.275,66.785 Z M150.15,67.018 C150.121909,67.0173034 150.09381,67.0189759 150.066,67.023 L147.549,67.41 C147.368521,67.432719 147.21462,67.5516615 147.147133,67.7205822 C147.079646,67.8895029 147.109222,68.0817482 147.224362,68.2225724 C147.339502,68.3633966 147.522038,68.4305795 147.701,68.398 L150.219,68.012 C150.475608,67.9720939 150.65895,67.742383 150.640966,67.4833137 C150.622983,67.2242444 150.409661,67.0220685 150.15,67.018 Z M144.275,67.92 C144.246825,67.920295 144.218725,67.9229712 144.191,67.928 L141.671,68.314 C141.397895,68.3562498 141.21075,68.6118952 141.253,68.885 C141.29525,69.1581048 141.550895,69.3452498 141.824,69.303 L144.342,68.916 C144.604553,68.8826566 144.795643,68.65049 144.77788,68.3864252 C144.760117,68.1223605 144.539653,67.9178788 144.275,67.92 Z M137.199,68.018 C137.153527,68.0168359 137.108108,68.0218824 137.064,68.033 L134.801,68.576 C134.62719,68.6178001 134.488884,68.7491513 134.438179,68.920575 C134.387474,69.0919986 134.432074,69.2774514 134.555179,69.407075 C134.678283,69.5366986 134.86119,69.5908001 135.035,69.549 L135.434,69.453 C135.331455,69.6203642 135.336319,69.8322466 135.446436,69.9947288 C135.556554,70.1572109 135.751553,70.240235 135.945,70.207 L138.465,69.818 C138.721608,69.7780939 138.90495,69.548383 138.886966,69.2893137 C138.868983,69.0302444 138.655661,68.8280685 138.396,68.824 C138.367881,68.8236343 138.339781,68.8256414 138.312,68.83 L137.402,68.97 C137.611792,68.8709154 137.72586,68.6405283 137.677475,68.4136157 C137.629089,68.1867031 137.430963,68.0228869 137.199,68.018 Z M128.613,68.16 C128.56815,68.1593435 128.523415,68.1647251 128.48,68.176 L126.055,68.764 C125.877974,68.8026202 125.735694,68.9339889 125.683101,69.1073777 C125.630508,69.2807664 125.675833,69.4690403 125.801574,69.5994969 C125.927315,69.7299535 126.113793,69.7821765 126.289,69.736 L128.717,69.146 C128.961007,69.0873729 129.123756,68.8569558 129.097432,68.6073885 C129.071109,68.3578212 128.863869,68.1664291 128.613,68.16 Z M152.135,68.354 C152.106243,68.3531895 152.077469,68.3548623 152.049,68.359 L149.654,68.711 C149.469803,68.7280848 149.310091,68.8454734 149.2388,69.0161719 C149.167509,69.1868703 149.196291,69.382982 149.313623,69.5259979 C149.430954,69.6690139 149.617662,69.7355615 149.799,69.699 L152.195,69.349 C152.453105,69.3125859 152.639934,69.0839957 152.624244,68.8238069 C152.608554,68.5636181 152.395611,68.3591347 152.135,68.354 Z M146.545,69.174 C146.516881,69.1736343 146.488781,69.1756414 146.461,69.18 L144.064,69.531 C143.884959,69.5546117 143.732564,69.6729349 143.665324,69.8405414 C143.598084,70.0081479 143.626449,70.1989883 143.73953,70.3397928 C143.852611,70.4805973 144.032832,70.5494821 144.211,70.52 L146.605,70.168 C146.86045,70.1289033 147.044018,69.9015841 147.028447,69.6436289 C147.012876,69.3856738 146.803298,69.1820858 146.545,69.174 Z M131.898,69.281 C131.886981,69.2813027 131.875975,69.2819698 131.865,69.283 C131.837325,69.2853809 131.809897,69.2900637 131.783,69.297 L129.518,69.836 C129.285403,69.8856449 129.119967,70.0922638 129.122394,70.3300878 C129.124821,70.5679118 129.294438,70.7711118 129.528,70.816 C129.619693,71.0257767 129.842148,71.1464792 130.068,71.109 L132.588,70.723 C132.850779,70.6896694 133.041966,70.4571861 133.023923,70.1929169 C133.005881,69.9286477 132.784871,69.7243064 132.52,69.727 C132.491853,69.7269648 132.463753,69.7293065 132.436,69.734 L132.418,69.736 C132.394196,69.4696978 132.165105,69.2692437 131.898,69.281 Z M122.953,69.533 C122.90815,69.5323435 122.863415,69.5377251 122.82,69.549 L120.393,70.139 C120.210405,70.1722805 120.061269,70.3039672 120.005641,70.4810379 C119.950012,70.6581086 119.997046,70.8514236 120.127803,70.9831468 C120.258561,71.11487 120.451525,71.1633242 120.629,71.109 L123.055,70.521 C123.302642,70.4658516 123.469726,70.2339754 123.443672,69.9816088 C123.417618,69.7292421 123.206685,69.536392 122.953,69.533 Z M140.957,69.993 C140.928853,69.9929648 140.900753,69.9953065 140.873,70 L138.477,70.352 C138.293204,70.3697529 138.134155,70.4873578 138.063322,70.6578826 C137.99249,70.8284074 138.021406,71.0240897 138.138532,71.1668392 C138.255659,71.3095888 138.441925,71.3761652 138.623,71.34 L141.018,70.988 C141.279363,70.9547582 141.470086,70.7244066 141.45398,70.4614304 C141.437874,70.1984542 141.220467,69.9930985 140.957,69.992 L140.957,69.993 Z M126.631,70.535 C126.585481,70.5341624 126.540062,70.5395455 126.496,70.551 C126.078,70.65 125.671,70.744 125.279,70.834 C125.015759,70.8928826 124.846679,71.1499587 124.896879,71.4149923 C124.947079,71.6800259 125.19846,71.8574628 125.465,71.816 L126.709,71.627 C126.856426,71.6067145 126.987154,71.521814 127.065643,71.3953809 C127.144132,71.2689478 127.162224,71.1141232 127.115,70.973 C127.084371,70.7272999 126.878529,70.5410215 126.631,70.535 Z M135.369,70.813 C135.340853,70.8129648 135.312753,70.8153065 135.285,70.82 L132.891,71.17 C132.714154,71.1957231 132.564464,71.3138387 132.498317,71.4798538 C132.432171,71.6458689 132.459617,71.8345619 132.570317,71.9748538 C132.681018,72.1151458 132.858154,72.1857231 133.035,72.16 L135.43,71.809 C135.695055,71.7799872 135.89071,71.5480896 135.874692,71.2819328 C135.858675,71.015776 135.636622,70.8090162 135.37,70.812 L135.369,70.813 Z M117.484,71.355 C117.336732,71.3575168 117.198065,71.4248377 117.105,71.539 C116.793,71.914 116.548,72.467 116.643,73.105 C116.676497,73.3309236 116.858826,73.5054329 117.086,73.529 C116.909425,73.6373453 116.817952,73.8433588 116.856,74.047 L117.08,75.281 C117.112154,75.4567747 117.23564,75.6020433 117.403942,75.6620846 C117.572245,75.7221258 117.759794,75.687818 117.895942,75.5720845 C118.032091,75.4563511 118.096154,75.2767747 118.064,75.101 L117.932,74.377 L118.666,74.27 C118.931055,74.2409872 119.12671,74.0090896 119.110692,73.7429328 C119.094675,73.476776 118.872622,73.2700162 118.606,73.273 C118.577214,73.2725203 118.54844,73.2745278 118.52,73.279 L117.424,73.441 C117.579262,73.3328269 117.660155,73.1462711 117.633,72.959 C117.583,72.629 117.688,72.405 117.875,72.179 C118.001793,72.029233 118.029258,71.8191438 117.945226,71.6418156 C117.861195,71.4644874 117.681203,71.3527069 117.485,71.356 L117.484,71.355 Z M129.784,71.633 C129.754881,71.6324624 129.72577,71.63447 129.697,71.639 L127.303,71.99 C127.126154,72.0157231 126.976464,72.1338387 126.910317,72.2998538 C126.844171,72.4658689 126.871617,72.6545619 126.982317,72.7948538 C127.093018,72.9351458 127.270154,73.0057231 127.447,72.98 L129.844,72.629 C130.10519,72.5958011 130.295881,72.3657396 130.280049,72.1029247 C130.264217,71.8401099 130.047286,71.634604 129.784,71.633 Z M157.4,72.213 C157.250267,72.2130904 157.108455,72.2802812 157.013554,72.3960994 C156.918653,72.5119175 156.880652,72.6641709 156.91,72.811 L157.367,75.27 C157.399868,75.4459533 157.52411,75.5910058 157.692924,75.6505176 C157.861739,75.7100293 158.049479,75.6749591 158.185424,75.5585176 C158.32137,75.442076 158.384868,75.2619533 158.352,75.086 L157.892,72.627 C157.850246,72.3878621 157.642756,72.2132663 157.4,72.213 Z M124.256,72.436 C124.206127,72.4362923 124.156579,72.4440448 124.109,72.459 L121.715,72.811 C121.441619,72.8507645 121.252236,73.1046191 121.292,73.378 C121.331765,73.6513809 121.585619,73.8407645 121.859,73.801 L123.865,73.506 L124.018,74.273 C124.04662,74.4541215 124.172086,74.6050463 124.344932,74.6662694 C124.517779,74.7274925 124.710271,74.6891906 124.846515,74.5664648 C124.982759,74.443739 125.040894,74.2562811 124.998,74.078 L124.754,72.844 C124.709283,72.6050054 124.499121,72.4328251 124.256,72.436 Z M169.68,76.166 C169.372,76.171 169.051,76.186 168.717,76.209 C166.163,76.391 162.822,77.129 158.951,78.319 C158.893817,78.0994008 158.695921,77.9458462 158.469,77.945 C158.318839,77.9449694 158.176614,78.0124279 158.081632,78.1287327 C157.98665,78.2450375 157.948968,78.3978725 157.979,78.545 L158.049,78.918 C158.041071,79.0073132 158.057304,79.0971153 158.096,79.178 L158.436,81.002 C158.468868,81.1777747 158.593015,81.3226621 158.761674,81.3820845 C158.930334,81.4415069 159.117883,81.4064367 159.253674,81.2900845 C159.389465,81.1737323 159.452868,80.9937747 159.42,80.818 L159.137,79.305 C163.011,78.109 166.339,77.382 168.789,77.207 C170.06,77.117 171.099,77.175 171.839,77.365 C172.582,77.555 172.992,77.854 173.176,78.221 C173.335,78.537 173.352,78.949 173.166,79.521 C172.98,80.094 172.585,80.796 171.988,81.581 C170.795,83.148 168.81,85.045 166.203,87.107 C164.598348,88.3649762 162.949648,89.5657288 161.26,90.707 L161.097,89.83 C161.055246,89.5908621 160.847756,89.4162663 160.605,89.416 C160.455267,89.4160904 160.313455,89.4832812 160.218554,89.5990994 C160.123653,89.7149175 160.085652,89.8671709 160.115,90.014 L160.357,91.313 C155.837,94.325 150.392,97.494 144.369,100.52 C139.861,102.784 135.475,104.746 131.408,106.357 L131.263,105.625 C131.219267,105.38596 131.009999,105.212976 130.767,105.215 C130.616813,105.216456 130.475237,105.285347 130.381411,105.402629 C130.287586,105.519911 130.251452,105.673157 130.283,105.82 L130.463,106.72 C128.352,107.538 126.338,108.253 124.443,108.865 L124.163,107.4 C124.121181,107.16049 123.913133,106.98578 123.67,106.986 C123.519584,106.986146 123.377226,107.054 123.282389,107.170752 C123.187552,107.287504 123.150315,107.440747 123.181,107.588 L123.484,109.174 C122.519683,109.476749 121.549494,109.760471 120.574,110.025 C117.363,110.885 114.655,111.345 112.685,111.365 C111.7,111.375 110.9,111.273 110.33,111.08 C109.76,110.888 109.44,110.626 109.281,110.309 C109.071,109.891 109.111,109.281 109.529,108.424 C109.948,107.567 110.733,106.52 111.839,105.359 C113.942,103.154 117.226,100.523 121.312,97.749 L121.451,98.477 C121.47906,98.6573835 121.603198,98.8081368 121.774848,98.8702814 C121.946498,98.932426 122.138373,98.8960831 122.275406,98.7754709 C122.41244,98.6548587 122.472849,98.4691505 122.433,98.291 L122.163,96.869 C122.160962,96.8216689 122.152208,96.7748676 122.137,96.73 C122.077,96.422 122.019,96.115 121.961,95.807 C121.919117,95.5671173 121.710511,95.3922933 121.467,95.393 C121.317014,95.3932693 121.175071,95.4608554 121.080315,95.5771196 C120.98556,95.6933838 120.948002,95.846044 120.978,95.993 L121.108,96.672 C116.81,99.564 113.364,102.309 111.115,104.668 C109.965,105.874 109.123,106.978 108.631,107.984 C108.139,108.991 107.983,109.956 108.387,110.758 C108.692,111.366 109.28,111.781 110.012,112.028 C110.742,112.274 111.638,112.376 112.695,112.365 C114.809,112.343 117.572,111.863 120.832,110.99 C121.742,110.747 122.699,110.464 123.682,110.16 C123.779219,110.395351 124.037784,110.520043 124.282481,110.449581 C124.527178,110.379118 124.679833,110.136012 124.637,109.885 L124.631,109.854 C126.660597,109.198111 128.67108,108.484488 130.66,107.714 L130.765,108.248 C130.79362,108.429121 130.919086,108.580046 131.091932,108.641269 C131.264779,108.702493 131.457271,108.664191 131.593515,108.541465 C131.729759,108.418739 131.787894,108.231281 131.745,108.053 L131.607,107.352 C135.753,105.716 140.221,103.722 144.818,101.412 C150.716,98.45 156.065,95.351 160.554,92.382 L160.572,92.472 C160.597242,92.6544782 160.720779,92.8082952 160.893511,92.8723185 C161.066243,92.9363419 161.260188,92.9001994 161.398265,92.7782555 C161.536342,92.6563115 161.596181,92.4683217 161.554,92.289 L161.459,91.777 C163.435,90.443 165.249,89.137 166.824,87.891 C169.47,85.797 171.503,83.868 172.783,82.186 C173.423,81.345 173.878,80.566 174.117,79.832 C174.356,79.098 174.374,78.38 174.068,77.772 C173.714,77.067 172.994,76.629 172.088,76.397 C171.408,76.222 170.603,76.151 169.679,76.167 L169.68,76.166 Z M125.143,76.902 C124.992772,76.9036911 124.851267,76.9728438 124.757628,77.0903295 C124.663988,77.2078152 124.62814,77.3611797 124.66,77.508 L125.143,79.936 C125.172651,80.1163161 125.298309,80.2660942 125.470727,80.3266342 C125.643145,80.3871742 125.834856,80.348832 125.970727,80.2266342 C126.106597,80.1044365 126.164982,79.9178498 126.123,79.74 L125.641,77.313 C125.59714,77.073209 125.386751,76.8999969 125.143,76.903 L125.143,76.902 Z M118.188,77.996 C118.037839,77.9959694 117.895614,78.0634279 117.800632,78.1797327 C117.70565,78.2960375 117.667968,78.4488725 117.698,78.596 C117.841,79.366 117.996,80.2 118.162,81.082 C118.213362,81.353448 118.475052,81.5318625 118.7465,81.4805 C119.017948,81.4291375 119.196362,81.167448 119.145,80.896 L118.68,78.412 C118.639111,78.1720672 118.431392,77.996435 118.188,77.996 Z M126.268,82.564 C126.117772,82.5656911 125.976267,82.6348438 125.882628,82.7523295 C125.788988,82.8698152 125.75314,83.0231797 125.785,83.17 L126.265,85.596 C126.299655,85.771596 126.425356,85.9153654 126.594754,85.9731515 C126.764152,86.0309376 126.951511,85.9939614 127.086254,85.8761515 C127.220998,85.7583416 127.282655,85.577596 127.248,85.402 L126.766,82.975 C126.72214,82.735209 126.511751,82.5619969 126.268,82.565 L126.268,82.564 Z M159.538,83.68 C159.387664,83.6796686 159.245157,83.7469992 159.149948,83.8633448 C159.054738,83.9796904 159.016932,84.1327008 159.047,84.28 L159.504,86.738 C159.529242,86.9204782 159.652779,87.0742952 159.825511,87.1383185 C159.998243,87.2023419 160.192188,87.1661994 160.330265,87.0442555 C160.468342,86.9223115 160.528181,86.7343217 160.486,86.555 L160.029,84.095 C159.987678,83.8554646 159.780073,83.6803511 159.537,83.68 L159.538,83.68 Z M119.275,83.795 C119.124839,83.7949694 118.982614,83.8624279 118.887632,83.9787327 C118.79265,84.0950375 118.754968,84.2478725 118.785,84.395 L119.254,86.881 C119.28206,87.0613835 119.406198,87.2121368 119.577848,87.2742814 C119.749498,87.336426 119.941373,87.3000831 120.078406,87.1794709 C120.21544,87.0588587 120.275849,86.8731505 120.236,86.695 L119.768,84.209 C119.726181,83.9694901 119.518133,83.7947805 119.275,83.795 Z M127.393,88.227 C127.242637,88.2281571 127.10078,88.2969224 127.006728,88.4142446 C126.912676,88.5315669 126.876418,88.684987 126.908,88.832 L127.391,91.258 C127.41962,91.4391215 127.545086,91.5900463 127.717932,91.6512694 C127.890779,91.7124925 128.083271,91.6741906 128.219515,91.5514648 C128.355759,91.428739 128.413894,91.2412811 128.371,91.063 L127.891,88.637 C127.84714,88.397209 127.636751,88.2239969 127.393,88.227 Z M120.369,89.594 C120.219189,89.5945685 120.077527,89.6622817 119.982998,89.7785054 C119.88847,89.8947291 119.851037,90.0472151 119.881,90.194 L120.351,92.68 C120.402362,92.951448 120.664052,93.1298625 120.9355,93.0785 C121.206948,93.0271375 121.385362,92.765448 121.334,92.494 L120.864,90.008 C120.822054,89.7677435 120.612888,89.5928047 120.369,89.594 Z M128.518,93.891 C128.36807,93.8922811 128.226629,93.9607774 128.132659,94.077611 C128.038688,94.1944445 128.002108,94.3472818 128.033,94.494 L128.516,96.922 C128.54462,97.1031215 128.670086,97.2540463 128.842932,97.3152694 C129.015779,97.3764925 129.208271,97.3381906 129.344515,97.2154648 C129.480759,97.092739 129.538894,96.9052811 129.496,96.727 L129.016,94.299 C128.971283,94.0600054 128.761121,93.8878251 128.518,93.891 Z M161.674,95.151 C161.52448,95.1511497 161.382874,95.2182065 161.288013,95.3337819 C161.193152,95.4493573 161.154993,95.6013206 161.184,95.748 L161.641,98.207 C161.667101,98.3888611 161.790838,98.5417581 161.96326,98.6052051 C162.135681,98.6686521 162.32901,98.6324276 162.466765,98.5108619 C162.60452,98.3892962 162.664509,98.2019741 162.623,98.023 L162.166,95.566 C162.125111,95.3260672 161.917392,95.150435 161.674,95.15 L161.674,95.151 Z M129.643,99.553 C129.49307,99.5542811 129.351629,99.6227774 129.257659,99.739611 C129.163688,99.8564445 129.127108,100.009282 129.158,100.156 L129.641,102.584 C129.66962,102.765121 129.795086,102.916046 129.967932,102.977269 C130.140779,103.038493 130.333271,103.000191 130.469515,102.877465 C130.605759,102.754739 130.663894,102.567281 130.621,102.389 L130.141,99.961 C130.096283,99.7220054 129.886121,99.5498251 129.643,99.553 Z M162.743,100.885 C162.592955,100.88425 162.450505,100.950923 162.354964,101.06662 C162.259422,101.182317 162.220889,101.334804 162.25,101.482 L162.709,103.939 C162.732673,104.122561 162.855808,104.27803 163.029069,104.343114 C163.202329,104.408198 163.397369,104.372248 163.53604,104.24967 C163.674711,104.127092 163.734327,103.937939 163.691,103.758 L163.234,101.301 C163.193111,101.061067 162.985392,100.885435 162.742,100.885 L162.743,100.885 Z M122.568,101.189 C122.418189,101.189568 122.276527,101.257282 122.181998,101.373505 C122.08747,101.489729 122.050037,101.642215 122.08,101.789 C122.24,102.627 122.396,103.457 122.55,104.273 C122.583047,104.448596 122.707263,104.593223 122.875857,104.652402 C123.044452,104.71158 123.23181,104.676319 123.367357,104.559902 C123.502904,104.443484 123.566047,104.263596 123.533,104.088 L123.063,101.604 C123.021487,101.363346 122.812206,101.187888 122.568,101.189 Z M163.808,106.617 C163.657839,106.616969 163.515614,106.684428 163.420632,106.800733 C163.32565,106.917037 163.287968,107.069873 163.318,107.217 L163.778,109.674 C163.802436,109.857041 163.925772,110.011711 164.098782,110.076278 C164.271792,110.140844 164.466304,110.104794 164.604685,109.982516 C164.743065,109.860237 164.802782,109.671641 164.76,109.492 L164.3,107.033 C164.259175,106.793438 164.052013,106.617921 163.809,106.617 L163.808,106.617 Z M131.893,110.877 C131.742637,110.878157 131.60078,110.946922 131.506728,111.064245 C131.412676,111.181567 131.376418,111.334987 131.408,111.482 L131.891,113.908 C131.91962,114.089121 132.045086,114.240046 132.217932,114.301269 C132.390779,114.362493 132.583271,114.324191 132.719515,114.201465 C132.855759,114.078739 132.913894,113.891281 132.871,113.713 L132.389,111.287 C132.345267,111.04796 132.135999,110.874976 131.893,110.877 Z M164.879,112.352 C164.72913,112.35155 164.586962,112.418352 164.491647,112.534008 C164.396333,112.649664 164.357924,112.801977 164.387,112.949 L164.523,113.686 L163.787,113.803 C163.603033,113.822495 163.444864,113.941975 163.375819,114.113606 C163.306774,114.285236 163.338138,114.480963 163.457354,114.622426 C163.57657,114.763888 163.764152,114.827964 163.945,114.789 L165.187,114.592 C165.320725,114.571301 165.44035,114.497284 165.518555,114.386855 C165.59676,114.276425 165.626867,114.139013 165.602,114.006 L165.372,112.768 C165.331047,112.527695 165.12277,112.351948 164.879,112.352 Z M124.773,112.785 C124.623189,112.785568 124.481527,112.853282 124.386998,112.969505 C124.29247,113.085729 124.255037,113.238215 124.285,113.385 L124.758,115.871 C124.815748,116.135739 125.073865,116.306302 125.340046,116.255614 C125.606227,116.204925 125.783593,115.951434 125.74,115.684 L125.268,113.197 C125.225191,112.957539 125.016254,112.783636 124.773,112.785 Z M160.695,114.303 C160.666825,114.303295 160.638725,114.305971 160.611,114.311 L158.231,114.69 C158.054511,114.718224 157.906485,114.83846 157.842683,115.005416 C157.778881,115.172372 157.808996,115.360684 157.921683,115.499416 C158.034371,115.638148 158.212511,115.706224 158.389,115.678 L160.769,115.298 C161.0295,115.260928 161.216693,115.028304 161.197178,114.765904 C161.177663,114.503504 160.958118,114.301129 160.695,114.303 Z M155.141,115.189 C155.112156,115.189181 155.083382,115.191858 155.055,115.197 L152.675,115.578 C152.495253,115.602646 152.342961,115.722728 152.277067,115.891767 C152.211173,116.060807 152.242017,116.252278 152.357663,116.392073 C152.473308,116.531867 152.655606,116.598048 152.834,116.565 L155.213,116.185 C155.473085,116.147948 155.660138,115.915937 155.641178,115.653911 C155.622217,115.391885 155.40371,115.189221 155.141,115.19 L155.141,115.189 Z M149.586,116.076 C149.557156,116.076181 149.528382,116.078858 149.5,116.084 L147.12,116.465 C146.935615,116.483818 146.776767,116.603087 146.707258,116.774902 C146.637749,116.946717 146.668985,117.142885 146.788419,117.284615 C146.907854,117.426345 147.095889,117.49038 147.277,117.451 L149.658,117.072 C149.921783,117.038827 150.113479,116.805026 150.09431,116.539857 C150.075141,116.274688 149.851812,116.070889 149.586,116.076 Z M133.018,116.543 C132.86807,116.544281 132.726629,116.612777 132.632659,116.729611 C132.538688,116.846444 132.502108,116.999282 132.533,117.146 L132.779,118.383 C132.80762,118.564121 132.933086,118.715046 133.105932,118.776269 C133.278779,118.837493 133.471271,118.799191 133.607515,118.676465 C133.743759,118.553739 133.801894,118.366281 133.759,118.188 L133.514,116.953 C133.470267,116.71396 133.260999,116.540976 133.018,116.543 Z M144.029,116.965 C144.000881,116.964634 143.972781,116.966641 143.945,116.971 L141.565,117.351 C141.444345,117.370801 141.335127,117.434126 141.258,117.529 C141.173258,117.472024 141.073102,117.442362 140.971,117.444 C140.696029,117.448386 140.476215,117.674008 140.479,117.949 L140.479,119.211 C140.479,119.487142 140.702858,119.711 140.979,119.711 C141.255142,119.711 141.479,119.487142 141.479,119.211 L141.479,118.319 C141.557335,118.346118 141.641183,118.353335 141.723,118.34 L144.102,117.96 C144.362289,117.922935 144.549408,117.690619 144.53017,117.428409 C144.510933,117.166199 144.291912,116.96368 144.029,116.965 Z M138.473,117.852 C138.444825,117.852295 138.416725,117.854971 138.389,117.86 L136.009,118.238 C135.832332,118.266045 135.684046,118.386211 135.62,118.553233 C135.555955,118.720255 135.585879,118.908757 135.6985,119.047733 C135.811122,119.186709 135.989332,119.255045 136.166,119.227 L138.546,118.846 C138.803235,118.805844 138.986608,118.575013 138.967539,118.315361 C138.94847,118.05571 138.733342,117.854144 138.473,117.852 Z M125.877,118.586 C125.727189,118.586568 125.585527,118.654282 125.490998,118.770505 C125.39647,118.886729 125.359037,119.039215 125.389,119.186 C125.539,119.98 125.625,120.42 125.625,120.42 C125.676596,120.683761 125.927471,120.859551 126.193,120.818 L127.438,120.621 C127.710829,120.577093 127.896407,120.320329 127.8525,120.0475 C127.808593,119.774671 127.551829,119.589093 127.279,119.633 L126.516,119.756 C126.477,119.556 126.463,119.487 126.371,119 C126.329117,118.760117 126.120511,118.585293 125.877,118.586 Z M132.918,118.738 C132.889825,118.738295 132.861725,118.740971 132.834,118.746 L131.035,119.033 C131.028334,119.032867 131.021666,119.032867 131.015,119.033 C130.962408,119.034834 130.910435,119.044958 130.861,119.063 L130.453,119.127 C130.18974,119.160275 129.998325,119.393406 130.016929,119.658107 C130.035532,119.922809 130.257674,120.126875 130.523,120.123 L130.523,120.801 C130.523,121.077142 130.746858,121.301 131.023,121.301 C131.299142,121.301 131.523,121.077142 131.523,120.801 L131.523,119.969 L132.993,119.735 C133.264206,119.709372 133.464987,119.471357 133.444553,119.199711 C133.424118,118.928064 133.189988,118.722766 132.918,118.738 Z M140.971,121.318 C140.838386,121.320105 140.712042,121.374813 140.619771,121.470085 C140.527499,121.565357 140.476861,121.693387 140.479,121.826 L140.479,123.787 C140.479,124.063142 140.702858,124.287 140.979,124.287 C141.255142,124.287 141.479,124.063142 141.479,123.787 L141.479,121.827 C141.481458,121.69144 141.42876,121.560694 141.332983,121.464729 C141.237206,121.368764 141.106564,121.315808 140.971,121.318 Z M131.016,122.33 C130.883212,122.331842 130.756611,122.386435 130.664124,122.481736 C130.571637,122.577037 130.520862,122.705216 130.523,122.838 L130.523,124.365 C130.523,124.641142 130.746858,124.865 131.023,124.865 C131.299142,124.865 131.523,124.641142 131.523,124.365 L131.523,122.838 C131.525177,122.702788 131.472494,122.572461 131.376966,122.476745 C131.281439,122.38103 131.151216,122.328089 131.016,122.33 Z M135.973,123.102 C135.860891,123.104177 135.752768,123.143975 135.666,123.215 L134.691,124.014 C134.54411,124.124265 134.4695,124.306189 134.496671,124.487839 C134.523842,124.669489 134.648419,124.821619 134.821145,124.884076 C134.99387,124.946534 135.186935,124.909263 135.324,124.787 L135.982,124.248 L136.642,124.783 C136.779641,124.903279 136.971946,124.938863 137.143513,124.8758 C137.315079,124.812736 137.438559,124.661077 137.465535,124.480289 C137.492511,124.299501 137.418683,124.118401 137.273,124.008 L136.297,123.215 C136.205711,123.140293 136.090948,123.100268 135.973,123.102 Z M131.016,125.896 C130.740242,125.899841 130.519664,126.126235 130.523,126.402 L130.523,127.662 C130.522871,127.855344 130.634224,128.031435 130.808957,128.114202 C130.983689,128.19697 131.190481,128.17158 131.34,128.049 L132.314,127.25 C132.463652,127.140853 132.540702,126.957917 132.514237,126.774591 C132.487773,126.591265 132.362129,126.43759 132.187718,126.375224 C132.013307,126.312859 131.818708,126.352021 131.682,126.477 L131.523,126.605 L131.523,126.402 C131.524632,126.267133 131.471707,126.137327 131.376241,126.042048 C131.280774,125.94677 131.150864,125.894102 131.016,125.896 Z M140.971,125.896 C140.695634,125.900386 140.47566,126.12662 140.479,126.402 L140.479,126.612 L140.314,126.479 C140.176193,126.357352 139.98275,126.321129 139.810265,126.384672 C139.637779,126.448215 139.514069,126.601277 139.488116,126.783254 C139.462164,126.96523 139.538154,127.146773 139.686,127.256 L140.662,128.049 C140.811799,128.171813 141.019056,128.197052 141.193951,128.113778 C141.368846,128.030505 141.479906,127.853705 141.479,127.66 L141.479,126.402 C141.480638,126.266957 141.427577,126.136994 141.331892,126.041685 C141.236207,125.946377 141.106036,125.893829 140.971,125.896 Z"></path>
            <path d="M198.658,32.55 C197.501,32.593 196.703,32.795 196.703,32.795 C196.567971,32.8279604 196.452756,32.9156399 196.385,33.037 L195.825,34.043 C191.762,34.813 188.235,37.322 186.223,40.943 C184.739,43.601 184.205,46.671 184.633,49.68 L184.233,50.4 C184.183532,50.4874865 184.161578,50.5878501 184.17,50.688 C184.17,50.688 184.216,51.215 184.361,51.885 C184.506,52.555 184.741,53.378 185.189,54.039 C185.253234,54.1333268 185.347803,54.2028419 185.457,54.236 L186.215,54.469 C187.008566,55.9126803 188.052085,57.2040434 189.297,58.283 C189.319192,58.3167018 189.345383,58.3475932 189.375,58.375 L189.389,58.387 C189.397,58.393 189.389,58.385 189.397,58.391 C189.467,58.451 189.527,58.491 189.547,58.508 C189.79,58.71 190.039,58.901 190.293,59.084 C190.293665,59.0846686 190.294331,59.0853352 190.295,59.086 C190.377,59.144 190.467,59.21 190.569,59.279 C190.908,59.512 191.263,59.736 191.637,59.943 C191.636999,59.9436667 191.636999,59.9443333 191.637,59.945 C191.931,60.108 192.229,60.255 192.527,60.395 C192.528663,60.3956756 192.53033,60.3963423 192.532,60.397 L192.727,60.487 C192.728332,60.4873388 192.729665,60.4876722 192.731,60.488 C193.025,60.62 193.323,60.744 193.625,60.856 C193.627661,60.8566886 193.630328,60.8573553 193.633,60.858 L193.743,60.895 C193.744996,60.8956793 193.746996,60.896346 193.749,60.897 C194.024,60.996 194.301,61.084 194.581,61.164 C194.581667,61.1640013 194.582333,61.1640013 194.583,61.164 C194.631,61.178 194.693,61.197 194.768,61.217 C195.072,61.3 195.379,61.373 195.688,61.434 L195.848,61.465 C195.853987,61.4657753 195.859988,61.4664421 195.866,61.467 C196.144,61.519 196.421,61.564 196.7,61.6 C196.701333,61.6000053 196.702667,61.6000053 196.704,61.6 L196.844,61.618 C196.846333,61.6180163 196.848667,61.6180163 196.851,61.618 C197.161,61.653 197.472,61.676 197.782,61.69 C197.783333,61.6900053 197.784667,61.6900053 197.786,61.69 L197.98,61.698 C198.277,61.708 198.578,61.709 198.88,61.7 L198.913,61.7 C198.918333,61.7000853 198.923667,61.7000853 198.929,61.7 C199.249,61.689 199.566,61.663 199.872,61.631 C199.874004,61.630346 199.876004,61.6296793 199.878,61.629 L200.068,61.608 C200.407456,61.5687917 200.745352,61.51709 201.081,61.453 L201.064,61.455 C201.414,61.388 201.761,61.309 202.104,61.215 C202.105,61.215003 202.106,61.215003 202.107,61.215 C202.406677,61.133375 202.703513,61.0416561 202.997,60.94 C202.999672,60.9393553 203.002339,60.9386886 203.005,60.938 L203.13,60.891 C203.398,60.794 203.666,60.691 203.933,60.576 L204.05,60.526 C204.051336,60.5253393 204.05267,60.5246726 204.054,60.524 C204.34,60.398 204.625,60.262 204.906,60.116 C204.908004,60.115346 204.910004,60.1146793 204.912,60.114 L205.052,60.037 L205.055,60.035 C205.319,59.893 205.582,59.742 205.842,59.58 L205.848,59.576 L205.878,59.559 C205.881357,59.5570389 205.88469,59.5550388 205.888,59.553 C206.21,59.349 206.522,59.133 206.826,58.904 C207.003,58.772 207.176,58.626 207.35,58.483 L208.406,58.871 C208.574822,58.9327876 208.763818,58.8991882 208.901,58.783 C211.028,56.986 212.031,54.445 212.031,54.445 C212.093669,54.2886167 212.07337,54.1111882 211.977,53.973 L211.342,53.065 C211.376,52.981 211.412,52.897 211.444,52.815 L211.452,52.797 L211.485,52.721 C211.487785,52.7150531 211.490452,52.709052 211.493,52.703 C211.573,52.493 211.646,52.279 211.715,52.065 C211.768,51.905 211.817,51.747 211.862,51.59 L211.907,51.43 C211.907701,51.4266736 211.908367,51.42334 211.909,51.42 C211.95,51.265 211.989,51.115 212.026,50.963 C212.026005,50.9616667 212.026005,50.9603333 212.026,50.959 C212.036,50.914 212.053,50.852 212.069,50.776 L212.071,50.768 C212.104,50.616 212.132,50.469 212.161,50.33 C212.162483,50.3230293 212.163816,50.3160277 212.165,50.309 C212.172,50.263 212.185,50.202 212.198,50.127 L212.198,50.123 C212.224,49.977 212.248,49.831 212.268,49.683 L212.268,49.68 C212.311,49.395 212.342,49.108 212.362,48.82 C212.372,48.677 212.382,48.53 212.389,48.38 C212.389008,48.3783333 212.389008,48.3766667 212.389,48.375 L212.397,48.175 C212.402,48.029 212.405,47.881 212.405,47.733 C212.405,47.655 212.402,47.587 212.401,47.526 L212.401,47.524 C212.399689,47.3779503 212.396022,47.2319313 212.39,47.086 C212.390021,47.0833334 212.390021,47.0806666 212.39,47.078 C212.385,47.002 212.38,46.943 212.378,46.897 C212.378065,46.8923336 212.378065,46.8876664 212.378,46.883 C212.369813,46.735857 212.359478,46.5888414 212.347,46.442 C212.346382,46.437992 212.345715,46.4339917 212.345,46.43 L212.325,46.246 C212.324355,46.2433279 212.323689,46.2406611 212.323,46.238 C212.306,46.1 212.291,45.951 212.269,45.793 C212.239,45.581 212.203,45.369 212.165,45.158 C212.164409,45.1529902 212.163742,45.1479896 212.163,45.143 L212.142,45.045 C212.141339,45.0436637 212.140673,45.0423303 212.14,45.041 C212.028,44.473 211.88,43.911 211.7,43.361 C211.700001,43.3603333 211.700001,43.3596667 211.7,43.359 L211.698,43.357 C211.694671,43.3421584 211.690667,43.3274765 211.686,43.313 C211.64,43.173 211.59,43.043 211.544,42.918 C211.544001,42.9173333 211.544001,42.9166667 211.544,42.916 C211.522,42.858 211.497,42.783 211.464,42.697 C211.464001,42.6963333 211.464001,42.6956667 211.464,42.695 C211.418,42.579 211.37,42.465 211.321,42.352 L211.319,42.346 C211.288,42.269 211.254,42.185 211.214,42.094 C211.214001,42.0933333 211.214001,42.0926667 211.214,42.092 C211.164,41.982 211.114,41.88 211.067,41.783 L211.061,41.769 C211.021,41.679 210.978,41.59 210.934,41.502 L210.934,41.5 C210.882,41.395 210.828,41.296 210.776,41.197 C210.727507,41.1055471 210.678171,41.0145432 210.628,40.924 C210.628001,40.9233333 210.628001,40.9226667 210.628,40.922 C210.521,40.732 210.41,40.543 210.296,40.357 C210.294674,40.3556591 210.293341,40.3543258 210.292,40.353 L210.122,40.086 C210.120039,40.0826435 210.118039,40.0793099 210.116,40.076 C210.055815,39.985223 209.994476,39.8952157 209.932,39.806 L209.928,39.801 C209.868762,39.7140012 209.808087,39.6279894 209.746,39.543 L209.742,39.537 C209.678054,39.4470719 209.612375,39.3583886 209.545,39.271 L209.541,39.265 C209.41,39.091 209.271,38.919 209.129,38.752 L209.125,38.746 C208.915,38.494 208.696,38.251 208.467,38.017 C208.467001,38.0163333 208.467001,38.0156667 208.467,38.015 C208.312705,37.8582774 208.15602,37.703926 207.997,37.552 C207.994017,37.5503025 207.991017,37.5486357 207.988,37.547 C207.897,37.463 207.806,37.381 207.718,37.302 C207.714714,37.2986197 207.71138,37.295286 207.708,37.292 C207.646,37.24 207.573,37.172 207.486,37.099 L207.484,37.099 C207.387682,37.017368 207.290001,36.9373568 207.191,36.859 L207.185,36.855 C207.115,36.798 207.038,36.735 206.953,36.672 L206.961,36.675 C206.85394,36.5917449 206.744909,36.5110553 206.634,36.433 L206.624,36.427 C206.557,36.377 206.486,36.324 206.408,36.269 C206.407333,36.2689987 206.406667,36.2689987 206.406,36.269 C206.280575,36.1819945 206.153553,36.0973134 206.025,36.015 L206.021,36.011 L205.837,35.892 C205.833681,35.8906308 205.830348,35.8892974 205.827,35.888 C205.315877,35.5674139 204.783284,35.2824064 204.233,35.035 L204.132,34.988 L204.128,34.986 L204.073,34.956 C204.036984,34.938872 203.999047,34.9261147 203.96,34.918 C203.75,34.827 203.537,34.743 203.323,34.662 L203.058,33.599 C203.020769,33.4495436 202.916735,33.325587 202.776,33.263 C201.334,32.623 199.816,32.508 198.659,32.55 L198.658,32.55 Z M198.723,33.559 C199.71,33.526 200.972,33.645 202.154,34.117 L202.397,35.086 C202.41823,35.2747103 202.544532,35.435105 202.723,35.5 C203.033,35.612 203.346,35.737 203.654,35.873 C203.663892,35.8766488 203.673897,35.8799838 203.684,35.883 C203.692242,35.8865572 203.700578,35.8898917 203.709,35.893 C203.713636,35.895071 203.718303,35.8970712 203.723,35.899 C203.723,35.899 203.757,35.918 203.823,35.947 C204.331,36.177 204.823,36.44 205.295,36.737 L205.475,36.854 C205.47633,36.8546726 205.477664,36.8553393 205.479,36.856 C205.599,36.932 205.717,37.011 205.834,37.092 C205.898,37.137 205.964,37.187 206.037,37.24 C206.04031,37.2420388 206.043643,37.2440389 206.047,37.246 C206.147,37.317 206.245,37.389 206.342,37.465 C206.344647,37.4670266 206.347313,37.4690267 206.35,37.471 C206.414,37.519 206.483,37.576 206.56,37.637 C206.561658,37.638344 206.563325,37.6396774 206.565,37.641 C206.658,37.714 206.749,37.788 206.839,37.864 C206.839665,37.8646686 206.840331,37.8653352 206.841,37.866 C206.901,37.916 206.972,37.982 207.057,38.055 C207.144,38.132 207.228,38.209 207.307,38.282 C207.457,38.425 207.605,38.572 207.751,38.719 C207.961,38.934 208.164,39.159 208.356,39.391 C208.357326,39.3923409 208.358659,39.3936742 208.36,39.395 C208.492,39.55 208.62,39.709 208.743,39.871 C208.744319,39.8730096 208.745652,39.8750096 208.747,39.877 C208.809,39.957 208.87,40.04 208.929,40.123 C208.930983,40.1250169 208.932983,40.127017 208.935,40.129 C208.993,40.209 209.049,40.289 209.105,40.369 C209.106309,40.3716785 209.107643,40.3743453 209.109,40.377 C209.166,40.458 209.222,40.541 209.282,40.631 L209.446,40.889 C209.553,41.061 209.656,41.236 209.756,41.412 C209.8,41.493 209.844,41.58 209.892,41.668 C209.943,41.765 209.992,41.856 210.038,41.95 C210.078,42.029 210.115,42.109 210.152,42.19 C210.1546,42.1943738 210.157267,42.1987076 210.16,42.203 C210.21,42.307 210.255,42.407 210.298,42.503 C210.328,42.571 210.36,42.649 210.396,42.735 C210.396654,42.7370042 210.397321,42.7390042 210.398,42.741 C210.444,42.849 210.489,42.955 210.531,43.061 L210.605,43.266 C210.652,43.394 210.697,43.515 210.735,43.631 L210.75,43.676 C210.917,44.186 211.054,44.708 211.158,45.235 C211.168,45.288 211.178,45.328 211.183,45.354 C211.218,45.547 211.249,45.742 211.277,45.936 C211.296,46.068 211.311,46.21 211.33,46.362 L211.349,46.537 C211.36,46.671 211.369,46.806 211.376,46.94 C211.379,47.02 211.386,47.087 211.39,47.14 L211.388,47.131 C211.394,47.266 211.398,47.402 211.4,47.538 C211.399999,47.5386667 211.399999,47.5393333 211.4,47.54 C211.4,47.611 211.404,47.675 211.404,47.733 C211.404,47.867 211.401,48.003 211.396,48.141 L211.388,48.341 C211.382,48.471 211.372,48.611 211.362,48.752 C211.344485,49.0143506 211.316462,49.2758938 211.278,49.536 C211.276656,49.5376581 211.275323,49.5393248 211.274,49.541 C211.255,49.679 211.234,49.816 211.21,49.954 C211.209995,49.9553333 211.209995,49.9566667 211.21,49.958 C211.2,50.01 211.187,50.074 211.175,50.153 C211.145,50.294 211.119,50.431 211.091,50.561 C211.090979,50.5636666 211.090979,50.5663334 211.091,50.569 C211.084,50.605 211.067,50.659 211.05,50.731 C211.015,50.877 210.979,51.021 210.94,51.165 L210.897,51.315 C210.854,51.465 210.811,51.613 210.765,51.752 C210.763659,51.7533258 210.762326,51.7546591 210.761,51.756 C210.696,51.956 210.628,52.153 210.553,52.348 L210.52,52.424 C210.517886,52.4299615 210.515886,52.4359626 210.514,52.442 C210.45,52.61 210.384,52.772 210.314,52.932 C210.248822,53.0797495 210.259015,53.2498819 210.341369,53.3887919 C210.423723,53.5277019 210.568096,53.6182849 210.729,53.632 L210.514,53.632 L210.983,54.299 C210.845,54.62 210.016,56.364 208.424,57.813 L207.426,57.448 C207.254837,57.3855922 207.063277,57.4212224 206.926,57.541 C206.702,57.737 206.466,57.922 206.223,58.104 C206.222333,58.1039987 206.221667,58.1039987 206.221,58.104 C205.939,58.317 205.649,58.518 205.351,58.707 L205.321,58.725 C205.31899,58.7263189 205.31699,58.7276523 205.315,58.729 C205.075,58.879 204.828,59.021 204.575,59.157 L204.432,59.235 C204.175,59.369 203.914,59.493 203.649,59.61 L203.538,59.657 C203.291,59.762 203.038,59.86 202.786,59.952 L202.659,59.998 L202.665,59.995 C202.080364,60.1980067 201.4818,60.3584259 200.874,60.475 C200.867988,60.4755579 200.861987,60.4762247 200.856,60.477 C200.831,60.483 200.825,60.484 200.835,60.483 C200.826969,60.4841385 200.818966,60.4854722 200.811,60.487 C200.53,60.539 200.241,60.582 199.95,60.616 L199.76,60.637 L199.766,60.635 C199.477,60.665 199.191,60.69 198.911,60.7 L198.878,60.7 C198.871988,60.7005579 198.865987,60.7012247 198.86,60.702 C198.583,60.712 198.298,60.707 198.012,60.698 L197.819,60.69 L197.823,60.692 C197.53663,60.6792997 197.25079,60.6566193 196.966,60.624 L196.962,60.624 L196.829,60.608 L196.825,60.608 C196.571299,60.574829 196.318541,60.5348144 196.067,60.488 C195.981,60.47 195.92,60.461 195.887,60.454 C195.884333,60.4539787 195.881667,60.4539787 195.879,60.454 C195.594317,60.3973196 195.311796,60.3302751 195.032,60.253 C195.030004,60.2523207 195.028004,60.251654 195.026,60.251 C194.981,60.239 194.924,60.221 194.854,60.201 L194.856,60.204 C194.598,60.13 194.345,60.048 194.094,59.958 L194.088,59.956 C194.03,59.934 193.991,59.923 193.971,59.916 L193.963,59.915 C193.881,59.885 193.799,59.845 193.717,59.813 C193.741,59.428 193.936,59.068 194.297,58.773 C194.689,58.455 195.262,58.236 195.91,58.225 C197.208,58.204 198.154,58.995 198.168,59.838 C198.171037,60.0166328 198.269142,60.1800762 198.425361,60.2667627 C198.58158,60.3534492 198.772179,60.350209 198.925361,60.2582627 C199.078543,60.1663164 199.171037,59.9996328 199.168,59.821 C199.142,58.291 197.615,57.197 195.893,57.225 C195.033,57.239 194.248,57.524 193.664,57.999 C193.217615,58.3522475 192.901644,58.8441489 192.766,59.397 C192.548154,59.2933563 192.333079,59.183985 192.121,59.069 L192.121,59.071 C191.78,58.881 191.451,58.673 191.131,58.454 C191.130335,58.4533314 191.129669,58.4526648 191.129,58.452 C191.051,58.399 190.971,58.338 190.879,58.272 L190.877,58.272 C190.638416,58.1012636 190.405937,57.9221519 190.18,57.735 C190.177353,57.7329734 190.174687,57.7309733 190.172,57.729 C190.14587,57.7073278 190.119194,57.686321 190.092,57.666 L190.089,57.664 C190.076571,57.6523426 190.063554,57.6413282 190.05,57.631 C188.788746,56.5653148 187.74325,55.2679486 186.97,53.809 C186.907931,53.6917515 186.801809,53.6039766 186.675,53.565 L185.968,53.346 C185.688,52.882 185.461,52.236 185.339,51.674 C185.225,51.144 185.199,50.834 185.189,50.737 L185.562,50.071 C185.616778,49.9728052 185.636859,49.859013 185.619,49.748 C185.164,46.888 185.683,43.958 187.095,41.43 C187.095667,41.4300013 187.096333,41.4300013 187.097,41.43 C189.006883,37.9930709 192.375237,35.6103877 196.252,34.954 C196.436196,34.922609 196.587519,34.7911328 196.64433,34.6131265 C196.70114,34.4351203 196.653957,34.2402911 196.522,34.108 L196.787,34.373 L197.137,33.745 C197.276,33.715 197.79,33.59 198.722,33.559 L198.723,33.559 Z M198.223,35.215 C198.028628,35.211122 197.84963,35.3202634 197.764062,35.4948306 C197.678494,35.6693978 197.701871,35.8777381 197.824,36.029 C198.548709,36.9448909 199.875798,37.106372 200.799,36.391 C200.939584,36.2807836 201.010689,36.1039387 200.985531,35.9270811 C200.960373,35.7502236 200.842773,35.6002222 200.677031,35.5335811 C200.511289,35.46694 200.322584,35.4937835 200.182,35.604 C199.69,35.988 198.996,35.903 198.612,35.412 C198.519088,35.2900014 198.375331,35.2173856 198.222,35.215 L198.223,35.215 Z M190.828,40.334 C190.708,40.34 190.588,40.358 190.471,40.387 C190.004,40.502 189.546,40.772 189.148,41.17 C188.751,41.567 188.48,42.026 188.365,42.492 C188.25,42.959 188.298,43.487 188.66,43.852 C188.660665,43.8526686 188.661331,43.8533352 188.662,43.854 C189.026,44.216 189.555,44.265 190.022,44.15 C190.488,44.036 190.946,43.765 191.344,43.367 C191.344001,43.3663333 191.344001,43.3656667 191.344,43.365 C191.404853,43.3048913 191.449269,43.2301766 191.473,43.148 C191.77,42.801 192.031,42.433 192.127,42.043 C192.242,41.576 192.192,41.047 191.83,40.683 C191.558,40.412 191.19,40.316 190.828,40.334 Z M204.561,40.846 C204.159099,40.8223831 203.757965,40.9037125 203.397,41.082 C202.689,41.43 202.133,42.066 201.76,42.791 C201.387,43.516 201.194,44.339 201.322,45.117 C201.451,45.895 201.973,46.626 202.865,46.93 C203.035471,46.993487 203.226973,46.9593806 203.365043,46.8409424 C203.503114,46.7225042 203.565966,46.5384235 203.529161,46.3602763 C203.492356,46.182129 203.361701,46.0380265 203.188,45.984 C202.611,45.788 202.39,45.447 202.308,44.955 C202.228,44.463 202.356,43.816 202.648,43.248 C202.941,42.68 203.39,42.198 203.838,41.978 C204.286,41.758 204.692,41.741 205.188,42.096 C205.333083,42.2037545 205.525022,42.2248326 205.690032,42.1511316 C205.855042,42.0774306 205.967439,41.9204224 205.984016,41.7404631 C206.000593,41.5605039 205.918769,41.385605 205.77,41.283 C205.416289,41.0254969 204.996622,40.8739312 204.56,40.846 L204.561,40.846 Z M190.991,41.334 C191.039259,41.3388185 191.08476,41.3587689 191.121,41.391 C191.169,41.439 191.217,41.557 191.156,41.805 C191.096,42.053 190.919,42.376 190.636,42.658 C190.635999,42.6586667 190.635999,42.6593333 190.636,42.66 C190.634998,42.6606631 190.633998,42.6613297 190.633,42.662 C190.351,42.942 190.03,43.119 189.783,43.18 C189.537,43.24 189.418,43.193 189.369,43.145 C189.322,43.096 189.275,42.978 189.336,42.731 C189.397,42.482 189.574,42.159 189.856,41.877 C190.138,41.595 190.461,41.419 190.709,41.357 C190.800309,41.3312969 190.895726,41.3234869 190.99,41.334 L190.991,41.334 Z M206.557,42.883 C206.406839,42.8829694 206.264614,42.9504279 206.169632,43.0667327 C206.07465,43.1830375 206.036968,43.3358725 206.067,43.483 C206.235158,44.3875811 205.824756,45.3016221 205.037,45.777 C204.88409,45.8698891 204.792352,46.0372984 204.796341,46.2161666 C204.800331,46.3950348 204.899442,46.5581875 205.056341,46.6441666 C205.21324,46.7301457 205.40409,46.7258891 205.557,46.633 C206.698644,45.9395238 207.29256,44.6123697 207.049,43.299 C207.008111,43.0590672 206.800392,42.883435 206.557,42.883 Z M196.535,45.129 C195.595027,45.1553897 194.701551,45.543733 194.041,46.213 C193.911022,46.3385372 193.858894,46.5244389 193.904651,46.6992537 C193.950409,46.8740684 194.086932,47.0105909 194.261746,47.0563486 C194.436561,47.1021063 194.622463,47.0499783 194.748,46.92 C195.613,46.054 196.745,45.943 197.689,46.334 C198.634,46.725 199.356,47.603 199.356,48.826 C199.356,50.05 198.634,50.929 197.689,51.32 C196.745,51.712 195.613,51.6 194.749,50.734 C194.624964,50.5986751 194.436748,50.5421999 194.2587,50.5868833 C194.080651,50.6315667 193.941406,50.7702226 193.895967,50.9480793 C193.850528,51.1259361 193.906203,51.3143907 194.041,51.439 C195.09466,52.5044782 196.689923,52.8230559 198.072,52.244 C199.459144,51.6770732 200.362965,50.3245079 200.356,48.826 C200.356,47.2 199.354,45.941 198.072,45.41 C197.585097,45.2093962 197.061385,45.1136493 196.535,45.129 Z M208.826,45.682 C208.781104,45.6816697 208.736369,45.6873878 208.693,45.699 C208.326,45.797 208.071,46.093 207.951,46.409 C207.831,46.723 207.823,47.077 207.918,47.429 L207.916,47.429 C208.01,47.782 208.196,48.083 208.456,48.297 C208.715,48.511 209.084,48.643 209.453,48.543 C209.627236,48.4978291 209.763747,48.3624928 209.810421,48.1886529 C209.857095,48.014813 209.806728,47.8293025 209.678547,47.7029361 C209.550367,47.5765698 209.364157,47.5288527 209.191,47.578 C209.191,47.578 209.166,47.587 209.091,47.525 C208.98867,47.4301805 208.916358,47.3074602 208.883,47.172 C208.883001,47.1713333 208.883001,47.1706667 208.883,47.17 C208.843969,47.0365952 208.845361,46.8946139 208.887,46.762 C208.921,46.672 208.947,46.667 208.951,46.666 C209.194549,46.6028614 209.353246,46.368584 209.32154,46.1189899 C209.289833,45.8693958 209.0776,45.6822386 208.826,45.682 Z M193.488,47.752 C193.250939,47.7622668 193.053743,47.9377379 193.016,48.172 C192.977404,48.3878765 192.957663,48.6067015 192.957,48.826 C192.957,49.1021424 193.180858,49.326 193.457,49.326 C193.733142,49.326 193.957,49.1021424 193.957,48.826 C193.957,48.666 193.972,48.506 194,48.346 C194.028867,48.195919 193.987509,48.0408774 193.887727,47.9251142 C193.787944,47.8093511 193.640697,47.745581 193.488,47.752 Z M205.982,51.051 C205.728856,51.0305742 205.474219,51.062574 205.234,51.145 C204.754,51.3 204.271,51.612 203.836,52.047 C203.4,52.483 203.088,52.967 202.932,53.447 C202.776,53.928 202.763,54.487 203.148,54.871 C203.376,55.1 203.69,55.191 203.981,55.191 C204.271,55.191 204.556,55.113 204.84,54.986 C205.092394,54.8738862 205.206114,54.5783941 205.094,54.326 C204.981886,54.0736059 204.686394,53.9598862 204.434,54.072 C204.245,54.156 204.079,54.192 203.979,54.192 C203.879,54.192 203.862,54.172 203.856,54.166 C203.856001,54.1653333 203.856001,54.1646667 203.856,54.164 C203.846,54.154 203.79,54.041 203.883,53.756 C203.975,53.471 204.204,53.093 204.543,52.754 C204.881,52.416 205.258,52.188 205.543,52.096 C205.828,52.003 205.94,52.059 205.951,52.07 C205.961,52.08 206.017,52.193 205.924,52.478 C205.868624,52.6478798 205.908084,52.834398 206.027516,52.9672951 C206.146948,53.1001921 206.328208,53.1592778 206.503016,53.1222951 C206.677824,53.0853124 206.819624,52.9578798 206.875,52.788 C207.032,52.304 207.042,51.748 206.658,51.363 C206.658001,51.3623333 206.658001,51.3616667 206.658,51.361 C206.475976,51.1816141 206.236707,51.0718903 205.982,51.051 Z M190.83,51.693 C190.709,51.693 190.586,51.705 190.463,51.733 C190.462333,51.7329987 190.461667,51.7329987 190.461,51.733 C189.723,51.899 189.209,52.529 189.1,53.25 C189.065883,53.4298184 189.132741,53.6139079 189.274301,53.7299229 C189.415861,53.8459379 189.609496,53.8753361 189.779111,53.8065641 C189.948725,53.7377921 190.067209,53.5818417 190.088,53.4 C190.142,53.041 190.372,52.779 190.682,52.709 C191.092,52.621 191.54,52.911 191.656,53.432 C191.772,53.953 191.487,54.407 191.082,54.498 C190.878063,54.5420288 190.665023,54.4973123 190.496,54.375 C190.271772,54.2131806 189.958819,54.2637724 189.797,54.488 C189.635181,54.7122276 189.685772,55.0251806 189.91,55.187 C190.31,55.475 190.812,55.58 191.293,55.477 C191.294336,55.4763393 191.29567,55.4756726 191.297,55.475 C192.283,55.256 192.857,54.221 192.633,53.215 C192.633001,53.2143333 192.633001,53.2136667 192.633,53.213 C192.436,52.336 191.678,51.695 190.83,51.693 Z M211.186,53.413 L211.039,53.631 L210.829,53.631 C210.974313,53.613758 211.10478,53.5337237 211.186,53.412 L211.186,53.413 Z M189.953,57.564 C189.925,57.55 189.98,57.584 189.979,57.582 C189.969841,57.576367 189.960503,57.5710309 189.951,57.566 L189.953,57.564 Z"></path>
        </g>
    </g>
</svg>
