<svg width="288" height="138" viewBox="0 0 288 138" xmlns="http://www.w3.org/2000/svg"><title>No repo selected (or found)</title><g fill="none" fill-rule="evenodd"><path d="M78.472 79.187l-18.368-4.17 1.806-7.958c1.152-5.073 6.198-8.252 11.27-7.1 5.072 1.152 8.25 6.197 7.1 11.27l-1.808 7.957zM64.306 69.04c.745-4.857 4.99-7.593 9.527-6.003M79.87 84.04l-23.124-5.248.98-4.314 23.124 5.25zM78.435 81.447L68.06 79.092M74.232 85.54l-13.046-2.963-.07-2.793 14.386 3.266zM63.34 87.162a1.384 1.384 0 0 1-1.812.74 1.383 1.383 0 0 1-.74-1.813 1.386 1.386 0 0 1 2.553 1.072zM62.6 85.35l.94-2.238M73.075 88.88zM71.76 87.428l.117-2.424" stroke="#CADEF3" stroke-linecap="round" stroke-linejoin="round"/><path d="M100.61 46.55c.215 6.063-4.526 11.153-10.59 11.368a10.98 10.98 0 0 1-9.987-5.638c-2.16.273-4.005.987-5.037 2.37-.523.7-.85.215-.76-.267.438-2.418 1.543-5.756 4.436-8.207.38-5.542 4.895-10.013 10.57-10.214 6.06-.215 11.15 4.526 11.367 10.59" fill="#CADEF3"/><path d="M88.78 48.404c-.2-.65.168-1.348.82-1.55l.59-.18a.613.613 0 0 0 .41-.775l-.362-1.185a.614.614 0 0 0-.774-.41l-1.185.364a.613.613 0 0 0-.41.773l.18.593-2.368.727c-.546-1.776.685-4.098 2.46-4.645 1.778-.546 3.918.093 4.464 1.87.78 2.533-1.458 3.687-1.458 3.687l.364 1.185-2.37.73-.363-1.186zm.637 2.072l2.368-.727.728 2.367-2.37.728-.726-2.37z" fill="#F8F9F9"/><path d="M268.727 40.052a3.142 3.142 0 1 1-6.283 0 3.142 3.142 0 0 1 6.283 0zM31.49 86.815a1.508 1.508 0 1 1-3.016 0 1.508 1.508 0 0 1 3.015 0zM237.02 76.61l-.915-1.73a.47.47 0 0 0-.195-.197l-1.73-.916a.47.47 0 0 1 0-.83l1.73-.914a.467.467 0 0 0 .195-.197l.916-1.73a.47.47 0 0 1 .83 0l.916 1.73c.045.085.112.152.196.197l1.73.915a.47.47 0 0 1 0 .83l-1.73.915a.477.477 0 0 0-.196.197l-.915 1.73a.47.47 0 0 1-.83 0zM158.538 32.052l.576-1.87a.464.464 0 0 0 0-.276l-.576-1.87a.47.47 0 0 1 .587-.588l1.87.576c.09.027.187.027.277 0l1.87-.576c.36-.11.7.226.587.587l-.577 1.87a.48.48 0 0 0 0 .277l.576 1.87a.47.47 0 0 1-.588.588l-1.87-.576a.452.452 0 0 0-.277 0l-1.87.576a.47.47 0 0 1-.587-.588zM258.495 114.88v5.86M261.425 117.81h-5.86M126.414 45.75l-4.145 4.146M126.414 49.896l-4.145-4.145M277.317 88.23l-1.59 1.59M281.74 83.81l-1.59 1.59M277.317 88.23zM197.642 132.93a1.268 1.268 0 1 1-2.536 0 1.268 1.268 0 0 1 2.536 0zM208.82 86.815a1.268 1.268 0 1 1-2.537 0 1.268 1.268 0 0 1 2.536 0zM46.2 124.654l-.677-1.28-1.28-.677 1.28-.677.677-1.28.678 1.28 1.28.677-1.28.678zM106.312 8.506l-.677-1.28-1.28-.676 1.28-.678.677-1.28.677 1.28 1.28.678-1.28.677zM224.96 15.083a1.09 1.09 0 1 0 0 2.183 1.09 1.09 0 0 0 0-2.183zM86.856 112.733a1.09 1.09 0 1 0-.002 2.18 1.09 1.09 0 0 0 .002-2.18zM226.38 111.313v2.84M227.8 112.733h-2.84M9.274 59.948l.924-.284.922.284-.283-.923.284-.923-.922.284-.924-.284.285.923zM43.748 24.91l2.452 1.34-2.452 1.342-1.34 2.45-1.342-2.45-2.452-1.342 2.452-1.34 1.34-2.453zM11.17 113.823l.787 2.682-2.682-.786-2.682.785.785-2.682-.785-2.683 2.682.787 2.682-.787z" stroke="#CADEF3" stroke-width="1.186" stroke-linecap="round" stroke-linejoin="round"/><path d="M216.77 57.134c.075-.17.144-.342.21-.515l.04-.094a13.055 13.055 0 0 0 .216-.615c.05-.15.096-.304.14-.458l.046-.16c.04-.15.077-.298.113-.447.014-.06.03-.118.042-.177.032-.146.06-.292.09-.438.01-.063.023-.125.034-.19.025-.142.048-.287.068-.43a10.355 10.355 0 0 0 .09-.824c.01-.143.02-.286.026-.428l.007-.2c.005-.142.008-.284.008-.425 0-.068-.002-.135-.003-.202a12 12 0 0 0-.012-.423c-.004-.066-.01-.13-.012-.197-.008-.142-.018-.285-.03-.427l-.02-.185c-.018-.145-.033-.29-.054-.435a17.64 17.64 0 0 0-.1-.616c-.008-.037-.017-.073-.024-.11-.108-.548-.25-1.09-.424-1.62-.005-.015-.01-.03-.014-.047-.043-.128-.09-.253-.137-.38-.026-.07-.05-.143-.077-.213-.044-.112-.09-.223-.138-.335-.034-.082-.067-.165-.103-.246-.047-.105-.097-.208-.146-.31-.04-.088-.08-.176-.124-.262-.05-.1-.1-.195-.152-.293-.047-.088-.094-.177-.143-.265a15.547 15.547 0 0 0-.322-.546l-.17-.268c-.06-.09-.118-.177-.18-.265a9.01 9.01 0 0 0-.18-.255c-.063-.088-.127-.176-.194-.262a10.64 10.64 0 0 0-.4-.5 11.45 11.45 0 0 0-.635-.704 21.097 21.097 0 0 0-.46-.453c-.087-.08-.177-.16-.266-.24-.074-.063-.146-.13-.22-.192-.094-.08-.19-.157-.287-.234-.074-.06-.147-.12-.223-.177a8.032 8.032 0 0 0-.316-.234c-.072-.053-.143-.106-.216-.157a11.89 11.89 0 0 0-.37-.246l-.187-.122c-.188-.118-.382-.233-.58-.343-.314-.175-.632-.33-.953-.478-.04-.018-.08-.04-.12-.056l-.06-.03.007.01c-.318-.14-.64-.27-.963-.386h.005l-.325-1.308c-2.684-1.19-5.75-.44-5.75-.44l-.656 1.178.002.002a13.445 13.445 0 0 0-9.508 6.725 13.404 13.404 0 0 0-1.535 8.64l-.456.818s.172 1.99.934 3.114l.926.284a13.435 13.435 0 0 0 3.2 3.97c-.006-.003-.014-.005-.02-.01.047.042.1.076.15.116.234.195.477.38.727.56.087.062.173.126.263.187.33.226.672.443 1.03.642.283.156.57.3.86.435l.196.09c.286.128.573.247.863.354.04.014.08.025.12.04.264.095.53.18.8.257.06.017.12.036.182.052.293.08.587.15.883.208.057.012.116.02.174.033.268.05.537.092.807.127l.14.017c.298.034.598.057.897.07l.193.007c.294.01.59.013.882.003h.034c.303-.01.606-.036.907-.067l.19-.022c.3-.035.6-.078.895-.133.022-.003.043-.008.065-.013a13.32 13.32 0 0 0 1.003-.233c.29-.08.577-.166.86-.265l.126-.046c.26-.094.52-.195.777-.305l.117-.05c.277-.122.55-.252.82-.393l.142-.077c.26-.14.516-.286.767-.443l.038-.023a13.923 13.923 0 0 0 .905-.626c.25-.187.495-.38.732-.587l1.32.484c2.008-1.696 2.99-4.142 2.99-4.142l-.79-1.128h-.002z" stroke="#CADEF3" stroke-linecap="round" stroke-linejoin="round"/><path d="M199.206 63.918c-.02-1.187 1.187-2.168 2.695-2.193 1.51-.025 2.747.918 2.767 2.104M210.636 58.53c-.472.21-.9.223-1.134-.012-.395-.394-.088-1.342.687-2.117.773-.773 1.72-1.08 2.116-.685.197.197.22.533.095.917M212.557 47.39a2.712 2.712 0 0 1-1.26 2.815M209.026 50.457a2.71 2.71 0 1 1 2.452-4.768M195.594 57.325c.082-.54.453-.986.977-1.104.7-.154 1.402.34 1.573 1.102.17.764-.26 1.51-.956 1.664a1.24 1.24 0 0 1-.985-.206M215.322 52.06c-.37.1-.784-.242-.922-.76-.14-.518.05-1.018.422-1.117M196.99 47.013c-.68.68-1.563.897-1.975.486-.41-.412-.192-1.296.487-1.975.68-.68 1.563-.897 1.974-.487.41.412.194 1.295-.486 1.975zM200.395 50.567a3.198 3.198 0 1 1 0 4.52M199.458 52.827c0-.19.017-.38.05-.568M206.49 39.997a1.62 1.62 0 0 1-2.272-.276M156.042 67.457l-1.223.297" stroke="#CADEF3" stroke-linecap="round" stroke-linejoin="round"/><path d="M151.584 68.54l-26.69 6.476" stroke="#CADEF3" stroke-linecap="round" stroke-linejoin="round" stroke-dasharray="2.497,3.329"/><path d="M123.49 75.86c-.25.3-.424.688-.352 1.172M162.565 72.372l-1.82-1.562-1.245.19" stroke="#CADEF3" stroke-linecap="round" stroke-linejoin="round"/><path d="M156.142 71.518l-21.83 3.356" stroke="#CADEF3" stroke-linecap="round" stroke-linejoin="round" stroke-dasharray="2.548,3.398"/><path d="M132.634 75.132l-1.244.19c.394-.09.803-.186 1.222-.285" stroke="#CADEF3" stroke-linecap="round" stroke-linejoin="round"/><path d="M135.633 74.323c6.85-1.625 15.354-3.685 19.632-4.724" stroke="#CADEF3" stroke-linecap="round" stroke-linejoin="round" stroke-dasharray="2.329,3.105"/><path d="M156.774 69.234l1.22-.297-1.952-1.48M169.866 118.296l1.243-.198-.23-1.24" stroke="#CADEF3" stroke-linecap="round" stroke-linejoin="round"/><path d="M170.268 113.583l-7.172-38.505" stroke="#CADEF3" stroke-linecap="round" stroke-linejoin="round" stroke-dasharray="2.5,3.333"/><path stroke="#CADEF3" stroke-linecap="round" stroke-linejoin="round" d="M162.79 73.44l-.23-1.237-1.245.182"/><path d="M158.122 72.854L126.19 77.54" stroke="#CADEF3" stroke-linecap="round" stroke-linejoin="round" stroke-dasharray="2.421,3.227"/><path d="M124.593 77.774l-1.245.183.224 1.234" stroke="#CADEF3" stroke-linecap="round" stroke-linejoin="round"/><path d="M124.188 82.504c1.916 10.253 5.914 31.257 7.377 38.932" stroke="#CADEF3" stroke-linecap="round" stroke-linejoin="round" stroke-dasharray="2.529,3.372"/><path d="M131.88 123.092c.15.794.235 1.233.235 1.233l1.243-.198" stroke="#CADEF3" stroke-linecap="round" stroke-linejoin="round"/><path d="M136.532 123.62l31.746-5.07" stroke="#CADEF3" stroke-linecap="round" stroke-linejoin="round" stroke-dasharray="2.411,3.215"/><path d="M130.263 76.942l.245 1.234" stroke="#CADEF3" stroke-linecap="round" stroke-linejoin="round"/><path d="M131.15 81.41l7.553 38.022" stroke="#CADEF3" stroke-linecap="round" stroke-linejoin="round" stroke-dasharray="2.474,3.299"/><path d="M139.024 121.05l.245 1.235M137.023 123.54v1.26" stroke="#CADEF3" stroke-linecap="round" stroke-linejoin="round"/><path d="M137.023 126.837v2.547" stroke="#CADEF3" stroke-linecap="round" stroke-linejoin="round" stroke-dasharray="1.528,2.037"/><path stroke="#CADEF3" stroke-linecap="round" stroke-linejoin="round" d="M137.023 130.403v1.26l.975-.8M141.008 128.4l.974-.798.976.793M146 130.867l.978.794v-1.258"/><path d="M146.978 127.787v-3.27" stroke="#CADEF3" stroke-linecap="round" stroke-linejoin="round" stroke-dasharray="1.962,2.615"/><path d="M146.978 123.21v-1.26M127.658 100.898c-8.824 5.9-14.05 11.197-12.824 13.636 1.86 3.702 17.87-.582 35.76-9.568 17.89-8.985 30.886-19.27 29.028-22.97-1.076-2.143-6.888-1.612-15.06.957" stroke="#CADEF3" stroke-linecap="round" stroke-linejoin="round"/></g></svg>