<svg xmlns="http://www.w3.org/2000/svg" width="51" height="51" fill="none" viewBox="0 0 51 51"><title>Explore</title><path fill="#79B8FF" d="M26 0C23.4716 0 21.0291 0.375669 18.7262 1.07492C18.1977 1.23538 17.8994 1.79387 18.0599 2.32233C18.2204 2.85079 18.7788 3.1491 19.3073 2.98864C21.4238 2.34597 23.6706 2 26 2C29.0599 2 31.9778 2.59699 34.6456 3.67992C35.1573 3.88765 35.7406 3.64121 35.9483 3.12948C36.156 2.61775 35.9096 2.03451 35.3978 1.82678C32.4952 0.648515 29.3221 0 26 0Z"/><path fill="#79B8FF" d="M3.98915 18.3056C4.14965 17.7772 3.85138 17.2187 3.32293 17.0582C2.79448 16.8977 2.23597 17.1959 2.07547 17.7244C1.37587 20.0278 1 22.4709 1 25C1 34.6892 6.51228 43.0893 14.5673 47.2384C15.0583 47.4913 15.6613 47.2983 15.9142 46.8073C16.1671 46.3163 15.9741 45.7133 15.4831 45.4604C8.06773 41.6407 3 33.9113 3 25C3 22.67 3.34615 20.4226 3.98915 18.3056Z"/><path fill="#79B8FF" d="M49.9326 17.7511C49.7727 17.2225 49.2146 16.9236 48.6859 17.0835C48.1573 17.2434 47.8584 17.8016 48.0183 18.3302C48.6565 20.4401 49 22.679 49 25C49 33.8918 43.9545 41.6068 36.5657 45.4352C36.0753 45.6892 35.8837 46.2927 36.1378 46.7831C36.3919 47.2735 36.9954 47.465 37.4858 47.211C45.5119 43.0524 51 34.6679 51 25C51 22.4807 50.627 20.0467 49.9326 17.7511Z"/><path fill="#79B8FF" fill-rule="evenodd" d="M5.01001 10C5.01001 13.87 8.14001 17 12.01 17C15.87 17 19.01 13.87 19.01 10C19.01 6.13 15.88 3 12.01 3C8.14001 3 5.01001 6.13 5.01001 10ZM17.01 10C17.01 12.76 14.77 15 12.01 15C9.25001 15 7.01001 12.76 7.01001 10C7.01001 7.24 9.25001 5 12.01 5C14.77 5 17.01 7.24 17.01 10Z" clip-rule="evenodd"/><path fill="#79B8FF" d="M28.9405 10.8329C28.8183 10.4012 28.4236 10.1038 27.975 10.1053C27.5264 10.1067 27.1336 10.4068 27.0143 10.8392C26.8617 11.3924 26.7741 11.5039 26.733 11.5448C26.6901 11.5874 26.5735 11.6761 26.0123 11.8312C25.5777 11.9513 25.2772 12.3475 25.2787 12.7984C25.2802 13.2494 25.5833 13.6435 26.0188 13.7607C26.581 13.9121 26.6982 14 26.7414 14.0425C26.7829 14.0832 26.8711 14.1942 27.0275 14.7462C27.1498 15.1778 27.5445 15.4752 27.9931 15.4737C28.4417 15.4721 28.8343 15.1721 28.9537 14.7397C29.1064 14.1862 29.1938 14.0748 29.2349 14.0339C29.2775 13.9914 29.3937 13.9028 29.9549 13.7477C30.3895 13.6276 30.69 13.2315 30.6885 12.7806C30.6871 12.3297 30.384 11.9355 29.9486 11.8182C29.3865 11.6668 29.2696 11.5791 29.2265 11.5367C29.1852 11.4962 29.0969 11.3853 28.9405 10.8329Z"/><path fill="#79B8FF" d="M11.891 23.4647C11.7689 23.033 11.3742 22.7355 10.9256 22.7369C10.477 22.7382 10.0842 23.0382 9.96479 23.4707C9.81213 24.0235 9.72453 24.1352 9.68328 24.1762C9.64035 24.2189 9.52389 24.3076 8.96338 24.4623C8.52868 24.5823 8.22809 24.9784 8.2295 25.4294C8.23091 25.8803 8.53398 26.2746 8.96942 26.3918C9.53125 26.5432 9.64825 26.6312 9.69145 26.6736C9.73313 26.7145 9.8214 26.8258 9.97805 27.3781C10.1004 27.8096 10.4951 28.1069 10.9437 28.1053C11.3922 28.1037 11.7848 27.8036 11.9041 27.3713C12.0568 26.8176 12.1443 26.7062 12.1854 26.6653C12.2282 26.6227 12.3445 26.5341 12.9059 26.3788C13.3405 26.2586 13.6408 25.8625 13.6393 25.4116C13.6378 24.9608 13.3348 24.5667 12.8994 24.4494C12.337 24.2979 12.2198 24.2101 12.1766 24.1676C12.1353 24.1272 12.047 24.0165 11.891 23.4647Z"/><path fill="#79B8FF" d="M40.8743 34.4119C40.7521 33.9802 40.3575 33.6828 39.9089 33.6842C39.4603 33.6857 39.0676 33.9857 38.9482 34.4181C38.7955 34.9712 38.708 35.0825 38.667 35.1234C38.6242 35.1659 38.508 35.2545 37.9469 35.4095C37.5124 35.5295 37.2119 35.9254 37.2131 36.3762C37.2144 36.827 37.5171 37.2212 37.9523 37.3388C38.5148 37.4908 38.6318 37.5786 38.6751 37.621C38.7163 37.6615 38.8046 37.7723 38.9608 38.3248C39.0829 38.7565 39.4776 39.0541 39.9263 39.0526C40.375 39.0512 40.7678 38.7511 40.8871 38.3186C41.0398 37.7649 41.1273 37.6535 41.1683 37.6127C41.2111 37.5702 41.3274 37.4815 41.889 37.3265C42.3239 37.2065 42.6246 36.8101 42.623 36.359C42.6214 35.9079 42.3179 35.5137 41.8822 35.3967C41.3201 35.2459 41.2032 35.1579 41.1602 35.1157C41.1188 35.0751 41.0306 34.9641 40.8743 34.4119Z"/><path fill="#2188FF" fill-rule="evenodd" d="M41.2036 2.23155C41.8025 2.06438 42.4865 1.95198 43.116 2.0113C43.5293 2.05024 43.8755 2.34044 43.9861 2.74054C44.0967 3.14064 43.9486 3.56745 43.6139 3.81306C42.6517 4.51925 42.1817 5.35705 42.0344 6.21287C41.8839 7.08792 42.0583 8.06401 42.5359 9.02774C42.9305 9.82399 43.8066 10.4778 44.8898 10.8582C45.9824 11.242 47.0529 11.2656 47.6714 11.0507C48.0306 10.9258 48.4296 11.0156 48.7008 11.2822C48.9719 11.5488 49.0684 11.9462 48.9496 12.3075C48.6856 13.1108 48.1257 13.8128 47.4991 14.3562C46.8653 14.9058 46.0974 15.3513 45.3199 15.6098C41.0399 17.0326 37.494 14.396 36.4027 11.3575C35.3046 8.29999 36.4765 4.67623 39.5192 2.92449C39.9962 2.64985 40.5951 2.40139 41.2036 2.23155ZM40.3909 4.73282C38.3105 6.01093 37.5179 8.54575 38.285 10.6815C39.0743 12.8791 41.613 14.7345 44.689 13.7119C45.071 13.5849 45.4669 13.3818 45.828 13.1273C45.287 13.0571 44.743 12.9264 44.2271 12.7452C42.8556 12.2636 41.4512 11.343 40.7439 9.91585C40.1196 8.65613 39.8266 7.25011 40.0634 5.87375C40.1306 5.48334 40.2394 5.10175 40.3909 4.73282Z" clip-rule="evenodd"/><path fill="#2188FF" fill-rule="evenodd" d="M36.9797 20.2808C36.0607 18.8103 34.09 18.4229 32.6828 19.4361L10.9649 35.0731C9.66358 36.01 9.33738 37.8088 10.2268 39.143C11.042 40.3658 12.6271 40.8114 13.96 40.1925L24.1314 35.4701L18.089 47.5917C17.8426 48.086 18.0435 48.6864 18.5378 48.9328C19.0321 49.1792 19.6325 48.9783 19.8789 48.484L25.0171 38.1763L25.0078 49.0105C25.0073 49.5628 25.4547 50.0109 26.007 50.0114C26.5592 50.0118 27.0073 49.5645 27.0078 49.0122L27.017 38.2587L32.1096 48.4751C32.356 48.9693 32.9564 49.1703 33.4507 48.9239C33.945 48.6775 34.1459 48.0771 33.8995 47.5828L27.1606 34.0637L38.3671 28.8607C40.0033 28.101 40.6039 26.0794 39.6478 24.5496L36.9797 20.2808ZM33.8514 21.0592C34.3205 20.7215 34.9774 20.8506 35.2837 21.3407L37.9518 25.6096C38.2705 26.1196 38.0703 26.7934 37.5249 27.0466L34.5014 28.4504L31.1591 22.9977L33.8514 21.0592ZM29.5316 24.1695L15.4016 34.3431L16.8485 36.6464L32.6753 29.2982L29.5316 24.1695ZM12.1335 36.6961L13.7753 35.514L15.0199 37.4954L13.1177 38.3785C12.6797 38.5819 12.1588 38.4355 11.8909 38.0336C11.5986 37.5952 11.7058 37.004 12.1335 36.6961Z" clip-rule="evenodd"/><path fill="#2188FF" d="M20 7.1C20.41 7.17 20.75 7.27 20.98 7.38C20.79 7.63 20.15 8.24 19.09 8.91C17.42 9.96 15.06 10.97 12.45 11.71C9.78001 12.47 7.25001 12.91 5.35001 12.97C4.47001 12.99 3.77001 12.94 3.30001 12.81C3.21103 12.7878 3.14679 12.7686 3.0987 12.7543C3.06031 12.7428 3.03221 12.7344 3.01001 12.73C3.06001 12.6 3.26001 12.23 3.64001 11.82C4.01001 11.41 4.49001 11.02 5.04001 10.66C5.02001 10.44 5.01001 10.22 5.01001 10C5.01001 9.4 5.08001 8.82 5.22001 8.27C2.71001 9.48 0.900012 11.44 1.00001 12.96C1.00001 13.06 1.01001 13.16 1.03001 13.28C1.62001 15.58 6.72001 15.42 12.99 13.64C18.86 11.97 23.42 9.15 23.01 6.89C23 6.84 22.99 6.8 22.98 6.76C22.58 5.27 19.44 4.67 16.99 5.09C17.53 5.63 17.98 6.27 18.32 6.97C18.88 6.96 19.47 7 20 7.1Z"/></svg>