<svg xmlns="http://www.w3.org/2000/svg" width="228" height="120" fill="none"><g clip-path="url(#a)"><path fill="#25292E" d="M0 0h228v120H0V0Z"/><path fill="#2E5B30" d="M233 21H49v12h184V21ZM233 33H49v12h184V33Z" opacity=".3"/><path fill="#681C1C" d="M233 45H49v12h184V45ZM233 57H49v12h184V57Z" opacity=".3"/><path fill="#1E2125" d="M0 0h228v21H0z"/><rect width="28" height="3" x="15" y="6" fill="#4B535D" rx="1.5"/><rect width="28" height="3" x="15" y="11" fill="#4B535D" rx="1.5"/><rect width="6" height="6" x="5" y="7" fill="#4B535D" rx="3"/><rect width="28" height="3" x="65" y="6" fill="#4B535D" rx="1.5"/><rect width="28" height="3" x="65" y="11" fill="#4B535D" rx="1.5"/><rect width="6" height="6" x="55" y="7" fill="#4B535D" rx="3"/><rect width="28" height="3" x="115" y="6" fill="#4B535D" rx="1.5"/><rect width="28" height="3" x="115" y="11" fill="#4B535D" rx="1.5"/><rect width="6" height="6" x="105" y="7" fill="#4B535D" rx="3"/><path fill="#1E2125" d="M0 88h49v32H0z"/><rect width="42" height="5" x="3" y="90" fill="#121212" rx="2"/><rect width="42" height="5" x="3" y="25" fill="#4B535D" rx="2"/><rect width="42" height="5" x="3" y="31" fill="#4B535D" rx="2"/><rect width="42" height="5" x="3" y="37" fill="#4B535D" rx="2"/><rect width="42" height="14" x="3" y="97" fill="#121212" rx="2"/><rect width="42" height="5" x="3" y="113" fill="#2B64CF" rx="2"/><path fill="#1E2125" d="M48 21h1v99h-1z"/><rect width="105" height="7" x="53" y="35" fill="#2E5B30" rx="3.5"/><rect width="55" height="7" x="53" y="47" fill="#681C1C" rx="3.5"/><rect width="76" height="7" x="53" y="59" fill="#681C1C" rx="3.5"/><rect width="55" height="6" x="54" y="24" fill="#2E5B30" rx="3"/></g><defs><clipPath id="a"><path fill="#fff" d="M0 0h228v120H0z"/></clipPath></defs></svg>