<?xml version="1.0" encoding="UTF-8"?>
<svg width="48" height="48" viewBox="0 0 48 48" fill="none" 
  xmlns="http://www.w3.org/2000/svg">
  <title>GitHub for Teams</title>
  <path fill-rule="evenodd" clip-rule="evenodd" d="M30 15.0095C30 16.8829 29.141 18.5553 27.7955 19.6551C28.8417 20.0329 29.7979 20.5631 30.6216 21.2166C31.0542 21.5599 31.1267 22.1889 30.7834 22.6215C30.4401 23.0542 29.8111 23.1266 29.3785 22.7834C28.0543 21.7328 26.2465 21.0528 24.2375 21.0029C24.1587 21.006 24.0795 21.0076 24 21.0076C23.92 21.0076 23.8403 21.006 23.7611 21.0029C21.7358 21.052 19.9429 21.724 18.6256 22.7802C18.1947 23.1257 17.5653 23.0564 17.2198 22.6255C16.8743 22.1946 16.9436 21.5653 17.3745 21.2198C18.1988 20.5589 19.1532 20.0275 20.1988 19.6505C18.8566 18.5506 18 16.8803 18 15.0095C18 11.6961 20.6871 9.01141 24 9.01141C27.3129 9.01141 30 11.6961 30 15.0095ZM20 15.0095C20 12.8016 21.7907 11.0114 24 11.0114C26.2092 11.0114 28 12.8016 28 15.0095C28 17.1458 26.3234 18.8911 24.2134 19.002C24.1424 19.0007 24.0713 19 24 19C23.9285 19 23.8571 19.0006 23.7859 19.0019C21.6762 18.8907 20 17.1456 20 15.0095Z" fill="#79B8FF"/>
  <path fill-rule="evenodd" clip-rule="evenodd" d="M24.0097 26.0044C19.8678 26.0044 16.5097 29.3624 16.5097 33.5044C16.5097 36.1508 17.8805 38.4771 19.9507 39.8121C16.9893 41.0577 14.7455 43.6294 14.0252 46.7769C13.902 47.3153 14.2385 47.8516 14.7769 47.9748C15.3153 48.098 15.8516 47.7615 15.9748 47.2231C16.7726 43.7369 19.9539 41.084 23.8155 41.002C23.8801 41.0036 23.9448 41.0044 24.0097 41.0044C24.0716 41.0044 24.1333 41.0037 24.1949 41.0022C28.0503 41.0887 31.2244 43.7349 32.0253 47.2237C32.1489 47.762 32.6854 48.0982 33.2237 47.9746C33.762 47.8511 34.0982 47.3145 33.9746 46.7763C33.2524 43.6303 31.015 41.0633 28.0615 39.8168C30.1357 38.4826 31.5097 36.1539 31.5097 33.5044C31.5097 29.3624 28.1517 26.0044 24.0097 26.0044ZM24.1867 39.0016C27.1423 38.9082 29.5097 36.4826 29.5097 33.5044C29.5097 30.467 27.0472 28.0044 24.0097 28.0044C20.9723 28.0044 18.5097 30.467 18.5097 33.5044C18.5097 36.4804 20.8737 38.9045 23.8261 39.0014C23.8839 39.0005 23.9419 39 24 39C24.0624 39 24.1246 39.0005 24.1867 39.0016Z" fill="#79B8FF"/>
  <path d="M8 4C8.55228 4 9 4.44772 9 5V6H10C10.5523 6 11 6.44772 11 7C11 7.55228 10.5523 8 10 8H9V9C9 9.55228 8.55228 10 8 10C7.44772 10 7 9.55228 7 9V8H6C5.44772 8 5 7.55228 5 7C5 6.44772 5.44772 6 6 6H7V5C7 4.44772 7.44772 4 8 4Z" fill="#2188FF"/>
  <path fill-rule="evenodd" clip-rule="evenodd" d="M1.24851 1.31539C1.92365 0.621531 2.91569 0 4 0H12C13.0843 0 14.0764 0.621531 14.7515 1.31539C15.4229 2.00539 16 2.99214 16 4V17C16 17.4045 15.7564 17.7691 15.3827 17.9239C15.009 18.0787 14.5789 17.9931 14.2929 17.7071L10.5858 14H4.98884C3.36403 13.9819 2.07545 13.4435 1.20351 12.4708C0.346826 11.5152 0 10.2603 0 9V4C0 2.99214 0.577117 2.00539 1.24851 1.31539ZM2.68192 2.71014C2.20983 3.19531 2 3.70857 2 4V9C2 9.91321 2.25067 10.6427 2.69274 11.1358C3.11891 11.6112 3.82883 11.9858 5.00583 12H11C11.2652 12 11.5196 12.1054 11.7071 12.2929L14 14.5858V4C14 3.70857 13.7902 3.19531 13.3181 2.71014C12.8497 2.22882 12.3418 2 12 2H4C3.65822 2 3.15025 2.22882 2.68192 2.71014Z" fill="#2188FF"/>
  <path d="M43.7083 5.70758C44.0991 5.31731 44.0995 4.68415 43.7092 4.29336C43.319 3.90258 42.6858 3.90216 42.295 4.29242L39.0014 7.58171L37.7059 6.29079C37.3146 5.90096 36.6815 5.90208 36.2916 6.29329C35.9018 6.68451 35.9029 7.31767 36.2941 7.7075L38.2963 9.70256C38.6868 10.0917 39.3187 10.0914 39.7088 9.70178L43.7083 5.70758Z" fill="#2188FF"/>
  <path fill-rule="evenodd" clip-rule="evenodd" d="M36 0C34.9157 0 33.9236 0.621531 33.2485 1.31539C32.5771 2.00539 32 2.99214 32 4V17C32 17.4045 32.2436 17.7691 32.6173 17.9239C32.991 18.0787 33.4211 17.9931 33.7071 17.7071L37.4142 14L43 14.0001L43.0112 13.9999C44.636 13.9818 45.9245 13.4435 46.7965 12.4708C47.6532 11.5152 48 10.2603 48 9V4C48 2.99214 47.4229 2.00539 46.7515 1.31539C46.0764 0.621531 45.0843 0 44 0H36ZM34 4C34 3.70857 34.2098 3.19531 34.6819 2.71014C35.1503 2.22882 35.6582 2 36 2H44C44.3418 2 44.8497 2.22882 45.3181 2.71014C45.7902 3.19531 46 3.70857 46 4V9C46 9.91321 45.7493 10.6427 45.3073 11.1358C44.8811 11.6112 44.1712 11.9858 42.9942 12H37C36.7348 12 36.4804 12.1054 36.2929 12.2929L34 14.5858V4Z" fill="#2188FF"/>
  <path fill-rule="evenodd" clip-rule="evenodd" d="M2 27C2 23.6859 4.68673 21 8 21C11.3133 21 14 23.6859 14 27C14 28.8699 13.1446 30.5399 11.804 31.6402C12.9819 32.2073 14.0435 33.1521 14.8535 34.4789C15.1413 34.9503 14.9924 35.5658 14.521 35.8535C14.0497 36.1413 13.4342 35.9924 13.1465 35.5211C12.072 33.761 10.5093 33 8.99999 33C5.83269 33 3.37551 35.2216 2.99139 38.1309C2.91909 38.6784 2.41663 39.0637 1.86909 38.9914C1.32156 38.9191 0.936303 38.4166 1.0086 37.8691C1.33538 35.3941 2.77885 33.3066 4.84372 32.1037C3.13695 31.0459 2 29.1559 2 27ZM8 23C5.79113 23 4 24.7907 4 27C4 29.2093 5.79113 31 8 31C10.2089 31 12 29.2093 12 27C12 24.7907 10.2089 23 8 23Z" fill="#2188FF"/>
  <path fill-rule="evenodd" clip-rule="evenodd" d="M46 27C46 29.1559 44.863 31.046 43.1562 32.1037C45.2208 33.3067 46.6641 35.3941 46.9914 37.8689C47.0638 38.4164 46.6787 38.9189 46.1311 38.9914C45.5836 39.0638 45.0811 38.6786 45.0087 38.1311C44.6238 35.2215 42.1671 33 39 33C37.4907 33 35.928 33.761 34.8535 35.5211C34.5658 35.9924 33.9504 36.1413 33.479 35.8535C33.0076 35.5658 32.8587 34.9503 33.1465 34.4789C33.9565 33.1521 35.0181 32.2073 36.196 31.6402C34.8554 30.5399 34 28.8699 34 27C34 23.6859 36.6867 21 40 21C43.3133 21 46 23.6859 46 27ZM40 23C37.7911 23 36 24.7907 36 27C36 29.2093 37.7911 31 40 31C42.2089 31 44 29.2093 44 27C44 24.7907 42.2089 23 40 23Z" fill="#2188FF"/>
</svg>
