<?xml version="1.0" encoding="UTF-8"?>
<svg width="48" height="48" viewBox="0 0 48 48" fill="none" 
  xmlns="http://www.w3.org/2000/svg">
  <title>GitHub for Business</title>
  <path fill-rule="evenodd" clip-rule="evenodd" d="M15.9268 32.2105C17.8327 27.4054 22.5109 24 28 24C34.8428 24 40.4514 29.2879 40.9621 36H42C45.3023 36 48 38.6977 48 42C48 45.3023 45.3023 48 42 48H6C2.69772 48 0 45.3023 0 42C0 38.9396 2.31695 36.3985 5.28483 36.0426C6.13131 33.1319 8.81125 31 12 31C13.4582 31 14.809 31.4486 15.9268 32.2105ZM28 26C22.8995 26 18.6187 29.4789 17.376 34.1948C17.2829 34.5481 17.0045 34.8225 16.6499 34.9105C16.2953 34.9986 15.921 34.8862 15.6734 34.6175C14.7571 33.6225 13.4525 33 12 33C9.52543 33 7.47386 34.8013 7.07615 37.1659C6.99516 37.6474 6.57828 38 6.09 38H6C3.80228 38 2 39.8023 2 42C2 44.1977 3.80228 46 6 46H42C44.1977 46 46 44.1977 46 42C46 39.8023 44.1977 38 42 38H40C39.4477 38 39 37.5523 39 37C39 30.9253 34.0747 26 28 26Z" fill="#79B8FF"/>
  <path d="M12 5C11.4477 5 11 5.44772 11 6C11 6.55228 11.4477 7 12 7H23C23.5523 7 24 6.55228 24 6C24 5.44772 23.5523 5 23 5H12Z" fill="#2188FF"/>
  <path d="M33 4C33.5523 4 34 4.44772 34 5V7C34 7.55228 33.5523 8 33 8C32.4477 8 32 7.55228 32 7V5C32 4.44772 32.4477 4 33 4Z" fill="#2188FF"/>
  <path d="M38 5C38 4.44772 37.5523 4 37 4C36.4477 4 36 4.44772 36 5V7C36 7.55228 36.4477 8 37 8C37.5523 8 38 7.55228 38 7V5Z" fill="#2188FF"/>
  <path fill-rule="evenodd" clip-rule="evenodd" d="M6 3C6 1.35187 7.31071 0 9 0H39C40.6893 0 42 1.35187 42 3V9C42 10.6481 40.6893 12 39 12H35V15H39C40.6893 15 42 16.3519 42 18V24C42 25.6481 40.6893 27 39 27C38.4477 27 38 26.5523 38 26C38 25.4477 38.4477 25 39 25C39.5685 25 40 24.5599 40 24V18C40 17.4401 39.5685 17 39 17H9C8.43152 17 8 17.4401 8 18V24C8 24.5599 8.43152 25 9 25H17C17.5523 25 18 25.4477 18 26C18 26.5523 17.5523 27 17 27H9C7.31071 27 6 25.6481 6 24V18C6 16.3519 7.31071 15 9 15H14V12H9C7.31071 12 6 10.6481 6 9V3ZM16 15H33V12H16V15ZM9 2C8.43152 2 8 2.44013 8 3V9C8 9.55987 8.43152 10 9 10H39C39.5685 10 40 9.55987 40 9V3C40 2.44013 39.5685 2 39 2H9Z" fill="#2188FF"/>
  <path d="M11 21C11 20.4477 11.4477 20 12 20H23C23.5523 20 24 20.4477 24 21C24 21.5523 23.5523 22 23 22H12C11.4477 22 11 21.5523 11 21Z" fill="#2188FF"/>
  <path d="M34 20C34 19.4477 33.5523 19 33 19C32.4477 19 32 19.4477 32 20V22C32 22.5523 32.4477 23 33 23C33.5523 23 34 22.5523 34 22V20Z" fill="#2188FF"/>
  <path d="M37 19C37.5523 19 38 19.4477 38 20V22C38 22.5523 37.5523 23 37 23C36.4477 23 36 22.5523 36 22V20C36 19.4477 36.4477 19 37 19Z" fill="#2188FF"/>
</svg>
