<?xml version="1.0" encoding="UTF-8" standalone="no"?>
<svg width="564px" height="505px" viewBox="0 0 564 505" version="1.1" xmlns="http://www.w3.org/2000/svg" xmlns:xlink="http://www.w3.org/1999/xlink">
    <!-- Generator: Sketch 43.1 (39012) - http://www.bohemiancoding.com/sketch -->
    <title>Page 1</title>
    <desc>Created with Sketch.</desc>
    <defs>
        <polygon id="path-1" points="0.000321408896 0.145 563.69422 0.145 563.69422 504.999738 0.000321408896 504.999738"></polygon>
    </defs>
    <g id="Page-1" stroke="none" stroke-width="1" fill="none" fill-rule="evenodd">
        <g id="Artboard" transform="translate(0.000000, -1.000000)">
            <g id="Page-1">
                <g id="Group-3" transform="translate(0.000000, 0.855000)">
                    <mask id="mask-2" fill="white">
                        <use xlink:href="#path-1"></use>
                    </mask>
                    <g id="Clip-2"></g>
                    <path d="M8.6416,82.3277 C59.6726,-21.5873 196.3046,27.1577 279.3376,9.6537 C389.9316,-13.6603 515.7706,-6.5893 556.3336,177.5247 C596.8986,361.6397 462.1326,539.3117 339.8566,499.3107 C228.3146,462.8217 264.0346,394.7707 155.3036,298.3127 C72.4236,224.7877 -30.7134,162.4677 8.6416,82.3277" id="Fill-1" fill="#324247" mask="url(#mask-2)"></path>
                </g>
                <path d="M181.5224,119.7032 C180.1064,118.9142 178.6494,118.2692 177.1704,117.7482 L177.1794,117.7452 L176.5014,115.0232 C170.9154,112.5462 164.5294,114.1072 164.5294,114.1072 L163.1634,116.5602 L163.1684,116.5642 C155.0834,117.9462 147.6704,122.8412 143.3704,130.5662 C140.1994,136.2612 139.2314,142.5822 140.1724,148.5572 L139.2244,150.2612 C139.2244,150.2612 139.5834,154.4052 141.1684,156.7462 L143.0944,157.3412 C145.5444,161.9742 149.3124,165.9792 154.2334,168.7192 C167.7684,176.2552 184.8504,171.3912 192.3854,157.8552 C199.9214,144.3202 195.0574,127.2382 181.5224,119.7032" id="Fill-4" fill="#E0E3E7"></path>
                <path d="M181.5224,119.7032 C180.1064,118.9142 178.6494,118.2692 177.1704,117.7482 L177.1794,117.7452 L176.5014,115.0232 C170.9154,112.5462 164.5294,114.1072 164.5294,114.1072 L163.1634,116.5602 L163.1684,116.5642 C155.0834,117.9462 147.6704,122.8412 143.3704,130.5662 C140.1994,136.2612 139.2314,142.5822 140.1724,148.5572 L139.2244,150.2612 C139.2244,150.2612 139.5834,154.4052 141.1684,156.7462 L143.0944,157.3412 C145.5444,161.9742 149.3124,165.9792 154.2334,168.7192 C167.7684,176.2552 184.8504,171.3912 192.3854,157.8552 C199.9214,144.3202 195.0574,127.2382 181.5224,119.7032 Z" id="Stroke-6" stroke="#32373D" stroke-width="2.291" stroke-linecap="round" stroke-linejoin="round"></path>
                <path d="M457.4111,272.419 C433.9731,329.411 368.7701,356.612 311.7771,333.174 C254.7841,309.735 227.5831,244.532 251.0211,187.54 C274.4611,130.547 339.6631,103.346 396.6561,126.784 C453.6491,150.224 480.8491,215.426 457.4111,272.419" id="Fill-8" fill="#3E5057"></path>
                <path d="M442.5879,266.3223 C422.5169,315.1293 366.6799,338.4233 317.8729,318.3503 C269.0669,298.2793 245.7739,242.4423 265.8449,193.6353 C285.9169,144.8293 341.7539,121.5363 390.5599,141.6073 C439.3659,161.6793 462.6599,217.5153 442.5879,266.3223" id="Fill-10" fill="#F0F2F5"></path>
                <path d="M442.5879,266.3223 C422.5169,315.1293 366.6799,338.4233 317.8729,318.3503 C269.0669,298.2793 245.7739,242.4423 265.8449,193.6353 C285.9169,144.8293 341.7539,121.5363 390.5599,141.6073 C439.3659,161.6793 462.6599,217.5153 442.5879,266.3223 Z" id="Stroke-12" stroke="#97A6B5" stroke-width="2.174" stroke-linecap="round" stroke-linejoin="round"></path>
                <path d="M294.79,306.2803 C298.396,309.4583 302.727,312.4233 308.035,314.9143 C308.256,315.0173 308.437,315.1783 308.571,315.3833 C309.157,316.2773 311.285,318.5633 311.96,319.2833 C312.101,319.4313 312.267,319.5393 312.458,319.6083 L319.498,322.1743 C319.701,322.2473 319.883,322.3713 320.026,322.5323 L324.594,327.6743 C324.894,328.0113 325.349,328.1703 325.794,328.0923 L330.615,327.2423 C330.787,327.2123 330.963,327.2173 331.133,327.2563 L334.542,328.0363 C334.718,328.0763 334.899,328.0793 335.076,328.0463 L339.025,327.2963 C339.194,327.2633 339.367,327.2643 339.535,327.3003 L347.114,328.8813 C347.389,328.9373 347.674,328.9053 347.928,328.7883 L351.925,326.9383 C352.097,326.8583 352.284,326.8173 352.474,326.8173 L358.802,326.8233 C359.046,326.8233 359.285,326.7553 359.492,326.6263 L363.478,324.1403 C364.319,323.6163 363.921,322.3163 362.93,322.3543 L359.846,322.4723 C359.636,322.4813 359.426,322.4383 359.235,322.3473 L351.7,318.7573 C351.429,318.6283 351.121,318.5953 350.829,318.6683 L346.559,319.7173 C346.26,319.7913 345.944,319.7563 345.669,319.6193 L333.47,313.5783 C333.349,313.5173 333.219,313.4773 333.085,313.4573 L323.311,311.9893 C323.098,311.9573 322.896,311.8733 322.725,311.7453 L314.798,305.8263 C314.564,305.6513 314.279,305.5603 313.987,305.5673 L304.689,305.7853 C304.591,305.7883 304.492,305.7793 304.396,305.7593 L295.921,304.0193 C294.61,303.7503 293.786,305.3943 294.79,306.2803" id="Fill-14" fill="#DDE1E6"></path>
                <path d="M294.79,306.2803 C298.396,309.4583 302.727,312.4233 308.035,314.9143 C308.256,315.0173 308.437,315.1783 308.571,315.3833 C309.157,316.2773 311.285,318.5633 311.96,319.2833 C312.101,319.4313 312.267,319.5393 312.458,319.6083 L319.498,322.1743 C319.701,322.2473 319.883,322.3713 320.026,322.5323 L324.594,327.6743 C324.894,328.0113 325.349,328.1703 325.794,328.0923 L330.615,327.2423 C330.787,327.2123 330.963,327.2173 331.133,327.2563 L334.542,328.0363 C334.718,328.0763 334.899,328.0793 335.076,328.0463 L339.025,327.2963 C339.194,327.2633 339.367,327.2643 339.535,327.3003 L347.114,328.8813 C347.389,328.9373 347.674,328.9053 347.928,328.7883 L351.925,326.9383 C352.097,326.8583 352.284,326.8173 352.474,326.8173 L358.802,326.8233 C359.046,326.8233 359.285,326.7553 359.492,326.6263 L363.478,324.1403 C364.319,323.6163 363.921,322.3163 362.93,322.3543 L359.846,322.4723 C359.636,322.4813 359.426,322.4383 359.235,322.3473 L351.7,318.7573 C351.429,318.6283 351.121,318.5953 350.829,318.6683 L346.559,319.7173 C346.26,319.7913 345.944,319.7563 345.669,319.6193 L333.47,313.5783 C333.349,313.5173 333.219,313.4773 333.085,313.4573 L323.311,311.9893 C323.098,311.9573 322.896,311.8733 322.725,311.7453 L314.798,305.8263 C314.564,305.6513 314.279,305.5603 313.987,305.5673 L304.689,305.7853 C304.591,305.7883 304.492,305.7793 304.396,305.7593 L295.921,304.0193 C294.61,303.7503 293.786,305.3943 294.79,306.2803 Z" id="Stroke-16" stroke="#32373D" stroke-width="2.174" stroke-linecap="round" stroke-linejoin="round"></path>
                <path d="M427.4287,166.3028 C434.1917,173.9478 443.1427,187.1478 445.6677,197.5238 C445.7747,197.9578 445.6477,198.4048 445.3377,198.7288 C442.3817,201.8328 428.2697,214.8688 426.7717,216.2508 C426.6787,216.3368 426.5847,216.3988 426.4717,216.4538 L418.0817,220.5518 C417.9827,220.6018 417.8757,220.6378 417.7657,220.6588 L413.3677,221.5388 C413.0387,221.6048 412.7477,221.7948 412.5557,222.0698 L407.3507,229.5038 C406.9677,230.0508 406.2337,230.2198 405.6497,229.8958 L386.1807,219.0798 C385.8287,218.8838 385.5867,218.5368 385.5257,218.1388 L383.0607,202.1778 C382.9777,201.6398 383.2377,201.1068 383.7137,200.8408 L396.3577,193.7818 C396.6717,193.6058 396.9007,193.3078 396.9877,192.9578 L402.3517,171.4258 C402.4737,170.9368 402.8667,170.5608 403.3617,170.4618 L426.2007,165.8998 C426.6577,165.8088 427.1207,165.9538 427.4287,166.3028" id="Fill-18" fill="#BCE0D3"></path>
                <path d="M427.4287,166.3028 C434.1917,173.9478 443.1427,187.1478 445.6677,197.5238 C445.7747,197.9578 445.6477,198.4048 445.3377,198.7288 C442.3817,201.8328 428.2697,214.8688 426.7717,216.2508 C426.6787,216.3368 426.5847,216.3988 426.4717,216.4538 L418.0817,220.5518 C417.9827,220.6018 417.8757,220.6378 417.7657,220.6588 L413.3677,221.5388 C413.0387,221.6048 412.7477,221.7948 412.5557,222.0698 L407.3507,229.5038 C406.9677,230.0508 406.2337,230.2198 405.6497,229.8958 L386.1807,219.0798 C385.8287,218.8838 385.5867,218.5368 385.5257,218.1388 L383.0607,202.1778 C382.9777,201.6398 383.2377,201.1068 383.7137,200.8408 L396.3577,193.7818 C396.6717,193.6058 396.9007,193.3078 396.9877,192.9578 L402.3517,171.4258 C402.4737,170.9368 402.8667,170.5608 403.3617,170.4618 L426.2007,165.8998 C426.6577,165.8088 427.1207,165.9538 427.4287,166.3028 Z" id="Stroke-20" stroke="#32373D" stroke-width="2.174" stroke-linecap="round" stroke-linejoin="round"></path>
                <path d="M256.5947,229.6729 C256.1987,254.7079 265.8527,279.7399 286.4437,298.3159 C287.0537,298.8669 288.0267,298.7179 288.4467,298.0109 C288.9987,297.0789 289.6717,295.9489 290.1047,295.2229 C290.3747,294.7689 290.8887,294.5269 291.4107,294.6039 L297.1247,295.4389 C297.2487,295.4569 297.3757,295.4569 297.5007,295.4389 L310.9647,293.4809 C311.4757,293.4059 311.8947,293.0379 312.0327,292.5409 L315.1157,281.4999 C315.1827,281.2629 315.3147,281.0489 315.4957,280.8839 L326.1807,271.2019 C326.4757,270.9349 326.6327,270.5469 326.6057,270.1489 L325.1167,247.9939 C325.0977,247.7049 324.9827,247.4309 324.7887,247.2139 L316.6957,238.1299 C316.2937,237.6789 315.6347,237.5639 315.1027,237.8509 L303.9817,243.8529 C303.7137,243.9969 303.4047,244.0429 303.1067,243.9839 L290.2177,241.4049 C290.0637,241.3739 289.9157,241.3159 289.7827,241.2319 L277.1387,233.3199 C276.8887,233.1639 276.5937,233.0969 276.3007,233.1299 L266.0287,234.2929 C265.6727,234.3329 265.3167,234.2259 265.0427,233.9959 L258.7437,228.7099 C257.9087,228.0089 256.6117,228.5819 256.5947,229.6729" id="Fill-22" fill="#BCE0D3"></path>
                <path d="M256.5947,229.6729 C256.1987,254.7079 265.8527,279.7399 286.4437,298.3159 C287.0537,298.8669 288.0267,298.7179 288.4467,298.0109 C288.9987,297.0789 289.6717,295.9489 290.1047,295.2229 C290.3747,294.7689 290.8887,294.5269 291.4107,294.6039 L297.1247,295.4389 C297.2487,295.4569 297.3757,295.4569 297.5007,295.4389 L310.9647,293.4809 C311.4757,293.4059 311.8947,293.0379 312.0327,292.5409 L315.1157,281.4999 C315.1827,281.2629 315.3147,281.0489 315.4957,280.8839 L326.1807,271.2019 C326.4757,270.9349 326.6327,270.5469 326.6057,270.1489 L325.1167,247.9939 C325.0977,247.7049 324.9827,247.4309 324.7887,247.2139 L316.6957,238.1299 C316.2937,237.6789 315.6347,237.5639 315.1027,237.8509 L303.9817,243.8529 C303.7137,243.9969 303.4047,244.0429 303.1067,243.9839 L290.2177,241.4049 C290.0637,241.3739 289.9157,241.3159 289.7827,241.2319 L277.1387,233.3199 C276.8887,233.1639 276.5937,233.0969 276.3007,233.1299 L266.0287,234.2929 C265.6727,234.3329 265.3167,234.2259 265.0427,233.9959 L258.7437,228.7099 C257.9087,228.0089 256.6117,228.5819 256.5947,229.6729 Z" id="Stroke-24" stroke="#32373D" stroke-width="2.174" stroke-linecap="round" stroke-linejoin="round"></path>
                <path d="M336.709,134.6046 C304.616,140.1386 269.405,164.7366 259.768,208.4216 C259.563,209.3506 260.403,210.1846 261.333,209.9836 C262.298,209.7756 263.398,209.5126 264.111,209.3396 C264.577,209.2266 265.063,209.3786 265.385,209.7356 L272.563,217.7076 C272.875,218.0526 273.349,218.2066 273.804,218.1096 L292.485,214.1296 C292.803,214.0626 293.083,213.8786 293.272,213.6156 L304.956,197.3446 C305.313,196.8476 305.275,196.1686 304.867,195.7136 L298.866,189.0186 C298.597,188.7176 298.481,188.3096 298.555,187.9126 L300.493,177.3786 C300.57,176.9586 300.848,176.6036 301.235,176.4276 L312.571,171.2776 C313.4,170.9006 314.351,171.4686 314.411,172.3766 L315.005,181.2356 C315.026,181.5626 315.171,181.8696 315.409,182.0946 L330.896,196.7676 C331.224,197.0786 331.688,197.1966 332.125,197.0826 L345.306,193.6056 C345.434,193.5716 345.565,193.5576 345.697,193.5636 C347.406,193.6436 359.577,194.1966 359.753,193.7686 C359.926,193.3496 361.107,181.0636 361.316,178.8866 C361.337,178.6646 361.414,178.4616 361.542,178.2786 L369.116,167.3856 C369.451,166.9036 369.423,166.2566 369.046,165.8056 L356.202,150.4366 C356.061,150.2676 355.88,150.1376 355.675,150.0576 L339.863,143.8916 C339.421,143.7186 339.107,143.3256 339.045,142.8546 C338.843,141.3296 338.396,137.8566 338.228,135.7906 C338.165,135.0256 337.465,134.4746 336.709,134.6046" id="Fill-26" fill="#BCE0D3"></path>
                <path d="M336.709,134.6046 C304.616,140.1386 269.405,164.7366 259.768,208.4216 C259.563,209.3506 260.403,210.1846 261.333,209.9836 C262.298,209.7756 263.398,209.5126 264.111,209.3396 C264.577,209.2266 265.063,209.3786 265.385,209.7356 L272.563,217.7076 C272.875,218.0526 273.349,218.2066 273.804,218.1096 L292.485,214.1296 C292.803,214.0626 293.083,213.8786 293.272,213.6156 L304.956,197.3446 C305.313,196.8476 305.275,196.1686 304.867,195.7136 L298.866,189.0186 C298.597,188.7176 298.481,188.3096 298.555,187.9126 L300.493,177.3786 C300.57,176.9586 300.848,176.6036 301.235,176.4276 L312.571,171.2776 C313.4,170.9006 314.351,171.4686 314.411,172.3766 L315.005,181.2356 C315.026,181.5626 315.171,181.8696 315.409,182.0946 L330.896,196.7676 C331.224,197.0786 331.688,197.1966 332.125,197.0826 L345.306,193.6056 C345.434,193.5716 345.565,193.5576 345.697,193.5636 C347.406,193.6436 359.577,194.1966 359.753,193.7686 C359.926,193.3496 361.107,181.0636 361.316,178.8866 C361.337,178.6646 361.414,178.4616 361.542,178.2786 L369.116,167.3856 C369.451,166.9036 369.423,166.2566 369.046,165.8056 L356.202,150.4366 C356.061,150.2676 355.88,150.1376 355.675,150.0576 L339.863,143.8916 C339.421,143.7186 339.107,143.3256 339.045,142.8546 C338.843,141.3296 338.396,137.8566 338.228,135.7906 C338.165,135.0256 337.465,134.4746 336.709,134.6046 Z" id="Stroke-28" stroke="#32373D" stroke-width="2.174" stroke-linecap="round" stroke-linejoin="round"></path>
                <path d="M447.0215,210.6065 L443.1535,219.4355 C442.9995,219.7875 442.6985,220.0525 442.3315,220.1625 L432.6305,223.0485 C432.4065,223.1155 432.2045,223.2415 432.0455,223.4135 L423.3345,232.8375 C423.0735,233.1205 422.9505,233.5025 422.9985,233.8845 L424.6505,247.0695 C424.6975,247.4375 424.5845,247.8085 424.3385,248.0885 L416.9905,256.5085 C416.7345,256.8015 416.3625,256.9655 415.9735,256.9555 L402.9535,256.6145 C402.2485,256.5955 401.6565,257.1405 401.6175,257.8445 L400.7585,273.1665 C400.7505,273.3235 400.7125,273.4775 400.6485,273.6225 L394.5915,287.2475 C394.4485,287.5695 394.4415,287.9375 394.5745,288.2645 L399.3425,300.0695 C399.4925,300.4375 399.4645,300.8535 399.2695,301.2005 L392.6585,312.8955 C392.5945,313.0075 392.5215,313.1035 392.4285,313.1925 C391.7515,313.8355 388.6625,316.7865 386.4625,319.0645 C385.5535,320.0065 386.4475,321.5395 387.7205,321.2345 C408.5515,316.2415 460.3525,280.4035 449.5145,210.9435 C449.3125,209.6495 447.5465,209.4075 447.0215,210.6065" id="Fill-30" fill="#BCE0D3"></path>
                <path d="M447.0215,210.6065 L443.1535,219.4355 C442.9995,219.7875 442.6985,220.0525 442.3315,220.1625 L432.6305,223.0485 C432.4065,223.1155 432.2045,223.2415 432.0455,223.4135 L423.3345,232.8375 C423.0735,233.1205 422.9505,233.5025 422.9985,233.8845 L424.6505,247.0695 C424.6975,247.4375 424.5845,247.8085 424.3385,248.0885 L416.9905,256.5085 C416.7345,256.8015 416.3625,256.9655 415.9735,256.9555 L402.9535,256.6145 C402.2485,256.5955 401.6565,257.1405 401.6175,257.8445 L400.7585,273.1665 C400.7505,273.3235 400.7125,273.4775 400.6485,273.6225 L394.5915,287.2475 C394.4485,287.5695 394.4415,287.9375 394.5745,288.2645 L399.3425,300.0695 C399.4925,300.4375 399.4645,300.8535 399.2695,301.2005 L392.6585,312.8955 C392.5945,313.0075 392.5215,313.1035 392.4285,313.1925 C391.7515,313.8355 388.6625,316.7865 386.4625,319.0645 C385.5535,320.0065 386.4475,321.5395 387.7205,321.2345 C408.5515,316.2415 460.3525,280.4035 449.5145,210.9435 C449.3125,209.6495 447.5465,209.4075 447.0215,210.6065 Z" id="Stroke-32" stroke="#32373D" stroke-width="2.174" stroke-linecap="round" stroke-linejoin="round"></path>
                <path d="M357.7617,133.0157 L369.1077,132.3767 C369.4207,132.3597 369.7307,132.4557 369.9797,132.6487 L371.7287,134.0037 C372.0407,134.2457 372.4467,134.3337 372.8297,134.2417 L379.7737,132.5807 C380.1157,132.4997 380.4757,132.5597 380.7737,132.7467 L383.6767,134.5807 C383.9507,134.7547 384.2807,134.8197 384.5997,134.7627 L389.0147,133.9837 C389.2577,133.9407 389.5087,133.9677 389.7377,134.0617 L391.2887,134.6997 C391.5787,134.8197 391.8167,135.0387 391.9567,135.3197 L393.4187,138.2217 C393.6037,138.5877 393.9497,138.8467 394.3547,138.9187 L397.3457,139.4537 C397.6577,139.5097 397.9407,139.6777 398.1377,139.9267 L400.3817,142.7527 C400.4657,142.8587 400.5657,142.9507 400.6767,143.0257 L405.7797,146.4487 C405.9477,146.5607 406.0817,146.7027 406.1817,146.8777 C406.5317,147.4917 407.4017,148.9987 407.6117,149.1797 C407.8397,149.3767 415.4917,155.6377 417.6177,157.3767 C417.8417,157.5597 417.7587,157.9197 417.4767,157.9867 C416.7747,158.1537 415.7107,158.3957 415.1777,158.4687 C414.9907,158.4947 414.8007,158.4647 414.6307,158.3837 L407.7247,155.0907 C407.6387,155.0507 407.5497,155.0197 407.4567,154.9977 L399.8597,153.2417 C399.7067,153.2057 399.5497,153.1987 399.3947,153.2187 L391.7807,154.2317 C391.4607,154.2747 391.1377,154.1977 390.8707,154.0147 L379.2577,146.0567 C379.1327,145.9717 378.9937,145.9087 378.8487,145.8697 L365.3487,142.3707 C365.0717,142.2987 364.8247,142.1377 364.6487,141.9117 L361.1237,137.4037 C360.9937,137.2387 360.8257,137.1067 360.6347,137.0197 L357.2957,135.5047 C356.0547,134.9417 356.4007,133.0917 357.7617,133.0157" id="Fill-34" fill="#DDE1E6"></path>
                <path d="M357.7617,133.0157 L369.1077,132.3767 C369.4207,132.3597 369.7307,132.4557 369.9797,132.6487 L371.7287,134.0037 C372.0407,134.2457 372.4467,134.3337 372.8297,134.2417 L379.7737,132.5807 C380.1157,132.4997 380.4757,132.5597 380.7737,132.7467 L383.6767,134.5807 C383.9507,134.7547 384.2807,134.8197 384.5997,134.7627 L389.0147,133.9837 C389.2577,133.9407 389.5087,133.9677 389.7377,134.0617 L391.2887,134.6997 C391.5787,134.8197 391.8167,135.0387 391.9567,135.3197 L393.4187,138.2217 C393.6037,138.5877 393.9497,138.8467 394.3547,138.9187 L397.3457,139.4537 C397.6577,139.5097 397.9407,139.6777 398.1377,139.9267 L400.3817,142.7527 C400.4657,142.8587 400.5657,142.9507 400.6767,143.0257 L405.7797,146.4487 C405.9477,146.5607 406.0817,146.7027 406.1817,146.8777 C406.5317,147.4917 407.4017,148.9987 407.6117,149.1797 C407.8397,149.3767 415.4917,155.6377 417.6177,157.3767 C417.8417,157.5597 417.7587,157.9197 417.4767,157.9867 C416.7747,158.1537 415.7107,158.3957 415.1777,158.4687 C414.9907,158.4947 414.8007,158.4647 414.6307,158.3837 L407.7247,155.0907 C407.6387,155.0507 407.5497,155.0197 407.4567,154.9977 L399.8597,153.2417 C399.7067,153.2057 399.5497,153.1987 399.3947,153.2187 L391.7807,154.2317 C391.4607,154.2747 391.1377,154.1977 390.8707,154.0147 L379.2577,146.0567 C379.1327,145.9717 378.9937,145.9087 378.8487,145.8697 L365.3487,142.3707 C365.0717,142.2987 364.8247,142.1377 364.6487,141.9117 L361.1237,137.4037 C360.9937,137.2387 360.8257,137.1067 360.6347,137.0197 L357.2957,135.5047 C356.0547,134.9417 356.4007,133.0917 357.7617,133.0157 Z" id="Stroke-36" stroke="#32373D" stroke-width="2.174" stroke-linecap="round" stroke-linejoin="round"></path>
                <path d="M354.0029,59.0264 C365.7499,68.9054 367.2649,86.4374 357.3859,98.1844 C350.4389,106.4464 339.7059,109.6384 329.8619,107.3744 C326.7079,111.8924 324.9199,116.5664 325.7659,120.8444 C326.1959,123.0204 324.7319,122.8084 323.9749,121.8264 C320.1809,116.9004 315.7879,109.1624 316.0939,99.5734 C306.3339,89.4614 305.5999,73.4034 314.8449,62.4094 C324.7239,50.6624 342.2549,49.1474 354.0029,59.0264" id="Fill-38" fill="#FEFEFE"></path>
                <path d="M354.0029,59.0264 C365.7499,68.9054 367.2649,86.4374 357.3859,98.1844 C350.4389,106.4464 339.7059,109.6384 329.8619,107.3744 C326.7079,111.8924 324.9199,116.5664 325.7659,120.8444 C326.1959,123.0204 324.7319,122.8084 323.9749,121.8264 C320.1809,116.9004 315.7879,109.1624 316.0939,99.5734 C306.3339,89.4614 305.5999,73.4034 314.8449,62.4094 C324.7239,50.6624 342.2549,49.1474 354.0029,59.0264 Z" id="Stroke-40" stroke="#32373D" stroke-width="2.174" stroke-linecap="round" stroke-linejoin="round"></path>
                <path d="M241.8466,357.9122 C257.1366,359.2692 270.6306,347.9742 271.9876,332.6852 C272.9426,321.9332 267.6336,312.0752 259.0846,306.6952 C260.0616,301.2722 262.1136,296.7072 265.7426,294.2892 C267.5876,293.0582 266.4036,292.1712 265.1736,292.3272 C259.0066,293.1132 250.4226,295.4592 243.8426,302.4392 C229.7896,302.6562 217.8906,313.4642 216.6206,327.7712 C215.2636,343.0602 226.5576,356.5552 241.8466,357.9122" id="Fill-42" fill="#FEFEFE"></path>
                <path d="M241.8466,357.9122 C257.1366,359.2692 270.6306,347.9742 271.9876,332.6852 C272.9426,321.9332 267.6336,312.0752 259.0846,306.6952 C260.0616,301.2722 262.1136,296.7072 265.7426,294.2892 C267.5876,293.0582 266.4036,292.1712 265.1736,292.3272 C259.0066,293.1132 250.4226,295.4592 243.8426,302.4392 C229.7896,302.6562 217.8906,313.4642 216.6206,327.7712 C215.2636,343.0602 226.5576,356.5552 241.8466,357.9122 Z" id="Stroke-44" stroke="#32373D" stroke-width="2.174" stroke-linecap="round" stroke-linejoin="round"></path>
                <path d="M36.6933,431.8633 C29.0323,418.5623 33.6033,401.5693 46.9033,393.9083 C56.2573,388.5203 67.4333,389.1893 75.9103,394.6833 C80.4203,391.5163 83.6983,387.7353 84.3663,383.4253 C84.7063,381.2333 86.0093,381.9343 86.3843,383.1163 C88.2653,389.0423 89.7483,397.8153 86.1813,406.7223 C91.8953,419.5623 87.0943,434.9033 74.6483,442.0733 C61.3473,449.7343 44.3543,445.1633 36.6933,431.8633" id="Fill-46" fill="#FEFEFE"></path>
                <path d="M36.6933,431.8633 C29.0323,418.5623 33.6033,401.5693 46.9033,393.9083 C56.2573,388.5203 67.4333,389.1893 75.9103,394.6833 C80.4203,391.5163 83.6983,387.7353 84.3663,383.4253 C84.7063,381.2333 86.0093,381.9343 86.3843,383.1163 C88.2653,389.0423 89.7483,397.8153 86.1813,406.7223 C91.8953,419.5623 87.0943,434.9033 74.6483,442.0733 C61.3473,449.7343 44.3543,445.1633 36.6933,431.8633 Z" id="Stroke-48" stroke="#3E5057" stroke-width="2.174" stroke-linecap="round" stroke-linejoin="round"></path>
                <path d="M94.8252,66.0059 C109.3832,61.1419 125.1282,68.9999 129.9922,83.5589 C133.4132,93.7969 130.5352,104.6169 123.4652,111.8319 C125.6732,116.8809 128.7262,120.8459 132.8172,122.3579 C134.8972,123.1259 133.9522,124.2649 132.7192,124.3979 C126.5382,125.0629 117.6442,124.7709 109.6242,119.5049 C95.9052,122.5519 81.8242,114.7969 77.2722,101.1729 C72.4082,86.6149 80.2662,70.8699 94.8252,66.0059" id="Fill-50" fill="#FEFEFE"></path>
                <path d="M94.8252,66.0059 C109.3832,61.1419 125.1282,68.9999 129.9922,83.5589 C133.4132,93.7969 130.5352,104.6169 123.4652,111.8319 C125.6732,116.8809 128.7262,120.8459 132.8172,122.3579 C134.8972,123.1259 133.9522,124.2649 132.7192,124.3979 C126.5382,125.0629 117.6442,124.7709 109.6242,119.5049 C95.9052,122.5519 81.8242,114.7969 77.2722,101.1729 C72.4082,86.6149 80.2662,70.8699 94.8252,66.0059 Z" id="Stroke-52" stroke="#32373D" stroke-width="2.174" stroke-linecap="round" stroke-linejoin="round"></path>
                <path d="M174.8564,125.9415 C174.0854,125.3745 173.1694,125.0225 172.2614,124.9255 C171.3584,124.8165 170.4704,124.9975 169.8994,125.4785 C169.2914,126.0035 168.7734,126.8115 168.4514,127.6505 C168.1044,128.4875 167.9274,129.3955 167.9704,130.2575 C168.0124,131.9625 169.1144,133.6055 170.7124,134.3295 C171.5374,134.6955 172.3894,134.8745 173.1794,134.5925 C173.9724,134.3415 174.7014,133.6345 175.1864,132.8355 L175.2044,132.8065 C175.2904,132.6665 175.4724,132.6215 175.6144,132.7075 C175.7324,132.7795 175.7834,132.9205 175.7444,133.0475 C175.4214,134.1145 174.7444,135.0945 173.6534,135.6755 C173.1104,135.9545 172.4864,136.0845 171.8754,136.0855 C171.2604,136.0645 170.6994,135.9445 170.1444,135.7525 C167.9014,134.9925 166.2504,132.7475 166.1664,130.3385 C166.1154,129.1525 166.3804,128.0045 166.8364,126.9625 C167.3294,125.9355 167.9454,124.9495 168.9784,124.2285 C170.0784,123.4745 171.4114,123.4605 172.4944,123.7485 C173.5904,124.0555 174.5884,124.6485 175.2804,125.5215 C175.3824,125.6515 175.3604,125.8395 175.2304,125.9425 C175.1224,126.0285 174.9724,126.0275 174.8664,125.9495 L174.8564,125.9415 Z" id="Fill-54" fill="#32373D"></path>
                <path d="M153.2246,137.2989 C152.6336,136.1689 151.3246,135.5269 150.2176,135.7379 C149.0946,135.9449 148.1056,136.8639 147.9406,137.9629 C147.7106,139.0599 148.2266,140.3619 149.1436,140.9089 C149.5706,141.1729 150.1576,141.1689 150.7066,140.9419 C151.2686,140.7389 151.7646,140.2889 152.2296,139.7959 C152.3316,139.6859 152.5036,139.6789 152.6146,139.7809 C152.7066,139.8659 152.7246,140.0039 152.6676,140.1109 C152.3196,140.7489 151.8256,141.3559 151.1226,141.7819 C150.4306,142.1809 149.4726,142.3379 148.6306,141.9559 C147.0196,141.1859 146.3176,139.3559 146.6056,137.7169 C146.9006,136.0149 148.4146,134.6949 150.0796,134.5759 C150.9196,134.5129 151.7536,134.7619 152.4086,135.2179 C153.0476,135.6929 153.5556,136.3569 153.7326,137.1159 C153.7666,137.2629 153.6746,137.4079 153.5296,137.4429 C153.4066,137.4709 153.2836,137.4109 153.2276,137.3039 L153.2246,137.2989 Z" id="Fill-56" fill="#32373D"></path>
                <path d="M153.9238,156.3145 C153.2278,155.9035 152.3618,155.9615 151.7978,156.3045 C151.2378,156.6445 150.9098,157.3725 150.9798,158.0165 C151.0338,158.6505 151.5278,159.2915 152.1738,159.5805 C152.5098,159.7185 152.8508,159.8005 153.0988,159.6945 C153.3948,159.5995 153.6738,159.2575 153.9628,158.9135 C154.0538,158.7995 154.2198,158.7835 154.3318,158.8745 C154.4218,158.9465 154.4488,159.0705 154.4118,159.1725 C154.2438,159.6045 154.0338,160.0815 153.5298,160.4525 C153.2778,160.6335 152.9348,160.7185 152.6438,160.7255 C152.3478,160.7365 152.0778,160.6875 151.8078,160.6085 C150.7408,160.2935 149.8588,159.3455 149.7148,158.1535 C149.5828,156.9885 150.1998,155.7945 151.2798,155.2975 C152.3438,154.8115 153.5988,155.1215 154.2708,155.9285 C154.3628,156.0405 154.3478,156.2055 154.2358,156.2975 C154.1498,156.3705 154.0288,156.3765 153.9368,156.3225 L153.9238,156.3145 Z" id="Fill-58" fill="#32373D"></path>
                <path d="M175.5459,148.3702 C174.7699,147.6822 173.7829,147.3422 172.8459,147.3502 C171.9339,147.3652 170.9769,147.7632 170.4139,148.3842 C169.8449,149.0002 169.6839,149.9052 169.8989,150.8322 C170.1169,151.7402 170.6279,152.6462 171.5459,153.0362 L171.5579,153.0412 C171.6919,153.0982 171.7529,153.2522 171.6959,153.3862 C171.6529,153.4882 171.5529,153.5482 171.4479,153.5462 C170.8139,153.5302 170.1989,153.2162 169.7309,152.7852 C169.2679,152.3442 168.9149,151.7992 168.6999,151.1972 C168.4739,150.6022 168.3919,149.9322 168.4789,149.2592 C168.5739,148.5872 168.8889,147.9242 169.3499,147.4172 C170.3059,146.4212 171.6299,145.9882 172.9199,146.1272 C174.1869,146.2682 175.3659,146.9872 175.9559,148.0522 C176.0259,148.1792 175.9809,148.3392 175.8539,148.4082 C175.7539,148.4642 175.6339,148.4472 175.5529,148.3762 L175.5459,148.3702 Z" id="Fill-60" fill="#32373D"></path>
                <path d="M173.541,157.0548 C173.158,156.6978 172.56,156.6688 172.184,156.9028 C171.796,157.1418 171.527,157.6168 171.562,158.0438 C171.586,158.4828 171.88,158.9168 172.278,159.0588 C172.687,159.2128 173.27,159.0848 173.633,158.6988 L173.644,158.6868 C173.714,158.6118 173.832,158.6078 173.907,158.6788 C173.965,158.7328 173.98,158.8148 173.953,158.8838 C173.678,159.5748 172.875,159.9848 172.079,159.8328 C171.256,159.6598 170.694,158.8868 170.663,158.0888 C170.633,157.2688 171.123,156.5118 171.854,156.2118 C172.591,155.8958 173.495,156.1728 173.845,156.8418 C173.893,156.9338 173.856,157.0468 173.766,157.0938 C173.693,157.1318 173.607,157.1178 173.552,157.0658 L173.541,157.0548 Z" id="Fill-62" fill="#32373D"></path>
                <path d="M193.5781,155.4454 C199.3181,142.3534 194.2651,126.7984 181.5221,119.7034 C180.7461,119.2704 179.9581,118.8844 179.1611,118.5334 C182.6901,121.5254 185.3221,125.2914 186.9871,129.4244 C186.6561,129.4394 186.3291,129.5104 186.0571,129.6914 C185.3331,130.1744 185.0411,131.1654 185.3341,131.9914 C185.5881,132.7064 186.2651,133.2824 187.0271,133.3784 C187.4341,133.4294 187.8471,133.3264 188.1911,133.1214 C188.6381,134.9054 188.9061,136.7324 188.9961,138.5794 C188.4621,138.2604 187.8901,138.0084 187.2811,137.8894 C186.4651,137.7304 185.5741,137.8354 184.8851,138.2994 C184.2871,138.7034 183.8811,139.3464 183.6501,140.0304 C183.1181,141.6084 183.5211,143.4744 184.6851,144.6664 C185.6311,145.6324 187.0461,146.0944 188.3811,145.9284 C187.8071,148.5344 186.8711,151.1044 185.5071,153.5554 C178.4031,166.3154 162.8171,171.3644 149.7151,165.5894 C151.0911,166.7554 152.5981,167.8084 154.2331,168.7184 C164.8271,174.6174 177.5921,172.9184 186.2541,165.4124 L186.2541,165.4144 L188.9991,166.4174 C193.1811,162.8864 195.2281,157.7934 195.2281,157.7934 L193.5811,155.4444 L193.5781,155.4454 Z" id="Fill-64" fill="#D1D5DA"></path>
                <path d="M193.5781,155.4454 C199.3181,142.3534 194.2651,126.7984 181.5221,119.7034 C180.7461,119.2704 179.9581,118.8844 179.1611,118.5334 C182.6901,121.5254 185.3221,125.2914 186.9871,129.4244 C186.6561,129.4394 186.3291,129.5104 186.0571,129.6914 C185.3331,130.1744 185.0411,131.1654 185.3341,131.9914 C185.5881,132.7064 186.2651,133.2824 187.0271,133.3784 C187.4341,133.4294 187.8471,133.3264 188.1911,133.1214 C188.6381,134.9054 188.9061,136.7324 188.9961,138.5794 C188.4621,138.2604 187.8901,138.0084 187.2811,137.8894 C186.4651,137.7304 185.5741,137.8354 184.8851,138.2994 C184.2871,138.7034 183.8811,139.3464 183.6501,140.0304 C183.1181,141.6084 183.5211,143.4744 184.6851,144.6664 C185.6311,145.6324 187.0461,146.0944 188.3811,145.9284 C187.8071,148.5344 186.8711,151.1044 185.5071,153.5554 C178.4031,166.3154 162.8171,171.3644 149.7151,165.5894 C151.0911,166.7554 152.5981,167.8084 154.2331,168.7184 C164.8271,174.6174 177.5921,172.9184 186.2541,165.4124 L186.2541,165.4144 L188.9991,166.4174 C193.1811,162.8864 195.2281,157.7934 195.2281,157.7934 L193.5811,155.4444 L193.5781,155.4454 Z" id="Stroke-66" stroke="#32373D" stroke-width="2.291" stroke-linecap="round" stroke-linejoin="round"></path>
                <path d="M115.5215,361.8028 L88.9585,371.4488 C86.2935,364.1138 90.0815,356.0078 97.4165,353.3438 C104.7515,350.6798 112.8575,354.4668 115.5215,361.8028" id="Fill-68" fill="#CDD4DB"></path>
                <path d="M115.5215,361.8028 L88.9585,371.4488 C86.2935,364.1138 90.0815,356.0078 97.4165,353.3438 C104.7515,350.6798 112.8575,354.4668 115.5215,361.8028 Z" id="Stroke-70" stroke="#3E5057" stroke-width="2.291" stroke-linecap="round" stroke-linejoin="round"></path>
                <path d="M110.6064,367.5655 L115.7494,374.9215" id="Stroke-72" stroke="#3E5057" stroke-width="2.291" stroke-linecap="round" stroke-linejoin="round"></path>
                <path d="M113.9844,376.1553 C114.6664,377.1313 116.0084,377.3683 116.9834,376.6863 C117.9584,376.0053 118.1964,374.6623 117.5144,373.6873 C116.8334,372.7133 115.4904,372.4753 114.5154,373.1563 C113.5414,373.8383 113.3024,375.1803 113.9844,376.1553" id="Fill-74" fill="#3E5057"></path>
                <path d="M96.4258,372.7149 L97.2018,381.6569" id="Stroke-76" stroke="#3E5057" stroke-width="2.291" stroke-linecap="round" stroke-linejoin="round"></path>
                <path d="M95.0566,381.8438 C95.1596,383.0288 96.2026,383.9058 97.3876,383.8028 C98.5736,383.6998 99.4506,382.6558 99.3476,381.4708 C99.2446,380.2858 98.2006,379.4088 97.0156,379.5118 C95.8306,379.6148 94.9526,380.6588 95.0566,381.8438" id="Fill-78" fill="#3E5057"></path>
                <path d="M115.5439,367.2989 L92.4679,375.6799 C91.6079,375.9909 90.6569,375.9169 89.8569,375.4769 L83.7399,372.1059 L119.9449,358.9569 L117.4169,365.4679 C117.0859,366.3199 116.4029,366.9869 115.5439,367.2989" id="Fill-80" fill="#CDD4DB"></path>
                <path d="M115.5439,367.2989 L92.4679,375.6799 C91.6079,375.9909 90.6569,375.9169 89.8569,375.4769 L83.7399,372.1059 L119.9449,358.9569 L117.4169,365.4679 C117.0859,366.3199 116.4029,366.9869 115.5439,367.2989 Z" id="Stroke-82" stroke="#3E5057" stroke-width="2.291" stroke-linecap="round" stroke-linejoin="round"></path>
                <path d="M123.3984,359.8184 L81.6444,374.9814 C79.9994,375.5794 78.1804,374.7294 77.5844,373.0854 C76.9864,371.4394 77.8354,369.6224 79.4804,369.0244 L121.2344,353.8614 C122.8794,353.2634 124.6974,354.1134 125.2944,355.7574 C125.8924,357.4034 125.0434,359.2204 123.3984,359.8184" id="Fill-84" fill="#CDD4DB"></path>
                <path d="M123.3984,359.8184 L81.6444,374.9814 C79.9994,375.5794 78.1804,374.7294 77.5844,373.0854 C76.9864,371.4394 77.8354,369.6224 79.4804,369.0244 L121.2344,353.8614 C122.8794,353.2634 124.6974,354.1134 125.2944,355.7574 C125.8924,357.4034 125.0434,359.2204 123.3984,359.8184 Z" id="Stroke-86" stroke="#3E5057" stroke-width="2.291" stroke-linecap="round" stroke-linejoin="round"></path>
                <polygon id="Fill-88" fill="#E0E3E7" points="232.5312 46.1993 238.0492 49.2173 232.5312 52.2343 229.5132 57.7523 226.4962 52.2343 220.9782 49.2173 226.4962 46.1993 229.5132 40.6813"></polygon>
                <polygon id="Fill-90" fill="#E0E3E7" points="500.917 364.8887 504.228 366.6997 500.917 368.5097 499.106 371.8207 497.296 368.5097 493.985 366.6997 497.296 364.8887 499.106 361.5777"></polygon>
                <path d="M173.331,244.1495 C173.331,247.6925 170.459,250.5635 166.917,250.5635 C163.375,250.5635 160.504,247.6925 160.504,244.1495 C160.504,240.6075 163.375,237.7365 166.917,237.7365 C170.459,237.7365 173.331,240.6075 173.331,244.1495 Z" id="Stroke-92" stroke="#D1D5DA" stroke-width="2.444" stroke-linecap="round" stroke-linejoin="round"></path>
                <path d="M524.1572,341.3458 C524.1572,344.8878 521.2862,347.7588 517.7442,347.7588 C514.2022,347.7588 511.3312,344.8878 511.3312,341.3458 C511.3312,337.8038 514.2022,334.9328 517.7442,334.9328 C521.2862,334.9328 524.1572,337.8038 524.1572,341.3458" id="Fill-94" fill="#E0E3E7"></path>
                <path d="M260.4306,67.796 C260.4306,69.921 258.7076,71.645 256.5826,71.645 C254.4566,71.645 252.7346,69.921 252.7346,67.796 C252.7346,65.671 254.4566,63.948 256.5826,63.948 C258.7076,63.948 260.4306,65.671 260.4306,67.796" id="Fill-96" fill="#E0E3E7"></path>
                <path d="M531.8535,244.1495 C531.8535,246.2755 530.1305,247.9985 528.0055,247.9985 C525.8805,247.9985 524.1575,246.2755 524.1575,244.1495 C524.1575,242.0245 525.8805,240.3015 528.0055,240.3015 C530.1305,240.3015 531.8535,242.0245 531.8535,244.1495" id="Fill-98" fill="#6A737D"></path>
                <path d="M390.9863,483.6778 C390.9863,485.8028 389.2623,487.5258 387.1373,487.5258 C385.0123,487.5258 383.2903,485.8028 383.2903,483.6778 C383.2903,481.5528 385.0123,479.8288 387.1373,479.8288 C389.2623,479.8288 390.9863,481.5528 390.9863,483.6778" id="Fill-100" fill="#6A737D"></path>
                <path d="M509.2461,142.0704 L512.9291,145.7544" id="Stroke-102" stroke="#6A737D" stroke-width="2.444" stroke-linecap="round" stroke-linejoin="round"></path>
                <path d="M498.1963,131.0206 L501.8793,134.7046" id="Stroke-104" stroke="#6A737D" stroke-width="2.444" stroke-linecap="round" stroke-linejoin="round"></path>
                <path d="M505.5625,144.3282 C505.5625,145.6482 498.3005,138.3872 499.6215,138.3872 C498.3005,138.3872 505.5625,131.1252 505.5625,132.4452 C505.5625,131.1252 512.8245,138.3872 511.5035,138.3872 C512.8245,138.3872 505.5625,145.6482 505.5625,144.3282 Z" id="Stroke-106" stroke="#6A737D" stroke-width="2.444" stroke-linecap="round" stroke-linejoin="round"></path>
                <polygon id="Fill-108" fill="#D1D5DA" points="466.0127 90.5284 462.5117 89.4504 459.0107 90.5284 460.0887 87.0274 459.0107 83.5264 462.5117 84.6044 466.0127 83.5264 464.9347 87.0274"></polygon>
                <polygon id="Fill-110" fill="#D1D5DA" points="275.5996 399.1397 272.0986 398.0617 268.5976 399.1397 269.6746 395.6387 268.5976 392.1377 272.0986 393.2157 275.5996 392.1377 274.5216 395.6387"></polygon>
                <polygon id="Fill-112" fill="#D1D5DA" points="196.3828 202.9171 194.6698 199.6801 191.4318 197.9661 194.6698 196.2531 196.3828 193.0151 198.0968 196.2531 201.3338 197.9661 198.0968 199.6801"></polygon>
                <polygon id="Fill-114" fill="#E0E3E7" points="332.7304 428.7354 331.0174 425.4974 327.7794 423.7844 331.0174 422.0714 332.7304 418.8334 334.4434 422.0714 337.6814 423.7844 334.4434 425.4974"></polygon>
                <path d="M412.1982,91.0167 L411.0772,88.8977 C411.0232,88.7957 410.9392,88.7117 410.8382,88.6587 L408.7182,87.5367 C408.3092,87.3207 408.3092,86.7357 408.7182,86.5187 L410.8382,85.3977 C410.9392,85.3437 411.0232,85.2597 411.0772,85.1577 L412.1982,83.0377 C412.4152,82.6297 413.0002,82.6297 413.2172,83.0377 L414.3382,85.1577 C414.3912,85.2597 414.4752,85.3437 414.5772,85.3977 L416.6972,86.5187 C417.1052,86.7357 417.1052,87.3207 416.6972,87.5367 L414.5772,88.6587 C414.4752,88.7117 414.3912,88.7957 414.3382,88.8977 L413.2172,91.0167 C413.0002,91.4257 412.4152,91.4257 412.1982,91.0167 Z" id="Stroke-116" stroke="#D1D5DA" stroke-width="2.444" stroke-linecap="round" stroke-linejoin="round"></path>
                <path d="M200.6123,82.6612 L199.4913,80.5422 C199.4363,80.4392 199.3533,80.3562 199.2513,80.3022 L197.1323,79.1812 C196.7233,78.9642 196.7233,78.3792 197.1323,78.1632 L199.2513,77.0412 C199.3533,76.9872 199.4363,76.9032 199.4913,76.8022 L200.6123,74.6822 C200.8293,74.2732 201.4143,74.2732 201.6303,74.6822 L202.7523,76.8022 C202.8053,76.9032 202.8893,76.9872 202.9913,77.0412 L205.1103,78.1632 C205.5193,78.3792 205.5193,78.9642 205.1103,79.1812 L202.9913,80.3022 C202.8893,80.3562 202.8053,80.4392 202.7523,80.5422 L201.6303,82.6612 C201.4143,83.0692 200.8293,83.0692 200.6123,82.6612 Z" id="Stroke-118" stroke="#6A737D" stroke-width="2.578" stroke-linecap="round" stroke-linejoin="round"></path>
                <polygon id="Stroke-120" stroke="#D1D5DA" stroke-width="2.444" stroke-linecap="round" stroke-linejoin="round" points="224.6552 114.9366 234.3732 112.5106 231.9472 122.2286"></polygon>
                <path d="M448.4648,450.8243 C446.9408,450.8243 445.7048,452.0593 445.7048,453.5843 C445.7048,455.1083 446.9408,456.3453 448.4648,456.3453 C449.9898,456.3453 451.2258,455.1083 451.2258,453.5843 C451.2258,452.0593 449.9898,450.8243 448.4648,450.8243" id="Fill-122" fill="#D1D5DA"></path>
                <path d="M76.4726,207.0675 C74.9476,207.0675 73.7116,208.3025 73.7116,209.8275 C73.7116,211.3515 74.9476,212.5885 76.4726,212.5885 C77.9966,212.5885 79.2326,211.3515 79.2326,209.8275 C79.2326,208.3025 77.9966,207.0675 76.4726,207.0675" id="Fill-124" fill="#E0E3E7"></path>
                <path d="M188.0156,282.296 C186.4906,282.296 185.2546,283.532 185.2546,285.057 C185.2546,286.581 186.4906,287.817 188.0156,287.817 C189.5396,287.817 190.7756,286.581 190.7756,285.057 C190.7756,283.532 189.5396,282.296 188.0156,282.296" id="Fill-126" fill="#6A737D"></path>
                <path d="M160.5039,43.88 C158.9799,43.88 157.7429,45.116 157.7429,46.641 C157.7429,48.165 158.9799,49.401 160.5039,49.401 C162.0279,49.401 163.2649,48.165 163.2649,46.641 C163.2649,45.116 162.0279,43.88 160.5039,43.88" id="Fill-128" fill="#D1D5DA"></path>
                <path d="M116.0156,194.3751 L116.0156,201.5571" id="Stroke-130" stroke="#6A737D" stroke-width="2.444" stroke-linecap="round" stroke-linejoin="round"></path>
                <path d="M119.6064,197.9659 L112.4244,197.9659" id="Stroke-132" stroke="#6A737D" stroke-width="2.444" stroke-linecap="round" stroke-linejoin="round"></path>
                <path d="M424.8818,43.0499 L424.8818,50.2319" id="Stroke-134" stroke="#D1D5DA" stroke-width="2.444" stroke-linecap="round" stroke-linejoin="round"></path>
                <path d="M428.4726,46.6407 L421.2906,46.6407" id="Stroke-136" stroke="#D1D5DA" stroke-width="2.444" stroke-linecap="round" stroke-linejoin="round"></path>
                <path d="M329.1396,372.3712 L329.1396,379.5532" id="Stroke-138" stroke="#D1D5DA" stroke-width="2.444" stroke-linecap="round" stroke-linejoin="round"></path>
                <path d="M332.7304,375.962 L325.5484,375.962" id="Stroke-140" stroke="#D1D5DA" stroke-width="2.444" stroke-linecap="round" stroke-linejoin="round"></path>
                <path d="M367.6142,388.9005 L365.6662,390.8485" id="Stroke-142" stroke="#6A737D" stroke-width="2.578" stroke-linecap="round" stroke-linejoin="round"></path>
                <path d="M373.0322,383.4815 L371.0852,385.4295" id="Stroke-144" stroke="#6A737D" stroke-width="2.578" stroke-linecap="round" stroke-linejoin="round"></path>
                <path d="M367.6142,388.9005 C368.5722,389.8585 370.1262,389.8585 371.0852,388.9005 C372.0432,387.9415 372.0432,386.3885 371.0852,385.4295 C370.1262,384.4715 368.5722,384.4715 367.6142,385.4295 C366.6562,386.3885 366.6562,387.9415 367.6142,388.9005 Z" id="Stroke-146" stroke="#6A737D" stroke-width="2.578" stroke-linecap="round" stroke-linejoin="round"></path>
                <polygon id="Stroke-148" stroke="#6A737D" stroke-width="2.444" stroke-linecap="round" stroke-linejoin="round" points="47.1621 140.7208 49.4961 140.0018 51.8301 140.7208 51.1111 138.3868 51.8301 136.0528 49.4961 136.7718 47.1621 136.0528 47.8811 138.3868"></polygon>
                <g id="Group-153" transform="translate(422.000000, 344.855000)">
                    <polyline id="Fill-150" fill="#E0E3E7" points="6.9199 4.0982 0.5109 0.2312 1.4669 7.6562"></polyline>
                    <polyline id="Stroke-152" stroke="#32373D" stroke-width="2" stroke-linecap="round" stroke-linejoin="round" points="6.9199 4.0982 0.5109 0.2312 1.4669 7.6562"></polyline>
                </g>
                <polygon id="Fill-154" fill="#E0E3E7" points="418.6386 344.4835 423.5196 341.2995 426.3816 345.6885 421.5006 348.8725"></polygon>
                <polygon id="Stroke-156" stroke="#32373D" stroke-width="2" stroke-linecap="round" stroke-linejoin="round" points="418.6386 344.4835 423.5196 341.2995 426.3816 345.6885 421.5006 348.8725"></polygon>
                <path d="M451.2597,358.9796 C446.6237,351.8726 437.4677,349.0346 431.1907,349.3866 L429.2507,346.4146 L421.0097,351.7906 L422.9477,354.7626 C420.0957,360.3656 419.0037,369.8886 423.6397,376.9966 C428.6147,384.6246 438.8307,386.7736 446.4577,381.7976 C454.0847,376.8236 456.2357,366.6066 451.2597,358.9796" id="Fill-158" fill="#EEB8BD"></path>
                <path d="M451.2597,358.9796 C446.6237,351.8726 437.4677,349.0346 431.1907,349.3866 L429.2507,346.4146 L421.0097,351.7906 L422.9477,354.7626 C420.0957,360.3656 419.0037,369.8886 423.6397,376.9966 C428.6147,384.6246 438.8307,386.7736 446.4577,381.7976 C454.0847,376.8236 456.2357,366.6066 451.2597,358.9796 Z" id="Stroke-160" stroke="#32373D" stroke-width="2" stroke-linecap="round" stroke-linejoin="round"></path>
                <path d="M419.2119,345.1827 L423.9289,342.1067 C424.4689,341.7537 425.1909,341.9067 425.5439,342.4467 C425.8959,342.9867 425.7429,343.7087 425.2039,344.0617 L420.4869,347.1377 C419.9469,347.4907 419.2249,347.3377 418.8719,346.7977 C418.5209,346.2577 418.6729,345.5357 419.2119,345.1827" id="Fill-162" fill="#E0E3E7"></path>
                <path d="M419.2119,345.1827 L423.9289,342.1067 C424.4689,341.7537 425.1909,341.9067 425.5439,342.4467 C425.8959,342.9867 425.7429,343.7087 425.2039,344.0617 L420.4869,347.1377 C419.9469,347.4907 419.2249,347.3377 418.8719,346.7977 C418.5209,346.2577 418.6729,345.5357 419.2119,345.1827 Z" id="Stroke-164" stroke="#32373D" stroke-width="2" stroke-linecap="round" stroke-linejoin="round"></path>
                <g id="Group-169" transform="translate(464.000000, 277.855000)">
                    <polyline id="Fill-166" fill="#E0E3E7" points="4.8828 0.4371 0.6728 0.3721 3.2388 3.7091"></polyline>
                    <polyline id="Stroke-168" stroke="#32373D" stroke-width="2" stroke-linecap="round" stroke-linejoin="round" points="4.8828 0.4371 0.6728 0.3721 3.2388 3.7091"></polyline>
                </g>
                <polygon id="Fill-170" fill="#E0E3E7" points="462.6201 279.0303 464.0921 276.1003 466.7251 277.4233 465.2541 280.3523"></polygon>
                <polygon id="Stroke-172" stroke="#32373D" stroke-width="2" stroke-linecap="round" stroke-linejoin="round" points="462.6201 279.0303 464.0921 276.1003 466.7251 277.4233 465.2541 280.3523"></polygon>
                <path d="M482.58,276.8399 C478.314,274.6979 473.061,275.9109 470.11,277.8609 L468.325,276.9639 L465.842,281.9099 L467.626,282.8069 C467.826,286.3379 469.99,291.2759 474.256,293.4169 C478.834,295.7159 484.408,293.8679 486.707,289.2909 C489.005,284.7129 487.158,279.1389 482.58,276.8399" id="Fill-174" fill="#F2D2B8"></path>
                <path d="M482.58,276.8399 C478.314,274.6979 473.061,275.9109 470.11,277.8609 L468.325,276.9639 L465.842,281.9099 L467.626,282.8069 C467.826,286.3379 469.99,291.2759 474.256,293.4169 C478.834,295.7159 484.408,293.8679 486.707,289.2909 C489.005,284.7129 487.158,279.1389 482.58,276.8399 Z" id="Stroke-176" stroke="#32373D" stroke-width="2" stroke-linecap="round" stroke-linejoin="round"></path>
                <path d="M463.0966,279.2081 L464.5186,276.3771 C464.6816,276.0531 465.0756,275.9221 465.3996,276.0851 C465.7236,276.2471 465.8546,276.6421 465.6916,276.9661 L464.2706,279.7971 C464.1076,280.1211 463.7126,280.2521 463.3886,280.0891 C463.0656,279.9261 462.9346,279.5311 463.0966,279.2081" id="Fill-178" fill="#E0E3E7"></path>
                <path d="M463.0966,279.2081 L464.5186,276.3771 C464.6816,276.0531 465.0756,275.9221 465.3996,276.0851 C465.7236,276.2471 465.8546,276.6421 465.6916,276.9661 L464.2706,279.7971 C464.1076,280.1211 463.7126,280.2521 463.3886,280.0891 C463.0656,279.9261 462.9346,279.5311 463.0966,279.2081 Z" id="Stroke-180" stroke="#32373D" stroke-width="2" stroke-linecap="round" stroke-linejoin="round"></path>
                <path d="M112.9004,85.2921 C111.9884,84.1881 110.7094,83.6271 109.0444,83.5391 C107.3434,83.5391 106.0814,84.2751 105.1874,85.2921 C104.9004,85.6181 104.6564,85.9011 104.4574,86.1411 C104.1064,86.5591 103.4724,86.5601 103.1224,86.1411 C102.9214,85.9021 102.6754,85.6191 102.3824,85.2921 C101.4714,84.2751 100.3324,83.5391 98.5264,83.5391 C96.8614,83.6271 95.5644,84.2051 94.6714,85.2921 C93.7584,86.3611 93.3034,87.5351 93.2684,88.7981 C93.2684,89.7091 93.4254,91.4621 94.4424,93.4781 C95.4224,95.4211 98.3244,98.4061 103.2264,102.3711 C103.5484,102.6321 104.0214,102.6311 104.3424,102.3701 C109.2324,98.4071 112.1824,95.4381 113.1454,93.4781 C114.1444,91.4441 114.3014,89.6741 114.3014,88.7981 C114.2674,87.5351 113.8114,86.3611 112.9004,85.2571 L112.9004,85.2921 Z" id="Fill-182" fill="#32373D"></path>
                <path d="M345.9668,77.046 L342.6808,77.046 L342.6478,77.046 L342.6808,75.436 C342.6808,73.3 340.7578,67.187 337.7498,67.187 C336.7968,67.187 335.8278,67.68 335.1868,68.452 C334.5958,69.126 334.3648,69.947 334.4968,70.769 C334.9068,73.201 334.9568,74.516 333.4618,76.159 C331.8188,77.95 331.0288,78.706 329.5338,78.706 L326.2478,78.706 C324.5058,78.69 322.9608,80.234 322.9608,81.976 L322.9608,88.549 C322.9608,90.291 324.5058,91.836 326.2478,91.836 L329.0738,91.836 L331.4408,93.249 C331.7028,93.397 331.9828,93.479 332.2948,93.479 L342.6958,93.479 C344.5538,93.479 347.3628,92.657 347.6268,90.39 L349.2378,80.612 C349.2698,80.481 349.2698,80.382 349.2698,80.283 C349.2208,78.361 347.8898,77.046 345.9838,77.046 L345.9668,77.046 Z M345.9668,90.192 C345.8848,91.326 343.8798,91.836 342.6808,91.836 L332.2788,91.836 L329.5338,90.192 L329.5338,80.333 C331.7688,80.333 333.0008,79.101 334.6778,77.243 C336.6988,75.009 336.5508,73.037 336.1238,70.457 C335.9918,69.635 336.9458,68.814 337.7668,68.814 C339.1308,68.814 341.0538,73.3 341.0538,75.387 L341.0208,77.079 C341.0208,78.213 341.5628,78.673 342.6958,78.673 L345.9838,78.673 C347.0188,78.673 347.5938,79.265 347.6268,80.317 L345.9838,90.176 L345.9668,90.192 Z" id="Fill-184" fill="#32373D"></path>
                <path d="M72.9619,412.5391 L70.0759,407.5931 C69.8019,407.1021 69.1539,406.9451 68.6629,407.2591 L66.9719,408.4291 C66.5969,408.6881 66.4829,409.1921 66.7099,409.5891 L69.5129,414.4631 C69.7419,414.8611 70.2399,415.0161 70.6539,414.8161 L72.5299,413.9131 C73.0609,413.6581 73.2359,413.0501 72.9619,412.5391 L72.9619,412.5391 Z M64.6789,410.0271 L53.9659,417.3221 C53.5869,417.5811 53.4699,418.0881 53.6989,418.4851 L55.3019,421.2751 C55.5309,421.6741 56.0279,421.8281 56.4419,421.6301 L67.2769,416.4431 C67.7379,416.2231 67.9139,415.6551 67.6579,415.2121 L64.6589,410.0271 L64.6789,410.0271 Z M49.1909,420.6071 C48.7589,420.9211 48.6419,421.4711 48.8769,421.9221 L49.9559,423.7281 C50.2119,424.1801 50.7619,424.3371 51.2129,424.1211 L53.0799,423.2341 C53.5439,423.0141 53.7209,422.4441 53.4629,422.0011 L52.1369,419.7141 C51.8809,419.2731 51.3069,419.1421 50.8849,419.4271 L49.1709,420.5881 L49.1909,420.6071 Z M51.8799,404.9031 L50.7949,404.9031 C50.3109,404.9031 49.9169,405.2971 49.9169,405.7811 L49.9169,405.9891 C49.9169,406.4741 50.3109,406.8661 50.7949,406.8661 L51.0019,406.8661 C51.4869,406.8661 51.8799,406.4741 51.8799,405.9891 L51.8799,404.9031 Z M57.7689,408.8291 L56.6839,408.8291 C56.1989,408.8291 55.8059,409.2231 55.8059,409.7071 L55.8059,409.9151 C55.8059,410.3991 56.1989,410.7921 56.6839,410.7921 L56.8919,410.7921 C57.3759,410.7921 57.7689,410.3991 57.7689,409.9151 L57.7689,408.8291 Z M61.6939,402.9401 L60.6089,402.9401 C60.1249,402.9401 59.7319,403.3341 59.7319,403.8181 L59.7319,404.0251 C59.7319,404.5111 60.1249,404.9031 60.6089,404.9031 L60.8169,404.9031 C61.3019,404.9031 61.6939,404.5111 61.6939,404.0251 L61.6939,402.9401 Z M63.6579,420.6071 L68.9109,431.1141 C69.2029,431.6981 68.7779,432.3851 68.1259,432.3851 C67.7939,432.3851 67.4889,432.1961 67.3409,431.8991 L65.3199,427.8591 C64.9059,427.0301 63.6579,427.3251 63.6579,428.2521 L63.6579,433.4701 C63.6579,433.9541 63.2649,434.3481 62.7799,434.3481 L62.5719,434.3481 C62.0879,434.3481 61.6939,433.9541 61.6939,433.4701 L61.6939,427.1281 C61.6939,426.1621 60.3609,425.9051 60.0019,426.8021 L57.9889,431.8331 C57.8569,432.1661 57.5329,432.3851 57.1749,432.3851 L57.1029,432.3851 C56.4819,432.3851 56.0569,431.7581 56.2869,431.1811 L59.6079,422.8801 C59.6879,422.6811 59.8379,422.5171 60.0299,422.4211 L63.6579,420.6071 Z" id="Fill-186" fill="#32373D"></path>
                <path d="M238.0908,323.9219 C236.9338,323.9219 235.9868,322.9579 235.9868,321.8179 C235.9868,320.6789 236.9508,319.7149 238.0908,319.7149 C239.2308,319.7149 240.1948,320.6789 240.1948,321.8179 C240.1948,322.9579 239.2308,323.9219 238.0908,323.9219 M240.1948,339.3469 C240.1948,340.5039 239.2308,341.4499 238.0908,341.4499 C236.9508,341.4499 235.9868,340.4859 235.9868,339.3469 C235.9868,338.2069 236.9508,337.2429 238.0908,337.2429 C239.2308,337.2429 240.1948,338.2069 240.1948,339.3469 M241.5968,321.8179 C241.5968,319.8729 240.0358,318.3129 238.0908,318.3129 C236.1458,318.3129 234.5848,319.8729 234.5848,321.8179 C234.5848,323.0979 235.3038,324.2369 236.3378,324.8329 L236.3378,336.3319 C235.3038,336.9279 234.5848,338.0499 234.5848,339.3469 C234.5848,341.2919 236.1458,342.8529 238.0908,342.8529 C240.0358,342.8529 241.5968,341.2919 241.5968,339.3469 C241.5968,338.0679 240.8778,336.9279 239.8438,336.3319 L239.8438,324.8329 C240.8778,324.2369 241.5968,323.1149 241.5968,321.8179 M252.1128,341.4499 C250.9568,341.4499 250.0098,340.4859 250.0098,339.3469 C250.0098,338.2069 250.9748,337.2429 252.1128,337.2429 C253.2528,337.2429 254.2168,338.2069 254.2168,339.3469 C254.2168,340.4859 253.2528,341.4499 252.1128,341.4499 M253.8658,336.3319 L253.8658,325.3239 C253.8138,323.9569 253.2708,322.7469 252.2188,321.7129 C251.1668,320.6789 249.9748,320.1179 248.6078,320.0659 L246.8558,320.0659 L246.8558,316.5599 L241.5968,321.8179 L246.8558,327.0769 L246.8558,323.5709 L248.6078,323.5709 C249.0808,323.6069 249.4488,323.7639 249.8178,324.1139 C250.1858,324.4649 250.3428,324.8509 250.3608,325.3239 L250.3608,336.3319 C249.3258,336.9279 248.6078,338.0499 248.6078,339.3469 C248.6078,341.2919 250.1678,342.8529 252.1128,342.8529 C254.0598,342.8529 255.6188,341.2919 255.6188,339.3469 C255.6188,338.0679 254.9008,336.9279 253.8658,336.3319" id="Fill-188" fill="#32373D"></path>
                <path d="M494.5478,190.4981 C493.9888,190.5491 493.4408,190.5861 492.8928,190.6211 C491.6388,189.2651 488.5358,187.6071 485.5078,188.5401 C484.9988,184.9021 478.9618,180.5281 473.2758,184.3271 C472.8608,178.6751 467.1698,173.2521 461.1768,178.0761 C462.9648,168.9201 460.5528,158.8361 446.5738,160.0381 C429.3568,161.5191 431.0438,177.8521 435.1878,186.5851 C431.3108,185.0431 427.4768,188.5341 425.9448,190.7551 C425.8828,190.7541 425.8168,190.7521 425.7598,190.7521 C422.7138,190.7521 420.4288,192.7831 422.4598,192.7831 L500.6408,192.7831 C509.5248,192.7831 505.7168,189.4831 494.5478,190.4981" id="Fill-190" fill="#FEFEFE"></path>
                <path d="M494.5478,190.4981 C493.9888,190.5491 493.4408,190.5861 492.8928,190.6211 C491.6388,189.2651 488.5358,187.6071 485.5078,188.5401 C484.9988,184.9021 478.9618,180.5281 473.2758,184.3271 C472.8608,178.6751 467.1698,173.2521 461.1768,178.0761 C462.9648,168.9201 460.5528,158.8361 446.5738,160.0381 C429.3568,161.5191 431.0438,177.8521 435.1878,186.5851 C431.3108,185.0431 427.4768,188.5341 425.9448,190.7551 C425.8828,190.7541 425.8168,190.7521 425.7598,190.7521 C422.7138,190.7521 420.4288,192.7831 422.4598,192.7831 L500.6408,192.7831 C509.5248,192.7831 505.7168,189.4831 494.5478,190.4981 Z" id="Stroke-192" stroke="#32373D" stroke-width="2.174" stroke-linecap="round" stroke-linejoin="round"></path>
                <path d="M279.8047,269.8692 C279.0147,269.9192 278.2037,269.9702 277.3827,270.0192 C277.1857,268.0722 275.1137,264.8062 270.5207,264.7522 C270.8417,264.2872 271.1507,263.8012 271.4277,263.2692 C284.6267,241.3122 253.1177,234.8132 248.1847,250.9172 C247.1397,254.3272 246.7127,257.6602 246.7207,260.6032 C245.1477,259.6002 243.0027,258.9542 240.0797,258.9542 C232.1147,258.9542 229.5067,265.9342 230.3117,269.2712 C228.8757,268.3782 227.2687,267.5092 223.7077,267.8382 C216.8547,268.4732 210.0007,272.4072 220.4087,272.4072 L288.5617,272.4072 C294.1457,272.4072 285.7697,269.4882 279.8047,269.8692" id="Fill-194" fill="#FEFEFE"></path>
                <path d="M279.8047,269.8692 C279.0147,269.9192 278.2037,269.9702 277.3827,270.0192 C277.1857,268.0722 275.1137,264.8062 270.5207,264.7522 C270.8417,264.2872 271.1507,263.8012 271.4277,263.2692 C284.6267,241.3122 253.1177,234.8132 248.1847,250.9172 C247.1397,254.3272 246.7127,257.6602 246.7207,260.6032 C245.1477,259.6002 243.0027,258.9542 240.0797,258.9542 C232.1147,258.9542 229.5067,265.9342 230.3117,269.2712 C228.8757,268.3782 227.2687,267.5092 223.7077,267.8382 C216.8547,268.4732 210.0007,272.4072 220.4087,272.4072 L288.5617,272.4072 C294.1457,272.4072 285.7697,269.4882 279.8047,269.8692 Z" id="Stroke-196" stroke="#32373D" stroke-width="2.174" stroke-linecap="round" stroke-linejoin="round"></path>
            </g>
        </g>
    </g>
</svg>