<svg width="379" height="177" 
  xmlns="http://www.w3.org/2000/svg">
  <g fill="none" fill-rule="evenodd">
    <path d="M197.32 102.94c-4.942-3.055-6.222-9.461-6.222-9.461s-1.508 4.63-6.239 5.955l.82 2.576 5.972 1.53 5.67-.6z" fill="#F7F8F9" style="fill:none"/>
    <path d="M197.32 102.94c-4.942-3.055-6.222-9.461-6.222-9.461s-1.508 4.63-6.239 5.955l.82 2.576 5.972 1.53 5.67-.6z" stroke="#C9DEF2" stroke-linecap="round" stroke-linejoin="round" style="fill:none"/>
    <path d="M180.128 100.758s-2.555-2.233-1.364-7.111c0 0 7.512 10.492 18.556 9.294 0 0-6.758 3.825-17.192-2.183" fill="#F7F8F9" style="fill:none"/>
    <path d="M180.128 100.758s-2.555-2.233-1.364-7.111c0 0 7.512 10.492 18.556 9.294 0 0-6.758 3.825-17.192-2.183z" stroke="#C9DEF2" stroke-linecap="round" stroke-linejoin="round" style="fill:none"/>
    <path d="M151.694 125.297c4.3-.344 7.773 3.36 7.773 3.36s.84-4.515-2.6-5.733l-6.436-.798 1.263 3.17z" fill="#F7F8F9" style="fill:none"/>
    <path d="M151.694 125.297c4.3-.344 7.773 3.36 7.773 3.36s.84-4.515-2.6-5.733l-6.436-.798 1.263 3.17z" stroke="#C9DEF2" stroke-linecap="round" stroke-linejoin="round" style="fill:none"/>
    <path d="M140.158 124.575s5.554.012 9.503 3.883c0 0 2.866-6.41 7.206-5.534 0 0-13.92-6.12-16.709 1.65" fill="#F7F8F9" style="fill:none"/>
    <path d="M140.158 124.575s5.554.012 9.503 3.883c0 0 2.866-6.41 7.206-5.534 0 0-13.92-6.12-16.709 1.65z" stroke="#C9DEF2" stroke-linecap="round" stroke-linejoin="round" style="fill:none"/>
    <path d="M219.598 172.051c0 2.566-17.221 4.644-38.463 4.644-21.243 0-38.464-2.078-38.464-4.644 0-2.566 17.22-4.646 38.464-4.646 21.242 0 38.463 2.08 38.463 4.646" fill="#EBF1F9"/>
    <path d="M206.767 165.495l-4.4 1.912" fill="#F7F8F9"/>
    <path d="M206.767 165.495l-4.4 1.912M160.369 166.06l1.084.39s2.663-1.184 4.693-1.263" stroke="#C9DEF2" stroke-linecap="round" stroke-linejoin="round"/>
    <path d="M153.726 166.45s2.851 1.195 4.942 1.989" fill="#F7F8F9"/>
    <path d="M153.726 166.45s2.851 1.195 4.942 1.989M178.012 167.444s3.319-.037 5.367.994c0 0 1.27-1.115 4.157-2.064" stroke="#C9DEF2" stroke-linecap="round" stroke-linejoin="round"/>
    <path d="M189.255 169.08s-2.344.943-3.359 1.974" fill="#F7F8F9"/>
    <path d="M189.255 169.08s-2.344.943-3.359 1.974" stroke="#C9DEF2" stroke-linecap="round" stroke-linejoin="round"/>
    <path d="M170.982 169.08s1.41.006 3.048.593" fill="#F7F8F9"/>
    <path d="M170.982 169.08s1.41.006 3.048.593" stroke="#C9DEF2" stroke-linecap="round" stroke-linejoin="round"/>
    <path d="M171.024 169.99c-3.018.657-9.34 3.284-9.34 3.284l-7.757-3.794c-.359-6.275-2.012-25.022-2.012-25.022s12.428 2.772 18.103.657c0 0 4.598 2.406 10.128 2.48 0 0-1.005 2.553-.933 3.502 0 0 2.155.655 3.232.655l-.719-7.804.72-.44-1.366-.363s5.316-1.751 8.333-4.889c0 0 8.692-.73 18.749-5.69 0 0-1.222 3.43-4.454 6.711l4.814 1.096-2.156 30.858-7.4 3.21s-5.314-2.335-9.913-3.21l-5.961 3.575s-3.951-1.969-12.068-3.502v-1.313z" fill="#F7F8F9" style="fill:none"/>
    <path d="M171.024 169.99c-3.018.657-9.34 3.284-9.34 3.284l-7.757-3.794c-.359-6.275-2.012-25.022-2.012-25.022s12.428 2.772 18.103.657c0 0 4.598 2.406 10.128 2.48 0 0-1.005 2.553-.933 3.502 0 0 2.155.655 3.232.655l-.719-7.804.72-.44-1.366-.363s5.316-1.751 8.333-4.889c0 0 8.692-.73 18.749-5.69 0 0-1.222 3.43-4.454 6.711l4.814 1.096-2.156 30.858-7.4 3.21s-5.314-2.335-9.913-3.21l-5.961 3.575s-3.951-1.969-12.068-3.502v-1.313z" stroke="#C9DEF2" stroke-linecap="round" stroke-linejoin="round"/>
    <path d="M151.916 144.457s4.885 5.472 9.41 6.93c0 0 10.846.804 18.82-3.792" stroke="#C9DEF2" stroke-linecap="round" stroke-linejoin="round"/>
    <path d="M161.685 173.274l-.359-10.58-1.077.732s-2.946-1.606-4.598-5.618c0 0 2.946 2.116 5.315 2.188l.36-8.608" fill="#F7F8F9"/>
    <path d="M161.685 173.274l-.359-10.58-1.077.732s-2.946-1.606-4.598-5.618c0 0 2.946 2.116 5.315 2.188l.36-8.608" stroke="#C9DEF2" stroke-linecap="round" stroke-linejoin="round"/>
    <path fill="#F7F8F9" d="M208.521 140.373l-8.573 4.757-9.99-1.398"/>
    <path stroke="#C9DEF2" stroke-linecap="round" stroke-linejoin="round" d="M208.521 140.373l-8.573 4.757-9.99-1.398"/>
    <path d="M198.967 174.44s.825-18.21.981-29.31" fill="#F7F8F9"/>
    <path d="M198.967 174.44s.825-18.21.981-29.31M192.298 147.587c3.826-.158 7.579 1.348 7.579 1.348s3.35-3.012 5.536-3.012" stroke="#C9DEF2" stroke-linecap="round" stroke-linejoin="round"/>
    <path d="M207.685 152.344l-3.13 1.342" fill="#F7F8F9"/>
    <path d="M207.685 152.344l-3.13 1.342M192.298 162.33s5.03 1.43 7.16 2.382l1.115-.476M189.054 171.231l1.604-17.143-6.79 3.568-.777 17.15" stroke="#C9DEF2" stroke-linecap="round" stroke-linejoin="round"/>
    <path d="M174.445 153.686l-4.864 3.335s4.996-.395 14.286.635" fill="#F7F8F9"/>
    <path d="M174.445 153.686l-4.864 3.335s4.996-.395 14.286.635" stroke="#C9DEF2" stroke-linecap="round" stroke-linejoin="round"/>
    <path d="M190.658 154.088l-1.332-.402" fill="#F7F8F9"/>
    <path d="M190.658 154.088l-1.332-.402" stroke="#C9DEF2" stroke-linecap="round" stroke-linejoin="round"/>
    <path d="M171.024 169.99s-.351-9.084-1.443-12.969" fill="#F7F8F9"/>
    <path d="M171.024 169.99s-.351-9.084-1.443-12.969" stroke="#C9DEF2" stroke-linecap="round" stroke-linejoin="round"/>
    <path d="M161.326 162.695s4.718-2.922 8.711-3.545c0 0-5.27-.46-9.07.847" fill="#F7F8F9"/>
    <path d="M161.326 162.695s4.718-2.922 8.711-3.545c0 0-5.27-.46-9.07.847M154.748 152.344s5.07 1.897 6.399 3.327c0 0 4.062-1.503 6.716-1.583" stroke="#C9DEF2" stroke-linecap="round" stroke-linejoin="round"/>
    <g>
      <path d="M152.875 154.441s1.873.4 3.512 1.35" fill="#F7F8F9"/>
      <path d="M152.875 154.441s1.873.4 3.512 1.35" stroke="#C9DEF2" stroke-linecap="round" stroke-linejoin="round"/>
    </g>
    <g>
      <path d="M170.302 160.955s3.338-.049 5.915.427" fill="#F7F8F9"/>
      <path d="M170.302 160.955s3.338-.049 5.915.427" stroke="#C9DEF2" stroke-linecap="round" stroke-linejoin="round"/>
    </g>
    <g>
      <path d="M190.066 160.418s-1.203.726-2.374 1.438" fill="#F7F8F9"/>
      <path d="M190.066 160.418s-1.203.726-2.374 1.438" stroke="#C9DEF2" stroke-linecap="round" stroke-linejoin="round"/>
    </g>
    <path d="M192.298 155.671s5.778.4 8.275 3.016c0 0 1.508-2.141 2.745-3.57l-3.65 1.23s-3.78-1.076-7.37-.676" fill="#F7F8F9"/>
    <path d="M192.298 155.671s5.778.4 8.275 3.016c0 0 1.508-2.141 2.745-3.57l-3.65 1.23s-3.78-1.076-7.37-.676zM179.213 151.097s-4.09.236-7.603.345c0 0 3.525 3.993 11.481 5.58 0 0 3.664-2.067 7.567-4.006 0 0-3.857-.268-8.213-1.264" stroke="#C9DEF2" stroke-linecap="round" stroke-linejoin="round"/>
    <g>
      <path d="M203.708 139.278s-1.34 1.65-1.652 1.889c0 0-9.01 3.734-19.611 2.342" fill="#F7F8F9"/>
      <path d="M203.708 139.278s-1.34 1.65-1.652 1.889c0 0-9.01 3.734-19.611 2.342" stroke="#C9DEF2" stroke-linecap="round" stroke-linejoin="round"/>
    </g>
    <g stroke="#C9DEF2" stroke-linecap="round" stroke-linejoin="round">
      <path d="M136.408 165.104v-96.18" stroke-dasharray="2.519,3.358"/>
      <path d="M136.408 65.77v-2.365M158.914 54.606l1.616 1.715"/>
      <path d="M164.822 60.874l103.005 109.28" stroke-dasharray="2.505,3.34"/>
      <path d="M136.408 173.775v-2.364M269.974 172.431l1.618 1.717"/>
    </g>
    <g stroke="#C9DEF2" stroke-linecap="round" stroke-linejoin="round">
      <path d="M154.625 26.459l-33.393 12.697-5.629-14.138c-3.588-9.011.978-19.16 10.2-22.666 9.22-3.508 19.603.957 23.193 9.968l5.629 14.139zM121.488 25.577c-4-8.257-.22-16.892 8.623-19.166M162 32.48l-42.04 15.987-3.052-7.665 42.04-15.986zM156.973 29.979l-18.86 7.17M154.706 40.656l-23.716 9.02-3.085-4.23 26.15-9.943zM139.27 54.494c.284 1.396-.642 2.75-2.069 3.028-1.427.277-2.813-.626-3.099-2.022-.283-1.395.643-2.75 2.07-3.029 1.427-.277 2.815.629 3.099 2.023zM136.172 52.472l-.902-4.425M156.44 47.007c.756 1.214.36 2.798-.884 3.536s-2.865.351-3.62-.865c-.755-1.216-.358-2.798.886-3.538 1.242-.736 2.865-.349 3.618.867zM152.822 46.14l-2.395-3.855"/>
    </g>
    <path d="M74.118 40.066l-.847-2.758a.686.686 0 0 1 0-.406l.847-2.76a.692.692 0 0 0-.863-.865l-2.751.85a.68.68 0 0 1-.406 0l-2.749-.85a.692.692 0 0 0-.864.866l.846 2.759a.686.686 0 0 1 0 .406l-.846 2.758a.693.693 0 0 0 .864.867l2.75-.85a.68.68 0 0 1 .405 0l2.75.85a.692.692 0 0 0 .864-.867z" stroke="#C9DEF2" stroke-linecap="round" stroke-linejoin="round"/>
    <g stroke="#C9DEF2" stroke-linecap="round" stroke-linejoin="round">
      <path d="M196.115 16.524l6.092 6.11M196.115 22.634l6.092-6.11"/>
    </g>
    <path d="M336.838.97c.887 0 1.604.72 1.604 1.61 0 .887-.717 1.608-1.604 1.608a1.606 1.606 0 0 1-1.604-1.608c0-.89.718-1.61 1.604-1.61zM276.908 103.22l-1.347-2.55a.687.687 0 0 0-.287-.289l-2.543-1.349a.693.693 0 0 1 0-1.224l2.543-1.35a.684.684 0 0 0 .287-.288l1.347-2.55a.69.69 0 0 1 1.221 0l1.346 2.55a.692.692 0 0 0 .286.288l2.544 1.35c.49.26.49.963 0 1.224l-2.544 1.35a.695.695 0 0 0-.286.288l-1.346 2.55a.69.69 0 0 1-1.221 0zM318.571 154.413v8.64M322.88 158.733h-8.617" stroke="#C9DEF2" stroke-linecap="round" stroke-linejoin="round"/>
    <g stroke="#C9DEF2" stroke-linecap="round" stroke-linejoin="round">
      <path d="M87.815 67.417l-2.337 2.344M94.316 60.897L91.98 63.24M87.815 67.417a2.94 2.94 0 0 0 4.164 0 2.959 2.959 0 0 0 0-4.176 2.938 2.938 0 0 0-4.164 0 2.959 2.959 0 0 0 0 4.176z"/>
    </g>
    <path d="M35.913 19.09c0 1.031-.833 1.869-1.864 1.869a1.866 1.866 0 0 1-1.863-1.87c0-1.03.834-1.868 1.863-1.868 1.03 0 1.864.838 1.864 1.868zM264.036 2.58c0 1.03-.833 1.868-1.864 1.868a1.867 1.867 0 0 1-1.862-1.868c0-1.033.835-1.87 1.862-1.87 1.03 0 1.864.837 1.864 1.87zM346.306 107.981l-.995-1.887-1.882-.998 1.882-.998.995-1.888.996 1.888 1.881.998-1.881.998zM242.525 60.162c-.887 0-1.604.72-1.604 1.609 0 .888.718 1.609 1.604 1.609.886 0 1.604-.721 1.604-1.609 0-.89-.718-1.609-1.604-1.609zM83.826 96.327v4.186M85.912 98.42H81.74M5.168 120.64a2.22 2.22 0 0 1-2.217 2.224 2.22 2.22 0 0 1-2.217-2.223c0-1.227.994-2.224 2.217-2.224a2.22 2.22 0 0 1 2.217 2.224zM36.927 154.445l-.996-1.887-1.881-.998 1.881-1 .996-1.886.995 1.886 1.882 1-1.882.998zM45.862 84.256l1.355-.419 1.357.42-.418-1.362.418-1.36-1.357.418-1.355-.417.417 1.36zM10.5 61.149l3.604 1.977-3.604 1.977-1.972 3.615-1.971-3.615-3.605-1.977 3.605-1.977 1.971-3.616zM377.062 61.77l1.154 3.955-3.942-1.159-3.944 1.16 1.156-3.955-1.156-3.956 3.944 1.16 3.942-1.16zM303.997 23.625c10.875 0 19.693 8.842 19.693 19.752 0 10.906-8.818 19.749-19.693 19.749-10.876 0-19.692-8.843-19.692-19.75 0-10.909 8.816-19.751 19.692-19.751zM315.852 34.503a32.8 32.8 0 0 0 1.44-5.697" stroke="#C9DEF2" stroke-linecap="round" stroke-linejoin="round"/>
    <path d="M303.523 50.936c3.38-2.371 6.283-5.409 8.563-8.853a34.853 34.853 0 0 0 1.801-3.05M296.332 54.827c.76-.29 1.508-.613 2.243-.962M289.47 56.71a33.651 33.651 0 0 0 3.078-.65M291.072 52.983c7.25-2.203 13.647-7.11 18.055-13.364M285.813 36.545a33.538 33.538 0 0 0 5.268-3.959M292.922 36.295a33.407 33.407 0 0 0 8.112-10.005M307.19 62.737c4.283-1.988 8.072-4.98 11.14-8.567M319.426 41.837c.122-.273.243-.544.358-.818M301.33 59.432c5.65-2.29 10.552-6.276 14.222-11.133a36.555 36.555 0 0 0 2.816-4.33M295.37 61.134a28.366 28.366 0 0 0 3.61-.862M318.523 49.072c2.11-3.096 3.659-6.521 4.666-10.13M299.576 62.623a33.442 33.442 0 0 0 9.83-4.497M305.86 35.41a33.723 33.723 0 0 0 4.573-10.704M300.735 41.56a32.647 32.647 0 0 0 1.948-2.014M285.382 49.831a33.477 33.477 0 0 0 4.05-1.231M305.96 26.367c.328-.832.624-1.678.887-2.535M298.23 38.03c2.394-2.26 4.543-4.841 5.941-7.846M294.652 41.102a68.23 68.23 0 0 0 1.6-1.313M284.512 46.233a33.515 33.515 0 0 0 7.747-3.508M288.219 39.775a30.348 30.348 0 0 1-3.843 1.936" stroke="#C9DEF2" stroke-linecap="round" stroke-linejoin="round"/>
  </g>
</svg>