<svg xmlns="http://www.w3.org/2000/svg" width="48" height="48" fill="none" viewBox="0 0 48 48"><title>Organized by Project Status</title><path fill="#79B8FF" d="M3 10C2.54941 10 2 10.4456 2 11.2353V12.62H5C5.55228 12.62 6 13.0677 6 13.62C6 14.1723 5.55228 14.62 5 14.62H2V44.7647C2 45.5544 2.54941 46 3 46H4.99731C5.5496 46 5.99731 46.4477 5.99731 47C5.99731 47.5523 5.5496 48 4.99731 48H3C1.24145 48 0 46.444 0 44.7647V11.2353C0 9.55599 1.24145 8 3 8H4.97851C5.5308 8 5.97851 8.44772 5.97851 9C5.97851 9.55228 5.5308 10 4.97851 10H3Z"/><path fill="#79B8FF" d="M43 13.0093C42.4477 13.0093 42 13.457 42 14.0093C42 14.5616 42.4477 15.0093 43 15.0093H45.9973V44.7647C45.9973 45.5544 45.4479 46 44.9973 46H43C42.4477 46 42 46.4477 42 47C42 47.5523 42.4477 48 43 48H44.9973C46.7559 48 47.9973 46.444 47.9973 44.7647V14.0831C47.9991 14.0587 48 14.0341 48 14.0093C48 13.9844 47.9991 13.9598 47.9973 13.9354V11.2353C47.9973 9.55599 46.7559 8 44.9973 8H43.0188C42.4665 8 42.0188 8.44772 42.0188 9C42.0188 9.55228 42.4665 10 43.0188 10H44.9973C45.4479 10 45.9973 10.4456 45.9973 11.2353V13.0093H43Z"/><path fill="#2188FF" fill-rule="evenodd" d="M13 17C13 15.3431 14.3431 14 16 14H32C33.6569 14 35 15.3431 35 17V21C35 22.6569 33.6569 24 32 24H16C14.3431 24 13 22.6569 13 21V17ZM16 16C15.4477 16 15 16.4477 15 17V21C15 21.5523 15.4477 22 16 22H32C32.5523 22 33 21.5523 33 21V17C33 16.4477 32.5523 16 32 16H16Z" clip-rule="evenodd"/><path fill="#2188FF" fill-rule="evenodd" d="M16 29C14.3431 29 13 30.3431 13 32V36C13 37.6569 14.3431 39 16 39H32C33.6569 39 35 37.6569 35 36V32C35 30.3431 33.6569 29 32 29H16ZM15 32C15 31.4477 15.4477 31 16 31H32C32.5523 31 33 31.4477 33 32V36C33 36.5523 32.5523 37 32 37H16C15.4477 37 15 36.5523 15 36V32Z" clip-rule="evenodd"/><path fill="#2188FF" fill-rule="evenodd" d="M11 0C9.34315 0 8 1.34314 8 3V45C8 46.6569 9.34315 48 11 48H37C38.6569 48 40 46.6569 40 45V3C40 1.34315 38.6569 0 37 0H11ZM10 3C10 2.44772 10.4477 2 11 2H37C37.5523 2 38 2.44772 38 3V5.00928H10V3ZM10 7.00928V45C10 45.5523 10.4477 46 11 46H37C37.5523 46 38 45.5523 38 45V7.00928H10Z" clip-rule="evenodd"/></svg>