<?xml version="1.0" encoding="UTF-8"?>
<svg width="74px" height="74px" viewBox="0 0 74 74" version="1.1" xmlns="http://www.w3.org/2000/svg" xmlns:xlink="http://www.w3.org/1999/xlink">
    <!-- Generator: Sketch 52.5 (67469) - http://www.bohemiancoding.com/sketch -->
    <title>Artboard</title>
    <desc>Created with Sketch.</desc>
    <g id="Artboard" stroke="none" stroke-width="1" fill="none" fill-rule="evenodd">
        <g id="Group-2" transform="translate(2.000000, 1.000000)">
            <path d="M49.9470635,8.54447619 C45.856746,5.94312698 44.7976667,0.488984127 44.7976667,0.488984127 C44.7976667,0.488984127 43.550873,4.43098413 39.6355238,5.5595873 L40.313381,7.75190476 L45.2565238,9.05547619 L49.949381,8.54563492 L49.9470635,8.54447619 Z" id="Path" fill="#F8F9F9"></path>
            <path d="M49.9470635,8.54447619 C45.856746,5.94312698 44.7976667,0.488984127 44.7976667,0.488984127 C44.7976667,0.488984127 43.550873,4.43098413 39.6355238,5.5595873 L40.313381,7.75190476 L45.2565238,9.05547619 L49.949381,8.54563492 L49.9470635,8.54447619 Z" id="Path" stroke="#CADEF3" stroke-linecap="round" stroke-linejoin="round"></path>
            <path d="M35.7190159,6.68587302 C35.7190159,6.68587302 33.6043333,4.78555556 34.5904127,0.632666667 C34.5904127,0.632666667 40.807,9.56647619 49.9470635,8.54679365 C49.9470635,8.54679365 44.353873,11.8028254 35.7178571,6.68703175" id="Path" fill="#F8F9F9"></path>
            <path d="M35.7190159,6.68587302 C35.7190159,6.68587302 33.6043333,4.78555556 34.5904127,0.632666667 C34.5904127,0.632666667 40.807,9.56647619 49.9470635,8.54679365 C49.9470635,8.54679365 44.353873,11.8028254 35.7178571,6.68703175 L35.7190159,6.68587302 Z" id="Path" stroke="#CADEF3" stroke-linecap="round" stroke-linejoin="round"></path>
            <path d="M10.5328571,28.2846032 C14.0901587,27.9833333 16.9638095,31.2161905 16.9638095,31.2161905 C16.9638095,31.2161905 17.6590476,27.2765079 14.8132063,26.2104762 L9.48652381,25.5152381 L10.5316984,28.2846032 L10.5328571,28.2846032 Z" id="Path" fill="#F8F9F9"></path>
            <path d="M10.5328571,28.2846032 C14.0901587,27.9833333 16.9638095,31.2161905 16.9638095,31.2161905 C16.9638095,31.2161905 17.6590476,27.2765079 14.8132063,26.2104762 L9.48652381,25.5152381 L10.5316984,28.2846032 L10.5328571,28.2846032 Z" id="Path" stroke="#CADEF3" stroke-linecap="round" stroke-linejoin="round"></path>
            <path d="M0.984920635,27.6530952 C0.984920635,27.6530952 5.58160317,27.6646825 8.84922222,31.0435397 C8.84922222,31.0435397 11.2211429,25.446873 14.8132063,26.2116349 C14.8132063,26.2116349 3.29311111,20.8698889 0.984920635,27.654254" id="Path" fill="#F8F9F9"></path>
            <path d="M0.984920635,27.6530952 C0.984920635,27.6530952 5.58160317,27.6646825 8.84922222,31.0435397 C8.84922222,31.0435397 11.2211429,25.446873 14.8132063,26.2116349 C14.8132063,26.2116349 3.29311111,20.8698889 0.984920635,27.654254 L0.984920635,27.6530952 Z" id="Path" stroke="#CADEF3" stroke-linecap="round" stroke-linejoin="round"></path>
            <path d="M69.8656349,68.1472381 C69.8656349,70.3430317 54.8994762,72.1216825 36.439746,72.1216825 C17.9788571,72.1216825 3.01385714,70.3430317 3.01385714,68.1472381 C3.01385714,65.9514444 17.9800159,64.1727937 36.4409048,64.1727937 C54.8994762,64.1727937 69.8667937,65.9514444 69.8667937,68.1472381" id="Path" fill="#EBF2FA"></path>
            <path d="M27.6530952,66.3836508 C25.0308889,66.9456349 19.5373492,69.1935714 19.5373492,69.1935714 L12.7970159,65.9468095 C12.4841587,60.577254 11.0473333,44.5334762 11.0473333,44.5334762 C11.0473333,44.5334762 21.8490159,46.9065556 26.7805714,45.096619 C26.7805714,45.096619 30.7781905,47.1545238 35.5834444,47.2170952 C35.5834444,47.2170952 34.7097619,49.4024603 34.7723333,50.2147302 C34.7723333,50.2147302 36.6448413,50.7755556 37.5810952,50.7755556 L36.9576984,44.0977937 L37.5834127,43.7223651 L36.3957143,43.4095079 C36.3957143,43.4095079 41.0155714,41.9124286 43.6377778,39.2264921 C43.6377778,39.2264921 51.1926984,38.6030952 59.9295238,34.3598254 C59.9295238,34.3598254 58.8692857,37.2937302 56.0593651,40.1013333 L60.242381,41.0399048 L58.369873,67.4450476 L51.9412381,70.1912381 C51.9412381,70.1912381 47.3225397,68.1935873 43.3260794,67.4450476 L38.1465556,70.5040952 C38.1465556,70.5040952 34.7120794,68.8193016 27.6577302,67.507619 L27.6577302,66.3836508 L27.6530952,66.3836508 Z" id="Path" fill="#F8F9F9"></path>
            <path d="M27.6530952,66.3836508 C25.0308889,66.9456349 19.5373492,69.1935714 19.5373492,69.1935714 L12.7970159,65.9468095 C12.4841587,60.577254 11.0473333,44.5334762 11.0473333,44.5334762 C11.0473333,44.5334762 21.8490159,46.9065556 26.7805714,45.096619 C26.7805714,45.096619 30.7781905,47.1545238 35.5834444,47.2170952 C35.5834444,47.2170952 34.7097619,49.4024603 34.7723333,50.2147302 C34.7723333,50.2147302 36.6448413,50.7755556 37.5810952,50.7755556 L36.9576984,44.0977937 L37.5834127,43.7223651 L36.3957143,43.4095079 C36.3957143,43.4095079 41.0155714,41.9124286 43.6377778,39.2264921 C43.6377778,39.2264921 51.1926984,38.6030952 59.9295238,34.3598254 C59.9295238,34.3598254 58.8692857,37.2937302 56.0593651,40.1013333 L60.242381,41.0399048 L58.369873,67.4450476 L51.9412381,70.1912381 C51.9412381,70.1912381 47.3225397,68.1935873 43.3260794,67.4450476 L38.1465556,70.5040952 C38.1465556,70.5040952 34.7120794,68.8193016 27.6577302,67.507619 L27.6577302,66.3836508 L27.6530952,66.3836508 Z" id="Path" stroke="#CADEF3" stroke-linecap="round" stroke-linejoin="round"></path>
            <path d="M11.0473333,44.5346349 C11.0473333,44.5346349 15.2929206,49.2159048 19.2256508,50.4650159 C19.2256508,50.4650159 28.6507619,51.1521429 35.581127,47.2205714" id="Path" stroke="#CADEF3" stroke-linecap="round" stroke-linejoin="round"></path>
            <path d="M19.5361905,69.1935714 L19.2256508,60.1404127 L18.2893968,60.766127 C18.2893968,60.766127 15.7286032,59.391873 14.2940952,55.9573968 C14.2940952,55.9573968 16.8548889,57.7696508 18.9127937,57.8310635 L19.2256508,50.4638571" id="Path" fill="#F8F9F9"></path>
            <path d="M19.5361905,69.1935714 L19.2256508,60.1404127 L18.2893968,60.766127 C18.2893968,60.766127 15.7286032,59.391873 14.2940952,55.9573968 C14.2940952,55.9573968 16.8548889,57.7696508 18.9127937,57.8310635 L19.2256508,50.4638571" id="Path" stroke="#CADEF3" stroke-linecap="round" stroke-linejoin="round"></path>
            <polyline id="Path" fill="#F8F9F9" points="60.2389048 41.038746 52.7882698 45.1093651 44.1070635 43.9135556"></polyline>
            <polyline id="Path" stroke="#CADEF3" stroke-linecap="round" stroke-linejoin="round" points="60.2389048 41.038746 52.7882698 45.1093651 44.1070635 43.9135556"></polyline>
            <path d="M51.9366032,70.1923968 C51.9366032,70.1923968 52.6550159,54.6074762 52.7894286,45.1105238" id="Path" fill="#F8F9F9"></path>
            <path d="M51.9366032,70.1923968 C51.9366032,70.1923968 52.6550159,54.6074762 52.7894286,45.1105238" id="Path" stroke="#CADEF3" stroke-linecap="round" stroke-linejoin="round"></path>
            <path d="M46.1406349,47.2124603 C49.4661905,47.0768889 52.7268571,48.3653968 52.7268571,48.3653968 C52.7268571,48.3653968 55.6375873,45.788381 57.5379048,45.788381" id="Path" stroke="#CADEF3" stroke-linecap="round" stroke-linejoin="round"></path>
            <path d="M58.7128571,62.5366667 L54.8913651,64.1727937" id="Path" fill="#F8F9F9"></path>
            <path d="M58.7128571,62.5366667 L54.8913651,64.1727937" id="Path" stroke="#CADEF3" stroke-linecap="round" stroke-linejoin="round"></path>
            <path d="M46.1406349,59.8287143 C46.1406349,59.8287143 50.5113651,61.0523333 52.3630159,61.8680794 L53.3317143,61.4590476" id="Path" stroke="#CADEF3" stroke-linecap="round" stroke-linejoin="round"></path>
            <polyline id="Path" stroke="#CADEF3" stroke-linecap="round" stroke-linejoin="round" points="43.3214444 67.4462063 44.7153968 52.7766825 38.8139841 55.8299365 38.1396032 70.505254"></polyline>
            <path d="M30.6252381,52.4325397 L26.3993492,55.2853333 C26.3993492,55.2853333 30.7411111,54.9469841 38.8139841,55.8299365" id="Path" fill="#F8F9F9"></path>
            <path d="M30.6252381,52.4325397 L26.3993492,55.2853333 C26.3993492,55.2853333 30.7411111,54.9469841 38.8139841,55.8299365" id="Path" stroke="#CADEF3" stroke-linecap="round" stroke-linejoin="round"></path>
            <path d="M44.7153968,52.7755238 L43.5566667,52.431381" id="Path" fill="#F8F9F9"></path>
            <path d="M44.7153968,52.7755238 L43.5566667,52.431381" id="Path" stroke="#CADEF3" stroke-linecap="round" stroke-linejoin="round"></path>
            <path d="M27.6530952,66.3836508 C27.6530952,66.3836508 27.3483492,58.6085714 26.3993492,55.2853333" id="Path" fill="#F8F9F9"></path>
            <path d="M27.6530952,66.3836508 C27.6530952,66.3836508 27.3483492,58.6085714 26.3993492,55.2853333" id="Path" stroke="#CADEF3" stroke-linecap="round" stroke-linejoin="round"></path>
            <path d="M19.2256508,60.1415714 C19.2256508,60.1415714 23.3252381,57.6410317 26.7956349,57.1080159 C26.7956349,57.1080159 22.2151746,56.7140476 18.9127937,57.8322222" id="Path" fill="#F8F9F9"></path>
            <path d="M19.2256508,60.1415714 C19.2256508,60.1415714 23.3252381,57.6410317 26.7956349,57.1080159 C26.7956349,57.1080159 22.2151746,56.7140476 18.9127937,57.8322222" id="Path" stroke="#CADEF3" stroke-linecap="round" stroke-linejoin="round"></path>
            <path d="M13.5084762,51.2830794 C13.5084762,51.2830794 17.9139683,52.9053016 19.070381,54.1300794 C19.070381,54.1300794 22.599873,52.8438889 24.905746,52.7743651" id="Path" stroke="#CADEF3" stroke-linecap="round" stroke-linejoin="round"></path>
            <path d="M11.8804603,53.0779524 C11.8804603,53.0779524 13.5084762,53.4197778 14.9325556,54.2332063" id="Path" fill="#F8F9F9"></path>
            <path d="M11.8804603,53.0779524 C11.8804603,53.0779524 13.5084762,53.4197778 14.9325556,54.2332063" id="Path" stroke="#CADEF3" stroke-linecap="round" stroke-linejoin="round"></path>
            <path d="M18.3936825,63.0198571 L19.3357302,63.3558889 C19.3357302,63.3558889 21.6497143,62.3408413 23.4144603,62.2736349" id="Path" stroke="#CADEF3" stroke-linecap="round" stroke-linejoin="round"></path>
            <path d="M12.6208889,63.3547302 C12.6208889,63.3547302 15.098254,64.3767302 16.9151429,65.055746" id="Path" fill="#F8F9F9"></path>
            <path d="M12.6208889,63.3547302 C12.6208889,63.3547302 15.098254,64.3767302 16.9151429,65.055746" id="Path" stroke="#CADEF3" stroke-linecap="round" stroke-linejoin="round"></path>
            <path d="M27.0262222,58.6526032 C27.0262222,58.6526032 29.9265238,58.6108889 32.1663492,59.0176032" id="Path" fill="#F8F9F9"></path>
            <path d="M27.0262222,58.6526032 C27.0262222,58.6526032 29.9265238,58.6108889 32.1663492,59.0176032" id="Path" stroke="#CADEF3" stroke-linecap="round" stroke-linejoin="round"></path>
            <path d="M33.726,64.2052381 C33.726,64.2052381 36.6112381,64.1739524 38.3898889,65.055746 C38.3898889,65.055746 39.4941587,64.1021111 42.005127,63.2898413" id="Path" stroke="#CADEF3" stroke-linecap="round" stroke-linejoin="round"></path>
            <path d="M44.2009206,58.1914286 C44.2009206,58.1914286 43.155746,58.8136667 42.138381,59.4231587" id="Path" fill="#F8F9F9"></path>
            <path d="M44.2009206,58.1914286 C44.2009206,58.1914286 43.155746,58.8136667 42.138381,59.4231587" id="Path" stroke="#CADEF3" stroke-linecap="round" stroke-linejoin="round"></path>
            <path d="M43.4964127,65.6049841 C43.4964127,65.6049841 41.4593651,66.412619 40.5764127,67.2944127" id="Path" fill="#F8F9F9"></path>
            <path d="M43.4964127,65.6049841 C43.4964127,65.6049841 41.4593651,66.412619 40.5764127,67.2944127" id="Path" stroke="#CADEF3" stroke-linecap="round" stroke-linejoin="round"></path>
            <path d="M27.6171746,65.6049841 C27.6171746,65.6049841 28.8407937,65.6107778 30.264873,66.1125079" id="Path" fill="#F8F9F9"></path>
            <path d="M27.6171746,65.6049841 C27.6171746,65.6049841 28.8407937,65.6107778 30.264873,66.1125079" id="Path" stroke="#CADEF3" stroke-linecap="round" stroke-linejoin="round"></path>
            <path d="M46.1406349,54.1300794 C46.1406349,54.1300794 51.1614127,54.4719048 53.3317143,56.7105714 C53.3317143,56.7105714 54.6410794,54.8797778 55.7186984,53.6561587 L52.5437778,54.7082857 C52.5437778,54.7082857 49.2610952,53.788254 46.1406349,54.1289206" id="Path" fill="#F8F9F9"></path>
            <path d="M46.1406349,54.1300794 C46.1406349,54.1300794 51.1614127,54.4719048 53.3317143,56.7105714 C53.3317143,56.7105714 54.6410794,54.8797778 55.7186984,53.6561587 L52.5437778,54.7082857 C52.5437778,54.7082857 49.2610952,53.788254 46.1406349,54.1289206 L46.1406349,54.1300794 Z" id="Path" stroke="#CADEF3" stroke-linecap="round" stroke-linejoin="round"></path>
            <path d="M34.7688571,50.2158889 C34.7688571,50.2158889 31.2150317,50.4175079 28.1617778,50.5113651 C28.1617778,50.5113651 31.2254603,53.929619 38.1384444,55.2853333 C38.1384444,55.2853333 41.3249524,53.5171111 44.7153968,51.8578095 C44.7153968,51.8578095 41.3631905,51.628381 37.577619,50.7767143 L34.7688571,50.2158889 Z" id="Path" stroke="#CADEF3" stroke-linecap="round" stroke-linejoin="round"></path>
            <path d="M56.0558889,40.1036508 C56.0558889,40.1036508 54.8913651,41.5149841 54.6190635,41.7189206 C54.6190635,41.7189206 46.7906825,44.9146984 37.577619,43.7235238" id="Path" fill="#F8F9F9"></path>
            <path d="M56.0558889,40.1036508 C56.0558889,40.1036508 54.8913651,41.5149841 54.6190635,41.7189206 C54.6190635,41.7189206 46.7906825,44.9146984 37.577619,43.7235238" id="Path" stroke="#CADEF3" stroke-linecap="round" stroke-linejoin="round"></path>
        </g>
    </g>
</svg>