<?xml version="1.0" encoding="UTF-8"?>
<svg width="147px" height="71px" viewBox="0 0 147 71" version="1.1" xmlns="http://www.w3.org/2000/svg" xmlns:xlink="http://www.w3.org/1999/xlink">
    <!-- Generator: Sketch 48.1 (47250) - http://www.bohemiancoding.com/sketch -->
    <title>Artboard</title>
    <desc>Created with Sketch.</desc>
    <defs></defs>
    <g fill-rule="nonzero">
        <path d="M76.5,3.77119025 L78.2711903,2 L79,2.72880975 L77.2288097,4.5 L79,6.27119025 L78.2711903,7 L76.5,5.22880975 L74.7288097,7 L74,6.27119025 L75.7711903,4.5 L74,2.72880975 L74.7288097,2 L76.5,3.77119025 Z" fill="#C9DEF2"></path>
        <path d="M5.15134371,6.49957567 C5.15134371,6.14029056 4.85970944,5.84865629 4.49957567,5.84865629 C4.14021101,5.84865629 3.84865629,6.14036998 3.84865629,6.49957567 C3.84865629,6.85955054 4.1401316,7.15134371 4.49957567,7.15134371 C4.85978895,7.15134371 5.15134371,6.85963006 5.15134371,6.49957567 Z M6,6.49957567 C6,7.32822652 5.32859241,8 4.49957567,8 C3.67122449,8 3,7.32804353 3,6.49957567 C3,5.67177358 3.67140749,5 4.49957567,5 C5.32840937,5 6,5.67159063 6,6.49957567 Z" fill="#C9DEF2"></path>
        <path d="M7.00398406,67 C7.00398406,66.4459619 6.55424414,65.9960159 6,65.9960159 C5.44635695,65.9960159 4.99601594,66.4463569 4.99601594,67 C4.99601594,67.5542441 5.44596188,68.0039841 6,68.0039841 C6.55463907,68.0039841 7.00398406,67.5546391 7.00398406,67 Z M8,67 C8,68.1047235 7.10472348,69 6,69 C4.89597956,69 4,68.1044307 4,67 C4,65.8962725 4.89627253,65 6,65 C7.10443069,65 8,65.8959796 8,67 Z" fill="#C9DEF2"></path>
        <path d="M54.0039841,9 C54.0039841,8.44596188 53.5542441,7.99601594 53,7.99601594 C52.4463569,7.99601594 51.9960159,8.44635695 51.9960159,9 C51.9960159,9.55424414 52.4459619,10.0039841 53,10.0039841 C53.5546391,10.0039841 54.0039841,9.55463907 54.0039841,9 Z M55,9 C55,10.1047235 54.1047235,11 53,11 C51.8959796,11 51,10.1044307 51,9 C51,7.89627253 51.8962725,7 53,7 C54.1044307,7 55,7.89597956 55,9 Z" fill="#C9DEF2"></path>
        <path d="M118,3.5 C118,2.12023151 116.880281,1 115.5,1 C114.12097,1 113,2.12097012 113,3.5 C113,4.88028119 114.120232,6 115.5,6 C116.88102,6 118,4.8810195 118,3.5 Z M119,3.5 C119,5.43330424 117.433304,7 115.5,7 C113.56805,7 112,5.4326685 112,3.5 C112,1.56868535 113.568685,0 115.5,0 C117.432669,0 119,1.56804927 119,3.5 Z" fill="#C9DEF2"></path>
        <path d="M96.8448216,36 L95.0057753,34.9942247 L94,33.1551784 L92.9942247,34.9942247 L91.1551784,36 L92.9942247,37.0057753 L94,38.8448216 L95.0057753,37.0057753 L96.8448216,36 Z M99,36 L95.76773,37.76773 L94,41 L92.23227,37.76773 L89,36 L92.23227,34.23227 L94,31 L95.76773,34.23227 L99,36 Z" fill="#C9DEF2"></path>
        <path d="M58.0057753,64.9942247 L57,63.1551784 L55.9942247,64.9942247 L54.1551784,66 L55.9942247,67.0057753 L57,68.8448216 L58.0057753,67.0057753 L59.8448216,66 L58.0057753,64.9942247 Z M62,66 L58.76773,67.76773 L57,71 L55.23227,67.76773 L52,66 L55.23227,64.23227 L57,61 L58.76773,64.23227 L62,66 Z" fill="#C9DEF2"></path>
        <path d="M142.616589,32.4802734 C141.527847,33.5719595 140.35122,34.4116791 139.800493,34.2003361 C138.625483,33.7494218 134.733502,29.9733412 134.849426,28.9206905 C134.910163,28.3691695 135.63454,27.3593984 136.535835,26.3918757 L134,23.7615419 L134.78955,23 L137.309364,25.6137155 C138.318122,24.663008 139.374268,23.9101734 139.916238,23.9326728 C141.185209,23.9853531 144.823293,27.657502 144.938626,28.9312738 C144.989521,29.493377 144.283318,30.610963 143.36339,31.6757168 L145.88,34.1928634 L145.104424,34.9686385 L142.616589,32.4802734 Z M140.168645,33.1151926 C140.299355,33.0517067 140.474877,32.9360986 140.680538,32.775986 C141.096692,32.452 141.606353,31.9697861 142.11028,31.4255522 C143.093861,30.3632985 143.865081,29.2381613 143.846254,29.0302281 C143.779353,28.291357 140.576101,25.058111 139.870753,25.0288291 C139.678764,25.0208588 138.699038,25.7572657 137.733284,26.7311509 C136.748257,27.7244719 135.971317,28.753484 135.939675,29.0408114 C135.894917,29.4472345 139.345148,32.8002036 140.164277,33.1639473 C140.111719,33.1418468 140.123797,33.1369754 140.168645,33.1151926 Z" fill="#CFE5FF"></path>
        <path d="M94.2260974,59.8802616 C93.8675761,59.8802616 93.5237389,60.0226442 93.270226,60.2760869 C93.0167131,60.5295295 92.874291,60.8732715 92.874291,61.2316934 C92.874291,61.5901154 93.0167131,61.9338574 93.270226,62.1873 C93.5237389,62.4407426 93.8675761,62.5831252 94.2260974,62.5831252 C94.5846188,62.5831252 94.928456,62.4407426 95.1819689,62.1873 C95.4354818,61.9338574 95.5779038,61.5901154 95.5779038,61.2316934 C95.5779038,60.8732715 95.4354818,60.5295295 95.1819689,60.2760869 C94.928456,60.0226442 94.5846188,59.8802616 94.2260974,59.8802616 Z M96.6753079,61.2316934 C96.6753079,61.8810844 96.4172669,62.5038781 95.9579508,62.9630669 C95.4986347,63.4222557 94.8756684,63.6802252 94.2260974,63.6802252 C93.5765264,63.6802252 92.9535601,63.4222557 92.4942441,62.9630669 C92.034928,62.5038781 91.7768869,61.8810844 91.7768869,61.2316934 C91.7768869,60.5823024 92.034928,59.9595088 92.4942441,59.50032 C92.9535601,59.0411312 93.5765264,58.7831616 94.2260974,58.7831616 C94.8756684,58.7831616 95.4986347,59.0411312 95.9579508,59.50032 C96.4172669,59.9595088 96.6753079,60.5823024 96.6753079,61.2316934 Z M96.6940179,58 L97.4699998,58.7757669 L95.969584,60.2757669 L95.1936021,59.5 L96.6940179,58 Z M97.4699998,58.7757669 L95.969584,60.2757669 L95.1936021,59.5 L96.6940179,58 L97.4699998,58.7757669 Z M92.5004158,62.19247 L93.2763977,62.9682369 L91.7759819,64.4682369 L91,63.69247 L92.5004158,62.19247 Z M93.2763977,62.9682369 L91.7759819,64.4682369 L91,63.69247 L92.5004158,62.19247 L93.2763977,62.9682369 Z" fill="#CFE5FF"></path>
        <path d="M43.4468063,44.361912 L43.2719082,44.7933275 C43.2406326,44.8704739 43.1810362,45.0078492 43.0928726,45.1969211 C42.9478665,45.507895 42.7738466,45.8533316 42.5705214,46.224712 C41.9903497,47.2844153 41.2898709,48.3439029 40.4656735,49.3349488 C39.8615743,50.0613401 39.2120618,50.7237772 38.5160503,51.3075288 L38.2769165,51.5080926 L36.2948451,50.8143677 C36.2030622,50.8948617 36.103237,50.9779679 35.9937218,51.06558 C35.8371216,51.1908602 35.7066944,51.290441 35.4238868,51.5026598 C35.3139287,51.6126179 35.3139287,51.6126179 35.1926753,51.7260744 C34.5650907,52.1967629 34.2824433,52.391083 33.9088643,52.5778725 L33.7930404,52.6357844 C33.4379088,52.8500395 33.1493579,53.0076257 32.6088643,53.2778725 L32.4930404,53.3357844 L32.3635453,53.3357844 C32.5044471,53.3357844 32.5952348,53.2813118 32.6514287,53.2251179 C32.55558,53.3209666 32.4590585,53.3892086 32.3265651,53.4190221 L31.2869679,53.9388207 C31.2190962,54.0042847 31.1874692,54.02607 31.1088643,54.0653725 C31.0268635,54.1063729 30.9718007,54.1237244 30.9024089,54.1309097 C30.4155062,54.372509 30.1419145,54.4931945 29.8421074,54.5802117 C29.800634,54.6160987 29.7680789,54.6357652 29.7088643,54.6653725 C29.602759,54.7184251 29.5417565,54.731882 29.4364524,54.7349531 C29.3077323,54.7693624 29.1665222,54.8144646 28.8870121,54.9076347 C28.6106804,54.9997452 28.4567675,55.0492451 28.3135596,55.088712 C28.2311038,55.1438216 28.1416534,55.1831398 28.0465882,55.2069061 C27.9683705,55.2264605 27.9119215,55.2331195 27.8333227,55.2350715 C27.6839854,55.271676 27.5327667,55.3060054 27.2325425,55.3727218 C26.8999635,55.4466283 26.7568831,55.4793324 26.5965882,55.5194061 L26.4635453,55.5357844 C26.2145563,55.5745715 26.048266,55.5964134 25.7241225,55.6324294 C25.401785,55.6682446 25.2592624,55.6875044 25.0711248,55.725132 L24.6635453,55.7357844 C24.4816151,55.7357844 24.3421685,55.7470909 24.0241225,55.7824294 C23.6671685,55.8220909 23.4982818,55.8357844 23.2635453,55.8357844 L21.5635453,55.8357844 C21.1907586,55.8357844 21.0355713,55.8336873 20.8331172,55.8224399 C20.5839595,55.8085978 20.3521588,55.7815576 20.1106546,55.7357844 L19.9635453,55.7357844 L19.8305024,55.7194061 C19.6922513,55.6848433 19.5737965,55.6663348 19.2955061,55.6315485 C19.0120389,55.5961151 18.8632729,55.5739234 18.6984553,55.5357844 L18.4635453,55.5357844 L18.3305024,55.5194061 C18.1702075,55.4793324 18.0271271,55.4466283 17.6945481,55.3727218 C17.3878814,55.3045737 17.2366838,55.2702176 17.0841552,55.2327116 C16.9726604,55.2232537 16.8950973,55.1913079 16.7682263,55.1278725 C16.5366906,55.0709532 16.3906932,55.0207665 16.0709365,54.9008578 C15.7906932,54.7957665 15.6700239,54.7542865 15.5305024,54.7194061 L15.3830994,54.6825553 C14.9206546,54.5153923 14.431656,54.3277996 13.9970661,54.1167226 C13.9437153,54.1041215 13.8927155,54.085672 13.8407581,54.0625798 C13.799418,54.0420498 13.7252407,54.013814 13.6182263,53.9778725 C13.4417995,53.8896591 13.2920249,53.8083528 12.9471459,53.6167534 C12.6170249,53.4333528 12.4751328,53.3563257 12.3182263,53.2778725 C12.0320735,53.1347961 11.7695424,52.9755075 11.4217645,52.7436556 C11.0305888,52.4788295 10.85576,52.362277 10.6813187,52.2576122 L10.5756619,52.1751179 C10.5698462,52.1693022 10.5380765,52.1461969 10.4592645,52.0936556 C10.3130765,51.9961969 10.2531796,51.9526355 10.2344153,51.9260744 C10.0552722,51.7917171 9.92784723,51.686262 9.6565537,51.4537246 C9.40284723,51.236262 9.28860555,51.1417171 9.13441531,51.0260744 L8.91499531,50.8615094 C6.85604488,49.1433407 5.23057494,47.1675688 3.98800738,44.8504385 L2.61485985,44.4581106 L2.5029991,44.2852349 C2.16546434,43.7635903 1.88383877,43.1175457 1.64840212,42.3731504 C1.43804814,41.7080606 1.27539612,41.0001622 1.15368536,40.2929239 C1.11115858,40.0458089 1.0767238,39.8161067 1.04966793,39.6094109 C1.03323981,39.4839067 1.0228189,39.3928296 1.01771766,39.3418172 L1,39.1646406 L1.69174961,37.9787842 C1.00707883,33.407669 1.81029008,28.7728566 4.08727053,24.6150774 C7.25547872,19.0707131 12.6191602,15.3041406 18.7109825,14.1923139 L19.7020028,12.4084774 L19.9385393,12.3531178 C19.9902644,12.3410119 20.0831529,12.3212224 20.2138051,12.2963614 C20.4275812,12.2556832 20.6722347,12.2151868 20.944381,12.1774958 C23.0931558,11.8799003 25.4122203,11.9252396 27.6068589,12.554293 C28.1169182,12.7004923 28.6099906,12.8768312 29.084057,13.0849579 L29.3304519,13.1931313 L29.8276906,15.1820861 L30.9692292,15.6387015 C31.1490266,15.639788 31.269492,15.6925296 31.378271,15.7823195 C32.1182626,16.0784772 32.4714568,16.2363301 32.8959091,16.4871617 C33.1802726,16.5888319 33.4063032,16.7231313 33.8678261,17.0308132 C34.0512361,17.1427822 34.1157104,17.1801139 34.1815277,17.2350375 C34.2707135,17.2851719 34.3518388,17.342767 34.4926753,17.4483944 C34.5621197,17.5004777 34.6084807,17.534229 34.643466,17.5576192 C34.8304001,17.607307 34.9759087,17.7751424 35.3120953,18.2872344 L35.1514287,17.899351 C35.36192,18.1098422 35.4017659,18.1430472 35.5088643,18.1965964 L35.6514287,18.299351 L35.9514287,18.599351 L36.0541834,18.7419154 C36.0995572,18.7906922 36.2896935,18.9376157 36.4199665,19.0829536 L36.6514287,19.299351 L36.7541834,19.4419154 C36.7995572,19.4906922 36.9896935,19.6376157 37.0514287,19.699351 L37.2984933,19.9464156 C37.4223829,20.0226893 37.5242849,20.1182594 37.6224531,20.2360613 C37.6507125,20.2699726 37.748164,20.3960863 37.7514287,20.399351 L38.0514287,20.699351 C38.1289464,20.7768687 38.1725078,20.8367656 38.2699665,20.9829536 C38.3225078,21.0617656 38.3456131,21.0935353 38.3514287,21.099351 L38.4541834,21.2419154 C38.5060025,21.3455536 38.5394868,21.3874091 38.6514287,21.499351 C38.7289464,21.5768687 38.7725078,21.6367656 38.8699665,21.7829536 C38.9225078,21.8617656 38.9456131,21.8935353 38.9514287,21.899351 L39.0541834,22.0419154 C39.1060025,22.1455536 39.1394868,22.1874091 39.2514287,22.299351 C39.3289464,22.3768687 39.3725078,22.4367656 39.4699665,22.5829536 C39.5225078,22.6617656 39.5456131,22.6935353 39.5514287,22.699351 C39.6289464,22.7768687 39.6725078,22.8367656 39.7699665,22.9829536 C39.8225078,23.0617656 39.8456131,23.0935353 39.8514287,23.099351 C39.9289464,23.1768687 39.9725078,23.2367656 40.0699665,23.3829536 C40.1225078,23.4617656 40.1456131,23.4935353 40.1514287,23.499351 C40.2289464,23.5768687 40.2725078,23.6367656 40.3699665,23.7829536 C40.4225078,23.8617656 40.4456131,23.8935353 40.4514287,23.899351 L40.6120953,24.0600176 L40.6120953,24.2872344 C40.6120953,24.2461888 40.678762,24.3037832 40.8120953,24.4600176 L40.8120953,24.6872344 C40.9761665,24.8240887 41.0182393,24.9166488 41.0839455,25.1137677 C41.0896783,25.130966 41.1323949,25.179716 41.2120953,25.2600176 L41.2120953,25.4872344 C41.3761665,25.6240887 41.4182393,25.7166488 41.4839455,25.9137677 C41.4901414,25.9323551 41.513554,25.975071 41.5541834,26.0419154 C41.6101042,26.1537571 41.6388878,26.2285943 41.6839455,26.3637677 C41.7973688,26.5736688 41.833765,26.6632261 41.8839455,26.8137677 C41.8901414,26.8323551 41.913554,26.875071 41.9541834,26.9419154 C42.0101042,27.0537571 42.0388878,27.1285943 42.0839455,27.2637677 C42.1138878,27.3535943 42.1267709,27.3870905 42.1541834,27.4419154 L42.2120953,27.6078183 C42.2576568,27.6998999 42.2857367,27.7662584 42.3001275,27.841961 C42.3364798,27.9298123 42.3614331,28.017056 42.395717,28.1541915 C42.4237813,28.2664488 42.4360001,28.3055488 42.4541834,28.3419154 L42.5120953,28.6198708 C42.5890408,28.9292448 42.6568018,29.2135711 42.7975133,29.8115949 C42.9469183,30.446566 43.013215,30.7241837 43.095717,31.0541915 L43.1120953,31.1872344 L43.1120953,31.3872344 C43.1120953,31.4198668 43.1218832,31.4818567 43.1514429,31.6296549 C43.1968832,31.8568567 43.2120953,31.9532001 43.2120953,32.0872344 C43.2936777,32.4709083 43.3120953,32.6673472 43.3120953,32.9872344 L43.3120953,37.0872344 C43.3120953,37.2625953 43.2918005,37.4012769 43.2490327,37.5937316 C43.2162212,37.7413834 43.2120953,37.7640759 43.2120953,37.7872344 L43.2120953,38.0872344 C43.2120953,38.2625953 43.1918005,38.4012769 43.1490327,38.5937316 C43.1162212,38.7413834 43.1120953,38.7640759 43.1120953,38.7872344 L43.1120953,39.0144513 L43.0119265,39.1146201 C43.0098977,39.2773361 42.9895505,39.4114019 42.9490327,39.5937316 C42.9162212,39.7413834 42.9120953,39.7640759 42.9120953,39.7872344 L42.9120953,40.0144513 L42.8120953,40.1144513 L42.7541834,40.3325534 C42.7425057,40.3559088 42.7288315,40.4078706 42.7014429,40.5448139 C42.6538315,40.7828706 42.625839,40.8892421 42.5541834,41.0325534 L42.4541834,41.2325534 C42.4425057,41.2559088 42.4288315,41.3078706 42.4014429,41.4448139 C42.3538315,41.6828706 42.325839,41.7892421 42.2541834,41.9325534 L42.1541834,42.1325534 C42.1219415,42.1970371 42.0917246,42.2688023 42.0228612,42.4409608 C41.9417246,42.6438023 41.9052749,42.7303704 41.8541834,42.8325534 L41.7025679,43.1357844 C41.6702878,43.1717304 41.6547378,43.211068 41.6368844,43.2558486 L43.4468063,44.361912 Z M41.8120953,42.6872344 L41.7886999,42.8314036 C41.8065333,42.781634 41.8120953,42.7360991 41.8120953,42.6872344 Z M31.1635453,15.7386844 L31.3374958,15.7721842 C31.2904875,15.7519686 31.2331271,15.7386844 31.1635453,15.7386844 Z M9.06702634,50.9214792 C9.07681104,50.9295833 9.08675767,50.9369844 9.09676452,50.9436556 C9.09214591,50.9411757 9.08715054,50.9383877 9.08185778,50.9353348 L9.06702634,50.9214792 Z M15.4635453,54.6357844 L15.4145234,54.6297496 C15.4349633,54.6350771 15.4494238,54.6357844 15.4635453,54.6357844 Z M40.3051501,43.7277526 L40.4431451,43.3137677 C40.489179,43.175666 40.5254337,43.0804974 40.6042294,42.8835081 C40.6645895,42.7326079 40.6956362,42.6522594 40.7264141,42.5631218 C40.7367808,42.5091412 40.7551748,42.4523803 40.7854073,42.3919154 C40.8235853,42.3155592 40.875909,42.2481987 40.9394301,42.1933261 C40.9568323,42.1514382 40.9776528,42.0999496 41.0042294,42.0335081 C41.055316,41.9057915 41.0886868,41.8241708 41.1191512,41.7557244 C41.1258676,41.6828072 41.1429693,41.6267914 41.1854073,41.5419154 C41.2203345,41.472061 41.2414276,41.4393073 41.2916358,41.385246 C41.3002381,41.3519937 41.3109749,41.3030194 41.3256478,41.2296549 C41.3586324,41.0647318 41.3822008,40.9630119 41.4173949,40.8684259 C41.4212996,40.8007218 41.431226,40.7495249 41.4556451,40.6762677 C41.4872646,40.5814092 41.5384661,40.4971535 41.605039,40.428526 C41.6590381,40.1627031 41.6827792,40.060519 41.718699,39.9649386 C41.7284116,39.8194895 41.7590346,39.6972788 41.8313603,39.5787554 C41.840821,39.5247283 41.8554992,39.4572514 41.8780579,39.3557372 C41.904933,39.2347991 41.9149953,39.1660402 41.9149953,39.0872344 C41.9149953,38.8852446 41.9396557,38.7290359 42.0313603,38.5787554 C42.040821,38.5247283 42.0554992,38.4572514 42.0780579,38.3557372 C42.104933,38.2347991 42.1149953,38.1660402 42.1149953,38.0872344 L42.1149953,37.7872344 C42.1149953,37.647893 42.1233694,37.6018355 42.1780579,37.3557372 C42.204933,37.2347991 42.2149953,37.1660402 42.2149953,37.0872344 L42.2149953,32.9872344 C42.2149953,32.7410567 42.2041945,32.6438494 42.1431451,32.4607012 L42.1149953,32.2872344 L42.1149953,32.0872344 C42.1149953,32.0546021 42.1052074,31.9926122 42.0756478,31.8448139 C42.0302074,31.6176122 42.0149953,31.5212687 42.0149953,31.3872344 L42.0149953,31.2545981 C41.9380498,30.945224 41.8702888,30.6608977 41.7295773,30.0628739 C41.5801723,29.4279028 41.5138756,29.1502851 41.4313736,28.8202773 C41.3862152,28.6291585 41.362686,28.545527 41.3313736,28.4202773 C41.3033093,28.30802 41.2910905,28.26892 41.2729073,28.2325534 L41.2149953,28.1167295 C41.17042,27.976562 41.1425776,27.9110951 41.1279168,27.8374107 C41.0978292,27.7692125 41.0744033,27.7044758 41.0431451,27.6107012 C41.024622,27.5551318 41.0126274,27.5211202 40.9996828,27.4902806 C40.9297218,27.4008001 40.8933256,27.3112427 40.8431451,27.1607012 C40.8369493,27.1421138 40.8135367,27.0993978 40.7729073,27.0325534 C40.7169864,26.9207117 40.6882029,26.8458745 40.6431451,26.7107012 C40.624622,26.6551318 40.6126274,26.6211202 40.5996828,26.5902806 C40.5297218,26.5008001 40.4933256,26.4112427 40.4431451,26.2607012 C40.3354096,26.1348656 40.2103478,25.9241281 40.1511675,25.7195334 C40.109902,25.6502081 40.0803025,25.5721736 40.0431451,25.4607012 C39.9382002,25.3376561 39.8153304,25.1324862 39.7547778,24.9317524 C39.6693552,24.8131725 39.5977896,24.6729647 39.5556695,24.5346939 C39.5278299,24.496663 39.4969851,24.4513067 39.4571241,24.3915152 C39.4045828,24.3127033 39.3814775,24.2809335 39.3756619,24.2751179 C39.2981442,24.1976002 39.2545828,24.1377033 39.1571241,23.9915152 C39.1045828,23.9127033 39.0814775,23.8809335 39.0756619,23.8751179 C38.9981442,23.7976002 38.9545828,23.7377033 38.8571241,23.5915152 C38.8045828,23.5127033 38.7814775,23.4809335 38.7756619,23.4751179 C38.6981442,23.3976002 38.6545828,23.3377033 38.5571241,23.1915152 C38.5045828,23.1127033 38.4814775,23.0809335 38.4756619,23.0751179 C38.3081546,22.9076105 38.2106309,22.7902822 38.1101558,22.6043177 C38.0655926,22.5516482 38.0240767,22.4919441 37.9571241,22.3915152 C37.9045828,22.3127033 37.8814775,22.2809335 37.8756619,22.2751179 C37.7081546,22.1076105 37.6106309,21.9902822 37.5101558,21.8043177 C37.4655926,21.7516482 37.4240767,21.6919441 37.3571241,21.5915152 C37.3045828,21.5127033 37.2814775,21.4809335 37.2756619,21.4751179 L36.9756619,21.1751179 C36.9139266,21.1133826 36.7670031,20.9232463 36.7796375,20.9384076 C36.7581222,20.9125892 36.6901303,20.8581593 36.5756619,20.7751179 L36.2756619,20.4751179 C36.2723972,20.4718531 36.1462835,20.3744016 36.1123722,20.3461422 C35.9945703,20.247974 35.8990002,20.146072 35.8227265,20.0221824 L35.7256619,19.9251179 C35.6506619,19.8501179 35.6506619,19.8501179 35.5071241,19.6915152 C35.2945703,19.547974 35.1990002,19.446072 35.1227265,19.3221824 L34.9338829,19.1333388 C34.7878019,19.0504031 34.6754392,18.9467551 34.4534217,18.6358115 C34.3855421,18.5407426 34.3074376,18.4263351 34.2149953,18.2872344 L34.3593694,18.6357844 L34.2182263,18.5778725 C34.0946474,18.516083 34.0119999,18.4592629 33.8344153,18.3260744 C33.7119999,18.2342629 33.661314,18.1994163 33.6182263,18.1778725 L33.4756619,18.0751179 C33.3644566,18.0259876 33.2958937,17.9852768 33.2210826,17.9182465 C32.8409663,17.6657705 32.6705292,17.5677849 32.4900786,17.5076347 C32.0103764,17.2350468 31.7044766,17.0955318 31.0310317,16.8250898 C30.9343791,16.8083109 30.8566458,16.7723106 30.7857311,16.7207988 L30.659819,16.6965503 L28.8994,15.9923827 L28.3977348,13.9857218 C28.0451453,13.8420362 27.6804323,13.7166597 27.3045678,13.6089249 C25.2789783,13.0283264 23.105051,12.9858246 21.0948878,13.2642231 C20.8183386,13.3025239 20.5913645,13.34054 20.4212567,13.3728875 L19.4150677,15.1840278 L19.1552125,15.228071 C13.2783987,16.2241412 8.08947983,19.8224869 5.04467648,25.150711 C2.85787564,29.1439995 2.10596476,33.6053374 2.8052825,38.001049 L2.83605308,38.194464 L2.12916259,39.4062763 C2.15103511,39.5814175 2.18565106,39.8207279 2.23489169,40.1068559 C2.34877338,40.7686009 2.50066914,41.4296857 2.69443052,42.0423135 C2.87599089,42.6163647 3.08490388,43.1157621 3.31930443,43.5183793 L4.74086118,43.9245383 L4.84988144,44.1334938 C6.03784128,46.4104169 7.60408073,48.3380962 9.65142875,49.999351 C9.79236604,50.0888398 9.86613686,50.1595255 9.9195084,50.2454888 C10.0439419,50.3429342 10.1665843,50.4459276 10.3705369,50.6207442 C10.6242434,50.8382069 10.7384851,50.9327517 10.9514287,51.099351 C10.9572444,51.1051666 10.9890142,51.1282719 11.0678261,51.1808132 C11.1785226,51.2546109 11.2397414,51.2975048 11.2965984,51.347639 C11.4813868,51.4605932 11.6788602,51.5925733 12.0303261,51.8308132 C12.3434857,52.0395863 12.571333,52.1778307 12.8088643,52.2965964 C12.9852912,52.3848098 13.1350658,52.466116 13.4799448,52.6577154 C13.7508682,52.8082285 13.8950168,52.8870975 14.0247311,52.9539075 C14.094023,52.9690966 14.1573832,52.9963408 14.2429614,53.0386844 L14.4088643,53.0965964 C14.7777366,53.2810325 15.2061139,53.4499871 15.5369801,53.5395312 C15.6419606,53.5426319 15.7029363,53.5561324 15.8088643,53.6090964 C15.8682359,53.6387822 15.9008064,53.6584744 15.9424374,53.694543 C16.0783964,53.7344445 16.2198114,53.7849825 16.4561541,53.873611 C16.7079431,53.9680319 16.8309174,54.0111033 16.9544858,54.0441743 C17.0365981,54.0543367 17.1104439,54.0781607 17.1863326,54.111889 C17.4568831,54.1951365 17.5999635,54.2278406 17.9325425,54.301747 C18.2308169,54.3680302 18.382015,54.4023456 18.5304129,54.4386844 L18.7635453,54.4386844 L18.8965882,54.4550627 C19.0348393,54.4896255 19.1532941,54.5081341 19.4315846,54.5429204 C19.7150517,54.5783538 19.8638177,54.6005455 20.0286353,54.6386844 L20.1635453,54.6386844 C20.4795427,54.6910204 20.6760824,54.7149239 20.8939734,54.727029 C21.0691979,54.7367637 21.211332,54.7386844 21.5635453,54.7386844 L23.2635453,54.7386844 C23.4454755,54.7386844 23.5849221,54.7273779 23.9029681,54.6920395 C24.2599221,54.6523779 24.4288089,54.6386844 24.6635453,54.6386844 L24.9103092,54.6386844 C25.1125343,54.5998974 25.2788246,54.5780554 25.6029681,54.5420395 C25.9253056,54.5062242 26.0678282,54.4869644 26.2559658,54.4493369 L26.3966777,54.4386844 C26.5450756,54.4023456 26.6962737,54.3680302 26.9945481,54.301747 C27.3271271,54.2278406 27.4702075,54.1951365 27.6305024,54.1550627 L27.7830994,54.0919135 L27.9305024,54.0550627 C28.0784613,54.018073 28.2167251,53.9746187 28.5400786,53.8668342 C28.8827754,53.7526019 29.0371911,53.7039051 29.2164069,53.6586059 L29.4305024,53.5550627 C29.7110391,53.4849286 29.9552217,53.3780987 30.5182263,53.0965964 L30.6340502,53.0386844 L32.0340502,52.3386844 C32.1462894,52.2825648 32.1735665,52.2688893 32.2001025,52.2555421 C32.2490736,52.2444861 32.3029593,52.2386844 32.3635453,52.2386844 L32.3635453,52.7872344 L32.1395362,52.3392161 C32.0122324,52.3450067 31.9285978,52.3964151 31.8756619,52.449351 C31.9714086,52.3536043 32.0678266,52.2854055 32.2001025,52.2555421 C32.7141008,51.9970095 32.9500392,51.8616765 33.2344153,51.6483944 L33.3806953,51.5386844 L33.5293153,51.5386844 C33.7797896,51.4025625 34.0277409,51.2292822 34.4756619,50.899351 L34.5756619,50.799351 C34.6131619,50.761851 34.6131619,50.761851 34.7344153,50.6483944 C35.0297728,50.4268763 35.1581186,50.329089 35.3083688,50.2088888 C35.5000829,50.0555176 35.6526089,49.922404 35.7756619,49.799351 L36.0194057,49.5556072 L38.0460402,50.2649293 C38.6020114,49.7752615 39.1274927,49.2282472 39.6221575,48.6334437 C40.3977696,47.7008188 41.0599683,46.6992305 41.6082047,45.697858 C41.7844965,45.3758552 41.9369284,45.0755067 42.0655522,44.8035539 L40.3051501,43.7277526 Z M30.7635453,53.0386844 C30.7339328,53.0386844 30.7028296,53.0417947 30.6182263,53.0840964 C30.5621705,53.1121243 30.5693513,53.1056615 30.5756619,53.099351 L30.6598323,53.0386844 L30.7635453,53.0386844 Z M29.3145234,53.6447193 L29.3635453,53.6386844 C29.3494238,53.6386844 29.3349633,53.6393917 29.3145234,53.6447193 Z M27.7635453,54.1386844 C27.7942096,54.1386844 27.7966178,54.1385339 27.7805024,54.1425627 C27.7395591,54.1527986 27.6999139,54.175099 27.6756619,54.199351 L27.7325075,54.1425053 L27.7635453,54.1386844 Z M17.2558976,54.1453486 C17.2572199,54.145815 17.2581524,54.1462404 17.2588643,54.1465964 C17.2546379,54.1444751 17.2510367,54.1426676 17.2478258,54.1410616 L17.2558976,54.1453486 Z M14.2810865,53.0575886 C14.2828714,53.0584434 14.2842394,53.0590733 14.2863326,53.0600372 C14.2859927,53.0598861 14.284244,53.0590699 14.2810865,53.0575886 Z M34.4534024,18.6357844 C34.3329395,18.636477 34.3499457,18.6494017 34.3756619,18.6751179 L34.3593694,18.6357844 L34.4534024,18.6357844 Z M14.8120953,53.7872344 L13.7149953,53.7872344 C13.7149953,51.6386443 15.8045294,49.9386844 18.3635453,49.9386844 C20.9599611,49.9386844 23.1120953,51.5616053 23.1120953,53.6872344 L22.0149953,53.6872344 C22.0149953,52.2456504 20.4106078,51.0357844 18.3635453,51.0357844 C16.3663113,51.0357844 14.8120953,52.3002313 14.8120953,53.7872344 Z M31.4474609,45.0830374 L31.8796298,46.0914314 C30.9964096,46.4699544 30.0704984,46.4699544 29.5756619,45.9751179 C28.7079125,45.1073685 29.250104,43.4446479 30.5756619,41.999351 C31.9427727,40.6322402 33.6612907,40.109213 34.5514287,40.999351 C35.0178842,41.4658064 35.0539332,42.1507381 34.7839455,42.9607012 L33.7431451,42.6137677 C33.8958847,42.1555489 33.8814287,41.8808846 33.7756619,41.7751179 C33.4457999,41.4452559 32.3468179,41.7797287 31.3679112,42.7579032 C30.4095019,43.8034406 30.051965,44.8998872 30.3514287,45.199351 C30.4565922,45.3045145 30.930681,45.3045145 31.4474609,45.0830374 Z M34.0243908,28.6883259 L35.1026999,28.4861429 C35.4544764,30.3622845 34.6011123,32.364408 32.945772,33.3576122 L32.3813187,32.4168567 C33.63567,31.6642459 34.2931485,30.1217003 34.0243908,28.6883259 Z M29.3370121,32.7668342 L28.9900786,33.8076347 C27.9201985,33.451008 27.0324627,32.7408193 26.4997524,31.7801563 C25.1253694,29.60405 25.8334325,26.6655884 28.0813187,25.3168567 C29.7605994,24.3092882 31.8065812,24.4051936 33.2980022,25.5524405 L32.6290885,26.4220283 C31.4988789,25.5526363 29.9423366,25.4796734 28.645772,26.2576122 C26.9246441,27.2902889 26.3825352,29.540041 27.4430643,31.220835 C27.8546279,31.9616495 28.5211778,32.4948894 29.3370121,32.7668342 Z M9.30785936,43.8552737 L8.21923128,43.7191952 C8.34820446,42.6874097 9.1173896,41.8083409 10.1654177,41.5475326 C11.563468,41.2933416 12.8287981,42.1865158 13.195717,43.6541915 C13.5671177,45.1397943 12.6953882,46.5662608 11.2711248,46.825132 C10.6060353,46.9581499 9.85246676,46.814613 9.33441531,46.4260744 L9.99267532,45.5483944 C10.249092,45.7407069 10.68447,45.823636 11.0654177,45.7475326 C11.8629525,45.6025262 12.3519084,44.8024165 12.1313736,43.9202773 C11.9000783,42.9950959 11.1702491,42.4799224 10.3965882,42.6194061 C9.82570103,42.7621279 9.3809695,43.2703925 9.30785936,43.8552737 Z M38.5900786,35.2668342 L38.9370121,36.3076347 C37.9907918,36.6230414 37.1085632,35.8290357 36.8313736,34.7202773 C36.5673742,33.6642797 36.9775044,32.5250292 37.8559658,32.3493369 L38.0711248,33.425132 C37.9366552,33.4520259 37.7646344,33.9298613 37.895717,34.4541915 C38.0378822,35.0228525 38.3849475,35.3352112 38.5900786,35.2668342 Z M11.2399207,28.3995143 C10.0377796,29.6016553 8.38329903,29.9955792 7.49433397,29.1066142 C6.60536892,28.2176491 6.99929285,26.5631685 8.2014339,25.3610275 C9.40357494,24.1588864 11.0580555,23.7649625 11.9470206,24.6539276 C12.8359857,25.5428926 12.4420617,27.1973732 11.2399207,28.3995143 Z M10.4641538,27.6237474 C11.2927195,26.7951817 11.5319544,25.7903951 11.1712537,25.4296944 C10.8105531,25.0689938 9.80576642,25.3082287 8.97720076,26.1367943 C8.1486351,26.96536 7.90940019,27.9701467 8.27010084,28.3308473 C8.63080149,28.691548 9.63558815,28.4523131 10.4641538,27.6237474 Z M16.4514287,33.8751179 L15.6756619,33.099351 C17.789884,30.9851289 21.2372066,30.9851289 23.3514287,33.099351 C25.4656509,35.2135731 25.4656509,38.6608957 23.3514287,40.7751179 C21.2372066,42.88934 17.789884,42.88934 15.6756619,40.7751179 L16.4514287,39.999351 C18.1372066,41.6851289 20.889884,41.6851289 22.5756619,39.999351 C24.2614398,38.3135731 24.2614398,35.5608957 22.5756619,33.8751179 C20.889884,32.18934 18.1372066,32.18934 16.4514287,33.8751179 Z M15.2120953,36.8872344 L14.1149953,36.8872344 C14.1149953,36.6470503 14.1172907,36.5368735 14.1293901,36.3916798 C14.1465497,36.1857652 14.1817831,35.9978536 14.2431451,35.8137677 L15.2839455,36.1607012 C15.2524504,36.2551867 15.2330409,36.3587036 15.2227005,36.482789 C15.2139666,36.5875953 15.2120953,36.6774185 15.2120953,36.8872344 Z M25.0409037,16.9436022 L25.6861869,17.8308666 C24.3261168,18.8200085 22.5053564,18.6379324 21.438991,17.334597 L22.2880996,16.6398718 C22.9771798,17.482081 24.1405342,17.5984164 25.0409037,16.9436022 Z" fill="#DBE8F1"></path>
        <path d="M66.371891,28.9879634 C66.0134683,28.9879619 65.669725,29.1303436 65.4162812,29.383786 C65.1628373,29.6372286 65.0204538,29.9809712 65.0204534,30.3393929 C65.0204538,30.6978157 65.1628373,31.0415583 65.4162811,31.2950008 C65.669725,31.5484432 66.0134683,31.690825 66.371893,31.6908234 C67.1182671,31.6908228 67.7233228,31.0857671 67.7233234,30.339393 C67.7233228,29.5930197 67.1182671,28.9879641 66.371891,28.9879634 Z M66.3718958,32.7879234 C65.7225034,32.7879263 65.0997073,32.5299582 64.6405163,32.0707696 C64.1813253,31.611581 63.9233541,30.9887864 63.9233534,30.3393929 C63.9233541,29.6900005 64.1813253,29.0672058 64.6405163,28.6080172 C65.0997073,28.1488286 65.7225034,27.8908606 66.3718939,27.8908634 C67.7241789,27.8908646 68.8204223,28.9871079 68.8204234,30.339393 C68.8204223,31.6916789 67.7241789,32.7879223 66.3718958,32.7879234 Z M68.725,27 L69.5007669,27.7757669 L68.0007669,29.2757669 L67.225,28.5 L68.725,27 Z M69.5007669,27.7757669 L68.0007669,29.2757669 L67.225,28.5 L68.725,27 L69.5007669,27.7757669 Z M64.5,31.22501 L65.2757669,32.0007769 L63.7757669,33.5007769 L63,32.72501 L64.5,31.22501 Z M65.2757669,32.0007769 L63.7757669,33.5007769 L63,32.72501 L64.5,31.22501 L65.2757669,32.0007769 Z" fill="#DBE8F1"></path>
    </g>
</svg>
