<?xml version="1.0" encoding="UTF-8"?>
<!-- yes, this is the "repo template" octicon -->
<svg width="23" height="26" viewBox="0 0 23 26" fill="none" 
  xmlns="http://www.w3.org/2000/svg">
  <title>Repo Template</title>
  <path fill-rule="evenodd" clip-rule="evenodd" d="M19.7143 13V1.625C19.7143 0.73125 18.975 0 18.0714 0H1.64286C0.739286 0 0 0.73125 0 1.625V21.125C0 22.0187 0.739286 22.75 1.64286 22.75H4.92857V26L7.39286 23.5625L9.85714 26V19.5H4.92857V21.125H1.64286V17.875H13.1429V16.25H3.28571V1.625H18.0714V13H19.7143ZM6.57143 3.25H4.92857V4.875H6.57143V3.25ZM4.92857 6.5H6.57143V8.125H4.92857V6.5ZM6.57143 9.75H4.92857V11.375H6.57143V9.75ZM6.57143 14.625H4.92857V13H6.57143V14.625ZM16.4286 19.5H13.1429V22.75H16.4286V26H19.7143V22.75H23V19.5H19.7143V16.25H16.4286V19.5Z" fill="#2188FF"/>
</svg>
