<?xml version="1.0" encoding="UTF-8"?>
<svg width="46" height="46" viewBox="0 0 46 46" fill="none" 
    xmlns="http://www.w3.org/2000/svg">
    <title>Required status check</title>
    <path fill-rule="evenodd" clip-rule="evenodd" d="M37 28C32.0296 28 28 32.0286 28 37H21C20.4477 37 20 37.4477 20 38C20 38.5523 20.4477 39 21 39H28.223C29.1325 43.0079 32.7169 46 37 46C41.9705 46 46 41.9705 46 37C46 32.0286 41.9704 28 37 28ZM30 37C30 33.1333 33.134 30 37 30C40.866 30 44 33.1333 44 37C44 40.8659 40.8659 44 37 44C33.1341 44 30 40.8659 30 37Z" fill="#79B8FF"/>
    <path d="M7 38C7.55231 38 8 37.5523 8 37C8 36.4477 7.55231 36 7 36C6.44769 36 6 36.4477 6 37C6 37.5523 6.44769 38 7 38Z" fill="#79B8FF"/>
    <path d="M12 37C12 37.5523 11.5523 38 11 38C10.4477 38 10 37.5523 10 37C10 36.4477 10.4477 36 11 36C11.5523 36 12 36.4477 12 37Z" fill="#79B8FF"/>
    <path d="M40.6726 7.71228C41.0634 7.32201 41.0638 6.68885 40.6736 6.29806C40.2833 5.90728 39.6502 5.90686 39.2594 6.29712L35.9657 9.58641L34.6702 8.29549C34.279 7.90566 33.6458 7.90678 33.256 8.29799C32.8662 8.68921 32.8673 9.32237 33.2585 9.7122L35.2606 11.7073C35.6512 12.0964 36.283 12.0961 36.6731 11.7065L40.6726 7.71228Z" fill="#2188FF"/>
    <path d="M12.6736 6.29806C13.0638 6.68885 13.0634 7.32201 12.6726 7.71228L8.67313 11.7065C8.28302 12.0961 7.65118 12.0964 7.26064 11.7073L5.2585 9.7122C4.86729 9.32237 4.86617 8.68921 5.256 8.29799C5.64583 7.90678 6.27899 7.90566 6.67021 8.29549L7.96571 9.58641L11.2594 6.29712C11.6502 5.90686 12.2833 5.90728 12.6736 6.29806Z" fill="#2188FF"/>
    <path fill-rule="evenodd" clip-rule="evenodd" d="M17.7769 7H28.2231C29.1328 2.99184 32.717 0 37 0C41.9706 0 46 4.02956 46 9.00079C46 13.9714 41.9704 18 37 18C34.8517 18 32.8792 17.2474 31.3318 15.9915L15.163 30.441C16.9094 32.0825 18 34.4137 18 37C18 41.9705 13.9705 46 9 46C4.0295 46 0 41.9705 0 37C0 32.0286 4.02956 28 9 28C10.6508 28 12.1978 28.4444 13.5278 29.2201L29.9262 14.5653C28.7198 13.0341 28 11.1016 28 9.00079L18 9C18 13.9706 13.9704 18 9 18C4.02963 18 0 13.9714 0 9.00079C0 4.02956 4.02943 0 9 0C13.283 0 16.8672 2.99184 17.7769 7ZM37 2C33.1344 2 30.0004 5.13357 30 9C30 12.8658 33.1339 16 37 16C40.8661 16 44 12.8666 44 9.00079C44 5.134 40.8659 2 37 2ZM16 9C15.9996 5.13357 12.8656 2 9 2C5.13413 2 2 5.134 2 9.00079C2 12.8666 5.13394 16 9 16C12.8661 16 16 12.8658 16 9ZM9 30C5.134 30 2 33.1333 2 37C2 40.8659 5.13407 44 9 44C12.8659 44 16 40.8659 16 37C16 33.1333 12.866 30 9 30Z" fill="#2188FF"/>
</svg>
