<svg xmlns="http://www.w3.org/2000/svg" width="56" height="61" viewBox="0 0 56 61"><title>ufo-alert</title><g fill="#C9DEF2" fill-rule="nonzero"><path d="M43.324 1.08c8.09 1.42 13.497 9.126 12.078 17.215-1.326 7.57-8.16 12.79-15.66 12.267-3.827 3.423-8.51 4.283-11.832 4.42-.664.03-1.255-.498-.214-1.07 2.043-1.125 3.344-3.464 4.11-6.312-4.31-3.255-6.694-8.752-5.696-14.44C27.53 5.07 35.235-.337 43.324 1.08zm-.44 20.775v-4h-4v4h4zm0-5v-8h-4v8h4zm-23.758 18.33a8.918 8.918 0 0 0-16.62 6.466l2.777 7.14 16.624-6.468-2.778-7.14-.002.002zm3.606 7.89l-17.554 6.83a.5.5 0 0 1-.647-.284l-2.957-7.603c-1.986-5.105.54-10.853 5.646-12.84 5.103-1.986 10.85.542 12.84 5.647l2.96 7.605a.5.5 0 0 1-.287.647z"/><path d="M5.583 41.92c-1.98-4.183-.11-8.474 4.21-9.61a.5.5 0 0 0-.256-.967C4.6 32.64 2.435 37.61 4.68 42.35a.5.5 0 0 0 .903-.43zm20.197 3.644l-1.24-3.19L3.37 50.61l1.242 3.19 21.168-8.236zm.83.75l-22.1 8.6a.5.5 0 0 1-.648-.285l-1.604-4.125a.5.5 0 0 1 .284-.647l22.1-8.6a.5.5 0 0 1 .648.285l1.604 4.123a.5.5 0 0 1-.285.647z"/><path d="M23.604 44.037l-9.914 3.857a.5.5 0 1 0 .362.932l9.914-3.857a.5.5 0 0 0-.362-.934zm-1.77 4.136l-12.55 4.883 1.024 1.435 11.742-4.567-.216-1.75zm.94 2.54l-12.466 4.85a.5.5 0 0 1-.588-.174L8.098 53.11a.5.5 0 0 1 .225-.756L22.07 47.01a.5.5 0 0 1 .678.403l.342 2.772a.5.5 0 0 1-.315.527z"/><path d="M13.34 56.504l-.473-2.38a.5.5 0 1 0-.98.196l.473 2.38a.5.5 0 1 0 .98-.196zm9.738-2.582a.885.885 0 1 0-1.514.918.885.885 0 0 0 1.514-.918zm.855-.518a1.885 1.885 0 0 1-3.223 1.955 1.886 1.886 0 0 1 3.223-1.957z"/><path d="M14.078 57.922a.885.885 0 1 0-1.514.918.885.885 0 0 0 1.514-.918zm.855-.518a1.885 1.885 0 1 1-3.223 1.955 1.886 1.886 0 0 1 3.223-1.957zM22.03 52.937l-1.26-2.074a.5.5 0 1 0-.853.52l1.26 2.073a.5.5 0 1 0 .853-.52z"/></g></svg>