<svg xmlns="http://www.w3.org/2000/svg" xmlns:svg="http://www.w3.org/2000/svg" id="svg5752" width="45.117" height="46.758" version="1.1" viewBox="0 0 42.297 43.836"><metadata id="metadata5757"/><g id="moon"><path style="fill:none;stroke:#dbe8f1;stroke-width:1.09710002;stroke-linecap:round;stroke-linejoin:round;stroke-miterlimit:10" id="path241" stroke-miterlimit="10" d="m 39.94855,31.4874 0,0 c 0.1,-0.3 0.2,-0.5 0.3,-0.8 0,0 0,-0.1 0.1,-0.1 0.1,-0.2 0.2,-0.5 0.3,-0.7 0,-0.1 0,-0.1 0.1,-0.2 0.1,-0.2 0.1,-0.5 0.2,-0.7 0,-0.1 0,-0.2 0.1,-0.2 0.1,-0.2 0.1,-0.5 0.2,-0.7 0,-0.1 0,-0.2 0.1,-0.3 0,-0.2 0.1,-0.4 0.1,-0.7 0,-0.1 0,-0.2 0.1,-0.3 0,-0.2 0.1,-0.4 0.1,-0.7 0,-0.1 0,-0.2 0,-0.3 0,-0.2 0.1,-0.4 0.1,-0.7 0,-0.1 0,-0.2 0,-0.3 0,-0.2 0,-0.4 0,-0.7 0,-0.1 0,-0.2 0,-0.3 0,-0.2 0,-0.4 0,-0.6 0,-0.1 0,-0.2 0,-0.3 0,-0.2 0,-0.4 0,-0.6 0,-0.1 0,-0.2 0,-0.3 0,-0.2 0,-0.4 0,-0.7 0,-0.1 0,-0.2 0,-0.3 0,-0.2 0,-0.4 -0.1,-0.7 0,-0.1 0,-0.2 0,-0.2 0,-0.2 -0.1,-0.5 -0.1,-0.7 0,-0.1 0,-0.1 0,-0.2 -0.2,-0.8 -0.4,-1.7 -0.6,-2.5 0,0 0,0 0,-0.1 -0.1,-0.2 -0.1,-0.4 -0.2,-0.6 0,-0.1 -0.1,-0.2 -0.1,-0.3 -0.1,-0.2 -0.1,-0.3 -0.2,-0.5 -0.1,-0.1 -0.1,-0.3 -0.2,-0.4 -0.1,-0.2 -0.1,-0.3 -0.2,-0.5 -0.1,-0.1 -0.1,-0.3 -0.2,-0.4 -0.1,-0.1 -0.2,-0.3 -0.2,-0.4 -0.1,-0.1 -0.1,-0.3 -0.2,-0.4 -0.1,-0.1 -0.2,-0.3 -0.2,-0.4 -0.1,-0.1 -0.2,-0.3 -0.2,-0.4 -0.1,-0.1 -0.2,-0.3 -0.3,-0.4 -0.1,-0.1 -0.2,-0.3 -0.3,-0.4 -0.1,-0.1 -0.2,-0.3 -0.3,-0.4 -0.1,-0.1 -0.2,-0.3 -0.3,-0.4 -0.1,-0.1 -0.2,-0.2 -0.3,-0.4 -0.1,-0.1 -0.2,-0.3 -0.3,-0.4 -0.1,-0.1 -0.2,-0.2 -0.3,-0.4 -0.1,-0.1 -0.2,-0.3 -0.3,-0.4 -0.1,-0.1 -0.2,-0.2 -0.3,-0.3 -0.1,-0.1 -0.2,-0.3 -0.4,-0.4 -0.1,-0.1 -0.2,-0.2 -0.3,-0.3 -0.1,-0.1 -0.3,-0.2 -0.4,-0.4 -0.1,-0.1 -0.2,-0.2 -0.3,-0.3 -0.1,-0.1 -0.3,-0.2 -0.4,-0.4 -0.1,-0.1 -0.2,-0.2 -0.3,-0.3 -0.2,-0.1 -0.3,-0.2 -0.5,-0.4 -0.1,-0.1 -0.2,-0.2 -0.3,-0.2 -0.2,-0.1 -0.4,-0.3 -0.6,-0.4 -0.1,-0.1 -0.2,-0.1 -0.3,-0.2 -0.3,-0.2 -0.6,-0.4 -0.9,-0.5 -0.5,-0.3 -1,-0.5 -1.5,-0.7 -0.1,0 -0.1,-0.1 -0.2,-0.1 0,0 -0.1,0 -0.1,0 0,0 0,0 0,0 -0.5,-0.2 -1,-0.4 -1.5,-0.6 l 0,0 -0.5,-2 c -4.1,-1.8 -8.8,-0.7 -8.8,-0.7 l -1,1.8 0,0 c -5.9,1 -11.3,4.6 -14.5,10.2 -2.3,4.2 -3,8.8 -2.3,13.2 l -0.7,1.2 c 0,0 0.3,3 1.4,4.7 l 1.4,0.4 c 1.2,2.3 2.8,4.3 4.9,6 0,0 0,0 0,0 0.1,0.1 0.2,0.1 0.2,0.2 0.4,0.3 0.7,0.6 1.1,0.9 0.1,0.1 0.3,0.2 0.4,0.3 0.5,0.3 1,0.7 1.6,1 0.4,0.2 0.9,0.5 1.3,0.7 0.1,0 0.2,0.1 0.3,0.1 0.4,0.2 0.9,0.4 1.3,0.5 0.1,0 0.1,0 0.2,0.1 0.4,0.1 0.8,0.3 1.2,0.4 0.1,0 0.2,0.1 0.3,0.1 0.4,0.1 0.9,0.2 1.3,0.3 0.1,0 0.2,0 0.3,0 0.4,0.1 0.8,0.1 1.2,0.2 0.1,0 0.1,0 0.2,0 0.5,0.1 0.9,0.1 1.4,0.1 0.1,0 0.2,0 0.3,0 0.4,0 0.9,0 1.3,0 0,0 0,0 0.1,0 0.5,0 0.9,-0.1 1.4,-0.1 0.1,0 0.2,0 0.3,0 0.5,-0.1 0.9,-0.1 1.4,-0.2 0,0 0.1,0 0.1,0 0.4,-0.1 0.9,-0.2 1.3,-0.3 0.1,0 0.2,0 0.3,-0.1 0.4,-0.1 0.9,-0.3 1.3,-0.4 0.1,0 0.1,0 0.2,-0.1 0.4,-0.1 0.8,-0.3 1.2,-0.5 0.1,0 0.1,0 0.2,-0.1 0.4,-0.2 0.8,-0.4 1.2,-0.6 0.1,0 0.1,-0.1 0.2,-0.1 0.4,-0.2 0.8,-0.4 1.2,-0.7 0,0 0,0 0.1,0 0.4,-0.2 0.8,-0.5 1.2,-0.8 0.1,-0.1 0.1,-0.1 0.2,-0.2 0.4,-0.3 0.8,-0.6 1.1,-0.9 l 0,0 0,0 2,0.7 c 3.1,-2.6 4.6,-6.3 4.6,-6.3 l -1.8,-1.1 0,0 z"/><path style="fill:none;stroke:#dbe8f1;stroke-width:1.09710002;stroke-linecap:round;stroke-linejoin:round;stroke-miterlimit:10" id="path243" stroke-miterlimit="10" d="m 13.24855,41.7874 c 0,-1.8 1.8,-3.3 4.1,-3.3 2.3,0 4.2,1.4 4.2,3.2"/><path style="fill:none;stroke:#dbe8f1;stroke-width:1.09710002;stroke-linecap:round;stroke-linejoin:round;stroke-miterlimit:10" id="path245" stroke-miterlimit="10" d="m 30.64855,33.5874 c -0.7,0.3 -1.4,0.3 -1.7,0 -0.6,-0.6 -0.1,-2 1,-3.2 1.2,-1.2 2.6,-1.6 3.2,-1 0.3,0.3 0.3,0.8 0.1,1.4"/><path style="fill:none;stroke:#dbe8f1;stroke-width:1.09710002;stroke-linecap:round;stroke-linejoin:round;stroke-miterlimit:10" id="path247" stroke-miterlimit="10" d="m 33.54855,16.5874 c 0.3,1.6 -0.4,3.4 -1.9,4.3"/><path style="fill:none;stroke:#dbe8f1;stroke-width:1.09710002;stroke-linecap:round;stroke-linejoin:round;stroke-miterlimit:10" id="path249" stroke-miterlimit="10" d="m 28.14855,21.2874 c -0.9,-0.3 -1.7,-0.9 -2.2,-1.8 -1.2,-1.9 -0.6,-4.5 1.4,-5.7 1.5,-0.9 3.3,-0.8 4.6,0.2"/><path style="fill:none;stroke:#dbe8f1;stroke-width:1.09710002;stroke-linecap:round;stroke-linejoin:round;stroke-miterlimit:10" id="path251" stroke-miterlimit="10" d="m 7.74855,31.7874 c 0.1,-0.8 0.7,-1.5 1.5,-1.7 1.1,-0.2 2.1,0.5 2.4,1.7 0.3,1.2 -0.4,2.3 -1.5,2.5 -0.5,0.1 -1.1,0 -1.5,-0.3"/><path style="fill:none;stroke:#dbe8f1;stroke-width:1.09710002;stroke-linecap:round;stroke-linejoin:round;stroke-miterlimit:10" id="path253" stroke-miterlimit="10" d="m 37.74855,23.7874 c -0.6,0.2 -1.2,-0.4 -1.4,-1.2 -0.2,-0.8 0.1,-1.6 0.6,-1.7"/><ellipse style="fill:none;stroke:#dbe8f1;stroke-width:1.09710002;stroke-linecap:round;stroke-linejoin:round;stroke-miterlimit:10" id="ellipse255" cx="-4.366" cy="16.678" stroke-miterlimit="10" rx="2.6" ry="1.6" transform="matrix(0.70710678,-0.70710678,0.70710678,0.70710678,0,0)"/><path style="fill:none;stroke:#dbe8f1;stroke-width:1.09710002;stroke-linecap:round;stroke-linejoin:round;stroke-miterlimit:10" id="path257" stroke-miterlimit="10" d="m 15.04855,21.4874 c 1.9,-1.9 5,-1.9 6.9,0 1.9,1.9 1.9,5 0,6.9 -1.9,1.9 -5,1.9 -6.9,0"/><path style="fill:none;stroke:#dbe8f1;stroke-width:1.09710002;stroke-linecap:round;stroke-linejoin:round;stroke-miterlimit:10" id="path259" stroke-miterlimit="10" d="m 13.64855,24.8874 c 0,-0.3 0,-0.6 0.1,-0.9"/><path style="fill:none;stroke:#dbe8f1;stroke-width:1.09710002;stroke-linecap:round;stroke-linejoin:round;stroke-miterlimit:10" id="path261" stroke-miterlimit="10" d="m 24.34855,5.3874 c -1.1,0.8 -2.6,0.7 -3.5,-0.4"/></g></svg>