<svg xmlns="http://www.w3.org/2000/svg" viewBox="0 0 42.2971 43.835956" height="46.758" width="45.117" id="welcome-left-top">
        <style type="text/css">
            <![CDATA[
                .outline2 {
                    fill: #dbe8f1;
                }
            ]]>
        </style>
    <path id="moon" class="outline2" transform="matrix(.9375 0 0 .9375 0 0)" d="M23.338.008c-1.863.057-3.152.369-3.152.369a.585.585 0 0 0-.377.285l-.954 1.713A22.644 22.644 0 0 0 3.277 13.457a.585.585 0 0 0-.004.008A22.523 22.523 0 0 0 .736 27.688L.082 28.81a.585.585 0 0 0-.078.353s.266 3.237 1.584 5.273a.585.585 0 0 0 .332.245l1.287.367c1.295 2.407 2.989 4.532 5.203 6.33.05.045.06.048.096.072a.585.585 0 0 0 .154.176c.39.292.712.613 1.176.96l-.063-.054c.123.122.221.18.301.233.08.053.139.103.123.088a.585.585 0 0 0 .114.087c.484.29 1.036.733 1.746 1.088.391.196.925.518 1.386.748a.585.585 0 0 0 .149.047.585.585 0 0 0 .762.32c.304.126.612.239.908.313a.585.585 0 0 0 .22.11c.338.084.766.298 1.282.427a.585.585 0 0 0 .04.008c.054.027.172.117.42.117l-.14-.02c.449.113.982.22 1.387.32a.585.585 0 0 0 .142.018h.276c.462.102.87.118 1.181.196a.585.585 0 0 0 .143.02h.207c.54.096 1 .105 1.498.105h1.812c.612 0 1.04-.106 1.495-.106h.32a.585.585 0 0 0 .115-.013c.451-.09.874-.1 1.422-.202h.064a.585.585 0 0 0 .141-.017c.405-.101.94-.208 1.389-.32l-.145.02c.085 0 .342-.027.567-.157.444-.121.905-.295 1.236-.383a.649.649 0 0 0 .271-.07c.095-.048.11-.08.149-.117.433-.131.838-.31 1.207-.495.054-.01.076.003.139-.029.088-.044.1-.072.138-.107l1.25-.627-.263.062c.12 0 .157-.056.252-.107a.585.585 0 0 0 .222-.06c.366-.184.77-.41 1.176-.688a.585.585 0 0 0 .213-.059c.496-.248.942-.588 1.369-.908a.585.585 0 0 0 .063-.055l.197-.197c.308-.231.602-.48.888-.732l1.829.64a.585.585 0 0 0 .568-.105c3.445-2.89 5.072-6.948 5.072-6.948a.585.585 0 0 0-.236-.718l-1.51-.92c.036-.09.07-.18.11-.285a.585.585 0 0 0 .125-.168c.141-.283.246-.603.318-.746a.585.585 0 0 0 .04-.11.585.585 0 0 0 .07-.103c.105-.212.129-.386.155-.52.027-.133.054-.224.055-.226a.585.585 0 0 0 .043-.114.585.585 0 0 0 .002-.002.585.585 0 0 0 .063-.097c.105-.212.131-.388.158-.522.027-.133.055-.224.056-.226a.585.585 0 0 0 .061-.245.585.585 0 0 0 .107-.337c0-.018.1-.296.104-.729a.585.585 0 0 0 .11-.338c0-.018.105-.296.105-.746v-.32c0-.019.107-.296.107-.746v-4.375c0-.187-.018-.47-.107-.8v-.157c0-.205-.038-.357-.065-.49a2.888 2.888 0 0 1-.04-.258v-.213a.585.585 0 0 0-.018-.143c-.205-.818-.414-1.745-.623-2.59v-.04a.585.585 0 0 0-.063-.262c-.033-.067-.05-.266-.181-.563a1.157 1.157 0 0 0-.084-.238.585.585 0 0 0-.055-.16c-.072-.144-.071-.25-.213-.534a.585.585 0 0 0-.05-.082l-.003-.004s-.009-.011-.021-.048c-.027-.08-.057-.254-.248-.446l.111.153c-.072-.144-.073-.25-.215-.534a.585.585 0 0 0-.05-.082v-.002c0 .003-.013-.012-.026-.05-.027-.08-.057-.25-.248-.442.016.016-.02-.029-.037-.062-.017-.034-.004-.095-.004.047a.585.585 0 0 0-.13-.368c.016.023.013.025-.005-.029-.026-.08-.059-.252-.25-.443.016.015-.018-.027-.035-.06-.017-.034-.008-.094-.008.048a.585.585 0 0 0-.17-.414c.016.016-.02-.027-.037-.06-.017-.034-.004-.095-.004.046a.585.585 0 0 0-.172-.414c.016.016-.034-.043-.087-.123-.054-.08-.11-.18-.233-.303.016.016-.034-.045-.088-.125-.053-.08-.11-.178-.232-.3.015.015-.033-.045-.086-.125-.053-.08-.112-.18-.234-.303.015.016-.033-.045-.086-.125-.054-.08-.113-.18-.235-.303-.106-.106-.139-.13-.21-.273a.585.585 0 0 0-.108-.153c.015.016-.035-.043-.088-.123-.053-.08-.11-.18-.232-.302-.107-.107-.14-.132-.211-.276a.585.585 0 0 0-.112-.15c.016.016-.03-.045-.084-.125-.053-.08-.112-.18-.234-.303l-.32-.32c.027.028-.13-.247-.46-.457l-.287-.29c-.244-.244-.314-.27-.316-.274a.585.585 0 0 0-.111-.153l-.32-.318c-.245-.245-.315-.272-.317-.276a.585.585 0 0 0-.107-.152l-.323-.32a.585.585 0 0 0-.152-.108c-.144-.071-.168-.107-.38-.32-.054-.053-.12-.122-.224-.2a.991.991 0 0 0-.263-.134c-.08-.047-.284-.244-.625-.414l.15.11c-.122-.123-.259-.19-.312-.217-.054-.027-.022-.012-.006.003a.585.585 0 0 0-.09-.072c-.32-.213-.669-.46-1.1-.603-.54-.31-1.07-.536-1.566-.735a.585.585 0 0 0-.182-.039c-.094-.05-.13-.11-.25-.11h.006l-1.219-.485-.459-1.844a.585.585 0 0 0-.332-.395C27.64.146 25.201-.05 23.338.008zm.07 1.181c1.668-.047 3.81.152 5.81.97l.452 1.81a.585.585 0 0 0 .351.4l1.6.639a.585.585 0 0 0 .219.045h.072c.093.05.129.105.246.105l-.217-.04c.534.213 1.034.412 1.518.702a.585.585 0 0 0 .113.055c.21.07.503.252.823.465l-.088-.072c.122.122.257.188.31.214.054.027.024.012.008-.003a.585.585 0 0 0 .152.11c.074.038.286.252.639.429a.585.585 0 0 0 .102.037l.068.066c.18.18.353.33.568.46l.252.253c.21.331.487.487.46.459l.284.285c.212.333.491.489.463.461l.319.32a.585.585 0 0 0 .152.11c.004.002.029.074.273.318l.323.318c-.016-.015.03.045.084.125.037.057.102.138.166.215.134.242.291.419.388.516-.015-.016.035.043.088.123.037.055.1.133.16.209.136.245.295.422.393.52-.016-.016.033.044.086.124.053.08.112.18.234.303-.015-.015.033.045.086.125.054.08.11.179.233.301-.016-.016.034.045.088.125.053.08.11.18.232.303-.016-.016.035.043.088.123.032.048.092.12.14.183.021.05.025.134.05.182.038.078.102.15.158.225.022.057.027.147.054.2.063.127.134.244.256.366-.085-.085-.06-.096-.033-.016.014.043.091.152.13.235.026.086.04.196.075.267.063.127.134.245.256.368-.085-.085-.062-.096-.035-.016.026.08.058.252.25.443l-.112-.152c.072.144.072.25.213.533a.585.585 0 0 0 .051.084c0-.002.01.012.023.05.02.058.062.169.141.292.06.121.093.253.18.451.028.119.067.206.086.242a.585.585 0 0 0 .052.16c.027.053.087.262.153.456v.03a.585.585 0 0 0 .015.141c.205.818.414 1.746.623 2.59v.149c0 .204.038.353.065.486.027.133.043.253.043.262v.21a.585.585 0 0 0 .031.186c.082.246.076.347.076.56v4.375c0 .19-.107.338-.107.747v.32c0 .148-.054.305-.082.543-.11.214-.131.444-.131.524 0 .145-.051.3-.08.533l-.002.002c-.073.14-.091.258-.106.367a2.278 2.278 0 0 0-.12.424c-.02.1-.032.138-.042.17-.052.07-.121.142-.14.199-.045.132-.033.176-.032.232-.043.13-.089.266-.107.358a1.803 1.803 0 0 1-.053.209c-.032.037-.056.044-.095.123-.033.066-.021.09-.032.146-.13.27-.23.566-.299.703-.021.027-.084.033-.097.059-.03.061-.04.112-.051.162l.006-.033c-.094.283-.201.498-.32.855a.585.585 0 0 0 .25.684l1.455.889c-.267.608-1.588 3.448-4.291 5.83l-1.785-.623a.585.585 0 0 0-.606.136c-.274.274-.685.587-1.111.907a.585.585 0 0 0-.063.054l-.177.174c-.387.29-.748.55-1.079.727a.585.585 0 0 0-.28.111c-.378.283-.766.478-1.192.691l.261-.062c-.12 0-.157.058-.252.11a.585.585 0 0 0-.222.06l-1.281.639a.585.585 0 0 0-.1.064.585.585 0 0 0-.113.043c-.427.213-.823.404-1.16.488a.585.585 0 0 0-.221.11c-.491.123-1.021.334-1.38.423a.585.585 0 0 0-.196.09.585.585 0 0 0-.125.018c-.383.096-.88.197-1.313.303h-.037a.585.585 0 0 0-.113.011c-.452.09-.874.1-1.422.202h-.28c-.61 0-1.038.107-1.494.107h-1.812c-.533 0-.904 0-1.379-.096a.585.585 0 0 0-.113-.011h-.172c-.463-.102-.869-.118-1.18-.196a.585.585 0 0 0-.142-.017h-.25c-.434-.106-.932-.207-1.315-.303a.585.585 0 0 0-.039-.01c-.053-.027-.173-.113-.422-.113l.143.015c-.303-.075-.704-.253-1.15-.382-.037-.032-.043-.055-.118-.092a.664.664 0 0 0-.26-.07 6.024 6.024 0 0 1-.738-.26c.313-1.314 1.777-2.416 3.723-2.416 1.108 0 2.108.342 2.807.869.698.526 1.087 1.207 1.087 1.96a.585.585 0 0 0 1.17 0c0-1.165-.622-2.194-1.55-2.894-.929-.7-2.169-1.103-3.514-1.103-2.306 0-4.266 1.306-4.8 3.119-.356-.19-.75-.418-1.124-.606-.57-.285-1.087-.695-1.67-1.045-.066-.051-.14-.113-.19-.146-.08-.053-.138-.102-.122-.086a.585.585 0 0 0-.063-.053c-.35-.262-.664-.555-1.057-.863-.005-.008-.002-.021-.007-.03-.078-.11-.157-.163-.202-.193-.09-.06-.074-.048-.058-.033a.585.585 0 0 0-.047-.04 19.42 19.42 0 0 1-5.074-6.218.585.585 0 0 0-.358-.293l-1.226-.35c-.917-1.548-1.277-4.148-1.31-4.415l.64-1.096a.585.585 0 0 0 .072-.389c-.727-4.568-.004-9.333 2.383-13.697l.004-.002c3.326-5.82 8.93-9.552 15.053-10.59a.585.585 0 0 0 .416-.293l.922-1.658c.174-.037 1.122-.257 2.72-.303zm-1.176 3.538a.585.585 0 0 0-.447.962c1.15 1.407 3.135 1.546 4.531.53a.585.585 0 1 0-.687-.946c-.95.691-2.168.616-2.938-.324a.585.585 0 0 0-.459-.222zm-12.015 8.261a2.825 2.825 0 0 0-.533.076c-.703.168-1.408.578-2.018 1.188-.61.61-1.02 1.317-1.187 2.02-.168.702-.082 1.46.433 1.974.515.515 1.274.603 1.977.436.702-.168 1.409-.58 2.02-1.19.61-.61 1.02-1.315 1.187-2.017.167-.703.081-1.464-.434-1.979-.386-.386-.911-.53-1.445-.508zm21.515.483a5.092 5.092 0 0 0-2.86.732c-2.406 1.443-3.138 4.58-1.692 6.883a4.74 4.74 0 0 0 2.66 2.174.585.585 0 1 0 .37-1.108c-.836-.279-1.562-.825-2.02-1.65a.585.585 0 0 0-.016-.03c-1.104-1.748-.56-4.148 1.299-5.263 1.406-.844 3.055-.745 4.25.174a.585.585 0 1 0 .713-.926 4.793 4.793 0 0 0-2.704-.986zm-21.472.683c.274-.015.46.057.574.17.152.152.229.435.123.88-.106.443-.404.99-.877 1.462-.473.473-1.019.771-1.463.877-.444.106-.727.029-.879-.123-.151-.152-.228-.435-.123-.879.106-.444.406-.99.88-1.463.472-.473 1.016-.771 1.46-.877.111-.026.213-.042.305-.047zM35.783 17.1a.585.585 0 0 0-.572.7c.275 1.467-.378 3.153-1.752 3.977a.585.585 0 0 0 .602 1.004c1.826-1.095 2.665-3.248 2.3-5.195a.585.585 0 0 0-.578-.486zM19.73 20.816a5.764 5.764 0 0 0-4.09 1.69.585.585 0 1 0 .827.828 4.622 4.622 0 0 1 6.531 0 4.624 4.624 0 0 1 0 6.533 4.622 4.622 0 0 1-6.531 0 .585.585 0 1 0-.826.826c2.251 2.252 5.932 2.252 8.183 0 2.252-2.251 2.252-5.935 0-8.187a5.772 5.772 0 0 0-4.094-1.69zm19.666.877a.585.585 0 0 0-.1.014c-.538.108-.87.545-1.034 1.002a2.627 2.627 0 0 0-.059 1.525c.132.527.388.994.764 1.332.375.338.94.542 1.482.362a.585.585 0 1 0-.367-1.11c-.098.033-.174.021-.332-.12-.158-.143-.329-.422-.41-.749a1.536 1.536 0 0 1 .023-.845c.076-.21.17-.252.164-.25a.585.585 0 0 0-.13-1.16zm-24.722 3.301a.585.585 0 0 0-.563.408c-.143.431-.138.823-.138 1.143a.586.586 0 1 0 1.172 0c0-.32.006-.565.076-.774a.585.585 0 0 0-.547-.777zm19.603 5.49c-.185.02-.371.06-.554.116-.734.223-1.494.703-2.192 1.4a.585.585 0 0 0-.017.016c-.634.69-1.102 1.439-1.338 2.162-.236.723-.25 1.524.289 2.062.32.321.742.412 1.16.412.418 0 .86-.099 1.299-.287a.586.586 0 0 0-.461-1.078 2.25 2.25 0 0 1-.838.193c-.222 0-.335-.069-.334-.068-.102-.102-.168-.367-.004-.871.163-.5.55-1.137 1.084-1.723.579-.575 1.202-.95 1.692-1.1.493-.15.77-.071.882.042.045.045.075.096.082.244.008.148-.026.377-.117.65a.586.586 0 1 0 1.111.371c.123-.366.193-.725.174-1.084-.019-.358-.147-.732-.422-1.007a1.599 1.599 0 0 0-.949-.45 2.328 2.328 0 0 0-.547 0zm-23.97.99a2.682 2.682 0 0 0-.547.042.585.585 0 0 0-.037.01 2.735 2.735 0 0 0-2.037 2.308.585.585 0 1 0 1.16.145 1.598 1.598 0 0 1 1.144-1.307c.867-.147 1.613.348 1.87 1.375.247.99-.294 1.797-1.14 1.951a.585.585 0 0 0-.01.002c-.37.074-.88-.026-1.132-.215a.585.585 0 1 0-.703.936c.6.45 1.366.563 2.06.425 1.5-.275 2.451-1.815 2.06-3.382-.334-1.335-1.433-2.258-2.688-2.29z" />
</svg>
