<svg xmlns="http://www.w3.org/2000/svg" viewBox="0 0 113.99702 172.30263" id="welcome-left-bottom" height="183.789" width="121.597">
    <defs>
        <style type="text/css" id="style2"><![CDATA[
            .outline2 {
                fill: #dbe8f1;
            }
        ]]></style>
    </defs>
    <g class="outline2">
        <path id="telescopeBubble" transform="scale(.9375)" d="M83.092 54.67c-.16-.027-.32.108-.373.535-.32 1.707-1.6 3.093-3.307 4.373-3.307-2.133-7.68-2.454-11.307-.32-5.12 2.986-6.933 9.6-3.947 14.826 2.987 5.227 9.599 6.934 14.719 3.947 4.8-2.773 6.72-8.746 4.48-13.76 1.387-3.413.855-6.827.108-9.173-.053-.214-.213-.401-.373-.428zm-9.654 8.107h.427v.428c0 .213-.107.318-.32.318h-.108c-.213 0-.32-.105-.32-.318v-.107c0-.214.107-.32.32-.32zm-3.733.746h.426v.428c0 .214-.107.32-.32.32h-.106c-.213 0-.32-.106-.32-.32v-.107c0-.214.107-.32.32-.32zm7.24.895a.291.291 0 0 1 .227.172l1.172 1.922c.106.213 0 .533-.213.533l-.746.318c-.107.107-.321.001-.428-.105l-1.066-1.92c-.107-.107 0-.321.107-.428l.64-.426a.536.536 0 0 1 .307-.066zm-5 .707h.426v.426c0 .213-.107.32-.32.32h-.106c-.213 0-.32-.107-.32-.32v-.108c0-.213.107-.318.32-.318zm3.092.426l1.174 1.92c.107.213.108.426-.106.533l-4.267 2.027c-.107.107-.32 0-.426-.107l-.64-1.067c-.107-.106 0-.319.107-.425zm-5.025 3.666a.294.294 0 0 1 .226.174l.533.853c.107.213.106.427-.107.533l-.746.32c-.213.107-.427.107-.533-.107l-.428-.746c-.107-.213-.106-.426.107-.533l.641-.428a.536.536 0 0 1 .307-.066zm4.707.494l2.025 4.053c.107.213 0 .533-.32.533-.107 0-.212-.106-.319-.213l-.748-1.6c-.213-.32-.638-.214-.638.106v2.027c0 .214-.107.32-.32.32h-.108c-.213 0-.32-.106-.32-.32v-2.453c0-.427-.532-.427-.639-.107l-.748 1.92c0 .106-.214.214-.32.214-.214 0-.425-.214-.319-.427l1.28-3.2c0-.106.106-.106.213-.212z"/>
        <path id="ufo" d="M87.666 25.662a8.864 8.864 0 0 0-3.412.58c-4.582 1.707-6.721 6.836-5.018 11.307a.549.549 0 0 0 .002.006l2.389 6.062-1.584.615a.549.549 0 0 0-.312.711l1.414 3.633a.549.549 0 0 0 .71.313l3.293-1.282 1.159 1.573a.549.549 0 0 0 .638.185l1.375-.529.207 1.094c-.62.368-1.056 1-.908 1.744a1.756 1.756 0 0 0 2.055 1.373 1.757 1.757 0 0 0 1.375-2.057.549.549 0 0 0-.238-.353h-.002c-.245-.5-.66-.794-1.2-.895l-.25-1.306 6.045-2.329.717 1.172c-.403.554-.574 1.251-.2 1.87a.549.549 0 0 0 0 .001 1.756 1.756 0 0 0 2.403.586 1.755 1.755 0 0 0 .586-2.4c-.399-.657-1.162-.829-1.877-.666l-.59-.965 1.403-.539a.549.549 0 0 0 .345-.58l-.244-1.959 3.198-1.244a.549.549 0 0 0 .312-.71l-1.414-3.634a.549.549 0 0 0-.709-.312l-1.371.533-2.4-5.996-.003-.002c-1.28-3.437-4.485-5.502-7.894-5.6zm-.031 1.092c2.984.08 5.777 1.878 6.898 4.89a.549.549 0 0 0 .006.014l2.395 5.987-4.98 1.953-9.306 3.62-2.388-6.06v-.002l-.002-.004c-1.492-3.926.367-8.39 4.38-9.884a.549.549 0 0 0 .005-.002 7.808 7.808 0 0 1 2.992-.512zM99.22 37.947l1.015 2.614-2.957 1.15a.549.549 0 0 0-.13.033l-7.075 2.77-8.105 3.154-1.016-2.611 1.428-.557a.549.549 0 0 0 .168-.035l9.879-3.875zm-2.326 5.09l.156 1.26-10.11 3.894-.728-.986 4.726-1.851zm.199 4.652a.64.64 0 0 1 .879.215.643.643 0 0 1-.22.895.642.642 0 0 1-.894-.219c-.185-.306-.082-.68.215-.875a.549.549 0 0 0 .02-.016zm-7.762 3.088c.288.019.579.129.639.428a.549.549 0 0 0 0 .002.642.642 0 0 1-.51.764.643.643 0 0 1-.766-.512c-.06-.305.167-.527.434-.65a.549.549 0 0 0 .203-.032z"/>
        <path id="comet" transform="scale(.9375)" d="M117.385 90.992a.585.585 0 0 0-.203.037l-7.112 2.63.194-.63a.585.585 0 0 0 .025-.172c0-.204-.036-.486-.314-.695-.277-.207-.636-.146-.848-.04-1.39.467-5.711 2.144-8.69 5.122-1.687 1.687-2.67 3.743-2.771 5.84-.101 2.097.696 4.219 2.451 5.975 3.514 3.513 8.538 3.06 11.815-.323l.004-.004c2.969-2.971 4.65-7.285 5.123-8.685a.728.728 0 0 0 .023-.705.657.657 0 0 0-.42-.356c-.235-.067-.522.048-.652.178l.242-.147-.629.196 2.631-7.113-.027.058a.82.82 0 0 0 .076-.521.785.785 0 0 0-.274-.438c-.23-.184-.44-.207-.644-.207zm-.483 1.389l-2.627 7.1.028-.06c-.106.212-.168.576.04.854.21.278.49.315.694.315a.585.585 0 0 0 .174-.027l.404-.125c-.624 1.659-2.08 5.04-4.512 7.472a.585.585 0 0 0-.006.006c-2.91 3.011-7.054 3.412-10.152.315-1.55-1.551-2.195-3.322-2.11-5.092.086-1.77.916-3.556 2.428-5.069 2.495-2.494 6.04-3.99 7.635-4.578l-.18.58a.585.585 0 0 0-.025.172c0 .222.07.322.13.412.058.091.125.163.21.23a.771.771 0 0 0 .361.173.759.759 0 0 0 .618-.188l-.211.135zM105.6 98.187a5.289 5.289 0 0 0-5.28 5.28 5.289 5.289 0 0 0 5.28 5.28 5.289 5.289 0 0 0 5.279-5.28 5.289 5.289 0 0 0-5.28-5.28zm0 1.17a4.101 4.101 0 0 1 4.109 4.11 4.1 4.1 0 0 1-4.11 4.107 4.098 4.098 0 0 1-4.107-4.107 4.1 4.1 0 0 1 4.108-4.11z"/>
        <path id="stars" transform="scale(.9375)" d="M114.28 0a.585.585 0 0 0-.403.178l-1.408 1.408c-.358-.185-.673-.459-1.102-.459a2.622 2.622 0 0 0-2.611 2.613c0 .429.274.742.459 1.1l-1.444 1.443a.585.585 0 1 0 .827.828l1.35-1.351c.423.296.867.592 1.42.592a2.62 2.62 0 0 0 2.61-2.612c0-.553-.293-.998-.59-1.422l1.317-1.314A.585.585 0 0 0 114.28 0zm-2.913 2.299c.803 0 1.442.638 1.442 1.441s-.639 1.442-1.442 1.442a1.432 1.432 0 0 1-1.441-1.442c0-.803.638-1.441 1.441-1.441zM40.574 50.352a.585.585 0 0 0-.55.75l.699 2.398-.702 2.506a.585.585 0 0 0 .727.719l2.4-.698 2.506.7a.585.585 0 0 0 .721-.721l-.701-2.506.699-2.398a.585.585 0 0 0-.719-.727l-2.506.7-2.4-.7a.585.585 0 0 0-.174-.023zm4.381 1.433l-.453 1.549a.585.585 0 0 0 0 .322l.465 1.664-1.664-.466a.585.585 0 0 0-.323.002l-1.548.453.463-1.653a.585.585 0 0 0 0-.322l-.45-1.537 1.535.45a.585.585 0 0 0 .323.001zm69.549 12.834c-.355 0-.706.19-.912.5a.585.585 0 0 0-.037.065l-.836 1.671v.002l-1.676.836a.585.585 0 0 0-.064.038c-.31.206-.5.559-.5.914s.19.707.5.914a.585.585 0 0 0 .064.035l1.676.838.836 1.674-.045-.122c.109.436.542.766.955.766.413 0 .794-.257.988-.644l.838-1.674 1.676-.838a.585.585 0 0 0 .062-.035c.31-.207.5-.56.5-.914 0-.355-.19-.708-.5-.914a.585.585 0 0 0-.062-.038l-1.676-.836-.838-1.673a.585.585 0 0 0-.035-.065c-.207-.31-.56-.5-.914-.5zm0 1.281l.74 1.479c.02.061.044.123.078.172.078.11.16.163.205.193.09.06.073.049.057.033a.585.585 0 0 0 .15.11l1.516.758-1.457.726a.686.686 0 0 0-.389.295c-.06.09-.049.072-.033.057a.585.585 0 0 0-.111.152l-.756 1.514-.727-1.455a.7.7 0 0 0-.295-.391c-.09-.06-.072-.049-.056-.033a.585.585 0 0 0-.153-.11l-1.513-.755 1.457-.729a.7.7 0 0 0 .387-.293c.06-.09.048-.074.033-.059a.585.585 0 0 0 .111-.152zM51.785 86.086c-1.14 0-2.078.937-2.078 2.078 0 1.141.937 2.078 2.078 2.078 1.141 0 2.078-.937 2.078-2.078 0-1.14-.937-2.078-2.078-2.078zm0 1.17a.9.9 0 0 1 .908.908.9.9 0 0 1-.908.908.9.9 0 0 1-.908-.908.9.9 0 0 1 .908-.908zm-24.22 17.178a.585.585 0 0 0-.503.295l-1.31 2.316-2.213 1.309a.585.585 0 0 0 .02 1.017l2.199 1.2 1.304 2.308a.585.585 0 0 0 1.028-.018l1.195-2.29 2.29-1.194a.585.585 0 0 0 .017-1.03l-2.303-1.302-1.2-2.297a.585.585 0 0 0-.525-.314zm-.012 1.81l.781 1.498a.585.585 0 0 0 .228.238l1.518.858-1.498.781a.585.585 0 0 0-.248.248l-.781 1.498-.86-1.515a.585.585 0 0 0-.228-.225l-1.444-.787 1.46-.863a.585.585 0 0 0 .212-.217zm46.103 4.375a.585.585 0 0 0-.51.291l-.658 1.13-1.125.56a.585.585 0 0 0 0 1.048l1.125.563.658 1.129a.585.585 0 0 0 1.03-.033l.55-1.108 1.108-.55a.585.585 0 0 0 0-1.05l-1.107-.552-.551-1.106a.585.585 0 0 0-.52-.322zm-.043 1.815l.157.312a.585.585 0 0 0 .26.262l.232.117-.233.117a.585.585 0 0 0-.26.26l-.156.312-.203-.345a.585.585 0 0 0-.244-.227l-.232-.117.232-.117a.585.585 0 0 0 .244-.229zm-71.142 8.105a.585.585 0 0 0-.489.322l-.552 1.108-1.108.552a.585.585 0 0 0 0 1.045l1.108.555.552 1.104a.585.585 0 0 0 1.028.033l.666-1.137 1.03-.562a.585.585 0 0 0 0-1.028l-1.03-.562-.666-1.14a.585.585 0 0 0-.54-.29zm47.19.193c-.656-.014-1.216.656-.993 1.325l.506 1.71v.153l-.506 1.713c-.255.764.511 1.528 1.275 1.273l1.713-.504h.15l1.714.504c.764.255 1.528-.51 1.273-1.273l-.504-1.713v-.152l.504-1.711c.255-.764-.51-1.528-1.273-1.274l-1.713.502h-.15l-1.714-.502a.957.957 0 0 0-.283-.05zm53.208.118a.585.585 0 0 0-.576.593v.803h-.8a.585.585 0 1 0 0 1.17h.8v.8a.585.585 0 1 0 1.17 0v-.8h.8a.585.585 0 1 0 0-1.17h-.8v-.803a.585.585 0 0 0-.594-.593zm-53.004 1.127l1.541.455a.585.585 0 0 0 .164.023h.323a.585.585 0 0 0 .164-.023l1.54-.455-.452 1.54a.585.585 0 0 0-.026.167v.32a.585.585 0 0 0 .026.164l.45 1.543-1.538-.455a.585.585 0 0 0-.164-.024h-.323a.585.585 0 0 0-.164.024l-1.539.455.451-1.543a.585.585 0 0 0 .026-.164v-.32a.585.585 0 0 0-.026-.166zm-47.32.377l.201.345a.585.585 0 0 0 .225.219l.232.127-.232.125a.585.585 0 0 0-.225.219l-.201.345-.156-.312a.585.585 0 0 0-.262-.262l-.232-.117.232-.115a.585.585 0 0 0 .262-.262zm84.865 3.412c-.905 0-1.65.745-1.65 1.65a1.66 1.66 0 0 0 1.65 1.652c.905 0 1.652-.747 1.652-1.652a1.66 1.66 0 0 0-1.652-1.65zm0 1.17c.273 0 .485.207.485.48a.478.478 0 0 1-.485.484.474.474 0 0 1-.48-.484c0-.273.207-.48.48-.48zm30.508 2.882a3.688 3.688 0 0 0-3.678 3.68 3.685 3.685 0 0 0 3.678 3.676 3.685 3.685 0 0 0 3.678-3.676 3.688 3.688 0 0 0-3.678-3.68zm0 1.17a2.502 2.502 0 0 1 2.51 2.51 2.5 2.5 0 0 1-2.51 2.508 2.499 2.499 0 0 1-2.508-2.508 2.5 2.5 0 0 1 2.508-2.51zM83.99 143.57a.585.585 0 0 0-.578.594v2.402H81.12a.585.585 0 1 0 0 1.168h2.293v2.297a.586.586 0 0 0 1.172 0v-2.297h2.293a.585.585 0 1 0 0-1.168h-2.293v-2.402a.585.585 0 0 0-.594-.594zm-43.404 4.596a1.876 1.876 0 0 0-1.867 1.865c0 1.023.844 1.864 1.867 1.864 1.023 0 1.863-.84 1.863-1.864 0-1.023-.84-1.865-1.863-1.865zm0 1.17c.39 0 .693.305.693.695 0 .391-.302.694-.693.694a.685.685 0 0 1-.695-.694c0-.39.304-.695.695-.695zm-23.893 8.103a.585.585 0 0 0-.42 1l1.63 1.672-1.63 1.672a.585.585 0 1 0 .838.817l1.608-1.65 1.605 1.65a.586.586 0 1 0 .84-.817l-1.629-1.672 1.63-1.672a.586.586 0 1 0-.84-.816l-1.606 1.65-1.608-1.65a.585.585 0 0 0-.418-.184zm101.545 1.5a1.874 1.874 0 0 0-1.865 1.866c0 1.023.842 1.863 1.865 1.863 1.023 0 1.864-.84 1.864-1.863 0-1.023-.84-1.866-1.864-1.866zm0 1.168c.391 0 .696.307.696.698 0 .39-.305.695-.696.695a.687.687 0 0 1-.695-.695c0-.391.305-.698.695-.698zm-21.748 15.15a.585.585 0 0 0-.566.772l.254.764-.248.658a.585.585 0 0 0 .674.778l.826-.184.72.18a.585.585 0 0 0 .707-.71l-.177-.72.183-.824a.585.585 0 0 0-.777-.676l-.658.248-.766-.254a.585.585 0 0 0-.172-.031zm.889 1.49a.585.585 0 0 0 .119 0 .585.585 0 0 0-.002.114.585.585 0 0 0-.117 0 .585.585 0 0 0 0-.115zm13.498 3.737a1.66 1.66 0 0 0-1.65 1.653 1.66 1.66 0 0 0 1.65 1.652c.905 0 1.652-.747 1.652-1.652 0-.906-.747-1.653-1.652-1.653zm0 1.172c.273 0 .484.208.484.48a.476.476 0 0 1-.484.483.473.473 0 0 1-.48-.482c0-.273.207-.48.48-.48z"/>
    </g>
</svg>
