<svg xmlns="http://www.w3.org/2000/svg" xmlns:svg="http://www.w3.org/2000/svg" id="svg4596" width="121.597" height="183.789" version="1.1" viewBox="0 0 113.997 172.303"><metadata id="metadata4601"/><g id="telescope-bubble"><path id="path225" d="m 60.148481,69.45409 c -2.8,-4.9 -1.1,-11.1 3.699997,-13.9 3.4,-2 7.5,-1.7 10.6,0.3 1.6,-1.2 2.8,-2.5 3.1,-4.1 0.1,-0.8 0.6,-0.5 0.7,-0.1 0.7,2.2 1.2,5.4 -0.1,8.6 2.1,4.7 0.3,10.3 -4.2,12.9 -4.8,2.8 -11,1.2 -13.799997,-3.7 z" style="fill:#dbe8f1"/><path id="Shape_145_" d="m 70.04848,65.3541 1.9,3.8 c 0.1,0.2 0,0.5 -0.3,0.5 l 0,0 c -0.1,0 -0.2,-0.1 -0.3,-0.2 l -0.7,-1.5 c -0.2,-0.3 -0.6,-0.2 -0.6,0.1 l 0,1.9 c 0,0.2 -0.1,0.3 -0.3,0.3 l -0.1,0 c -0.2,0 -0.3,-0.1 -0.3,-0.3 l 0,-2.3 c 0,-0.4 -0.5,-0.4 -0.6,-0.1 l -0.7,1.8 c 0,0.1 -0.2,0.2 -0.3,0.2 l 0,0 c -0.2,0 -0.4,-0.2 -0.3,-0.4 l 1.2,-3 c 0,-0.1 0.1,-0.1 0.2,-0.2 l 1.2,-0.6 0,0 z m -0.8,-6.5 -0.4,0 c -0.2,0 -0.3,0.1 -0.3,0.3 l 0,0.1 c 0,0.2 0.1,0.3 0.3,0.3 l 0.1,0 c 0.2,0 0.3,-0.1 0.3,-0.3 l 0,-0.4 0,0 z m -1.4,2.2 -0.4,0 c -0.2,0 -0.3,0.1 -0.3,0.3 l 0,0.1 c 0,0.2 0.1,0.3 0.3,0.3 l 0.1,0 c 0.2,0 0.3,-0.1 0.3,-0.3 l 0,-0.4 0,0 z m -2.1,-1.5 -0.4,0 c -0.2,0 -0.3,0.1 -0.3,0.3 l 0,0.1 c 0,0.2 0.1,0.3 0.3,0.3 l 0.1,0 c 0.2,0 0.3,-0.1 0.3,-0.3 l 0,-0.4 0,0 z m -1,5.8 c -0.2,0.1 -0.2,0.3 -0.1,0.5 l 0.4,0.7 c 0.1,0.2 0.3,0.2 0.5,0.1 l 0.7,-0.3 c 0.2,-0.1 0.2,-0.3 0.1,-0.5 l -0.5,-0.8 c -0.1,-0.2 -0.3,-0.2 -0.5,-0.1 l -0.6,0.4 0,0 z m 5.6,-3.9 -3.9,2.7 c -0.1,0.1 -0.2,0.3 -0.1,0.4 l 0.6,1 c 0.1,0.1 0.3,0.2 0.4,0.1 l 4,-1.9 c 0.2,-0.1 0.2,-0.3 0.1,-0.5 l -1.1,-1.8 0,0 z m 3.1,0.9 -1.1,-1.8 c -0.1,-0.2 -0.3,-0.2 -0.5,-0.1 l -0.6,0.4 c -0.1,0.1 -0.2,0.3 -0.1,0.4 l 1,1.8 c 0.1,0.1 0.3,0.2 0.4,0.1 l 0.7,-0.3 c 0.2,0 0.3,-0.3 0.2,-0.5 l 0,0 z" style="fill:#fff"/></g><path id="saucer" style="fill:none;stroke:#dbe8f1;stroke-width:1.09710002;stroke-linecap:round;stroke-linejoin:round;stroke-miterlimit:10" d="m 96.748478,47.25409 -1.10001,-1.80002 m 2.7935,2.16555 a 1.1999642,1.1999642 0 0 1 -0.40309,1.64844 1.1999642,1.1999642 0 0 1 -1.64843,-0.40308 1.1999642,1.1999642 0 0 1 0.40307,-1.64844 1.1999642,1.1999642 0 0 1 1.64845,0.40308 z m -9.2935,2.63447 -0.39999,-2.10001 m 1.76143,2.94323 a 1.1999488,1.1999488 0 0 1 -0.94248,1.4112 1.1999488,1.1999488 0 0 1 -1.4112,-0.94248 1.1999488,1.1999488 0 0 1 0.94248,-1.4112 1.1999488,1.1999488 0 0 1 1.4112,0.94248 z m 7.13857,-6.44321 -10.9,4.2 -1.4,-1.9 12,-4.7 z m -17.40677,0.0892 19.29033,-7.50582 1.414142,3.63442 -19.290332,7.50582 z m 17.40677,-6.7892 -15.3,6 -2.6,-6.6 c -1.6,-4.2 0.4,-9 4.7,-10.6 l 0,0 c 4.2,-1.6 9,0.4 10.6,4.7 l 2.6,6.5 z"/><g id="comet"><path id="path409" stroke-miterlimit="10" d="m 109.14848,93.35409 -1.3,0.4 c -0.2,0 -0.3,-0.1 -0.2,-0.3 l 2.7,-7.3 c 0.1,-0.2 -0.1,-0.3 -0.3,-0.3 l -7.3,2.7 c -0.1,0.1 -0.3,-0.1 -0.3,-0.2 l 0.4,-1.3 c 0,-0.2 -0.1,-0.3 -0.3,-0.2 -1.2,0.4 -5.300002,2 -8.000002,4.7 -3,3 -3.4,7.2 -0.3,10.30001 3.1,3.1 7.400002,2.7 10.300002,-0.3 2.7,-2.70001 4.3,-6.80001 4.7,-8.00001 0.1,-0.1 0,-0.3 -0.1,-0.2 z" style="fill:none;stroke:#dbe8f1;stroke-width:1.09710002;stroke-linecap:round;stroke-linejoin:round;stroke-miterlimit:10"/><circle id="ellipse411" cx="99" cy="97" stroke-miterlimit="10" style="fill:none;stroke:#dbe8f1;stroke-width:1.09710002;stroke-linecap:round;stroke-linejoin:round;stroke-miterlimit:10" r="4.4"/></g><g id="stars"><circle id="circle43" cx="110.548" cy="125.154" r="2.9" stroke-miterlimit="10" style="fill:none;stroke:#dbe8f1;stroke-width:1.09710002;stroke-linecap:round;stroke-linejoin:round;stroke-miterlimit:10"/><circle id="circle51" cx="48.548" cy="82.654" r="1.4" stroke-miterlimit="10" style="fill:none;stroke:#dbe8f1;stroke-width:1.09710002;stroke-linecap:round;stroke-linejoin:round;stroke-miterlimit:10"/><path id="path75" stroke-miterlimit="10" d="m 106.94848,67.35409 -0.8,-1.6 c 0,-0.1 -0.1,-0.1 -0.2,-0.2 l -1.6,-0.8 c -0.3,-0.2 -0.3,-0.6 0,-0.8 l 1.6,-0.8 c 0.1,0 0.1,-0.1 0.2,-0.2 l 0.8,-1.6 c 0.2,-0.3 0.6,-0.3 0.8,0 l 0.8,1.6 c 0,0.1 0.1,0.1 0.2,0.2 l 1.6,0.8 c 0.3,0.2 0.3,0.6 0,0.8 l -1.6,0.8 c -0.1,0 -0.1,0.1 -0.2,0.2 l -0.8,1.6 c -0.2,0.4 -0.7,0.4 -0.8,0 z" style="fill:none;stroke:#dbe8f1;stroke-width:1.09710002;stroke-linecap:round;stroke-linejoin:round;stroke-miterlimit:10"/><path id="path77" stroke-miterlimit="10" d="m 46.148481,117.9541 0.5,-1.7 c 0,-0.1 0,-0.2 0,-0.3 l -0.5,-1.7 c -0.1,-0.3 0.2,-0.6 0.5,-0.5 l 1.7,0.5 c 0.1,0 0.2,0 0.3,0 l 1.7,-0.5 c 0.3,-0.1 0.6,0.2 0.5,0.5 l -0.5,1.7 c 0,0.1 0,0.2 0,0.3 l 0.5,1.7 c 0.1,0.3 -0.2,0.6 -0.5,0.5 l -1.7,-0.5 c -0.1,0 -0.2,0 -0.3,0 l -1.7,0.5 c -0.3,0.1 -0.6,-0.2 -0.5,-0.5 z" style="fill:none;stroke:#dbe8f1;stroke-width:1.09710002;stroke-linecap:round;stroke-linejoin:round;stroke-miterlimit:10"/><path id="line91" style="fill:none;stroke:#dbe8f1;stroke-width:1.09710002;stroke-linecap:round;stroke-linejoin:round;stroke-miterlimit:10" d="m 81.448494,137.95409 -5.400024,0 m 2.700012,-2.79999 0,5.5"/><path id="line97" style="fill:none;stroke:#dbe8f1;stroke-width:1.09710002;stroke-linecap:round;stroke-linejoin:round;stroke-miterlimit:10" d="m 19.448492,152.05409 -3.800018,-3.89999 m 3.800018,0 -3.800018,3.89999"/><path d="m 106.30746,3.50561 a 1.8999817,1.8999817 0 0 1 -1.89998,1.89998 1.8999817,1.8999817 0 0 1 -1.89999,-1.89998 1.8999817,1.8999817 0 0 1 1.89999,-1.89998 1.8999817,1.8999817 0 0 1 1.89998,1.89998 z m 0.84101,-2.95151 -1.5,1.5 m -2.725,2.72501 -1.5,1.5" style="fill:none;stroke:#dbe8f1;stroke-width:1.09710002;stroke-linecap:round;stroke-linejoin:round;stroke-miterlimit:10" id="ellipse121"/><circle id="circle197" cx="110.848" cy="150.754" r="1.2" stroke-miterlimit="10" style="fill:none;stroke:#dbe8f1;stroke-width:1.09710002;stroke-linecap:round;stroke-linejoin:round;stroke-miterlimit:10"/><circle id="circle199" cx="38.048" cy="140.654" r="1.2" stroke-miterlimit="10" style="fill:none;stroke:#dbe8f1;stroke-width:1.09710002;stroke-linecap:round;stroke-linejoin:round;stroke-miterlimit:10"/><polygon id="polygon201" stroke-miterlimit="10" points="268.8 437.1 269.9 437.7 268.8 438.3 268.1 439.5 267.5 438.3 266.3 437.7 267.5 437.1 268.1 435.9" style="fill:none;stroke:#dbe8f1;stroke-width:1.09710002;stroke-linecap:round;stroke-linejoin:round;stroke-miterlimit:10" transform="translate(-265.75152,-322.346)"/><path style="fill:none;stroke:#dbe8f1;stroke-width:1.09710002;stroke-linecap:round;stroke-linejoin:round;stroke-miterlimit:10" id="polygon203" d="m 69.64848,106.654 -0.6,1.2 -0.7,-1.2 -1.2,-0.6 1.2,-0.6 0.7,-1.2 0.6,1.2 1.2,0.6 z"/><circle id="circle205" cx="81.948" cy="119.454" r="1" stroke-miterlimit="10" style="fill:none;stroke:#dbe8f1;stroke-width:1.09710002;stroke-linecap:round;stroke-linejoin:round;stroke-miterlimit:10"/><circle id="circle207" cx="103.948" cy="170.754" r="1" stroke-miterlimit="10" style="fill:none;stroke:#dbe8f1;stroke-width:1.09710002;stroke-linecap:round;stroke-linejoin:round;stroke-miterlimit:10"/><path id="line213" style="fill:none;stroke:#dbe8f1;stroke-width:1.09710002;stroke-linecap:round;stroke-linejoin:round;stroke-miterlimit:10" d="m 97.748482,115.1541 -2.600006,0 m 1.300018,-1.29999 0,2.59998"/><polygon id="polygon215" stroke-miterlimit="10" points="357.9 488.9 357.7 488.1 357.9 487.2 357.1 487.5 356.2 487.2 356.5 488.1 356.2 488.9 357.1 488.7" style="fill:none;stroke:#dbe8f1;stroke-width:1.09710002;stroke-linecap:round;stroke-linejoin:round;stroke-miterlimit:10" transform="translate(-265.75152,-322.3459)"/><path style="fill:none;stroke:#dbe8f1;stroke-width:1.09710002;stroke-linecap:round;stroke-linejoin:round;stroke-miterlimit:10" id="polygon413" d="m 29.34848,102.054 -2.3,1.2 -1.2,2.3 -1.3,-2.3 -2.2,-1.2 2.2,-1.3 1.3,-2.3 1.2,2.3 z"/><polygon id="polygon415" stroke-miterlimit="10" points="303.8 370.1 306.2 370.8 308.7 370.1 308 372.5 308.7 375 306.2 374.3 303.8 375 304.5 372.5" style="fill:none;stroke:#dbe8f1;stroke-width:1.09710002;stroke-linecap:round;stroke-linejoin:round;stroke-miterlimit:10" transform="translate(-265.75152,-322.346)"/></g></svg>