<svg xmlns="http://www.w3.org/2000/svg" viewBox="0 0 33.8 35.1" enable-background="new 0 0 33.8 35.1"><style type="text/css">.st0{fill:#DBE8F1;}</style><path class="st0" d="M17.8 35.2h-1.4c-.4 0-.7 0-1.2-.1h-.2l-.4-.1c-.2 0-.3 0-.5-.1h-.2l-.5-.1-.5-.1-.3-.1c-.2 0-.4-.1-.5-.2-.1-.1-.3-.1-.4-.1-.1 0-.1 0-.2-.1-.3-.1-.7-.2-1.1-.4-.1 0-.1 0-.2-.1h-.1c-.2-.1-.4-.2-.5-.3l-.5-.3c-.3-.2-.6-.4-.9-.5l-.4-.3-.1-.1-.1-.1c-.2 0-.3-.1-.3-.1l-.4-.3-.4-.3-.1-.1s-.1 0-.1-.1c-1.6-1.3-2.9-2.9-3.9-4.7l-.9-.3c-.1 0-.2-.1-.3-.2-.9-1.5-1.2-3.9-1.2-4 0-.1 0-.2.1-.3l.5-.8c-.5-3.7.1-7.4 1.9-10.7 2.5-4.4 6.8-7.5 11.7-8.4l.7-1.2c.1-.1.2-.2.4-.3.2 0 4-.9 7.4.6.2.1.3.2.3.4l.3 1.3.7.2.3.1c.4.2.8.3 1.2.6l.8.4s.1 0 .1.1c0 0 .1 0 .2.1.1 0 .2.1.3.2l.1.1c.2.1.3.2.4.3.2.2.2.2.3.2.1 0 .1.1.1.1l.2.2.1.1.1.1c.1 0 .1.1.1.1l.2.2.1.1.1.1c.1 0 .1.1.1.1l.2.2c.2.1.3.2.3.3l.3.3.2.2s0 .1.1.1l.1.1.1.2c.1.1.1.2.2.2 0 0 0 .1.1.1l.1.1.1.2c.1.1.1.2.2.2 0 0 0 .1.1.1.1.2.1.3.2.4 0 0 0 .1.1.1 0 .1.1.2.1.2s0 .1.1.1l.2.2s0 .1.1.1c.1.1.2.3.2.4.1.1.2.2.2.3.1.1.2.2.2.3.1.1.1.2.1.3.1.1.2.2.2.3v.1c.1.1.1.2.1.3v.1c.1.1.1.2.1.3v.1c.1.1.1.2.1.3v.2l.1.2.1.3v.1c0 .1.1.2.1.2.1.3.1.6.2 1 .1.3.2.7.2 1v1c.1.3.1.5.1.6v3.3c0 .2 0 .3-.1.5v.3c0 .2 0 .3-.1.5v.1c0 .1 0 .2-.1.3 0 .2 0 .3-.1.4v.1c0 .1 0 .2-.1.3 0 .1 0 .1-.1.2v.1l-.1.4s0 .1-.1.1v.2l-.1.4v.2c0 .1-.1.2-.1.2l-.1.3c0 .1-.1.1-.1.1v.1l1.1.6c.2.1.3.4.2.7-.1.1-1.3 3.1-3.8 5.3-.1.1-.3.2-.5.1l-1.3-.5c-.2.2-.4.4-.7.5l-.1.1c-.4.3-.7.6-1.1.7h-.1c-.3.2-.6.4-.9.5l-.2.1-.8.4-.3.2c-.3.1-.6.3-.8.4-.1.1-.2.1-.3.1l-.4.1c-.2.1-.3.1-.4.1-.2.1-.3.1-.4.1-.1 0-.3.1-.5.1s-.4.1-.5.1h-.1c-.4.4-.6.4-.8.4-.2 0-.3 0-.5.1h-.8c-.3.1-.5.1-.7.1zm-5.1-.6zm2.5-.6h.2c.3.1.6.1 1 .1h2.7l.6-.1c.2 0 .3 0 .5-.1h.1c.1 0 .3-.1.5-.1l.5-.1h.1s.1-.1.2-.1.3-.1.5-.1l.6-.2.2-.1c.3-.1.5-.2.8-.4h.2l1-.5.2-.1c.3-.1.6-.3.8-.5.1-.1.2-.1.3-.1.2-.1.5-.3.8-.5l.1-.1c.4-.3.7-.5.9-.7.1-.1.4-.2.6-.1l1.3.5c1.7-1.5 2.7-3.4 3.1-4.2l-1-.6c-.2-.1-.3-.4-.2-.6l.1-.3c0-.1.1-.2.1-.2 0-.1.1-.2.2-.3v-.1c0-.1.1-.2.1-.2l.1-.3v-.1c0-.1 0-.2.1-.3 0-.2.1-.3.2-.4 0-.1 0-.2.1-.3 0-.1 0-.2.1-.3v-.3c0-.1 0-.3.1-.4v-4.3c0-.1 0-.2-.1-.4v-1.1l-.2-.9c-.1-.3-.2-.7-.2-1v-.1c0-.1 0-.2-.1-.2v-.2l-.1-.2-.1-.2v-.1c-.1-.1-.1-.2-.1-.3v-.1c-.1-.1-.1-.2-.1-.3v-.1c-.1-.1-.1-.2-.1-.3-.1-.1-.2-.3-.2-.4 0-.1-.1-.2-.1-.2-.1-.1-.2-.3-.2-.4l-.2-.3s0-.1-.1-.1c0 0 0-.1-.1-.1l-.2-.2s0-.1-.1-.1l-.2-.2s0-.1-.1-.1c-.3-.7-.4-.8-.5-.9 0 0 0-.1-.1-.1-.1-.1-.2-.2-.3-.4 0 0-.1-.1-.1-.2 0 0 0-.1-.1-.1-.1-.1-.2-.2-.3-.4l-.1-.2s0-.1-.1-.1l-.2-.2-.1-.1-.1-.1c-.1 0-.1-.1-.1-.1l-.2-.2c-.1-.1-.3-.2-.4-.4l-.2-.2c-.1-.1-.3-.2-.4-.4l-.1-.1c-.2-.1-.3-.2-.5-.4h-.1l-.3-.2-.2-.1v-.1s-.1 0-.2-.1c-.2-.1-.4-.3-.6-.3 0 0-.1 0-.1-.1-.4-.2-.7-.4-1.1-.5h-.2l-1.2-.5c-.2-.1-.3-.2-.3-.4l-.3-1.3c-2.6-1-5.4-.6-6.2-.5l-.7 1.2c-.1.1-.2.2-.4.3-4.8.8-8.9 3.7-11.3 7.9-1.7 3.1-2.3 6.7-1.8 10.2 0 .1 0 .3-.1.4l-.4.7c.1.5.3 2.1.9 3.2l.9.3c.1 0 .3.1.3.3 1 1.8 2.2 3.3 3.8 4.6l.2.2c.1.1.2.2.4.3.2.1.3.2.5.4l.1.1.2.1.4.3.8.4.5.3c.1.1.3.2.4.2.1 0 .1 0 .2.1h.1c.3.1.6.3.9.3l.3.1.4.1.4.1.3.1.5.1.5.1h.3l.4.1c.2.2.4.3.5.3zm-4.9-.3zm11 0zm-8.4-.1zm-2.4-.9zm23.1-10.9zm-1.8-9.6zm.9-.4zm-1.2-.3zm.9-.5zm-.3-.6zm-5.3-5zm-15.7 28c0-1.2 1.2-2.1 2.7-2.1 1.6 0 2.8.9 2.8 2 0 .3.2.5.5.5s.5-.2.5-.5c0-1.7-1.7-3.1-3.9-3.1-2.1 0-3.8 1.4-3.8 3.2 0 .3.2.5.5.5s.7-.2.7-.5zm13.6-6c.3-.1.4-.4.3-.7-.1-.3-.4-.4-.7-.3-.4.2-.7.1-.8.1-.1-.1 0-.9.8-1.8.8-.8 1.6-1 1.8-.8 0 0 .1.2-.1.6-.1.3.1.6.3.7.3.1.6-.1.7-.3.3-.9.1-1.4-.2-1.7-.4-.4-1-.5-1.6-.3-.6.2-1.2.6-1.7 1.1-1.2 1.3-1.5 2.6-.8 3.3.2.2.6.3 1 .3.3 0 .7-.1 1-.2zm.9-10.2c1.3-.8 2.1-2.5 1.8-4-.1-.3-.3-.5-.6-.4-.3.1-.5.3-.4.6.2 1.1-.3 2.3-1.3 2.9-.3.2-.3.5-.2.8.1.2.3.3.5.3 0-.1.1-.2.2-.2zm-2.6 0c.1-.3-.1-.6-.3-.7-.4-.1-1.1-.5-1.5-1.2-.4-.6-.5-1.3-.3-2.1.2-.7.6-1.3 1.3-1.7 1-.6 2.2-.5 3.1.1.2.2.6.1.8-.1.2-.2.1-.6-.1-.8-1.2-.9-2.9-1-4.3-.2-.9.5-1.5 1.4-1.8 2.4-.2 1-.1 2 .5 2.9.4.8 1.2 1.4 2.1 1.7h.2c0 .1.3-.1.3-.3zm-14.8 10.8c.6-.1 1.1-.4 1.4-.9.3-.5.4-1.1.3-1.8-.3-1.2-1.4-2-2.6-1.8-.9.2-1.5.9-1.6 1.8 0 .3.2.6.5.6s.6-.2.6-.5c.1-.4.4-.8.8-.9.6-.1 1.1.3 1.3 1 .1.3 0 .6-.1.9-.1.2-.4.4-.6.4-.3.1-.6 0-.8-.1-.2-.2-.6-.1-.8.1-.2.2-.1.6.1.8.2.3.7.4 1.1.4h.4zm22.2-8.4c.3-.1.4-.4.3-.7-.1-.3-.4-.4-.7-.4-.1-.1-.3-.3-.3-.6-.1-.4 0-.7.1-.7.3-.1.5-.3.4-.6-.1-.3-.4-.5-.6-.4-.3.1-.5.2-.7.5-.3.4-.3 1-.2 1.5.1.6.5 1 .9 1.3.2.1.4.2.6.2-.1-.1.1-.1.2-.1zm-24.2-5.4c-.4 0-.8-.1-1.1-.4-.4-.4-.5-1-.4-1.6.1-.5.5-1.1.9-1.6 1-1 2.4-1.3 3.2-.6.7.7.5 2.1-.6 3.2-.6.6-1.4 1-2 1zm1.5-3.5c-.3 0-.8.2-1.3.7-.6.6-.7 1.4-.5 1.6.2.2.9.1 1.6-.6.6-.6.8-1.4.5-1.6 0 0-.1-.1-.3-.1zm10.2 12.4c1.7-1.7 1.7-4.6 0-6.3-1.7-1.7-4.6-1.7-6.3 0-.2.2-.2.6 0 .8.2.2.6.2.8 0 1.3-1.3 3.4-1.3 4.7 0 1.3 1.3 1.3 3.4 0 4.7-1.3 1.3-3.4 1.3-4.7 0-.2-.2-.6-.2-.8 0-.2.2-.2.6 0 .8.9.9 2 1.3 3.1 1.3 1.2 0 2.4-.4 3.2-1.3zm-6.4-3.2c0-.2 0-.4.1-.5.1-.3-.1-.6-.3-.7-.3-.1-.6.1-.7.3-.1.3-.1.6-.1.9 0 .3.2.5.5.5s.5-.2.5-.5zm8.3-15.1c.2-.2.3-.6.1-.8-.2-.2-.5-.3-.8-.1-.7.5-1.5.4-2.1-.2-.2-.2-.5-.3-.8-.1-.2.2-.3.5-.1.8.5.6 1.2.9 2 .9.7 0 1.2-.2 1.7-.5z"/></svg>