<svg xmlns="http://www.w3.org/2000/svg" id="welcome-right" width="296.45" height="378.377" viewBox="0 0 296.44998 378.37714">
    <style type="text/css">
        <![CDATA[
            .outline2 {
                fill: #dbe8f1;
            }
            .slate-orange {
                fill: #ea8434;
            }
            .slate-purple {
                fill: #7b64ac;
            }
            .slate-rouge {
                fill: #d25d64;
            }
            .slate-yellow {
                fill: #fcd15d;
            }
            .slate-green {
                fill: #00aa5a;
            }
            .bubble-content {
                fill: #28373b;
            }
            .slate-grey1 {
                fill: #28373b;
            }
            .slate-grey2 {
                fill: #4e595e;
            }
        ]]>
    </style>
    <g id="stars">
        <g class="slate-orange">
            <path d="M239.825 208.125l.5.3c.3.1.3.5 0 .7l-.5.3c-.1 0-.1.1-.1.1l-.3.5c-.1.3-.5.3-.7 0l-.3-.5c0-.1-.1-.1-.1-.1l-.5-.3c-.3-.1-.3-.5 0-.7l.5-.3c.1 0 .1-.1.1-.1l.3-.5c.1-.3.5-.3.7 0l.3.5s0 .1.1.1z"/>
            <path d="M21.025 142.925l2.6 1.4c.3.1.3.5 0 .7l-2.6 1.4c-.1 0-.1.1-.1.1l-1.4 2.6c-.1.3-.5.3-.7 0l-1.4-2.6c0-.1-.1-.1-.1-.1l-2.6-1.4c-.3-.1-.3-.5 0-.7l2.6-1.4c.1 0 .1-.1.1-.1l1.4-2.6c.1-.3.5-.3.7 0l1.4 2.6z"/>
            <path d="M280.725 349.725l2.8 1.5c.3.1.3.5 0 .7l-2.8 1.5c-.1 0-.1.1-.2.2l-1.5 2.8c-.1.3-.5.3-.7 0l-1.5-2.8c0-.1-.1-.1-.2-.2l-2.8-1.5c-.3-.1-.3-.5 0-.7l2.8-1.5c.1 0 .1-.1.2-.2l1.5-2.8c.1-.3.5-.3.7 0l1.5 2.8c0 .2.1.2.2.2z"/>
            <path d="M191.146 86.076a.549.549 0 0 0-.55.695l.46 1.655-.46 1.652a.549.549 0 0 0 .71.664l1.524-.537 1.621.541a.549.549 0 0 0 .694-.695l-.541-1.625.54-1.627a.549.549 0 0 0-.693-.694l-1.62.54-1.524-.538a.549.549 0 0 0-.16-.03zm.79 1.416l.707.25a.549.549 0 0 0 .355.004l.76-.254-.254.76a.549.549 0 0 0 0 .346l.254.761-.76-.254a.549.549 0 0 0-.355.002l-.707.25.218-.785a.549.549 0 0 0 0-.295z"/>
            <path d="M101.525 370.277c-.959 0-1.748.79-1.748 1.748 0 .96.79 1.748 1.748 1.748.96 0 1.748-.788 1.748-1.748 0-.959-.788-1.748-1.748-1.748zm0 1.096c.367 0 .65.286.65.652 0 .367-.283.65-.65.65a.643.643 0 0 1-.652-.65c0-.366.286-.652.652-.652z"/>
            <path d="M219.783 242.277a.549.549 0 0 0-.095.016l-3.5.9a.549.549 0 0 0-.25.92l2.6 2.6a.549.549 0 0 0 .919-.252l.898-3.5a.549.549 0 0 0-.572-.684zm-.72 1.309l-.43 1.672-1.242-1.242z"/>
            <path d="M279.367 17.502a.549.549 0 0 0-.377.166l-1.295 1.295c-.938-.554-2.12-.583-2.924.22-.803.804-.775 1.986-.222 2.924l-1.27 1.27a.549.549 0 1 0 .778.775l1.275-1.275c.936.54 2.105.567 2.902-.23.798-.798.77-1.967.23-2.903l1.302-1.3a.549.549 0 0 0-.399-.942zm-2.865 2.059c.345 0 .69.132.957.398.532.532.532 1.38 0 1.912a1.34 1.34 0 0 1-1.89.01.549.549 0 0 0-.03-.03 1.34 1.34 0 0 1 .008-1.892c.266-.266.61-.398.955-.398z"/>
            <circle cx="240.425" cy="124.425" r="1.4"/>
            <circle cx="196.925" cy="213.625" r="1.4"/>
        </g>
        <g class="slate-purple">
            <path d="M15.125 257.425l.5.3c.3.1.3.5 0 .7l-.5.3c-.1 0-.1.1-.1.1l-.3.5c-.1.3-.5.3-.7 0l-.3-.5c0-.1-.1-.1-.1-.1l-.5-.3c-.3-.1-.3-.5 0-.7l.5-.3c.1 0 .1-.1.1-.1l.3-.5c.1-.3.5-.3.7 0l.3.5z"/>
            <path d="M263.625 208.325l1.4.7c.3.1.3.5 0 .7l-1.4.7c-.1 0-.1.1-.2.2l-.7 1.4c-.1.3-.5.3-.7 0l-.7-1.4c0-.1-.1-.1-.2-.2l-1.4-.7c-.3-.1-.3-.5 0-.7l1.4-.7c.1 0 .1-.1.2-.2l.7-1.4c.1-.3.5-.3.7 0l.7 1.4c.1.1.1.2.2.2z"/>
            <path d="M294.825 31.225l1.4.7c.3.1.3.5 0 .7l-1.4.7c-.1 0-.1.1-.2.2l-.7 1.4c-.1.3-.5.3-.7 0l-.7-1.4c0-.1-.1-.1-.2-.2l-1.4-.7c-.3-.1-.3-.5 0-.7l1.4-.7c.1 0 .1-.1.2-.2l.7-1.4c.1-.3.5-.3.7 0l.7 1.4c0 .1.1.1.2.2z"/>
            <path d="M260.975 169.172a.549.549 0 0 0-.344.933l2.517 2.614c-.478.5-.966 1.014-1.28 1.433-.203.27-.356.488-.452.748-.025.068 0 .192-.01.286-.002.004-.008.007-.01.011-.022.06.01.077.004.127.007.05-.026.067-.004.127.002.004.008.007.01.012.01.093-.015.218.01.285.096.26.25.481.451.75.404.538 1.007 1.202 1.645 1.84.638.638 1.302 1.24 1.84 1.644.269.202.489.356.75.452.067.024.192 0 .285.011.004.002.007.008.011.01.06.022.077-.012.127-.006.05-.007.067.028.127.006.004-.002.007-.008.012-.01.093-.01.218.013.285-.011.26-.096.48-.25.748-.452.419-.313.93-.801 1.43-1.279l2.61 2.61a.549.549 0 1 0 .777-.776l-2.61-2.61c.477-.498.964-1.011 1.278-1.429.201-.269.355-.49.45-.75.026-.067.002-.192.012-.285.002-.004.008-.007.01-.012.022-.06-.012-.077-.006-.127-.007-.05.028-.066.006-.127-.002-.004-.008-.007-.01-.011-.01-.094.014-.218-.011-.286-.096-.26-.25-.479-.451-.748-.404-.538-1.007-1.202-1.645-1.84-.638-.637-1.302-1.24-1.84-1.644-.269-.202-.487-.355-.748-.451-.067-.025-.192-.001-.285-.012-.004-.002-.007-.008-.012-.01-.06-.022-.076.013-.127.006-.05.007-.066-.028-.127-.006-.004.002-.007.008-.011.01-.093.01-.218-.013-.285.012-.261.096-.481.25-.75.451-.418.313-.929.8-1.426 1.275l-2.506-2.6a.549.549 0 0 0-.445-.171zm5.367 2.162a.549.549 0 0 0 .367 0c.086.048.167.089.33.21.462.347 1.11.932 1.723 1.544.612.612 1.196 1.26 1.543 1.723.122.163.162.245.21.332a.549.549 0 0 0-.025.097.549.549 0 0 0-.006.053.549.549 0 0 0 .016.164.549.549 0 0 0 .015.05.549.549 0 0 0 0 .003c-.048.086-.089.168-.21.33-.347.462-.931 1.11-1.543 1.722-.613.613-1.261 1.197-1.723 1.543-.163.123-.244.163-.33.211a.549.549 0 0 0-.098-.025.549.549 0 0 0-.055-.006.549.549 0 0 0-.054 0 .549.549 0 0 0-.11.016.549.549 0 0 0-.05.015h-.002c-.087-.048-.168-.089-.33-.21-.462-.347-1.111-.932-1.723-1.544-.612-.612-1.197-1.26-1.543-1.722-.122-.163-.163-.246-.211-.332a.549.549 0 0 0 .025-.098.549.549 0 0 0 .002-.164.549.549 0 0 0-.027-.106c.048-.086.089-.167.211-.33.346-.462.93-1.11 1.543-1.722.612-.612 1.26-1.197 1.723-1.543.163-.123.245-.163.332-.211z"/>
            <path d="M103.525 88.252a1.05 1.05 0 0 0-.857.469.549.549 0 0 0-.033.058l-.785 1.57-1.57.786a.549.549 0 0 0-.06.033 1.05 1.05 0 0 0-.468.857c0 .333.178.662.469.856a.549.549 0 0 0 .058.035l1.57.783.786 1.57a.549.549 0 0 0 .033.061c.217.326.563.469.894.469.332 0 .747-.19.883-.6l-.029.07.783-1.568V93.7l1.57-.783a.549.549 0 0 0 .061-.035c.29-.194.469-.523.469-.856a1.05 1.05 0 0 0-.469-.857.549.549 0 0 0-.06-.033l-1.57-.785-.784-1.57a.549.549 0 0 0-.035-.06 1.046 1.046 0 0 0-.856-.468zm0 1.2l.71 1.42-.06-.247a.71.71 0 0 0 .118.373.675.675 0 0 0 .19.184c.084.056.069.046.054.03a.549.549 0 0 0 .143.104l1.418.71-1.418.708.246-.058a.716.716 0 0 0-.375.117c-.104.073-.154.147-.182.19-.056.084-.046.069-.031.054a.549.549 0 0 0-.104.143l-.709 1.418-.709-1.418.057.246a.714.714 0 0 0-.115-.375c-.073-.104-.15-.154-.192-.182-.084-.056-.067-.046-.052-.031a.549.549 0 0 0-.143-.104l-1.42-.709 1.42-.709-.246.057a.707.707 0 0 0 .373-.115.674.674 0 0 0 .184-.192c.056-.084.046-.067.03-.052a.549.549 0 0 0 .104-.143z"/>
            <path d="M241.824 364.951c-.333 0-.662.178-.855.469a.549.549 0 0 0-.035.06l-.784 1.569v.002l-1.57.783a.549.549 0 0 0-.059.035c-.29.194-.47.523-.47.856 0 .333.18.664.47.857a.549.549 0 0 0 .059.033l1.57.786.784 1.57c.165.33.496.603.89.603s.725-.272.89-.603l.786-1.57 1.57-.786a.549.549 0 0 0 .059-.033 1.05 1.05 0 0 0 .469-.857c0-.333-.179-.662-.47-.856a.549.549 0 0 0-.058-.035l-1.568-.783h-.002l-.785-1.57a.549.549 0 0 0-.033-.061 1.05 1.05 0 0 0-.858-.469zm0 1.201l.711 1.418-.058-.246c0 .117.044.271.117.375.073.104.147.154.19.182.083.056.068.046.054.031a.549.549 0 0 0 .142.104l1.418.709-1.418.709.245-.057a.707.707 0 0 0-.373.115.675.675 0 0 0-.184.192c-.056.084-.046.067-.031.052a.549.549 0 0 0-.102.143l-.71 1.42-.71-1.42.059.246a.71.71 0 0 0-.117-.373.675.675 0 0 0-.19-.184c-.084-.056-.07-.046-.054-.03a.549.549 0 0 0-.143-.104l-1.418-.71 1.418-.708-.244.058a.71.71 0 0 0 .373-.117c.104-.073.153-.147.182-.19.056-.084.047-.069.033-.054a.549.549 0 0 0 .101-.143z"/>
            <path d="M158.352 321.734a.549.549 0 0 0-.377.166l-1.278 1.278c-.938-.552-2.119-.58-2.922.222-.802.803-.774 1.984-.222 2.922l-1.272 1.272a.549.549 0 1 0 .778.775l1.275-1.275c.936.54 2.106.567 2.904-.23.798-.799.771-1.969.23-2.905l1.282-1.281a.549.549 0 0 0-.398-.944zm-2.844 2.043c.345 0 .689.135.955.4a1.342 1.342 0 0 1 0 1.91 1.341 1.341 0 0 1-1.893.009.549.549 0 0 0-.023-.024 1.338 1.338 0 0 1 .006-1.894c.266-.266.61-.4.955-.4z"/>
            <path d="M249.037 41.377a.549.549 0 0 0-.144.016l-3.602.9a.549.549 0 0 0-.246.928l2.7 2.6a.549.549 0 0 0 .911-.258l.9-3.5a.549.549 0 0 0-.519-.686zm-.771 1.303l-.438 1.697-1.308-1.26z"/>
        </g>
        <g class="slate-rouge">
            <path d="M183.525 307.925l2.8 1.5c.3.1.3.5 0 .7l-2.8 1.5c-.1 0-.1.1-.2.2l-1.5 2.8c-.1.3-.5.3-.7 0l-1.5-2.8c0-.1-.1-.1-.2-.2l-2.8-1.5c-.3-.1-.3-.5 0-.7l2.8-1.5c.1 0 .1-.1.2-.2l1.5-2.8c.1-.3.5-.3.7 0l1.5 2.8c0 .1.1.1.2.2z"/>
            <path d="M77.725 3.225l2.8 1.5c.3.1.3.5 0 .7l-2.8 1.5c-.1 0-.1.1-.2.2l-1.5 2.8c-.1.3-.5.3-.7 0l-1.5-2.8c0-.1-.1-.1-.2-.2l-2.8-1.5c-.3-.1-.3-.5 0-.7l2.8-1.5c.1 0 .1-.1.2-.2l1.5-2.8c.1-.3.5-.3.7 0l1.5 2.8c.1.1.2.1.2.2z"/>
            <path d="M284.725 197.225l2.8 1.5c.3.1.3.5 0 .7l-2.8 1.5c-.1 0-.1.1-.2.2l-1.5 2.8c-.1.3-.5.3-.7 0l-1.5-2.8c0-.1-.1-.1-.2-.2l-2.8-1.5c-.3-.1-.3-.5 0-.7l2.8-1.5c.1 0 .1-.1.2-.2l1.5-2.8c.1-.3.5-.3.7 0l1.5 2.8z"/>
            <path d="M104.825 293.925l1.3.7c.3.1.3.5 0 .7l-1.3.7c-.1 0-.1.1-.1.1l-.7 1.3c-.1.3-.5.3-.7 0l-.7-1.3c0-.1-.1-.1-.1-.1l-1.3-.7c-.3-.1-.3-.5 0-.7l1.3-.7c.1 0 .1-.1.1-.1l.7-1.3c.1-.3.5-.3.7 0l.7 1.3z"/>
            <path d="M121.325 106.825l1.4.7c.3.1.3.5 0 .7l-1.4.7c-.1 0-.1.1-.2.2l-.7 1.4c-.1.3-.5.3-.7 0l-.7-1.4c0-.1-.1-.1-.2-.2l-1.4-.7c-.3-.1-.3-.5 0-.7l1.4-.7c.1 0 .1-.1.2-.2l.7-1.4c.1-.3.5-.3.7 0l.7 1.4c0 .1.1.2.2.2z"/>
            <circle cx="226.325" cy="164.425" r="2.9"/>
            <circle cx="290.625" cy="371.425" r="2.9"/>
            <circle cx="86.725" cy="309.625" r="1.4"/>
            <path d="M51.113 284.371a.547.547 0 0 0-.377.166l-2.607 2.61c-.5-.479-1.013-.966-1.432-1.28-.269-.202-.487-.355-.748-.451-.329-.135-.529-.145-.847 0-.261.096-.481.25-.75.451-.538.404-1.202 1.007-1.84 1.645-.638.638-1.241 1.302-1.645 1.84-.202.269-.355.489-.451.75-.11.274-.134.55 0 .847.096.26.25.48.451.748.304.405.778.9 1.237 1.383l-2.473 2.564c-.535.527.282 1.316.789.762l2.453-2.545c.516.497 1.046.996 1.479 1.32.269.202.489.356.75.452.71.321 1.064-.082 1.595-.451.538-.404 1.202-1.007 1.84-1.645.638-.638 1.241-1.302 1.645-1.84.201-.269.355-.487.45-.748.214-.33.13-.527 0-.847-.095-.261-.249-.481-.45-.75-.314-.418-.8-.931-1.278-1.43l2.61-2.61c.359-.349.1-.957-.4-.94zm-5.543 2.074c.037.014.238.126.47.3.461.346 1.11.93 1.722 1.542.612.612 1.196 1.26 1.543 1.723.173.23.285.434.299.47.024-.017.017.066 0 .09a3.034 3.034 0 0 1-.3.47c-.346.461-.93 1.11-1.542 1.722-.612.612-1.261 1.196-1.723 1.543a3.036 3.036 0 0 1-.469.299c.018.024-.065.017-.09 0a3.01 3.01 0 0 1-.47-.3c-.462-.346-1.11-.93-1.723-1.542-.612-.612-1.196-1.26-1.543-1.723a3.035 3.035 0 0 1-.299-.469c-.014.253 0 .152 0-.09.014-.036.126-.24.3-.47.346-.462.93-1.11 1.542-1.723.612-.612 1.26-1.196 1.723-1.543.23-.173.434-.285.47-.299.024-.018.06 0 .09 0z"/>
            <path d="M52.975 89.734c-.436 0-.868.018-1.196.059-.163.02-.293.04-.427.094-.041.016-.099.073-.15.113-.008.004-.022.002-.028.006-.023.014-.012.025-.03.039-.014.017-.024.007-.039.03-.004.006-.001.02-.005.027-.04.051-.098.109-.114.15a1.7 1.7 0 0 0-.092.428c-.03.24-.037.565-.044.879h-1.725a.366.366 0 1 0 0 .732h1.73c.01.275.013.566.04.78.02.163.039.292.091.427.016.041.073.099.114.15.004.008.001.021.006.028.014.023.024.012.039.03.017.013.006.024.029.038.007.004.02.002.027.006.052.04.11.097.15.113.136.053.265.074.428.094.328.041.76.059 1.196.059.435 0 .868-.018 1.195-.059.164-.02.295-.04.43-.094.04-.016.096-.073.148-.113.008-.004.02-.002.027-.006.023-.014.013-.025.03-.039.014-.017.024-.006.039-.03.004-.006.001-.02.006-.028.04-.052.097-.108.113-.149.053-.135.073-.264.094-.428.026-.213.03-.504.039-.779h1.728a.366.366 0 1 0 0-.732H55.1c-.008-.314-.013-.639-.043-.88a1.698 1.698 0 0 0-.094-.427c-.016-.04-.074-.097-.113-.148-.005-.008-.002-.023-.006-.03-.015-.023-.025-.012-.04-.03-.016-.013-.006-.024-.029-.038-.006-.004-.02-.002-.027-.006-.052-.04-.107-.097-.148-.113a1.714 1.714 0 0 0-.43-.094c-.327-.041-.76-.059-1.195-.059zm0 .73c.414 0 .832.021 1.105.056.089.01.12.02.164.03a.366.366 0 0 0 .057.055c.01.046.02.076.031.165.034.272.053.69.053 1.105 0 .414-.019.833-.053 1.105-.011.09-.02.12-.031.165a.366.366 0 0 0-.057.054c-.045.01-.075.02-.164.031a9.868 9.868 0 0 1-1.105.055c-.415 0-.831-.02-1.104-.055-.09-.01-.12-.02-.166-.03a.366.366 0 0 0-.055-.055c-.01-.046-.02-.076-.03-.165a9.926 9.926 0 0 1-.054-1.105c0-.414.019-.833.053-1.105.011-.09.02-.12.031-.165a.366.366 0 0 0 .057-.056c.045-.01.076-.018.164-.03a9.83 9.83 0 0 1 1.104-.054z"/>
            <path d="M283.625 137.885a.63.63 0 0 0-.459.181.366.366 0 0 0-.068.096l-.373.746-.016.016-.748.375a.366.366 0 0 0-.094.068.628.628 0 0 0-.183.457c0 .156.047.323.183.46a.366.366 0 0 0 .094.068l.748.373.016.017.373.746c.093.188.29.352.527.352.237 0 .434-.164.527-.352l.373-.746.016-.017.748-.373a.366.366 0 0 0 .094-.069.632.632 0 0 0 .183-.459.628.628 0 0 0-.183-.457.366.366 0 0 0-.094-.068l-.748-.375-.016-.016-.373-.746a.366.366 0 0 0-.068-.096.63.63 0 0 0-.46-.181zm0 .857l.273.547a.366.366 0 0 0 .069.094l.1.101a.366.366 0 0 0 .095.069l.545.271-.545.274a.366.366 0 0 0-.096.068l-.1.1a.366.366 0 0 0-.068.095l-.273.547-.273-.547a.366.366 0 0 0-.069-.095l-.1-.1a.366.366 0 0 0-.095-.068l-.545-.274.545-.271a.366.366 0 0 0 .096-.069l.1-.101a.366.366 0 0 0 .068-.094z"/>
        </g>
        <g class="slate-yellow">
            <path d="M27.325 127.425l1.3.7c.3.1.3.5 0 .7l-1.3.7c-.1 0-.1.1-.1.1l-.7 1.3c-.1.3-.5.3-.7 0l-.7-1.3c0-.1-.1-.1-.1-.1l-1.3-.7c-.3-.1-.3-.5 0-.7l1.3-.7c.1 0 .1-.1.1-.1l.7-1.3c.1-.3.5-.3.7 0l.7 1.3s0 .1.1.1z"/>
            <path d="M141.625 7.925l1.3.7c.3.1.3.5 0 .7l-1.3.7c-.1 0-.1.1-.1.1l-.7 1.3c-.1.3-.5.3-.7 0l-.7-1.3c0-.1-.1-.1-.1-.1l-1.3-.7c-.3-.1-.3-.5 0-.7l1.3-.7c.1 0 .1-.1.1-.1l.7-1.3c.1-.3.5-.3.7 0l.7 1.3s0 .1.1.1z"/>
            <path d="M141.725 313.025l1.4.7c.3.1.3.5 0 .7l-1.4.7c-.1 0-.1.1-.2.2l-.7 1.4c-.1.3-.5.3-.7 0l-.7-1.4c0-.1-.1-.1-.2-.2l-1.4-.7c-.3-.1-.3-.5 0-.7l1.4-.7c.1 0 .1-.1.2-.2l.7-1.4c.1-.3.5-.3.7 0l.7 1.4c0 .1.1.2.2.2z"/>
            <path d="M244.725 337.725l1.4.7c.3.1.3.5 0 .7l-1.4.7c-.1 0-.1.1-.2.2l-.7 1.4c-.1.3-.5.3-.7 0l-.7-1.4c0-.1-.1-.1-.2-.2l-1.4-.7c-.3-.1-.3-.5 0-.7l1.4-.7c.1 0 .1-.1.2-.2l.7-1.4c.1-.3.5-.3.7 0l.7 1.4z"/>
            <circle cx="197.625" cy="273.925" r="1.4"/>
            <path d="M8.525 10.225l.4-1.3-.4-1.2 1.3.4 1.3-.4-.4 1.2.4 1.3-1.3-.4z"/>
            <path d="M282.549 248.268a.366.366 0 0 0-.252.109l-.537.539c-.48-.257-1.063-.27-1.465.133-.402.402-.391.986-.135 1.465l-.596.595a.366.366 0 1 0 .518.518l.62-.621c.465.207 1.002.212 1.382-.168.38-.38.374-.916.168-1.381l.562-.562a.366.366 0 0 0-.265-.627zm-1.738 1.296a.53.53 0 0 1 .753 0 .366.366 0 0 0 .004.006.528.528 0 0 1 0 .752.531.531 0 0 1-.757 0 .529.529 0 0 1 0-.755.366.366 0 0 0 0-.002z"/>
        </g>
        <g class="slate-green">
            <path d="M172.91 103.69a.923.923 0 0 0-.908.935v1.777h-1.777a.923.923 0 1 0 0 1.846h1.777v1.777a.923.923 0 1 0 1.846 0v-1.777h1.777a.923.923 0 1 0 0-1.846h-1.777v-1.777a.923.923 0 0 0-.938-.936z"/>
            <path d="M12.816 294.477a.549.549 0 0 0-.517.703l.455 1.549-.457 1.65a.549.549 0 0 0 .71.664l1.522-.54 1.623.542a.549.549 0 0 0 .694-.693l-.541-1.622.537-1.523a.549.549 0 0 0-.664-.71l-1.649.458-1.549-.457a.549.549 0 0 0-.164-.021zm.819 1.357l.736.217a.549.549 0 0 0 .3.002l.786-.219-.25.709a.549.549 0 0 0-.002.355l.252.758-.758-.252a.549.549 0 0 0-.357.004l-.707.25.218-.787a.549.549 0 0 0-.002-.3z"/>
            <path d="M130.025 46.525l-1.1 2.1-1.1-2.1-2-1.1 2-1.1 1.1-2 1.1 2 2 1.1z"/>
            <path d="M84.512 46.389a.923.923 0 0 0-.91.935v.38h-.377a.923.923 0 1 0 0 1.843h.377v.379a.923.923 0 1 0 1.845 0v-.38h.377a.923.923 0 1 0 0-1.843h-.377v-.379a.923.923 0 0 0-.935-.935z"/>
        </g>
    </g>
    <g id="heart-bubble">
        <path class="outline2" d="M42.025 156.925c5.3-1.8 11.1 1.1 12.9 6.4 1.3 3.7.2 7.7-2.4 10.3.8 1.8 1.9 3.3 3.4 3.8.8.3.4.7 0 .7-2.3.2-5.5.1-8.4-1.8-5 1.1-10.2-1.7-11.8-6.7-1.9-5.2 1-11 6.3-12.7z" />
        <path class="bubble-content" d="M48.625 163.925c-.3-.4-.8-.6-1.4-.6-.6 0-1.1.3-1.4.6l-.3.3c-.1.2-.4.2-.5 0l-.3-.3c-.3-.4-.7-.6-1.4-.6-.6 0-1.1.2-1.4.6-.3.4-.5.8-.5 1.3 0 .3.1 1 .4 1.7.4.7 1.4 1.8 3.2 3.3.1.1.3.1.4 0 1.8-1.4 2.9-2.5 3.2-3.3.4-.7.4-1.4.4-1.7.1-.5-.1-.9-.4-1.3z" />
    </g>
    <g id="thumbsup-bubble">
        <path class="outline2" d="M251.325 251.925c4.3 3.6 4.8 10 1.2 14.3-2.5 3-6.5 4.2-10.1 3.4-1.2 1.7-1.8 3.4-1.5 4.9.2.8-.4.7-.7.4-1.4-1.8-3-4.6-2.9-8.1-3.6-3.7-3.8-9.6-.5-13.6 3.8-4.4 10.2-5 14.5-1.3z" />
        <path class="bubble-content" d="M248.425 263.225c0 .4-.8.6-1.2.6h-3.8l-1-.6v-3.6c.8 0 1.3-.5 1.9-1.1.7-.8.7-1.5.5-2.5 0-.3.3-.6.6-.6.5 0 1.2 1.6 1.2 2.4v.6c0 .4.2.6.6.6h1.2c.4 0 .6.2.6.6zm0-4.8h-1.2v-.6c0-.8-.7-3-1.8-3-.3 0-.7.2-.9.5-.2.2-.3.5-.3.8.2.9.2 1.4-.4 2-.6.7-.9.9-1.4.9h-1.2c-.6 0-1.2.6-1.2 1.2v2.4c0 .6.6 1.2 1.2 1.2h1l.9.5c.1.1.2.1.3.1h3.8c.7 0 1.7-.3 1.8-1.1l.6-3.6v-.1c0-.7-.5-1.2-1.2-1.2z" />
    </g>
    <g id="pr-bubble">
        <path class="outline2" d="M159.525 85.725c5.6.5 10.5-3.6 11-9.2.3-3.9-1.6-7.5-4.7-9.5.4-2 1.1-3.7 2.4-4.5.7-.4.2-.8-.2-.7-2.3.3-5.4 1.1-7.8 3.7-5.1.1-9.5 4-10 9.3-.4 5.5 3.7 10.4 9.3 10.9z" />
        <path class="bubble-content" d="M163.925 77.825v-4c0-.5-.2-.9-.6-1.3-.4-.4-.8-.6-1.3-.6h-.6v-1.3l-1.9 1.9 1.9 1.9v-1.3h.6c.2 0 .3.1.4.2.1.1.2.3.2.4v4c-.4.2-.6.6-.6 1.1 0 .7.6 1.3 1.3 1.3.7 0 1.3-.6 1.3-1.3-.1-.3-.3-.8-.7-1zm-.6 1.9c-.4 0-.8-.4-.8-.8s.4-.8.8-.8.8.4.8.8-.4.8-.8.8zm-3.9-7.2c0-.7-.6-1.3-1.3-1.3-.7 0-1.3.6-1.3 1.3 0 .5.3.9.6 1.1v4.2c-.4.2-.6.6-.6 1.1 0 .7.6 1.3 1.3 1.3.7 0 1.3-.6 1.3-1.3 0-.5-.3-.9-.6-1.1v-4.2c.3-.2.6-.6.6-1.1zm-.5 6.4c0 .4-.4.8-.8.8s-.8-.4-.8-.8.4-.8.8-.8c.4.1.8.4.8.8zm-.8-5.6c-.4 0-.8-.4-.8-.8s.4-.8.8-.8.8.4.8.8-.4.8-.8.8z" />
    </g>
    <g id="planet-1">
        <path id="p1-back2" class="slate-grey2" d="M130.725 229.825c-19.8-25.8-21.5 19.1-59.8 11.6 10.7 13.6 27.4 22.4 46 22.4 32.4 0 58.6-26.2 58.6-58.6 0-19.2-9.2-36.2-23.5-46.9l-2.5 1c10.9 13.2-9.3 82.9-18.8 70.5z" />
        <path id="p1-back1" class="slate-grey1" d="M161.025 165.725l-14 2.8c-.3.1-.5.3-.6.6l-3.3 13.2c-.1.2-.2.4-.4.5l-7.7 4.3c-.3.1-.5.5-.4.8l1.5 9.8c0 .3.2.5.4.6l11.9 6.6c.3.2.8.1 1-.2l3.2-4.6c.1-.1.3-.3.5-.3l2.7-.5c.1 0 .1-.1.2-.1l5.1-2.5c.1 0 .1 0 .2-.1.9-.8 9.6-8.8 11.4-10.7.2-.2.3-.4.2-.7-1.6-6.3-7.1-14.4-11.2-19.1-.2-.3-.5-.3-.7-.4zm13.286 27.005c-.248.035-.474.195-.586.495l-2.4 5.4c-.1.2-.3.4-.5.4l-5.9 1.8c-.1 0-.3.1-.4.2l-5.3 5.8c-.2.2-.2.4-.2.6l1 8.1c0 .2 0 .5-.2.6l-4.5 5.2c-.2.2-.4.3-.6.3l-8-.2c-.4 0-.8.3-.8.8l-.5 9.4c0 .1-.001.2-.1.3l-3.7 8.3c-.1.2-.1.4 0 .6l2.9 7.2c.1.2.1.5 0 .7l-4 7.2c0 .1-.1.1-.1.2-.4.4-2.3 2.2-3.7 3.6-.6.6 0 1.5.8 1.3 12.8-3.1 44.5-25 37.8-67.5-.126-.562-.601-.852-1.014-.795zm-116.4 11.221c-.437-.051-.886.249-.886.774-.1 4.3.3 8.6 1.3 12.8l7.8 18.6c2.5 3.8 5.6 7.5 9.3 10.7.4.3 1 .2 1.2-.2.3-.6.8-1.3 1-1.7.2-.3.5-.4.8-.4l3.5.5h.2l8.2-1.2c.3 0 .6-.3.7-.6l1.9-6.8c0-.1.1-.3.2-.4l6.5-5.9c.2-.2.3-.4.3-.6l-.9-13.6c0-.2-.1-.3-.2-.5l-5-5.6c-.2-.3-.6-.3-1-.2l-6.8 3.7c-.2.1-.4.1-.5.1l-7.9-1.6c-.1 0-.2-.1-.3-.1l-7.7-4.8c-.2-.1-.3-.1-.5-.1l-6.3.7c-.2 0-.4 0-.6-.2l-3.9-3.2a.814.814 0 0 0-.415-.174zm23.015 46.373c-.5-.1-1 .9-.4 1.5 2.2 1.9 4.899 3.801 8.099 5.301l.3.3c.4.5 1.7 1.9 2.1 2.4.1.1.2.2.3.2l4.3 1.6c.1 0 .2.1.3.2l2.8 3.1c.2.2.5.3.7.3l3-.5h.3l2.1.5h.3l2.4-.5h.3l4.6 1c.2 0 .3 0 .5-.1l2.4-1.1c.1 0 .2-.1.3-.1h3.9c.1 0 .3-.001.4-.1l2.4-1.5c.5-.3.3-1.1-.3-1.1l-1.9.1c-.1 0-.3 0-.4-.1l-4.6-2.2c-.2-.1-.4-.1-.5-.1l-2.6.6c-.2 0-.4 0-.5-.1l-7.5-3.7c-.1 0-.2-.1-.2-.1l-6-.9c-.1 0-.3-.1-.4-.1l-4.9-3.6c-.1-.1-.3-.2-.5-.2l-5.7.1h-.2z" />
        <path id="p1-outline" class="outline2" d="M125.893 144.777l-6.868.399c-.614 0-1.037.445-1.21.9-3.468-.058-6.858.21-10.235.73a1.573 1.573 0 0 0-.437-.437 1.644 1.644 0 0 0-.918-.293.577.577 0 0 0-.094.008c-19.8 3.435-41.59 18.59-47.541 45.623a.631.631 0 0 0-.006.028c-.087.524.143 1.011.521 1.32-.693 3.43-1.063 6.925-1.19 10.353a1.373 1.373 0 0 0-.644.1c-.44.189-.794.658-.794 1.217-.098 4.222.286 8.448 1.238 12.586-.427.098-.85.214-1.26.369-2.236.843-4.154 2.568-4.955 5.185a.549.549 0 0 0-.002.01c-.534 1.87-.736 3.619-.805 5.284-.986-.455-2.14-.782-3.668-.782-2.61 0-4.43 1.178-5.47 2.63-.8 1.116-1.058 2.312-1.051 3.386-.824-.4-1.838-.775-3.531-.613a15.2 15.2 0 0 0-3.098.629c-.923.293-1.678.627-2.178 1.046-.25.21-.487.46-.508.862-.02.401.283.745.602.912.638.335 1.6.445 3.234.445h30.809c2.496 3.75 5.57 7.399 9.232 10.567l.03.023c.2.15.43.236.664.271 1.31 1.217 2.555 2.354 3.953 3.49-.033.402.081.846.424 1.188l.029.028c2.204 1.903 4.914 3.802 8.115 5.318l.242.24.014.014c.23.284.62.72 1.03 1.178a41.145 41.145 0 0 1 1.07 1.222c.05.05.112.115.209.188a.759.759 0 0 0 .478.174l-.191-.036 4.3 1.6.038.012c.012.01.027.023.054.05l2.793 3.092a1.493 1.493 0 0 0 1.107.48c.03 0 .06-.002.09-.007l2.956-.493h.19l2.036.485c.042.01.084.015.127.015h.301a.548.548 0 0 0 .111-.011l2.346-.489h.184l4.543.989a.555.555 0 0 0 .117.011c.2 0 .478-.025.744-.158l2.336-1.07a.868.868 0 0 0 .185-.072h3.834c.1 0 .429.098.787-.26l-.097.078 1.316-.822c.014 0 .023.005.037.004 4.976-.39 9.852-1.448 14.543-3.065.01.02.014.043.026.06.296.466.902.743 1.521.589 6.587-1.597 17.747-7.896 26.512-19.17 8.766-11.276 15.07-27.552 11.697-48.948a21.334 21.334 0 0 0-.006-.033c-.144-.65-.64-1.105-1.2-1.209-.039-.007-.08.003-.12 0a51.824 51.824 0 0 0-1.612-5.705c.04-.041.149-.142.184-.18l.002-.002c.132-.132.266-.298.342-.525a1.19 1.19 0 0 0-.012-.726 24.121 24.121 0 0 0-.685-2.186h33.064c1.384 0 2.274-.104 2.863-.344.148-.06.281-.129.407-.24a.803.803 0 0 0 .273-.518.792.792 0 0 0-.187-.56 1.241 1.241 0 0 0-.36-.29c-.526-.297-1.31-.47-2.437-.577-1.12-.107-2.563-.114-4.276.035-.368.003-.68.069-.875.086-.466-.407-1.037-.82-1.797-1.094a5.078 5.078 0 0 0-2.502-.215c-.364-1.174-1.274-2.276-2.623-2.914-1.369-.648-3.122-.639-4.83.207-.31-1.665-1.132-3.234-2.478-4.119-1.28-.842-2.976-.938-4.666-.01.34-2.545.236-5.148-.992-7.18-1.409-2.33-4.186-3.774-8.57-3.361-2.735.258-4.757 1.095-6.194 2.33-1.274 1.096-2.053 2.499-2.51 4.01a61.93 61.93 0 0 0-1.889-2.299l-.002-.002c-.34-.507-.906-.582-.91-.584a.548.548 0 0 0-.351-.047l-.37.075c-1.394-1.48-2.812-2.96-4.38-4.313.018-.046.052-.087.06-.135a.77.77 0 0 0-.27-.724c-.63-.485-2.135-1.715-3.484-2.826-.674-.556-1.313-1.082-1.787-1.477-.237-.197-.432-.363-.572-.48-.07-.06-.126-.104-.164-.137-.038-.033-.097-.092-.04-.033a.547.547 0 0 0-.132-.096c.123.062.046.028-.012-.049a4.673 4.673 0 0 1-.224-.34c-.159-.26-.32-.562-.414-.748a.924.924 0 0 0-.127-.258c-.073-.096-.14-.159-.19-.209a.542.542 0 0 0-.08-.066l-3.056-2.07-.145-.145-1.383-1.68.067.104a1.112 1.112 0 0 0-.99-.604l.09.008-1.8-.3a.541.541 0 0 0-.09-.008c-.056 0-.074-.027-.109-.096l-.9-1.8a1.515 1.515 0 0 0-.668-.657l-.9-.398a.548.548 0 0 0-.223-.05h-.4a.491.491 0 0 0-.1.01l-2.63.487c-.162 0-.255-.007-.317-.037l-1.768-1.078a.465.465 0 0 0-.04-.022c-.1-.05-.228-.122-.411-.168a1.022 1.022 0 0 0-.68.067l.121-.043-4.299 1a.529.529 0 0 0-.05.013c-.117.04-.108.016-.26-.064l-1.037-.754c-.122-.125-.26-.226-.391-.264-.194-.055-.337-.044-.437-.044h-.034zm.054 1.096c.036.001.04 0 .057.002a.535.535 0 0 0 .098.094l1.101.8a.55.55 0 0 0 .076.047c.2.1.646.287 1.12.13l-.05.013 4.3-1a.508.508 0 0 0 .062-.02c.024.009.078.032.164.075l.004.002 1.76 1.078a.486.486 0 0 0 .04.021c.332.166.647.159.847.159a.491.491 0 0 0 .1-.01l2.65-.49h.232l.773.343c.129.064.086.02.153.152l.9 1.801c.166.331.548.703 1.092.703l-.092-.008 1.8.301c.03.005.06.008.09.008.018 0 .009-.008.01-.004.019.037.041.072.067.104l1.4 1.699a.542.542 0 0 0 .036.039l.2.201a.542.542 0 0 0 .081.067l3.05 2.066.032.033c.009.032.02.062.035.092.108.216.287.546.473.852.093.152.186.298.281.425.07.094.136.178.254.268.06.06.058.054.098.088l.17.144c.141.12.338.283.576.48.475.397 1.113.926 1.789 1.483 1.156.953 2.248 1.835 3.008 2.436-.043.01-.081.021-.124.03a4.657 4.657 0 0 1-.523.097.544.544 0 0 0-.076-.045l-4.2-2a.553.553 0 0 0-.093-.033.55.55 0 0 0-.217-.106l-4.701-1.1a.571.571 0 0 0-.125-.013h-.299c-.023 0-.047 0-.07.004l-4.65.594c-.172-.001-.259-.01-.323-.04l-7.047-4.86.076.062c-.229-.23-.587-.26-.687-.26l.135.015-8.301-2.1-.041-.007c-.004-.007.003.003-.002-.006a.545.545 0 0 0-.059-.094l-2.2-2.799a.538.538 0 0 0-.044-.049c-.05-.05-.112-.116-.209-.189a.92.92 0 0 0-.267-.129l-1.926-.867a.381.381 0 0 1 .006-.16c.041-.154.083-.219.209-.219h.031zm-10.441 1.299c.779-.02 1.563-.012 2.35.002.097.189.237.37.466.46l1.979.891c.023.01.047.019.072.026l.045.045 2.16 2.748c.061.112.137.229.268.334.16.128.388.195.58.195l-.135-.016 8.299 2.1a.572.572 0 0 0 .117.016c.002 0 .004.003.006.004l7.1 4.9a.553.553 0 0 0 .066.04c.33.165.646.157.846.157a.466.466 0 0 0 .07-.006l4.664-.595h.203l4.528 1.06c.031.025.032.042.09.07.057.03.077.016.126.026l4.174 1.988c.215.13.464.156.545.156.272 0 .515-.061.79-.126.11-.027.192-.05.298-.077 1.435 1.212 2.751 2.567 4.059 3.948l-12.354 2.468a.464.464 0 0 0-.066.018 1.524 1.524 0 0 0-.96.988l-3.278 13.125c-.074.137-.13.215-.133.217l-.024.012-7.699 4.3.094-.04c-.324.107-.539.34-.668.6a1.15 1.15 0 0 0-.078.892l-.024-.09 1.5 9.8-.006-.083c0 .543.373.924.703 1.09v.001l11.88 6.588-.038-.023c.302.201.642.231.95.17.306-.062.609-.22.81-.522l3.15-4.529c.102-.087.25-.127.094-.127a.517.517 0 0 0 .1-.008l2.7-.5-.1.008c.11 0 .144-.055.232-.101a.545.545 0 0 0 .209-.055l5.076-2.488c.05-.01.07.004.129-.026.153-.077.19-.138.238-.187.865-.77 7.535-6.904 10.352-9.672a51.798 51.798 0 0 1 1.447 5.244c-.123.125-.23.269-.297.445l-2.377 5.346a.43.43 0 0 1-.076.102.571.571 0 0 0-.094.019l-5.898 1.8a1.041 1.041 0 0 0-.285.097c-.119.059-.23.125-.344.24l-.018.017-5.281 5.784c-.33.329-.361.788-.361.988 0 .022 0 .044.004.066l.994 8.057c-.001.072-.003.128-.008.162a.542.542 0 0 0-.057.055l-4.476 5.175c-.13.128-.193.135-.21.135l-7.986-.199h-.013c-.675 0-1.348.555-1.348 1.348v-.03l-.5 9.4v.014a.543.543 0 0 0-.053.092l-3.69 8.28c-.165.33-.165.759 0 1.09l2.882 7.16a.57.57 0 0 0 .02.039 3.57 3.57 0 0 1 0 .207l-3.991 7.181a.551.551 0 0 0-.047.116c-.396.393-2.266 2.17-3.66 3.564a1.31 1.31 0 0 0-.28.432 58.021 58.021 0 0 1-12.98 2.955c.086-.23.098-.479.04-.701-.117-.443-.549-.848-1.093-.848-.01 0-.02 0-.029.002l-1.875.098c-.097-.004-.163-.093-.008.062a.549.549 0 0 0-.152-.107l-4.59-2.196c-.33-.165-.646-.158-.746-.158a.52.52 0 0 0-.123.014l-2.532.584c-.059-.001-.118-.003-.142-.006a.56.56 0 0 0-.06-.035l-7.5-3.702a.55.55 0 0 0-.102-.037h-.002a.548.548 0 0 0-.258-.113l-6-.9a.502.502 0 0 0-.055-.006c.04 0 .007-.001-.052-.022-.025-.008-.096-.014-.125-.025l-4.825-3.547.063.055a1.178 1.178 0 0 0-.897-.36l-5.695.1h-.139l-5.142-1.088-.006-.002a.889.889 0 0 0-.233-.016 1.039 1.039 0 0 0-.582.239s0 .003-.002.004a73.44 73.44 0 0 1-3.273-2.883c.066-.076.124-.163.172-.26.258-.516.711-1.15.967-1.642.088-.133.166-.15.334-.15l3.431.49a.511.511 0 0 0 .078.005h.2a.536.536 0 0 0 .08-.006l8.2-1.2-.08.005c.332 0 .595-.15.792-.328a1.498 1.498 0 0 0 .436-.672l1.9-6.8a.548.548 0 0 0 .02-.147c0 .133-.01.076.006.045.014-.03.04-.062.033-.055l.002-.004 6.48-5.88.02-.018c.264-.265.459-.606.459-.989v-.037l-.899-13.562c0-.192-.061-.378-.12-.496-.06-.119-.104-.183-.138-.25a.548.548 0 0 0-.082-.12l-5-5.601.047.062a1.18 1.18 0 0 0-.802-.49 2.016 2.016 0 0 0-.788.063.55.55 0 0 0-.128.049l-6.784 3.69a.532.532 0 0 1-.22.038l-7.825-1.584c-.004 0-.009 0-.013-.002-.015-.007-.089-.018-.115-.031l-7.69-4.795a.62.62 0 0 0-.045-.025 1.67 1.67 0 0 0-.806-.155l-6.25.696c-.17.002-.134.03-.202-.038a.564.564 0 0 0-.04-.037l-3.587-2.943c.106-3.506.477-7.088 1.178-10.59.017-.002.034.001.05-.002.65-.108 1.366-.313 1.745-.408a.324.324 0 0 0 .04-.012c.091-.03.167-.002.237.069l4.381 4.877.02.021c.33.33.853.503 1.361.334l-.06.016 11.4-2.4-.113.011c.565 0 .788-.36.888-.46a.55.55 0 0 0 .057-.067l7.201-10 .01-.016a1.363 1.363 0 0 0-.168-1.693l-3.682-4.08a.325.325 0 0 0-.017-.02c-.036-.035-.021-.014-.028-.043a1.896 1.896 0 0 1-.011-.223l1.19-6.345a.55.55 0 0 0 .009-.102c0-.056-.036-.024.125-.078a.628.628 0 0 0 .057-.023l6.873-3.188h.002a.307.307 0 0 1 .254.012c.061.036.091.06.091.178l.002.04.4 5.401-.001-.04c0 .382.132.658.361.888l.01.01 9.49 8.99c.33.33.853.501 1.361.332l7.997-2.072h.128c.427 0 2.603.1 4.622.162 1.009.031 1.99.053 2.738.049.373-.002.686-.012.93-.032.121-.01.223-.02.33-.045a.788.788 0 0 0 .183-.06c.078-.037.233-.092.319-.35.045-.136.035-.15.046-.23.012-.08.027-.178.041-.299.03-.241.066-.567.108-.951.083-.768.187-1.775.293-2.813.212-2.075.442-4.308.533-4.896a.503.503 0 0 0 .006-.055c0 .038.004.004.023-.055.01-.026.016-.1.028-.132l4.554-6.631.004-.006a1.45 1.45 0 0 0 0-1.61.518.518 0 0 0-.037-.048l-7.9-9.399a.617.617 0 0 0-.031-.035c-.05-.05-.112-.117-.21-.19a.759.759 0 0 0-.478-.171l.2.037-9.7-3.8c-.009-.002-.018-.006-.027-.01-.161-.053-.125-.023-.125-.08 0-.02-.001-.04-.004-.06-.089-.798-.307-2.473-.432-3.685 2.545-.39 5.09-.643 7.668-.707zm-9.256.012a.657.657 0 0 1 .283.097c.1.066.146.144.155.17.108 1.247.396 3.373.492 4.235l-.004-.061c0 .544.436.975.875 1.121l9.674 3.79a.522.522 0 0 0 .048.015l.045.045 7.85 9.338a.366.366 0 0 1 0 .386l-4.596 6.694a.549.549 0 0 0-.096.31c0-.133.004-.048-.021.027s-.078.14-.078.374l.006-.084c-.11.711-.329 2.878-.541 4.953-.106 1.037-.209 2.043-.291 2.806-.041.382-.08.703-.108.934 0 .011-.003.016-.004.027-.19.013-.44.024-.763.026a77.04 77.04 0 0 1-2.696-.047c-2.006-.063-4.083-.164-4.656-.164h-.199a.548.548 0 0 0-.137.017l-8.101 2.102-.035.01c-.092.03-.168.002-.239-.069l-.011-.01-9.489-8.99c.03.03-.039-.094-.039-.111 0-.014 0-.027-.002-.041l-.4-5.4.002.04c0-.482-.27-.909-.633-1.123a1.383 1.383 0 0 0-1.219-.085l-.027.011-6.9 3.2.056-.022c-.439.146-.875.575-.875 1.12l.01-.1-1.2 6.398a.55.55 0 0 0-.01.102c0 .15-.006.31.038.507s.158.416.322.58l3.682 4.08a.336.336 0 0 0 .02.02c.127.128.106.196.03.309l-7.15 9.93c-.101.086-.249.126-.093.126a.558.558 0 0 0-.114.012l-11.398 2.398a.63.63 0 0 0-.06.018c-.091.03-.167 0-.237-.068l-4.383-4.88-.02-.02a1.34 1.34 0 0 0-1.36-.333l.038-.012c-.42.106-1.105.3-1.656.391-.257.043-.408-.109-.367-.365 5.85-26.52 27.207-41.348 46.582-44.735zm68.084 15.617c3.199.008 5.03 1.184 6.072 2.908 1.192 1.97 1.315 4.794.782 7.51-.1.503.483.855.882.533 1.71-1.386 3.151-1.28 4.328-.506 1.178.774 2.044 2.337 2.18 3.926.035.414.5.64.848.412 1.593-1.047 3.159-.945 4.414-.352 1.255.594 2.129 1.736 2.242 2.567.045.329.37.543.69.455.76-.212 1.571-.109 2.292.15.721.26 1.345.68 1.672 1.008a.549.549 0 0 0 .389.162c.422 0 .822-.101 1-.101.016 0 .033 0 .049-.002 1.67-.148 3.058-.133 4.105-.034.466.045.566.124.889.196-.425.059-.622.144-1.344.144H172.34c-1.733-4.286-4.623-8.852-7.424-12.556.016-.08.031-.157.043-.266.38-1.566 1.098-2.95 2.336-4.014 1.238-1.064 3.016-1.828 5.582-2.07.514-.048 1-.071 1.457-.07zm-13.367 3.496c.108.033.266.077.303.133.013.02.027.038.043.056 4.054 4.648 9.526 12.755 11.08 18.873a.324.324 0 0 0 .011.04c.021.063.013.044.014.04.001-.003-.012.03-.08.098a.083.083 0 0 0-.012.01c-1.719 1.815-10.465 9.867-11.345 10.65a.598.598 0 0 0-.098.036l-5.1 2.5.242-.057c-.113 0-.15.055-.238.104a.585.585 0 0 0-.062.006l-2.7.5.1-.008c-.566 0-.789.359-.889.459a.55.55 0 0 0-.062.076l-3.2 4.6-.005.007c0-.002-.046.041-.114.055-.068.014-.129-.007-.127-.006a.703.703 0 0 0-.037-.023l-11.9-6.6a.49.49 0 0 0-.022-.012c-.069-.034-.095-.053-.095-.109a.548.548 0 0 0-.006-.082l-1.5-9.8a.528.528 0 0 0-.024-.09c.008.023.001-.016.022-.057.02-.041.056-.059.033-.051a.543.543 0 0 0 .094-.041l7.677-4.287c.397-.198.545-.546.645-.746a.546.546 0 0 0 .041-.112l3.291-13.162c.052-.154.095-.194.246-.246l13.047-2.61a.549.549 0 0 0 .56-.11zm13.365 26.974c.033-.015.073-.005.13.006.116.022.268.118.325.364 3.316 21.089-2.877 37.003-11.482 48.072-8.61 11.074-19.695 17.274-25.909 18.78h-.004c-.18.045-.276-.028-.33-.112-.053-.085-.087-.13.051-.268 1.391-1.39 3.267-3.167 3.7-3.6a.549.549 0 0 0 .158-.349c.023-.043.048-.074.068-.107l-.035.135 4-7.2a1.268 1.268 0 0 0 .012-1.213l-2.883-7.16a.426.426 0 0 0-.018-.039c-.034-.069-.034-.04 0-.11l.01-.02 3.693-8.284c.129-.213.155-.46.155-.54v.028l.5-9.4v-.03c0-.207.126-.251.252-.251l7.986.2h.014c.383 0 .723-.195.988-.46a.552.552 0 0 0 .027-.03l4.475-5.17a.972.972 0 0 0 .32-.53c.044-.197.04-.358.04-.458 0-.022-.002-.045-.005-.068l-.994-8.047c-.004-.152-.028-.132.037-.197l.018-.018 5.281-5.783.004-.002c-.007.008.025-.016.055-.031.031-.016.088-.006-.045-.006a.559.559 0 0 0 .16-.023l5.899-1.801-.16.025a.972.972 0 0 0 .644-.258c.153-.13.265-.28.348-.445l.01-.023 2.4-5.4.012-.03c.033-.09.06-.131.093-.147zm-116.49 11.225a.267.267 0 0 1 .138.057h.002l3.895 3.197-.04-.037c.33.33.787.361.987.361.02 0 .04 0 .06-.004l6.259-.695c.149-.003.116-.017.23.04l7.662 4.776c.06.037.126.062.196.074l.007.002c.052.027.159.106.387.106l-.11-.01 7.901 1.6c.036.007.073.01.11.01.1 0 .413.009.744-.157a.149.149 0 0 0 .017-.01l6.72-3.656c.133-.027.258-.041.315-.033.067.009.04.002.047.012a.54.54 0 0 0 .047.06l4.961 5.557.096.174c.015.03.004-.003.004.006 0 .011 0 .023.002.035l.896 13.568c0 .019-.006.074-.139.207l-6.48 5.883-.02.018c-.114.114-.18.225-.24.343-.06.12-.119.213-.119.446l.02-.149-1.893 6.774a.52.52 0 0 1-.121.18c-.053.047-.092.046-.059.046a.523.523 0 0 0-.078.006l-8.16 1.194h-.121l-3.463-.494a.486.486 0 0 0-.076-.006c-.422 0-.949.18-1.258.644a.543.543 0 0 0-.033.059c-.151.302-.668 1.034-1 1.699-.02.04-.233.107-.375.008-3.37-2.918-6.233-6.26-8.598-9.713h9.563c.447 0 .763-.02 1.033-.09a.864.864 0 0 0 .418-.209c.151-.138.252-.491.174-.703-.079-.212-.193-.296-.295-.373a1.948 1.948 0 0 0-.328-.195 6.157 6.157 0 0 0-.88-.328c-1.384-.422-3.605-.803-5.552-.698-.41.003-.745.045-1.08.073a3.898 3.898 0 0 0-1.1-1.873c-.606-.574-1.516-.953-2.576-1.133l.143-.215a.549.549 0 0 0 .013-.022c2.081-3.442 2.45-6.388 1.67-8.68-.78-2.29-2.68-3.852-4.898-4.62a10.5 10.5 0 0 0-3.5-.569c-.39.003-.78.036-1.168.082-.94-4.062-1.322-8.22-1.225-12.383v-.013c0-.141.044-.17.13-.207a.283.283 0 0 1 .138-.022zm2.135 13.645a9.412 9.412 0 0 1 3.13.502c1.97.681 3.565 2.02 4.22 3.941.653 1.921.398 4.5-1.57 7.756l-.001.002-.588.879a.549.549 0 0 0 .457.853c1.27 0 2.145.44 2.736 1 .592.56.882 1.268.918 1.698a.549.549 0 0 0 .545.501c.573 0 1.073-.1 1.5-.1a.549.549 0 0 0 .031-.001c1.087-.059 2.116.215 3.206.404H35.025c-1.483 0-2.282-.174-2.58-.3.287-.23.937-.56 1.762-.823a14.194 14.194 0 0 1 2.87-.582c1.98-.189 2.769.327 3.68.834a.549.549 0 0 0 .8-.613c-.195-.777.029-2.249.888-3.447.86-1.199 2.29-2.172 4.58-2.172 1.72 0 2.906.374 3.819.922a.549.549 0 0 0 .83-.47c0-1.737.292-3.689.879-5.745.7-2.279 2.317-3.73 4.289-4.473a9.121 9.121 0 0 1 3.135-.566zM80.9 250.88l5.112 1.08a.533.533 0 0 0 .113.012H86.334l5.691-.1c.018 0 .141.068.112.04a.55.55 0 0 0 .064.054l4.899 3.6a.548.548 0 0 0 .306.107c-.061 0-.018 0 .045.021.075.025.14.078.373.078l-.08-.006 5.916.89c.047.028.1.058.168.081l7.455 3.678-.146-.104c.179.18.378.222.523.243.146.02.265.019.365.019a.562.562 0 0 0 .123-.016l2.514-.58a.532.532 0 0 1 .217.037l.01.004 4.586 2.196c.301.215.563.158.65.158h.03l1.873-.098c.042 0 .02-.003.029.028.008.032.024.03-.014.052l-.008.004-2.4 1.5a.546.546 0 0 0-.084.065c.116-.113.067-.047-.026-.047h-3.9c-.233 0-.345.082-.395.107a.53.53 0 0 0-.134.043l-2.399 1.1-.017.008c-.12.06-.099.04-.225.037l-4.514-.982a.538.538 0 0 0-.117-.014h-.299a.548.548 0 0 0-.111.012l-2.346.488h-.18l-2.036-.484a.549.549 0 0 0-.127-.016h-.3a.566.566 0 0 0-.091.008l-2.92.486c-.03-.005-.226-.064-.297-.13l-2.785-3.083a.336.336 0 0 0-.02-.02c-.05-.05-.112-.116-.209-.189a.759.759 0 0 0-.478-.171l.191.035-4.3-1.6a.426.426 0 0 0-.04-.014 1.908 1.908 0 0 1-.054-.052l-.01-.008c-.23-.284-.62-.72-1.03-1.178-.424-.475-.854-.96-1.029-1.178a.55.55 0 0 0-.04-.045l-.3-.3a.548.548 0 0 0-.156-.108c-3.134-1.469-5.783-3.331-7.947-5.197-.133-.137-.134-.288-.082-.434a.33.33 0 0 1 .072-.117zm59.08 4.994c0 .005 0 .009-.002.014-.004.007-.008.01-.011.017z" />
    </g>
    <g id="planet-2">
        <path id="p2-backround" class="slate-grey2" d="M278.725 292.725c0-4.5-1.6-8.7-4.2-11.9-2.1-2.2-4.4-.8-5.1 9.5-.8 12.4-7.3 4.1-12.5 10-5.2 5.8-17.3-4.8-14.2 1.4 3.2 6 9.6 10.1 16.9 10.1 10.5 0 19.1-8.6 19.1-19.1z" />
        <path id="p2-outline" class="outline2" d="M259.525 273.076c-10.845 0-19.648 8.804-19.648 19.649s8.803 19.648 19.648 19.648c10.845 0 19.649-8.803 19.649-19.648 0-10.845-8.804-19.649-19.649-19.649zm0 1.098c5.443 0 10.32 2.353 13.711 6.082-3.693.618-7.185.593-9.16-1.053l-.008-.006c-2.72-2.194-6.582-3.45-10.148-4.158a18.56 18.56 0 0 1 5.605-.865zm-7.58 1.629c3.905.605 8.52 1.903 11.428 4.244 2.574 2.144 6.662 1.935 10.697 1.18.43.541.823 1.11 1.19 1.699a87.092 87.092 0 0 1-3.246.05c-4.593.103-7.39 1.35-9.897 2.528-2.506 1.178-4.703 2.273-8.392 2.273-3.38 0-7.476-1.338-11.028-2.834a18.519 18.519 0 0 1 2.344-3.8c1.04.519 2.067 1.021 2.91 1.302l.012.004c1.443.448 3.286 1.063 4.955 1.235.835.086 1.634.067 2.34-.188.7-.253 1.298-.79 1.576-1.576.237-.598.242-1.204-.014-1.686-.257-.484-.7-.802-1.209-1.06-1.018-.516-2.396-.83-3.824-1.273a1.798 1.798 0 0 0-.043-.012c-.608-.135-1.5-.376-2.484-.615a18.493 18.493 0 0 1 2.685-1.471zm-3.847 2.324c1.33.282 2.504.63 3.379.826 1.466.454 2.834.792 3.638 1.2.404.204.64.415.737.597.096.182.124.372-.036.771a.245.245 0 0 0-.01.024c-.174.504-.459.75-.922.918-.462.167-1.113.205-1.853.129-1.477-.153-3.277-.736-4.732-1.188l-.004-.002c-.66-.22-1.568-.655-2.508-1.119a18.622 18.622 0 0 1 2.31-2.156zm27.797 5.87a18.476 18.476 0 0 1 2.181 8.728c0 .334-.033.66-.05.99-1.658-.22-3.5-.941-5.294-1.672-2.022-.824-3.968-1.666-5.707-1.666-1.91 0-3.42.058-5.193.932-1.774.873-3.779 2.513-6.895 5.629-3.762 3.762-8.352 5.065-11.203 5.498a18.431 18.431 0 0 1-1.437-2.852c2.24-.3 4.312-.721 5.863-1.322.846-.328 1.546-.704 2.047-1.192.501-.487.795-1.162.656-1.853-.358-1.79-2.033-2.946-3.982-3.738-1.79-.729-3.872-1.16-5.695-1.424.205-1.427.567-2.8 1.078-4.102 3.614 1.526 7.796 2.92 11.46 2.92 3.911 0 6.366-1.205 8.86-2.377 2.494-1.172 5.046-2.324 9.453-2.422 1.38 0 2.669-.012 3.858-.078zm-34.842 7.148c1.764.257 3.769.681 5.416 1.351 1.801.733 3.076 1.725 3.318 2.936.062.308-.018.535-.346.853-.327.319-.91.656-1.677.953-1.457.565-3.566.995-5.852 1.291a18.527 18.527 0 0 1-.94-5.804c0-.534.037-1.059.08-1.58zm25.972.328c1.362 0 3.266.76 5.293 1.586 1.82.74 3.747 1.523 5.633 1.754-.11.982-.307 1.937-.564 2.867-2.177-.002-4.4-.54-6.862-.764-2.656-.243-5.597-.082-8.949 1.62v.001c-5.404 2.751-8.245 7.529-9.736 11.06a18.588 18.588 0 0 1-7.45-6.161c3.023-.527 7.544-1.944 11.323-5.723 3.084-3.084 5.027-4.644 6.603-5.42 1.577-.776 2.819-.82 4.71-.82zm1.465 6.447c.656-.005 1.3.03 1.936.088 2.243.205 4.39.723 6.62.771a18.422 18.422 0 0 1-1.595 3.428c-1.1-.235-2.184-.36-3.242-.377-3.56-.059-6.846 1.01-9.652 2.484-3.617 1.901-6.432 4.46-8.133 6.237a18.38 18.38 0 0 1-1.57-.53c1.433-3.392 4.14-7.92 9.22-10.507 2.362-1.2 4.448-1.578 6.416-1.594zm3.696 5.006c.862.014 1.744.126 2.636.293-3.342 4.866-8.942 8.058-15.297 8.058a18.63 18.63 0 0 1-3.865-.408c1.677-1.688 4.221-3.909 7.408-5.584 2.688-1.413 5.78-2.415 9.118-2.36z" />
    </g>
    <g id="planet-3">
        <path id="p3-backround" class="slate-grey2" d="M224.625 32.225c0-8.7-3.5-16.6-9.2-22.3-5-4.9-3.4 6.7-14.2 8.9-11.9 2.5 12.8 27.2-2.9 28.8-14 1.4-11.3 13.3-21.7 11.7 4.8 2.9 10.4 4.6 16.4 4.6 17.5-.1 31.6-14.2 31.6-31.7z" />
        <path id="p3-outline" class="outline2" d="M193.025.076c-17.748 0-32.148 14.4-32.148 32.149 0 17.748 14.4 32.148 32.148 32.148 17.749 0 32.149-14.4 32.149-32.148 0-17.749-14.4-32.149-32.149-32.149zm0 1.098c1.311 0 2.6.09 3.868.248a52.522 52.522 0 0 1-1.18 3.406c-.284.692.77 1.098 1.023.395.444-1.155.88-2.396 1.258-3.649 1.61.259 3.177.643 4.693 1.139a52.438 52.438 0 0 1-7.12 16.512c-.436.619.526 1.247.917.6a53.535 53.535 0 0 0 7.245-16.759 31.021 31.021 0 0 1 10.023 6.04c-.496 3.004-1.273 5.92-2.248 8.845-.232.694.81 1.042 1.04.348.913-2.735 1.65-5.481 2.16-8.303a30.988 30.988 0 0 1 8.562 15.188 53.745 53.745 0 0 1-7.395 15.933c-.411.606.497 1.223.908.617a54.857 54.857 0 0 0 6.94-14.234c.235 1.54.357 3.118.357 4.725 0 14.2-9.523 26.159-22.531 29.86 5.67-3.14 10.719-7.342 14.896-12.202a.549.549 0 0 0-.414-.912.549.549 0 0 0-.418.197c-4.852 5.645-10.892 10.395-17.714 13.559a.549.549 0 0 0-.233.205 31.32 31.32 0 0 1-9.408-.02c4.857-1.543 9.47-3.818 13.771-6.627.475-.296.253-1.03-.306-1.014a.549.549 0 0 0-.293.094c-4.816 3.145-10.015 5.6-15.498 7.088a30.83 30.83 0 0 1-4.772-1.527 43.119 43.119 0 0 0 4.033-1.078c.614-.19.458-1.098-.183-1.073a.549.549 0 0 0-.147.028c-1.8.568-3.59 1.036-5.457 1.334a31.12 31.12 0 0 1-8.537-6.164 62.357 62.357 0 0 0 3.893-.817c.627-.15.526-1.072-.12-1.082a.546.546 0 0 0-.146.02c-1.472.368-2.96.648-4.527.927A31.027 31.027 0 0 1 163.893 43a50.404 50.404 0 0 0 5.927-1.863c.574-.214.42-1.065-.193-1.063a.549.549 0 0 0-.197.04c-1.91.727-3.901 1.361-5.893 1.843a30.839 30.839 0 0 1-1.164-4.76c4.263-1.31 8.25-3.173 12.04-5.506a.549.549 0 0 0-.574-.934c-3.67 2.26-7.515 4.06-11.618 5.337a31.336 31.336 0 0 1-.248-3.87c0-.752.037-1.495.09-2.234a45.322 45.322 0 0 0 5.945-2.994c.482-.279.29-1.016-.268-1.023a.548.548 0 0 0-.297.082 44.034 44.034 0 0 1-5.273 2.695c.265-2.381.8-4.68 1.572-6.867a.549.549 0 0 0 .365-.088c3.036-1.821 5.959-4.04 8.58-6.36a.549.549 0 0 0-.34-.964.549.549 0 0 0-.386.142c-2.35 2.079-4.951 4.06-7.637 5.744 4.66-11.262 15.75-19.183 28.701-19.183zm-4.814 3.195a.549.549 0 0 0-.47.3c-3.166 6.034-7.621 11.48-12.866 15.835a.549.549 0 1 0 .701.844c5.356-4.446 9.9-10.001 13.135-16.168a.549.549 0 0 0-.5-.81zm5.121 6.201a.549.549 0 0 0-.508.33c-2.158 4.806-5.606 8.854-9.377 12.426a.55.55 0 1 0 .756.797c3.829-3.627 7.381-7.78 9.623-12.773a.549.549 0 0 0-.494-.78zm15.582 14.1a.549.549 0 0 0-.475.299c-.886 1.674-1.875 3.258-2.873 4.855-3.562 5.442-8.215 10.294-13.556 14.053a.549.549 0 1 0 .63.896c5.46-3.841 10.206-8.79 13.844-14.347a.549.549 0 0 0 .006-.01c1-1.6 2.008-3.21 2.92-4.934a.549.549 0 0 0-.496-.812zm-17.97.9a.549.549 0 0 0-.424.186c-1 1.1-1.99 2.187-3.065 3.164a.549.549 0 1 0 .738.81c1.126-1.023 2.137-2.136 3.137-3.236a.549.549 0 0 0-.387-.924zm10.386.1a.549.549 0 0 0-.453.238c-7.034 9.907-17.244 17.732-28.711 21.192a.549.549 0 1 0 .318 1.05c11.733-3.54 22.121-11.514 29.287-21.607a.549.549 0 0 0-.44-.873zm-20.701.303a.549.549 0 0 0-.34.119c-.915.712-1.717 1.411-2.601 2.1a.55.55 0 1 0 .673.867c.916-.712 1.715-1.414 2.6-2.102a.549.549 0 0 0-.332-.984zM218.4 27.97a.549.549 0 0 0-.466.308c-.217.433-.416.934-.6 1.301a.549.549 0 0 0 .982.49c.217-.432.416-.933.6-1.3a.549.549 0 0 0-.516-.8zm-2.382 4.699a.549.549 0 0 0-.475.293 50.443 50.443 0 0 1-4.451 6.826.549.549 0 0 0-.004.006c-5.846 7.728-13.57 13.962-22.57 17.621a.55.55 0 1 0 .414 1.018c9.197-3.74 17.073-10.103 23.027-17.973l.004-.006a51.554 51.554 0 0 0 4.545-6.969.549.549 0 0 0-.49-.816zM184.31 48.574a.549.549 0 0 0-.198.045l-3.6 1.5a.549.549 0 1 0 .423 1.012l3.6-1.5a.549.549 0 0 0-.225-1.057z" />
    </g>
    <g class="outline2">
        <path id="planet-4" d="M46.426 37.232c-.992.04-2.13.338-3.405.846-2.471.986-5.47 2.79-8.726 5.195a14.41 14.41 0 0 0-3.912-.787 14.96 14.96 0 0 0-11.445 4.352c-4.22 4.121-5.374 10.095-3.563 15.355-2.406 3.258-4.21 6.256-5.197 8.729-.509 1.274-.806 2.41-.846 3.402-.04.992.194 1.877.805 2.489.61.61 1.496.846 2.488.806.992-.04 2.128-.34 3.402-.848 2.49-.993 5.511-2.811 8.795-5.242 5.222 1.731 11.117.56 15.196-3.62 4.068-4.171 5.343-10.054 3.613-15.19 2.429-3.283 4.247-6.303 5.24-8.791.509-1.275.808-2.41.848-3.403.04-.992-.196-1.877-.807-2.488s-1.494-.844-2.486-.805zm.043 1.096c.801-.032 1.329.146 1.668.484.339.34.518.867.486 1.668-.032.802-.29 1.84-.77 3.041-.958 2.402-2.786 5.45-5.267 8.776l-.002.002c-2.283 3.077-5.167 6.458-8.447 9.738-3.28 3.28-6.662 6.164-9.739 8.447l-.002.002c-3.325 2.482-6.374 4.31-8.775 5.268-1.2.479-2.237.735-3.039.767-.801.033-1.331-.145-1.67-.484-.339-.339-.516-.866-.484-1.668.032-.801.29-1.84.77-3.04.871-2.186 2.493-4.922 4.642-7.9.249.557.53 1.081.814 1.592-.657 1.232-1.117 2.35-1.316 3.319-.218 1.064-.137 2.037.5 2.674.637.636 1.607.716 2.672.498 1.064-.218 2.3-.74 3.68-1.506l.001-.002c3.172-1.74 7.193-4.862 11.122-8.791 3.928-3.929 7.05-7.95 8.79-11.121l.002-.002c.766-1.38 1.29-2.616 1.508-3.68.219-1.064.137-2.037-.5-2.674-.318-.318-.72-.497-1.175-.57-.456-.073-.966-.037-1.499.072-.968.199-2.086.66-3.318 1.317a20.831 20.831 0 0 0-1.592-.815c2.978-2.15 5.714-3.77 7.899-4.642 1.2-.48 2.24-.738 3.04-.77zm-17.104 5.233a13.384 13.384 0 0 1 4.674.78l.03.009c.917.275 1.773.747 2.663 1.242.873.582 1.74 1.257 2.504 2.021.665.665 1.251 1.412 1.78 2.168-1.686 3-4.7 6.877-8.479 10.657-3.78 3.779-7.654 6.792-10.654 8.478-.757-.528-1.505-1.114-2.17-1.78a16.521 16.521 0 0 1-2.018-2.497c-.496-.893-.968-1.753-1.244-2.672a.635.635 0 0 0-.01-.024c-1.733-4.91-.677-10.477 3.268-14.326l.004-.004a13.87 13.87 0 0 1 9.652-4.052zm11.895.67c.534-.031.88.085 1.078.283.263.263.38.79.2 1.675-.142.69-.467 1.552-.948 2.522-.478-.647-.99-1.286-1.576-1.873-.587-.587-1.226-1.1-1.873-1.578.969-.481 1.83-.806 2.52-.947.22-.046.42-.072.599-.083zm1.558 9.56c1.251 4.564.012 9.664-3.586 13.352-3.593 3.683-8.681 4.844-13.337 3.572a90.81 90.81 0 0 0 9.017-7.903 90.83 90.83 0 0 0 7.906-9.021zM17.361 66.039c.478.647.99 1.286 1.576 1.873.587.587 1.225 1.1 1.872 1.578-.97.481-1.83.806-2.52.948-.885.181-1.412.062-1.676-.202-.263-.263-.383-.79-.2-1.675.14-.69.467-1.552.948-2.522z"/>
        <path id="planet-5" d="M54.725 323.576c-15.098 0-27.348 12.252-27.348 27.35 0 15.097 12.25 27.347 27.348 27.347 15.097 0 27.35-12.25 27.35-27.347 0-15.098-12.253-27.35-27.35-27.35zm.337 1.106c2.114.026 4.167.3 6.131.797a15.19 15.19 0 0 1 2.387.937c.948.474 1.949 1.186 2.104 2.193.078.507-.05.932-.311 1.35-.258.413-.656.795-1.07 1.12-2.128 1.474-5.087 1.69-7.698 1.304-.753-.15-.925 1.01-.16 1.084 2.787.413 6.02.227 8.492-1.492l.024-.018c.48-.373.978-.834 1.342-1.416.364-.582.587-1.306.465-2.1a3.034 3.034 0 0 0-.358-1.025 26.275 26.275 0 0 1 5.703 3.846.549.549 0 0 0-.066.093c-1.69 3.006-4.816 4.253-7.346 4.836a.549.549 0 1 0 .248 1.069c2.637-.609 6.057-1.94 7.98-5.242 4.959 4.774 8.048 11.476 8.048 18.908 0 .076-.006.15-.006.226-.299-.768-.737-1.47-1.418-1.964a2.773 2.773 0 0 0-1.612-.579 3.518 3.518 0 0 0-1.584.344c-.972.45-1.803 1.217-2.43 1.895l-.001.002c-1.983 2.088-3.213 4.77-3.93 7.433a.549.549 0 1 0 1.059.285c.683-2.536 1.852-5.053 3.668-6.964a.549.549 0 0 0 .006-.006c.573-.621 1.339-1.303 2.09-1.65.75-.349 1.392-.408 2.074.113a.549.549 0 0 0 .011.01c.736.531 1.172 1.481 1.37 2.587.197 1.106.152 2.335.01 3.285a.549.549 0 0 0-.005.02c-.287 2.494-1.37 5.368-3.295 6.93-.367.274-.765.506-1.091.587-.33.083-.541.065-.807-.168a.549.549 0 0 0-.018-.015c-.36-.289-.568-.748-.68-1.326-.11-.579-.115-1.246-.115-1.846a.549.549 0 1 0-1.097 0c0 .6-.004 1.331.135 2.053.138.72.433 1.457 1.068 1.968.532.457 1.214.54 1.78.399.55-.138 1.028-.438 1.446-.748a26.335 26.335 0 0 1-5.552 6.846c-.798-.944-1.447-2.577-1.703-4.625a.549.549 0 1 0-1.09.134c.274 2.193.936 4.015 1.953 5.2a26.125 26.125 0 0 1-12.572 5.533c.18-.18.36-.357.548-.582 1.061-1.273 2.19-3.31 2.5-6.319a.549.549 0 1 0-1.091-.113c-.29 2.791-1.311 4.604-2.25 5.73-.885 1.062-1.607 1.45-1.694 1.497-.638.046-1.28.078-1.93.078-14.504 0-26.251-11.745-26.251-26.25 0-2.282.291-4.495.838-6.606 2.42.228 5.66.823 9.097 2.309.672.289 1.106-.719.434-1.008-3.479-1.504-6.74-2.12-9.229-2.369a26.302 26.302 0 0 1 16.041-16.97c-.639.462-1.26 1.002-1.761 1.642-.846 1.077-1.352 2.47-.893 3.963.215.699 1.264.377 1.049-.323-.34-1.106.002-2.065.707-2.962.703-.897 1.776-1.666 2.73-2.192 2.29-1.189 4.96-1.686 7.577-1.728zm1.553 2.03c-.78.015-1.539.119-2.217.278a.549.549 0 0 0-.03.01c-1.002.3-2.48.694-3.126 1.975a2.12 2.12 0 0 0 .004 2.04c.323.582.855 1.012 1.434 1.301a.549.549 0 0 0 .49-.982c-.422-.21-.788-.53-.965-.85-.177-.318-.215-.597.002-.996a.549.549 0 0 0 .008-.017c.354-.708 1.457-1.116 2.45-1.414 1.59-.372 3.786-.341 5.187.445.463.273.547.517.517.736-.03.221-.24.543-.773.79a.549.549 0 1 0 .459.995c.766-.353 1.307-.932 1.402-1.636.095-.705-.325-1.41-1.055-1.836a.549.549 0 0 0-.007-.004c-.898-.505-1.946-.75-2.995-.817a9.758 9.758 0 0 0-.785-.017zm-10.992 6.96a.549.549 0 0 0-.35.974c.628.524 1.278.959 2.036 1.284a.55.55 0 1 0 .431-1.01c-.642-.275-1.191-.64-1.763-1.117a.549.549 0 0 0-.354-.131zm-5.998 1.498a.549.549 0 0 0-.428.898s.424.528 1.24 1.344a.549.549 0 1 0 .776-.775c-.784-.784-1.16-1.254-1.16-1.254a.549.549 0 0 0-.428-.213zm21.4 1.406a.549.549 0 0 0 0 1.098h1.4a.549.549 0 0 0 0-1.098h-1.4zm-17.996 1.695a.549.549 0 0 0-.316 1.004c3.692 2.565 10.274 5.416 20.217 3.489a.549.549 0 1 0-.21-1.077c-9.657 1.873-15.875-.876-19.382-3.312a.549.549 0 0 0-.309-.104zm25.092 2.102a.549.549 0 0 0-.023.002.549.549 0 0 0-.092.014c-.946.21-1.756.515-2.514.705a.549.549 0 1 0 .266 1.062c.842-.21 1.632-.505 2.486-.695a.549.549 0 0 0-.123-1.088zm8.71 2.701a.549.549 0 0 0-.145.022c-3.618.957-6.19 3.983-8.12 6.927a.549.549 0 1 0 .918.602c1.871-2.856 4.298-5.628 7.48-6.47a.549.549 0 0 0-.134-1.08zm-33.735 4.899a.549.549 0 0 0-.3.99c.448.335.847.536 1.2.8a.549.549 0 1 0 .658-.876c-.447-.335-.848-.536-1.2-.801a.549.549 0 0 0-.358-.113zm-11.213 2.3a.549.549 0 0 0-.131 1.073c.439.146.839.145 1 .199a.549.549 0 1 0 .346-1.041c-.44-.146-.84-.146-1-.2a.549.549 0 0 0-.16-.03.549.549 0 0 0-.055 0zm14.308.098a.549.549 0 0 0-.334.961c3.14 2.846 6.049 6.76 6.623 11.064v.002c.282 2.46-.375 4.886-2.062 6.76a.549.549 0 0 0-.006.006c-.668.764-1.423 1.42-2.254 1.88a.549.549 0 1 0 .533.96c.967-.537 1.81-1.277 2.541-2.111l.002-.002c1.91-2.123 2.652-4.892 2.336-7.63a.549.549 0 0 0-.002-.01c-.626-4.694-3.715-8.777-6.974-11.731a.549.549 0 0 0-.403-.149zm8.518 0a.549.549 0 0 0-.434.867s6.367 9.34 2.858 16.547a.549.549 0 1 0 .984.48c3.891-7.992-2.941-17.654-2.941-17.654a.549.549 0 0 0-.467-.24zm-18.898.703a.549.549 0 0 0-.133 1.078c4.889 1.37 9.678 4.367 10.914 9.502a.549.549 0 1 0 1.066-.258c-1.364-5.664-6.574-8.867-11.685-10.298a.549.549 0 0 0-.162-.024zm41.437 2.887a1.772 1.772 0 0 0-.85.164.549.549 0 1 0 .454 1c.183-.083.297-.083.39-.059.093.025.189.083.293.223.208.28.387.892.342 1.705a.549.549 0 1 0 1.096.06c.054-.986-.115-1.825-.557-2.42a1.659 1.659 0 0 0-.89-.628 1.454 1.454 0 0 0-.278-.045zm-38.719 3.406c-.4-.023-.802.007-1.195.096a3.864 3.864 0 0 0-2.129 1.308.549.549 0 0 0-.004.006c-1.045 1.278-1.007 2.9-.49 4.301.514 1.393 1.474 2.635 2.447 3.451 1.629 1.517 3.98 2.273 6.174 1.834a.549.549 0 1 0-.215-1.076c-1.803.36-3.847-.283-5.219-1.562a.549.549 0 0 0-.021-.022c-.821-.684-1.703-1.831-2.137-3.006-.432-1.173-.445-2.298.307-3.22.903-1.073 2.118-1.229 3.322-.842 1.205.387 2.316 1.372 2.744 2.486a.549.549 0 1 0 1.024-.392c-.572-1.486-1.912-2.65-3.432-3.14-.38-.121-.776-.198-1.176-.222zm27.283.502a.549.549 0 0 0-.525.453c-1.433 7.471 1.025 13.899 1.025 13.899a.549.549 0 1 0 1.026-.39s-2.342-6.175-.975-13.304a.549.549 0 0 0-.55-.658zm4.104 3.1a.549.549 0 0 0-.539.556c0 .179-.1.609-.1 1.1a.549.549 0 1 0 1.096 0c0-.309.1-.678.1-1.1a.549.549 0 0 0-.557-.556zm-32.086.4a.549.549 0 0 0-.545.65c.187 1.06.942 1.965 1.893 2.477.95.512 2.187.609 3.176-.133a.549.549 0 1 0-.659-.877c-.611.459-1.323.406-1.998.043-.674-.363-1.219-1.058-1.332-1.699a.549.549 0 0 0-.535-.46zm8.912 3.201a.549.549 0 0 0-.488.274c-.3.5-.58.957-.916 1.293a.549.549 0 1 0 .775.775c.465-.465.782-1.006 1.082-1.506a.549.549 0 0 0-.453-.836z"/>
    </g>
</svg>
