<svg xmlns="http://www.w3.org/2000/svg" viewBox="0 0 113.99702 172.30263" height="48.628mm" width="32.172mm"><path d="M60.148 69.454c-2.8-4.9-1.1-11.1 3.7-13.9 3.4-2 7.5-1.7 10.6.3 1.6-1.2 2.8-2.5 3.1-4.1.1-.8.6-.5.7-.1.7 2.2 1.2 5.4-.1 8.6 2.1 4.7.3 10.3-4.2 12.9-4.8 2.8-11 1.2-13.8-3.7z" fill="#dbe8f1"/><path d="M70.048 65.354l1.9 3.8c.1.2 0 .5-.3.5-.1 0-.2-.1-.3-.2l-.7-1.5c-.2-.3-.6-.2-.6.1v1.9c0 .2-.1.3-.3.3h-.1c-.2 0-.3-.1-.3-.3v-2.3c0-.4-.5-.4-.6-.1l-.7 1.8c0 .1-.2.2-.3.2-.2 0-.4-.2-.3-.4l1.2-3c0-.1.1-.1.2-.2l1.2-.6zm-.8-6.5h-.4c-.2 0-.3.1-.3.3v.1c0 .2.1.3.3.3h.1c.2 0 .3-.1.3-.3v-.4zm-1.4 2.2h-.4c-.2 0-.3.1-.3.3v.1c0 .2.1.3.3.3h.1c.2 0 .3-.1.3-.3v-.4zm-2.1-1.5h-.4c-.2 0-.3.1-.3.3v.1c0 .2.1.3.3.3h.1c.2 0 .3-.1.3-.3v-.4zm-1 5.8c-.2.1-.2.3-.1.5l.4.7c.1.2.3.2.5.1l.7-.3c.2-.1.2-.3.1-.5l-.5-.8c-.1-.2-.3-.2-.5-.1l-.6.4zm5.6-3.9l-3.9 2.7c-.1.1-.2.3-.1.4l.6 1c.1.1.3.2.4.1l4-1.9c.2-.1.2-.3.1-.5l-1.1-1.8zm3.1.9l-1.1-1.8c-.1-.2-.3-.2-.5-.1l-.6.4c-.1.1-.2.3-.1.4l1 1.8c.1.1.3.2.4.1l.7-.3c.2 0 .3-.3.2-.5z" fill="#fff"/><path d="M96.748 47.254l-1.1-1.8m2.793 2.166a1.2 1.2 0 0 1-.403 1.648 1.2 1.2 0 0 1-1.648-.403 1.2 1.2 0 0 1 .403-1.648 1.2 1.2 0 0 1 1.648.403zm-9.293 2.634l-.4-2.1m1.761 2.943a1.2 1.2 0 0 1-.942 1.411 1.2 1.2 0 0 1-1.411-.942 1.2 1.2 0 0 1 .942-1.411 1.2 1.2 0 0 1 1.411.942zm7.139-6.443l-10.9 4.2-1.4-1.9 12-4.7zm-17.407.089l19.29-7.506 1.414 3.634-19.29 7.506zm17.407-6.789l-15.3 6-2.6-6.6c-1.6-4.2.4-9 4.7-10.6 4.2-1.6 9 .4 10.6 4.7l2.6 6.5z" stroke="#dbe8f1" stroke-width="1.097" stroke-linecap="round" stroke-linejoin="round" stroke-miterlimit="10" fill="none"/><g stroke-miterlimit="10" stroke="#dbe8f1" stroke-width="1.097" stroke-linecap="round" stroke-linejoin="round" fill="none"><path d="M109.148 93.354l-1.3.4c-.2 0-.3-.1-.2-.3l2.7-7.3c.1-.2-.1-.3-.3-.3l-7.3 2.7c-.1.1-.3-.1-.3-.2l.4-1.3c0-.2-.1-.3-.3-.2-1.2.4-5.3 2-8 4.7-3 3-3.4 7.2-.3 10.3 3.1 3.1 7.4 2.7 10.3-.3 2.7-2.7 4.3-6.8 4.7-8 .1-.1 0-.3-.1-.2z"/><circle cy="97" cx="99" r="4.4"/></g><g stroke-miterlimit="10" stroke="#dbe8f1" stroke-width="1.097" stroke-linecap="round" stroke-linejoin="round" fill="none"><circle r="2.9" cy="125.154" cx="110.548"/><circle r="1.4" cy="82.654" cx="48.548"/><path d="M106.948 67.354l-.8-1.6c0-.1-.1-.1-.2-.2l-1.6-.8c-.3-.2-.3-.6 0-.8l1.6-.8c.1 0 .1-.1.2-.2l.8-1.6c.2-.3.6-.3.8 0l.8 1.6c0 .1.1.1.2.2l1.6.8c.3.2.3.6 0 .8l-1.6.8c-.1 0-.1.1-.2.2l-.8 1.6c-.2.4-.7.4-.8 0zM46.148 117.954l.5-1.7v-.3l-.5-1.7c-.1-.3.2-.6.5-.5l1.7.5h.3l1.7-.5c.3-.1.6.2.5.5l-.5 1.7v.3l.5 1.7c.1.3-.2.6-.5.5l-1.7-.5h-.3l-1.7.5c-.3.1-.6-.2-.5-.5zM81.448 137.954h-5.4m2.7-2.8v5.5M19.448 152.054l-3.8-3.9m3.8 0l-3.8 3.9M106.307 3.506a1.9 1.9 0 0 1-1.9 1.9 1.9 1.9 0 0 1-1.9-1.9 1.9 1.9 0 0 1 1.9-1.9 1.9 1.9 0 0 1 1.9 1.9zm.841-2.952l-1.5 1.5m-2.725 2.725l-1.5 1.5"/><circle r="1.2" cy="150.754" cx="110.848"/><circle r="1.2" cy="140.654" cx="38.048"/><path d="M3.048 114.754l1.1.6-1.1.6-.7 1.2-.6-1.2-1.2-.6 1.2-.6.6-1.2zM69.648 106.654l-.6 1.2-.7-1.2-1.2-.6 1.2-.6.7-1.2.6 1.2 1.2.6z"/><circle r="1" cy="119.454" cx="81.948"/><circle r="1" cy="170.754" cx="103.948"/><path d="M97.748 115.154h-2.6m1.3-1.3v2.6"/><path d="M92.148 166.554l-.2-.8.2-.9-.8.3-.9-.3.3.9-.3.8.9-.2zM29.348 102.054l-2.3 1.2-1.2 2.3-1.3-2.3-2.2-1.2 2.2-1.3 1.3-2.3 1.2 2.3zM38.048 47.754l2.4.7 2.5-.7-.7 2.4.7 2.5-2.5-.7-2.4.7.7-2.5z"/></g></svg>