<?xml version="1.0" encoding="UTF-8" standalone="no"?>
<svg
   xmlns:dc="http://purl.org/dc/elements/1.1/"
   xmlns:cc="http://creativecommons.org/ns#"
   xmlns:rdf="http://www.w3.org/1999/02/22-rdf-syntax-ns#"
   xmlns:svg="http://www.w3.org/2000/svg"
   xmlns="http://www.w3.org/2000/svg"
   version="1.1"
   id="svg5752"
   viewBox="0 0 42.2971 43.835956"
   height="12.371481mm"
   width="11.937181mm">
  <defs
     id="defs5754" />
  <metadata
     id="metadata5757">
    <rdf:RDF>
      <cc:Work
         rdf:about="">
        <dc:format>image/svg+xml</dc:format>
        <dc:type
           rdf:resource="http://purl.org/dc/dcmitype/StillImage" />
        <dc:title></dc:title>
      </cc:Work>
    </rdf:RDF>
  </metadata>
  <g
     id="moon">
    <path
       style="fill:none;stroke:#dbe8f1;stroke-width:1.09710002;stroke-linecap:round;stroke-linejoin:round;stroke-miterlimit:10"
       stroke-miterlimit="10"
       d="m 39.94855,31.4874 0,0 c 0.1,-0.3 0.2,-0.5 0.3,-0.8 0,0 0,-0.1 0.1,-0.1 0.1,-0.2 0.2,-0.5 0.3,-0.7 0,-0.1 0,-0.1 0.1,-0.2 0.1,-0.2 0.1,-0.5 0.2,-0.7 0,-0.1 0,-0.2 0.1,-0.2 0.1,-0.2 0.1,-0.5 0.2,-0.7 0,-0.1 0,-0.2 0.1,-0.3 0,-0.2 0.1,-0.4 0.1,-0.7 0,-0.1 0,-0.2 0.1,-0.3 0,-0.2 0.1,-0.4 0.1,-0.7 0,-0.1 0,-0.2 0,-0.3 0,-0.2 0.1,-0.4 0.1,-0.7 0,-0.1 0,-0.2 0,-0.3 0,-0.2 0,-0.4 0,-0.7 0,-0.1 0,-0.2 0,-0.3 0,-0.2 0,-0.4 0,-0.6 0,-0.1 0,-0.2 0,-0.3 0,-0.2 0,-0.4 0,-0.6 0,-0.1 0,-0.2 0,-0.3 0,-0.2 0,-0.4 0,-0.7 0,-0.1 0,-0.2 0,-0.3 0,-0.2 0,-0.4 -0.1,-0.7 0,-0.1 0,-0.2 0,-0.2 0,-0.2 -0.1,-0.5 -0.1,-0.7 0,-0.1 0,-0.1 0,-0.2 -0.2,-0.8 -0.4,-1.7 -0.6,-2.5 0,0 0,0 0,-0.1 -0.1,-0.2 -0.1,-0.4 -0.2,-0.6 0,-0.1 -0.1,-0.2 -0.1,-0.3 -0.1,-0.2 -0.1,-0.3 -0.2,-0.5 -0.1,-0.1 -0.1,-0.3 -0.2,-0.4 -0.1,-0.2 -0.1,-0.3 -0.2,-0.5 -0.1,-0.1 -0.1,-0.3 -0.2,-0.4 -0.1,-0.1 -0.2,-0.3 -0.2,-0.4 -0.1,-0.1 -0.1,-0.3 -0.2,-0.4 -0.1,-0.1 -0.2,-0.3 -0.2,-0.4 -0.1,-0.1 -0.2,-0.3 -0.2,-0.4 -0.1,-0.1 -0.2,-0.3 -0.3,-0.4 -0.1,-0.1 -0.2,-0.3 -0.3,-0.4 -0.1,-0.1 -0.2,-0.3 -0.3,-0.4 -0.1,-0.1 -0.2,-0.3 -0.3,-0.4 -0.1,-0.1 -0.2,-0.2 -0.3,-0.4 -0.1,-0.1 -0.2,-0.3 -0.3,-0.4 -0.1,-0.1 -0.2,-0.2 -0.3,-0.4 -0.1,-0.1 -0.2,-0.3 -0.3,-0.4 -0.1,-0.1 -0.2,-0.2 -0.3,-0.3 -0.1,-0.1 -0.2,-0.3 -0.4,-0.4 -0.1,-0.1 -0.2,-0.2 -0.3,-0.3 -0.1,-0.1 -0.3,-0.2 -0.4,-0.4 -0.1,-0.1 -0.2,-0.2 -0.3,-0.3 -0.1,-0.1 -0.3,-0.2 -0.4,-0.4 -0.1,-0.1 -0.2,-0.2 -0.3,-0.3 -0.2,-0.1 -0.3,-0.2 -0.5,-0.4 -0.1,-0.1 -0.2,-0.2 -0.3,-0.2 -0.2,-0.1 -0.4,-0.3 -0.6,-0.4 -0.1,-0.1 -0.2,-0.1 -0.3,-0.2 -0.3,-0.2 -0.6,-0.4 -0.9,-0.5 -0.5,-0.3 -1,-0.5 -1.5,-0.7 -0.1,0 -0.1,-0.1 -0.2,-0.1 0,0 -0.1,0 -0.1,0 0,0 0,0 0,0 -0.5,-0.2 -1,-0.4 -1.5,-0.6 l 0,0 -0.5,-2 c -4.1,-1.8 -8.8,-0.7 -8.8,-0.7 l -1,1.8 0,0 c -5.9,1 -11.3,4.6 -14.5,10.2 -2.3,4.2 -3,8.8 -2.3,13.2 l -0.7,1.2 c 0,0 0.3,3 1.4,4.7 l 1.4,0.4 c 1.2,2.3 2.8,4.3 4.9,6 0,0 0,0 0,0 0.1,0.1 0.2,0.1 0.2,0.2 0.4,0.3 0.7,0.6 1.1,0.9 0.1,0.1 0.3,0.2 0.4,0.3 0.5,0.3 1,0.7 1.6,1 0.4,0.2 0.9,0.5 1.3,0.7 0.1,0 0.2,0.1 0.3,0.1 0.4,0.2 0.9,0.4 1.3,0.5 0.1,0 0.1,0 0.2,0.1 0.4,0.1 0.8,0.3 1.2,0.4 0.1,0 0.2,0.1 0.3,0.1 0.4,0.1 0.9,0.2 1.3,0.3 0.1,0 0.2,0 0.3,0 0.4,0.1 0.8,0.1 1.2,0.2 0.1,0 0.1,0 0.2,0 0.5,0.1 0.9,0.1 1.4,0.1 0.1,0 0.2,0 0.3,0 0.4,0 0.9,0 1.3,0 0,0 0,0 0.1,0 0.5,0 0.9,-0.1 1.4,-0.1 0.1,0 0.2,0 0.3,0 0.5,-0.1 0.9,-0.1 1.4,-0.2 0,0 0.1,0 0.1,0 0.4,-0.1 0.9,-0.2 1.3,-0.3 0.1,0 0.2,0 0.3,-0.1 0.4,-0.1 0.9,-0.3 1.3,-0.4 0.1,0 0.1,0 0.2,-0.1 0.4,-0.1 0.8,-0.3 1.2,-0.5 0.1,0 0.1,0 0.2,-0.1 0.4,-0.2 0.8,-0.4 1.2,-0.6 0.1,0 0.1,-0.1 0.2,-0.1 0.4,-0.2 0.8,-0.4 1.2,-0.7 0,0 0,0 0.1,0 0.4,-0.2 0.8,-0.5 1.2,-0.8 0.1,-0.1 0.1,-0.1 0.2,-0.2 0.4,-0.3 0.8,-0.6 1.1,-0.9 l 0,0 0,0 2,0.7 c 3.1,-2.6 4.6,-6.3 4.6,-6.3 l -1.8,-1.1 0,0 z"
       id="path241" />
    <path
       style="fill:none;stroke:#dbe8f1;stroke-width:1.09710002;stroke-linecap:round;stroke-linejoin:round;stroke-miterlimit:10"
       stroke-miterlimit="10"
       d="m 13.24855,41.7874 c 0,-1.8 1.8,-3.3 4.1,-3.3 2.3,0 4.2,1.4 4.2,3.2"
       id="path243" />
    <path
       style="fill:none;stroke:#dbe8f1;stroke-width:1.09710002;stroke-linecap:round;stroke-linejoin:round;stroke-miterlimit:10"
       stroke-miterlimit="10"
       d="m 30.64855,33.5874 c -0.7,0.3 -1.4,0.3 -1.7,0 -0.6,-0.6 -0.1,-2 1,-3.2 1.2,-1.2 2.6,-1.6 3.2,-1 0.3,0.3 0.3,0.8 0.1,1.4"
       id="path245" />
    <path
       style="fill:none;stroke:#dbe8f1;stroke-width:1.09710002;stroke-linecap:round;stroke-linejoin:round;stroke-miterlimit:10"
       stroke-miterlimit="10"
       d="m 33.54855,16.5874 c 0.3,1.6 -0.4,3.4 -1.9,4.3"
       id="path247" />
    <path
       style="fill:none;stroke:#dbe8f1;stroke-width:1.09710002;stroke-linecap:round;stroke-linejoin:round;stroke-miterlimit:10"
       stroke-miterlimit="10"
       d="m 28.14855,21.2874 c -0.9,-0.3 -1.7,-0.9 -2.2,-1.8 -1.2,-1.9 -0.6,-4.5 1.4,-5.7 1.5,-0.9 3.3,-0.8 4.6,0.2"
       id="path249" />
    <path
       style="fill:none;stroke:#dbe8f1;stroke-width:1.09710002;stroke-linecap:round;stroke-linejoin:round;stroke-miterlimit:10"
       stroke-miterlimit="10"
       d="m 7.74855,31.7874 c 0.1,-0.8 0.7,-1.5 1.5,-1.7 1.1,-0.2 2.1,0.5 2.4,1.7 0.3,1.2 -0.4,2.3 -1.5,2.5 -0.5,0.1 -1.1,0 -1.5,-0.3"
       id="path251" />
    <path
       style="fill:none;stroke:#dbe8f1;stroke-width:1.09710002;stroke-linecap:round;stroke-linejoin:round;stroke-miterlimit:10"
       stroke-miterlimit="10"
       d="m 37.74855,23.7874 c -0.6,0.2 -1.2,-0.4 -1.4,-1.2 -0.2,-0.8 0.1,-1.6 0.6,-1.7"
       id="path253" />
    <ellipse
       style="fill:none;stroke:#dbe8f1;stroke-width:1.09710002;stroke-linecap:round;stroke-linejoin:round;stroke-miterlimit:10"
       transform="matrix(0.70710678,-0.70710678,0.70710678,0.70710678,0,0)"
       stroke-miterlimit="10"
       cx="-4.3662109"
       cy="16.677904"
       rx="2.5999749"
       ry="1.5999846"
       id="ellipse255" />
    <path
       style="fill:none;stroke:#dbe8f1;stroke-width:1.09710002;stroke-linecap:round;stroke-linejoin:round;stroke-miterlimit:10"
       stroke-miterlimit="10"
       d="m 15.04855,21.4874 c 1.9,-1.9 5,-1.9 6.9,0 1.9,1.9 1.9,5 0,6.9 -1.9,1.9 -5,1.9 -6.9,0"
       id="path257" />
    <path
       style="fill:none;stroke:#dbe8f1;stroke-width:1.09710002;stroke-linecap:round;stroke-linejoin:round;stroke-miterlimit:10"
       stroke-miterlimit="10"
       d="m 13.64855,24.8874 c 0,-0.3 0,-0.6 0.1,-0.9"
       id="path259" />
    <path
       style="fill:none;stroke:#dbe8f1;stroke-width:1.09710002;stroke-linecap:round;stroke-linejoin:round;stroke-miterlimit:10"
       stroke-miterlimit="10"
       d="m 24.34855,5.3874 c -1.1,0.8 -2.6,0.7 -3.5,-0.4"
       id="path261" />
  </g>
</svg>
